<svg width="1365" height="932" viewBox="0 0 1365 932" fill="none" xmlns="http://www.w3.org/2000/svg">
<path d="M1298.31 904.557L1296.85 925.016C1287.28 929.832 1276.69 932.224 1266 931.983C1281.04 920.272 1279.84 896.865 1290.26 880.845C1293.55 875.874 1297.9 871.712 1303.01 868.667C1308.11 865.622 1313.83 863.772 1319.73 863.254L1332.25 856C1333.69 865.534 1333.05 875.267 1330.39 884.528C1327.73 893.79 1323.1 902.361 1316.83 909.649C1313.28 913.703 1309.23 917.29 1304.78 920.324C1302.04 912.411 1298.31 904.557 1298.31 904.557Z" fill="#F2F2F2"/>
<path d="M902.715 764H467.5H32.2846C31.6787 764 31.0976 763.947 30.6691 763.854C30.2407 763.76 30 763.633 30 763.5C30 763.367 30.2407 763.24 30.6691 763.146C31.0976 763.053 31.6787 763 32.2846 763H467.5H902.715C903.321 763 903.902 763.053 904.331 763.146C904.759 763.24 905 763.367 905 763.5C905 763.633 904.759 763.76 904.331 763.854C903.902 763.947 903.321 764 902.715 764Z" fill="#CACACA"/>
<path d="M1070.79 789.48C1065.23 752.901 1073.48 713.395 1096.91 695.127C1095.79 734.506 1105.96 774.83 1125.62 808.964C1133.24 822.099 1142.72 835.876 1142.51 851.104C1142.38 860.58 1138.29 868.834 1132.88 874.715C1127.47 880.597 1120.78 884.435 1114.18 888.21L1113.16 890.057C1093.58 859.995 1076.36 826.059 1070.79 789.48Z" fill="#F0F0F0"/>
<path d="M1097.36 695.733C1087.61 721.827 1085.11 752.141 1090.2 782.369C1091.21 788.887 1093.02 795.29 1095.56 801.343C1098.18 807.162 1101.92 812.181 1106.39 815.879C1110.51 819.425 1115 822.499 1118.48 827.142C1120.24 829.547 1121.61 832.331 1122.51 835.311C1123.41 838.291 1123.82 841.4 1123.71 844.434C1123.58 852.027 1121.26 858.776 1118.8 865.247C1116.06 872.433 1113.12 879.828 1113.35 888.383C1113.38 889.42 1112.09 889.215 1112.06 888.18C1111.67 873.295 1120.23 862.624 1122.08 848.663C1122.95 842.148 1122.2 835.025 1118.42 829.332C1115.11 824.353 1110.48 821.178 1106.28 817.63C1101.89 814.096 1098.12 809.365 1095.31 803.849C1092.55 797.941 1090.55 791.606 1089.42 785.115C1086.67 770.525 1085.74 755.764 1086.65 741.372C1087.62 724.928 1090.87 709.159 1096.25 694.748C1096.58 693.856 1097.69 694.847 1097.36 695.733Z" fill="white"/>
<path d="M1088.1 772.689C1084.01 772.456 1079.94 770.405 1076.61 766.904C1073.29 763.402 1070.93 758.678 1069.96 753.574C1069.77 752.541 1071.01 752.31 1071.21 753.344C1072.11 758.098 1074.3 762.498 1077.4 765.752C1080.5 769.005 1084.3 770.897 1088.11 771.086C1088.94 771.128 1088.93 772.731 1088.1 772.689Z" fill="white"/>
<path d="M1104.12 814.405C1109.64 807.392 1112.58 797.689 1112.34 787.231C1112.31 786.195 1113.6 786.4 1113.63 787.435C1113.86 798.316 1110.79 808.403 1105.03 815.683C1104.49 816.376 1103.58 815.095 1104.12 814.405Z" fill="white"/>
<path d="M1089.13 726.146C1090.73 726.65 1092.37 726.658 1093.89 726.168C1095.4 725.679 1096.75 724.707 1097.81 723.341C1098.35 722.638 1099.25 723.92 1098.72 724.619C1097.54 726.12 1096.05 727.191 1094.38 727.736C1092.71 728.282 1090.9 728.287 1089.12 727.749C1088.95 727.716 1088.79 727.604 1088.67 727.436C1088.55 727.268 1088.48 727.057 1088.48 726.846C1088.48 726.634 1088.55 726.441 1088.67 726.31C1088.79 726.179 1088.95 726.12 1089.13 726.146Z" fill="white"/>
<path d="M1193.35 738.655C1193.02 739.108 1192.69 739.56 1192.37 740.026C1188.01 746.143 1184.1 752.757 1180.67 759.804C1180.4 760.342 1180.13 760.894 1179.88 761.443C1171.79 778.554 1166.51 797.799 1164.31 818.202C1163.45 826.322 1163.08 834.591 1163.23 842.934C1163.44 854.458 1164.4 867.044 1161.62 877.213C1161.34 878.279 1161 879.315 1160.61 880.313L1115.2 891.763C1115.08 891.722 1114.97 891.694 1114.85 891.654L1113.06 892.218C1113.03 891.784 1113 891.335 1112.97 890.902C1112.95 890.651 1112.94 890.397 1112.92 890.145C1112.91 889.977 1112.9 889.808 1112.89 889.656C1112.88 889.6 1112.88 889.543 1112.88 889.501C1112.86 889.348 1112.86 889.206 1112.85 889.067C1112.7 886.556 1112.57 884.042 1112.45 881.524C1112.44 881.51 1112.44 881.51 1112.45 881.494C1111.38 862.295 1112.14 843.285 1114.7 824.86C1114.78 824.313 1114.86 823.752 1114.96 823.199C1116.23 815.009 1118.06 807.045 1120.41 799.388C1121.71 795.202 1123.18 791.128 1124.83 787.181C1129.11 776.995 1134.74 767.919 1141.5 760.284C1154.99 745.067 1172.77 736.056 1191.89 738.454C1192.37 738.516 1192.85 738.58 1193.35 738.655Z" fill="#F0F0F0"/>
<path d="M1193.44 739.423C1172.29 750.927 1155.41 770.988 1145.21 796.756C1142.93 802.242 1141.4 808.253 1140.68 814.569C1140.15 820.774 1140.98 827.25 1143.09 833.324C1144.97 839.024 1147.4 844.661 1148.18 850.668C1148.55 853.744 1148.4 856.804 1147.74 859.646C1147.08 862.489 1145.93 865.05 1144.36 867.161C1140.57 872.567 1135.27 875.694 1129.99 878.513C1124.12 881.642 1117.97 884.769 1114.02 891.138C1113.55 891.91 1112.52 890.781 1113 890.011C1119.87 878.93 1132.51 877.703 1140.89 868.992C1144.8 864.927 1147.6 859.201 1147.06 852.203C1146.59 846.084 1144.09 840.269 1142.15 834.512C1140.02 828.614 1139.03 822.327 1139.26 816.2C1139.71 809.82 1141.04 803.716 1143.19 798.15C1147.87 785.497 1154.21 774.094 1161.98 764.36C1170.79 753.181 1181.26 744.22 1192.94 737.865C1193.67 737.472 1194.15 739.033 1193.44 739.423Z" fill="white"/>
<path d="M1148.07 788.158C1144.62 784.881 1142.06 780.304 1140.85 775.244C1139.65 770.184 1139.88 764.97 1141.51 760.535C1141.84 759.639 1143.04 760.417 1142.71 761.314C1141.19 765.44 1140.97 770.297 1142.1 775.007C1143.23 779.717 1145.62 783.971 1148.85 787.001C1149.56 787.66 1148.77 788.814 1148.07 788.158Z" fill="white"/>
<path d="M1141.84 830.546C1150.06 829.655 1157.32 824.852 1162.18 817.095C1162.66 816.326 1163.69 817.454 1163.21 818.222C1158.13 826.281 1150.57 831.259 1142.02 832.162C1141.2 832.247 1141.03 830.631 1141.84 830.546Z" fill="white"/>
<path d="M1171.53 755.213C1172.69 756.8 1174.12 758.048 1175.67 758.844C1177.23 759.639 1178.88 759.959 1180.47 759.773C1181.28 759.674 1181.45 761.291 1180.64 761.389C1178.89 761.584 1177.07 761.228 1175.34 760.354C1173.62 759.479 1172.04 758.112 1170.75 756.371C1170.62 756.218 1170.53 756.015 1170.51 755.802C1170.49 755.59 1170.53 755.385 1170.63 755.228C1170.73 755.076 1170.89 754.989 1171.05 754.986C1171.22 754.983 1171.4 755.065 1171.53 755.213Z" fill="white"/>
<path d="M777.993 680.087C777.908 706.881 776.103 733.641 772.588 760.202C772.465 761.134 772.33 762.067 772.207 763H522.317C521.578 762.078 520.851 761.145 520.146 760.202C517.795 757.077 515.591 753.863 513.565 750.537C503.828 734.512 499.307 715.711 503.66 702.698L503.739 702.496C504.678 699.646 506.169 697.011 508.126 694.741C518.153 683.279 538.567 685.066 557.134 694.168C540.425 676.008 527.073 653.049 525.954 632.495C524.857 612.447 535.221 598.063 546.48 585.825C546.849 585.42 547.219 585.027 547.588 584.634C547.767 584.431 547.957 584.24 548.136 584.038C556.922 574.711 567.174 565.507 582.092 566.53C598.454 567.653 616.664 581.307 629.467 597.265C642.271 613.211 650.821 631.36 659.483 649.071C668.157 666.771 677.536 684.92 691.38 700.012C672.611 676.446 657.435 649.599 651.739 623.438C646.042 597.276 650.787 572.092 667.329 559.663C672.351 556.005 678.173 553.609 684.307 552.673C685.023 552.55 685.75 552.449 686.489 552.359C701.855 550.516 720.244 555.753 735.935 568.429C753.215 582.386 765.257 603.154 771.301 622.898C777.344 642.643 778.082 661.68 777.993 680.087Z" fill="#F2F2F2"/>
<path d="M788.002 733.529C788.033 743.053 788.674 752.565 789.922 762.005C789.965 762.337 790.013 762.668 790.057 763L878.786 763C879.048 762.672 879.307 762.341 879.557 762.005C880.391 760.895 881.174 759.752 881.894 758.57C885.351 752.874 886.956 746.191 885.41 741.566L885.383 741.494C885.049 740.481 884.52 739.544 883.825 738.738C880.264 734.663 873.016 735.298 866.423 738.534C872.356 732.079 877.097 723.918 877.495 716.612C877.884 709.486 874.204 704.373 870.206 700.023C870.075 699.879 869.944 699.74 869.813 699.6C869.749 699.528 869.682 699.46 869.618 699.388C866.499 696.073 862.859 692.801 857.561 693.165C851.752 693.564 845.286 698.417 840.74 704.09C836.194 709.758 833.158 716.209 830.082 722.504C827.002 728.795 823.672 735.246 818.756 740.611C825.421 732.235 830.809 722.692 832.832 713.393C834.855 704.094 833.17 695.142 827.296 690.724C825.513 689.424 823.446 688.572 821.268 688.239C821.014 688.196 820.755 688.16 820.493 688.128C815.037 687.473 808.508 689.334 802.936 693.84C796.801 698.801 792.525 706.183 790.379 713.201C788.233 720.219 787.971 726.986 788.002 733.529Z" fill="#F2F2F2"/>
<path d="M182 891.102C183.215 883.66 183.844 876.135 183.88 868.595C188.838 659.387 324.06 520.256 547.494 493.487C581.684 489.224 615.874 489.565 650.064 486.837C687.845 483.768 725.967 481.722 763.234 475.584C814.519 467.229 848.71 442.677 852.812 385.217C853.717 362.419 859.548 340.086 869.908 319.744C888.028 287.689 871.788 272.173 846.829 260.238C787.509 231.934 727.163 206.018 668.014 177.032C638.009 164.034 610.03 146.808 584.932 125.881C570.059 111.9 547.665 95.8724 558.947 64.6702C570.23 33.468 601.514 39.0946 618.609 43.3572C692.336 60.1356 764.551 82.9467 834.521 111.559C889.396 135.259 937.091 175.839 988.377 207.723C1001.21 216.702 1016.32 221.901 1031.97 222.727C1057.4 220.869 1082.94 224.474 1106.86 233.298C1130.77 242.122 1152.51 255.96 1170.61 273.878C1225.68 328.017 1277.95 384.926 1327.2 444.382C1377.12 505.934 1370.28 557.596 1305.15 602.609C1265.66 629.89 1217.45 644.553 1173.69 666.037C1160.38 670.738 1148.85 679.434 1140.69 690.93C1126.51 718.959 1116.65 748.966 1111.46 779.933C1107 817.787 1106.03 855.969 1108.56 894" stroke="#6656FF" stroke-width="9"/>
<path d="M72.0922 716.384C70.1518 700.782 60.4821 685.408 45.6018 680.331C51.4701 696.39 51.4689 714.008 45.5982 730.067C43.3116 736.252 40.1245 742.893 42.2753 749.126C43.6134 753.005 46.8872 755.973 50.5465 757.828C54.2061 759.684 58.2674 760.568 62.278 761.435L63.0672 762.087C69.4339 747.711 74.0325 731.987 72.0922 716.384Z" fill="#F0F0F0"/>
<path d="M45.452 680.626C54.1176 690.335 59.5036 702.528 60.8448 715.473C61.183 718.255 61.0806 721.072 60.5415 723.822C59.9297 726.484 58.6164 728.933 56.7379 730.915C55.0236 732.799 53.0519 734.527 51.8252 736.795C51.2146 737.965 50.8581 739.25 50.7793 740.568C50.7004 741.885 50.901 743.204 51.3678 744.439C52.4508 747.545 54.5852 750.077 56.7587 752.48C59.1718 755.149 61.7207 757.882 62.7464 761.42C62.8707 761.849 63.5285 761.631 63.4044 761.203C61.6197 755.048 55.6449 751.552 52.7954 746.008C51.4658 743.421 50.9078 740.418 52.1542 737.687C53.2442 735.299 55.2759 733.516 57.0282 731.623C58.8891 729.716 60.2546 727.383 61.0057 724.826C61.6831 722.113 61.8938 719.304 61.6289 716.52C61.1323 710.243 59.6518 704.082 57.2416 698.265C54.5277 691.61 50.6954 685.468 45.9105 680.106C45.6142 679.774 45.1577 680.296 45.452 680.626Z" fill="white"/>
<path d="M60.6579 711.28C62.7992 710.76 64.686 709.496 65.9813 707.713C67.2766 705.931 67.8961 703.746 67.7291 701.548C67.6938 701.104 67.0015 701.138 67.0369 701.583C67.1961 703.629 66.6189 705.664 65.4093 707.321C64.1997 708.979 62.4374 710.149 60.4406 710.622C60.0068 710.725 60.2265 711.382 60.6579 711.28Z" fill="white"/>
<path d="M57.7375 730.075C53.87 727.765 51.015 724.083 49.7417 719.763C49.6159 719.335 48.9581 719.552 49.0838 719.98C50.4171 724.474 53.396 728.3 57.4258 730.694C57.8101 730.922 58.1196 730.301 57.7375 730.075Z" fill="white"/>
<path d="M53.8856 692.266C53.099 692.64 52.2319 692.813 51.3621 692.769C50.4923 692.724 49.6471 692.465 48.9024 692.013C48.5212 691.781 48.212 692.401 48.5907 692.632C49.4158 693.127 50.3496 693.413 51.3105 693.464C52.2714 693.515 53.2301 693.329 54.1029 692.924C54.1884 692.893 54.2587 692.83 54.2996 692.749C54.3406 692.668 54.349 692.574 54.3232 692.487C54.294 692.4 54.2317 692.328 54.1498 692.287C54.0678 692.245 53.9729 692.238 53.8856 692.266Z" fill="white"/>
<path d="M0.244171 708.199C0.47805 708.351 0.711937 708.503 0.946106 708.661C4.07993 710.722 7.04115 713.034 9.80057 715.574C10.017 715.767 10.2335 715.966 10.4439 716.165C17.0267 722.356 22.4029 729.715 26.2992 737.869C27.8466 741.115 29.1449 744.474 30.1827 747.916C31.6157 752.671 32.7911 757.941 35.6277 761.83C35.9191 762.239 36.2355 762.63 36.5752 763H62.2094C62.2676 762.971 62.3262 762.947 62.3847 762.918L63.4082 762.965C63.3671 762.783 63.3205 762.596 63.2794 762.415C63.256 762.31 63.2269 762.204 63.2034 762.099C63.186 762.029 63.1683 761.959 63.1566 761.894C63.1508 761.871 63.1449 761.848 63.1392 761.83C63.1275 761.766 63.1097 761.707 63.098 761.649C62.8407 760.602 62.5756 759.555 62.3027 758.508C62.3027 758.502 62.3027 758.502 62.297 758.496C60.2937 750.499 57.3489 742.768 53.5242 735.465C53.4071 735.249 53.2903 735.026 53.1615 734.81C51.3905 731.577 49.3581 728.494 47.0848 725.593C45.8349 724.008 44.5056 722.487 43.102 721.037C39.4679 717.296 35.2681 714.15 30.6564 711.714C21.4624 706.86 10.8183 705 0.992615 707.965C0.741356 708.041 0.495472 708.117 0.244171 708.199Z" fill="#F0F0F0"/>
<path d="M0.299828 708.525C13.0646 711.06 24.7061 717.553 33.5707 727.081C35.5155 729.098 37.1301 731.409 38.3551 733.93C39.4691 736.423 39.8951 739.169 39.5888 741.883C39.354 744.419 38.8202 746.986 39.206 749.535C39.4228 750.837 39.9124 752.078 40.6426 753.178C41.3728 754.277 42.3272 755.21 43.4431 755.914C46.178 757.742 49.4066 758.479 52.589 759.089C56.1223 759.767 59.8032 760.415 62.7521 762.622C63.1094 762.889 63.5035 762.319 63.1467 762.052C58.016 758.212 51.1405 759.018 45.5277 756.307C42.9087 755.042 40.655 752.98 40.0062 750.05C39.4388 747.487 39.9871 744.839 40.247 742.274C40.5846 739.631 40.27 736.945 39.3305 734.452C38.2377 731.878 36.7148 729.508 34.827 727.444C30.6511 722.731 25.7601 718.704 20.3331 715.51C14.1596 711.831 7.40213 709.234 0.353111 707.834C-0.08321 707.747 -0.133652 708.439 0.299828 708.525Z" fill="white"/>
<path d="M30.9013 723.845C32.298 722.14 33.0434 719.995 33.0044 717.792C32.9654 715.589 32.1445 713.471 30.6884 711.817C30.3926 711.484 29.8603 711.928 30.1564 712.262C31.5153 713.799 32.2797 715.772 32.3118 717.824C32.344 719.875 31.6416 721.871 30.3316 723.45C30.0473 723.794 30.6186 724.186 30.9013 723.845Z" fill="white"/>
<path d="M39.8788 740.613C35.4005 741.098 30.9041 739.877 27.2861 737.193C26.9278 736.927 26.5337 737.497 26.8915 737.763C30.6617 740.548 35.3435 741.809 40.0025 741.295C40.4465 741.245 40.3204 740.564 39.8788 740.613Z" fill="white"/>
<path d="M14.0429 712.742C13.6399 713.514 13.0514 714.174 12.3304 714.662C11.6093 715.15 10.7782 715.452 9.91178 715.54C9.46733 715.584 9.59403 716.265 10.0356 716.222C10.9924 716.12 11.9098 715.786 12.7077 715.248C13.5056 714.71 14.1596 713.985 14.6126 713.136C14.662 713.06 14.6804 712.967 14.6642 712.878C14.6479 712.788 14.5982 712.708 14.525 712.654C14.4493 712.602 14.3563 712.582 14.266 712.599C14.1757 712.615 14.0955 712.667 14.0429 712.742Z" fill="white"/>
<path d="M57.112 70H39.336V26.792H23.584V11.304H72.776V26.792H57.112V70ZM123.616 70H79.0879V11.304H123.616V26.792H96.8639V32.6H123V48.088H96.8639V54.512H123.616V70ZM184.046 70H163.806L155.71 51.52H149.286V70H131.51V11.304H162.838C176.566 11.304 183.958 20.456 183.958 31.456C183.958 41.576 178.062 46.944 173.398 49.232L184.046 70ZM160.11 36.032C163.102 36.032 165.918 34.624 165.918 31.368C165.918 28.2 163.102 26.792 160.11 26.792H149.286V36.032H160.11ZM243.686 70H223.446L215.35 51.52H208.926V70H191.15V11.304H222.478C236.206 11.304 243.598 20.456 243.598 31.456C243.598 41.576 237.702 46.944 233.038 49.232L243.686 70ZM219.75 36.032C222.742 36.032 225.558 34.624 225.558 31.368C225.558 28.2 222.742 26.792 219.75 26.792H208.926V36.032H219.75ZM310.103 70H289.951L287.839 63.136H266.719L264.607 70H244.455L266.103 11.304H288.455L310.103 70ZM283.087 47.648L277.279 28.728L271.471 47.648H283.087ZM350.14 70H313.268V11.304H348.908C361.052 11.304 366.332 19.4 366.332 26.264C366.332 33.568 362.02 38.496 356.3 39.728C362.636 40.696 367.476 46.504 367.476 54.072C367.476 62.256 361.932 70 350.14 70ZM344.772 32.952C346.62 32.952 348.292 31.544 348.292 29.432C348.292 27.408 346.62 26.088 344.772 26.088H331.044V32.952H344.772ZM345.3 55.216C347.852 55.216 349.436 53.72 349.436 51.52C349.436 49.408 347.852 47.736 345.3 47.736H331.044V55.216H345.3ZM411.499 70H374.627V11.304H410.267C422.411 11.304 427.691 19.4 427.691 26.264C427.691 33.568 423.379 38.496 417.659 39.728C423.995 40.696 428.835 46.504 428.835 54.072C428.835 62.256 423.291 70 411.499 70ZM406.131 32.952C407.979 32.952 409.651 31.544 409.651 29.432C409.651 27.408 407.979 26.088 406.131 26.088H392.403V32.952H406.131ZM406.659 55.216C409.211 55.216 410.795 53.72 410.795 51.52C410.795 49.408 409.211 47.736 406.659 47.736H392.403V55.216H406.659ZM453.762 70H435.986V11.304H453.762V70ZM493.589 70H475.813V26.792H460.061V11.304H509.253V26.792H493.589V70ZM525.157 40.168H518.645C518.645 40.168 513.805 20.544 513.805 18.52C513.805 14.032 517.501 10.424 521.901 10.424C526.301 10.424 529.997 14.032 529.997 18.52C529.997 20.544 525.157 40.168 525.157 40.168ZM560.528 71.056C548.032 71.056 539.496 67.36 533.248 61.728L542.488 48.528C546.888 52.752 553.488 56.096 561.408 56.096C564.752 56.096 567.92 55.216 567.92 52.928C567.92 47.296 535.184 53.016 535.184 29.872C535.184 19.928 543.456 10.424 559.56 10.424C569.152 10.424 577.776 13.152 584.464 18.608L574.96 31.192C569.856 27.32 563.256 25.384 557.712 25.384C554.192 25.384 553.224 26.528 553.224 28.024C553.224 33.568 585.872 28.816 585.872 50.64C585.872 63.576 576.28 71.056 560.528 71.056ZM96.448 158H78.672V122.712L65.56 158H57.64L44.528 122.712V158H26.752V99.304H51.304L61.6 127.464L71.896 99.304H96.448V158ZM123.762 158H105.986V99.304H123.762V158ZM156.021 159.056C143.525 159.056 134.989 155.36 128.741 149.728L137.981 136.528C142.381 140.752 148.981 144.096 156.901 144.096C160.245 144.096 163.413 143.216 163.413 140.928C163.413 135.296 130.677 141.016 130.677 117.872C130.677 107.928 138.949 98.424 155.053 98.424C164.645 98.424 173.269 101.152 179.957 106.608L170.453 119.192C165.349 115.32 158.749 113.384 153.205 113.384C149.685 113.384 148.717 114.528 148.717 116.024C148.717 121.568 181.365 116.816 181.365 138.64C181.365 151.576 171.773 159.056 156.021 159.056ZM209.989 159.056C197.493 159.056 188.957 155.36 182.709 149.728L191.949 136.528C196.349 140.752 202.949 144.096 210.869 144.096C214.213 144.096 217.381 143.216 217.381 140.928C217.381 135.296 184.645 141.016 184.645 117.872C184.645 107.928 192.917 98.424 209.021 98.424C218.613 98.424 227.237 101.152 233.925 106.608L224.421 119.192C219.317 115.32 212.717 113.384 207.173 113.384C203.653 113.384 202.685 114.528 202.685 116.024C202.685 121.568 235.333 116.816 235.333 138.64C235.333 151.576 225.741 159.056 209.989 159.056ZM258.942 158H241.166V99.304H258.942V158ZM297.36 159.056C279.232 159.056 265.24 146.736 265.24 128.696C265.24 110.656 279.232 98.336 297.36 98.336C315.488 98.336 329.48 110.656 329.48 128.696C329.48 146.736 315.488 159.056 297.36 159.056ZM297.36 143.392C305.896 143.392 311.44 136.88 311.44 128.696C311.44 120.512 305.896 114 297.36 114C288.824 114 283.28 120.512 283.28 128.696C283.28 136.88 288.824 143.392 297.36 143.392ZM392.279 158H375.207L353.559 128.256V158H335.783V99.304H354.087L374.503 127.112V99.304H392.279V158ZM441.989 158H424.213V99.304H441.989V158ZM474.247 159.056C461.751 159.056 453.215 155.36 446.967 149.728L456.207 136.528C460.607 140.752 467.207 144.096 475.127 144.096C478.471 144.096 481.639 143.216 481.639 140.928C481.639 135.296 448.903 141.016 448.903 117.872C448.903 107.928 457.175 98.424 473.279 98.424C482.871 98.424 491.495 101.152 498.183 106.608L488.679 119.192C483.575 115.32 476.975 113.384 471.431 113.384C467.911 113.384 466.943 114.528 466.943 116.024C466.943 121.568 499.591 116.816 499.591 138.64C499.591 151.576 489.999 159.056 474.247 159.056ZM558.214 158H540.438V114.792H524.686V99.304H573.878V114.792H558.214V158ZM607.423 159.056C589.295 159.056 575.303 146.736 575.303 128.696C575.303 110.656 589.295 98.336 607.423 98.336C625.551 98.336 639.543 110.656 639.543 128.696C639.543 146.736 625.551 159.056 607.423 159.056ZM607.423 143.392C615.959 143.392 621.503 136.88 621.503 128.696C621.503 120.512 615.959 114 607.423 114C598.887 114 593.343 120.512 593.343 128.696C593.343 136.88 598.887 143.392 607.423 143.392ZM86.064 246H65.912L63.8 239.136H42.68L40.568 246H20.416L42.064 187.304H64.416L86.064 246ZM59.048 223.648L53.24 204.728L47.432 223.648H59.048ZM115.693 247.056C97.3005 247.056 83.3965 234.736 83.3965 216.696C83.3965 198.568 97.3005 186.336 115.693 186.336C131.093 186.336 138.837 195.312 142.357 203.408L127.044 210.536C125.549 205.96 120.973 202 115.693 202C107.157 202 101.437 208.512 101.437 216.696C101.437 224.88 107.157 231.392 115.693 231.392C120.973 231.392 125.549 227.432 127.044 222.856L142.357 229.896C138.925 237.728 131.093 247.056 115.693 247.056ZM177.052 247.056C158.66 247.056 144.756 234.736 144.756 216.696C144.756 198.568 158.66 186.336 177.052 186.336C192.452 186.336 200.196 195.312 203.716 203.408L188.404 210.536C186.908 205.96 182.332 202 177.052 202C168.516 202 162.796 208.512 162.796 216.696C162.796 224.88 168.516 231.392 177.052 231.392C182.332 231.392 186.908 227.432 188.404 222.856L203.716 229.896C200.284 237.728 192.452 247.056 177.052 247.056ZM253.811 246H209.283V187.304H253.811V202.792H227.059V208.6H253.195V224.088H227.059V230.512H253.811V246ZM301.745 246H261.705V187.304H279.481V230.512H301.745V246ZM353.413 246H308.885V187.304H353.413V202.792H326.661V208.6H352.797V224.088H326.661V230.512H353.413V246ZM413.843 246H393.603L385.507 227.52H379.083V246H361.307V187.304H392.635C406.363 187.304 413.755 196.456 413.755 207.456C413.755 217.576 407.859 222.944 403.195 225.232L413.843 246ZM389.907 212.032C392.899 212.032 395.715 210.624 395.715 207.368C395.715 204.2 392.899 202.792 389.907 202.792H379.083V212.032H389.907ZM480.259 246H460.107L457.995 239.136H436.875L434.763 246H414.611L436.259 187.304H458.611L480.259 246ZM453.243 223.648L447.435 204.728L441.627 223.648H453.243ZM508.542 246H490.766V202.792H475.014V187.304H524.206V202.792H508.542V246ZM575.046 246H530.518V187.304H575.046V202.792H548.294V208.6H574.43V224.088H548.294V230.512H575.046V246ZM635.729 246H617.953V202.792H602.201V187.304H651.393V202.792H635.729V246ZM714.289 246H696.513V223.56H675.481V246H657.705V187.304H675.481V208.072H696.513V187.304H714.289V246ZM768.319 246H723.791V187.304H768.319V202.792H741.567V208.6H767.703V224.088H741.567V230.512H768.319V246ZM90.2 334H71.544L63.976 300.736L56.408 334H37.752L20.944 275.304H40.832L48.4 311.208L57.288 275.304H70.664L79.552 311.208L87.032 275.304H107.008L90.2 334ZM137.946 335.056C119.818 335.056 105.826 322.736 105.826 304.696C105.826 286.656 119.818 274.336 137.946 274.336C156.074 274.336 170.066 286.656 170.066 304.696C170.066 322.736 156.074 335.056 137.946 335.056ZM137.946 319.392C146.482 319.392 152.026 312.88 152.026 304.696C152.026 296.512 146.482 290 137.946 290C129.41 290 123.866 296.512 123.866 304.696C123.866 312.88 129.41 319.392 137.946 319.392ZM228.905 334H208.665L200.569 315.52H194.145V334H176.369V275.304H207.697C221.425 275.304 228.817 284.456 228.817 295.456C228.817 305.576 222.921 310.944 218.257 313.232L228.905 334ZM204.969 300.032C207.961 300.032 210.777 298.624 210.777 295.368C210.777 292.2 207.961 290.792 204.969 290.792H194.145V300.032H204.969ZM276.05 334H236.01V275.304H253.786V318.512H276.05V334ZM309.502 334H283.19V275.304H309.414C327.894 275.304 341.622 285.864 341.622 304.608C341.622 323.352 327.894 334 309.502 334ZM309.414 318.512C318.302 318.512 323.582 312 323.582 304.608C323.582 296.688 319.006 290.792 309.502 290.792H300.966V318.512H309.414ZM364.727 285.776C364.727 293.52 360.591 300.296 353.727 305.136L347.303 299.944C350.119 298.712 354.167 294.84 355.311 291.496C354.871 291.672 353.991 291.848 353.023 291.848C348.799 291.848 345.367 288.592 345.367 283.664C345.367 278.56 349.591 274.424 354.519 274.424C359.887 274.424 364.727 278.56 364.727 285.776ZM394.669 335.056C382.173 335.056 373.637 331.36 367.389 325.728L376.629 312.528C381.029 316.752 387.629 320.096 395.549 320.096C398.893 320.096 402.061 319.216 402.061 316.928C402.061 311.296 369.325 317.016 369.325 293.872C369.325 283.928 377.597 274.424 393.701 274.424C403.293 274.424 411.917 277.152 418.605 282.608L409.101 295.192C403.997 291.32 397.397 289.384 391.853 289.384C388.333 289.384 387.365 290.528 387.365 292.024C387.365 297.568 420.013 292.816 420.013 314.64C420.013 327.576 410.421 335.056 394.669 335.056ZM57.112 422H39.336V378.792H23.584V363.304H72.776V378.792H57.112V422ZM131.624 422H111.384L103.288 403.52H96.8639V422H79.0879V363.304H110.416C124.144 363.304 131.536 372.456 131.536 383.456C131.536 393.576 125.64 398.944 120.976 401.232L131.624 422ZM107.688 388.032C110.68 388.032 113.496 386.624 113.496 383.368C113.496 380.2 110.68 378.792 107.688 378.792H96.8639V388.032H107.688ZM198.041 422H177.889L175.777 415.136H154.657L152.545 422H132.393L154.041 363.304H176.393L198.041 422ZM171.025 399.648L165.217 380.728L159.409 399.648H171.025ZM257.701 422H240.629L218.981 392.256V422H201.205V363.304H219.509L239.925 391.112V363.304H257.701V422ZM289.997 423.056C277.501 423.056 268.965 419.36 262.717 413.728L271.957 400.528C276.357 404.752 282.957 408.096 290.877 408.096C294.221 408.096 297.389 407.216 297.389 404.928C297.389 399.296 264.653 405.016 264.653 381.872C264.653 371.928 272.925 362.424 289.029 362.424C298.621 362.424 307.245 365.152 313.933 370.608L304.429 383.192C299.325 379.32 292.725 377.384 287.181 377.384C283.661 377.384 282.693 378.528 282.693 380.024C282.693 385.568 315.341 380.816 315.341 402.64C315.341 415.576 305.749 423.056 289.997 423.056ZM338.95 422H321.174V363.304H338.95V422ZM378.776 422H361V378.792H345.248V363.304H394.44V378.792H378.776V422ZM418.528 422H400.752V363.304H418.528V422ZM456.946 423.056C438.818 423.056 424.826 410.736 424.826 392.696C424.826 374.656 438.818 362.336 456.946 362.336C475.074 362.336 489.066 374.656 489.066 392.696C489.066 410.736 475.074 423.056 456.946 423.056ZM456.946 407.392C465.482 407.392 471.026 400.88 471.026 392.696C471.026 384.512 465.482 378 456.946 378C448.41 378 442.866 384.512 442.866 392.696C442.866 400.88 448.41 407.392 456.946 407.392ZM551.865 422H534.793L513.145 392.256V422H495.369V363.304H513.673L534.089 391.112V363.304H551.865V422ZM57.112 510H39.336V466.792H23.584V451.304H72.776V466.792H57.112V510ZM106.321 511.056C88.1932 511.056 74.2012 498.736 74.2012 480.696C74.2012 462.656 88.1932 450.336 106.321 450.336C124.449 450.336 138.441 462.656 138.441 480.696C138.441 498.736 124.449 511.056 106.321 511.056ZM106.321 495.392C114.857 495.392 120.401 488.88 120.401 480.696C120.401 472.512 114.857 466 106.321 466C97.7852 466 92.2412 472.512 92.2412 480.696C92.2412 488.88 97.7852 495.392 106.321 495.392ZM206.473 510H187.817L180.249 476.736L172.681 510H154.025L137.217 451.304H157.105L164.673 487.208L173.561 451.304H186.937L195.825 487.208L203.305 451.304H223.281L206.473 510ZM282.775 510H262.623L260.511 503.136H239.391L237.279 510H217.127L238.775 451.304H261.127L282.775 510ZM255.759 487.648L249.951 468.728L244.143 487.648H255.759ZM338.476 510H318.236L310.14 491.52H303.716V510H285.94V451.304H317.268C330.996 451.304 338.388 460.456 338.388 471.456C338.388 481.576 332.492 486.944 327.828 489.232L338.476 510ZM314.54 476.032C317.532 476.032 320.348 474.624 320.348 471.368C320.348 468.2 317.532 466.792 314.54 466.792H303.716V476.032H314.54ZM371.892 510H345.58V451.304H371.804C390.284 451.304 404.012 461.864 404.012 480.608C404.012 499.352 390.284 510 371.892 510ZM371.804 494.512C380.692 494.512 385.972 488 385.972 480.608C385.972 472.688 381.396 466.792 371.892 466.792H363.356V494.512H371.804ZM433.169 511.056C420.673 511.056 412.137 507.36 405.889 501.728L415.129 488.528C419.529 492.752 426.129 496.096 434.049 496.096C437.393 496.096 440.561 495.216 440.561 492.928C440.561 487.296 407.825 493.016 407.825 469.872C407.825 459.928 416.097 450.424 432.201 450.424C441.793 450.424 450.417 453.152 457.105 458.608L447.601 471.192C442.497 467.32 435.897 465.384 430.353 465.384C426.833 465.384 425.865 466.528 425.865 468.024C425.865 473.568 458.513 468.816 458.513 490.64C458.513 503.576 448.921 511.056 433.169 511.056ZM55.88 599.056C37.488 599.056 23.584 586.736 23.584 568.696C23.584 550.568 37.488 538.336 55.88 538.336C71.28 538.336 79.024 547.312 82.544 555.408L67.232 562.536C65.736 557.96 61.16 554 55.88 554C47.344 554 41.624 560.512 41.624 568.696C41.624 576.88 47.344 583.392 55.88 583.392C61.16 583.392 65.736 579.432 67.232 574.856L82.544 581.896C79.112 589.728 71.28 599.056 55.88 599.056ZM117.151 599.056C97.3514 599.056 88.1114 588.408 88.1114 573.888V539.304H106.151V573.272C106.151 578.904 109.847 583.392 117.151 583.392C124.367 583.392 128.063 578.904 128.063 573.272V539.304H146.103V573.8C146.103 588.408 136.951 599.056 117.151 599.056ZM178.364 599.056C165.868 599.056 157.332 595.36 151.084 589.728L160.324 576.528C164.724 580.752 171.324 584.096 179.244 584.096C182.588 584.096 185.756 583.216 185.756 580.928C185.756 575.296 153.02 581.016 153.02 557.872C153.02 547.928 161.292 538.424 177.396 538.424C186.988 538.424 195.612 541.152 202.3 546.608L192.796 559.192C187.692 555.32 181.092 553.384 175.548 553.384C172.028 553.384 171.06 554.528 171.06 556.024C171.06 561.568 203.708 556.816 203.708 578.64C203.708 591.576 194.116 599.056 178.364 599.056ZM238.182 598H220.406V554.792H204.654V539.304H253.846V554.792H238.182V598ZM287.392 599.056C269.264 599.056 255.272 586.736 255.272 568.696C255.272 550.656 269.264 538.336 287.392 538.336C305.52 538.336 319.512 550.656 319.512 568.696C319.512 586.736 305.52 599.056 287.392 599.056ZM287.392 583.392C295.928 583.392 301.472 576.88 301.472 568.696C301.472 560.512 295.928 554 287.392 554C278.856 554 273.312 560.512 273.312 568.696C273.312 576.88 278.856 583.392 287.392 583.392ZM395.511 598H377.735V562.712L364.623 598H356.703L343.591 562.712V598H325.815V539.304H350.367L360.663 567.464L370.959 539.304H395.511V598ZM449.577 598H405.049V539.304H449.577V554.792H422.825V560.6H448.961V576.088H422.825V582.512H449.577V598ZM510.007 598H489.767L481.671 579.52H475.247V598H457.471V539.304H488.799C502.527 539.304 509.919 548.456 509.919 559.456C509.919 569.576 504.023 574.944 499.359 577.232L510.007 598ZM486.071 564.032C489.063 564.032 491.879 562.624 491.879 559.368C491.879 556.2 489.063 554.792 486.071 554.792H475.247V564.032H486.071ZM55.88 687.056C37.488 687.056 23.584 674.736 23.584 656.696C23.584 638.568 37.488 626.336 55.88 626.336C71.28 626.336 79.024 635.312 82.544 643.408L67.232 650.536C65.736 645.96 61.16 642 55.88 642C47.344 642 41.624 648.512 41.624 656.696C41.624 664.88 47.344 671.392 55.88 671.392C61.16 671.392 65.736 667.432 67.232 662.856L82.544 669.896C79.112 677.728 71.28 687.056 55.88 687.056ZM132.639 686H88.1114V627.304H132.639V642.792H105.887V648.6H132.023V664.088H105.887V670.512H132.639V686ZM197.029 686H179.957L158.309 656.256V686H140.533V627.304H158.837L179.253 655.112V627.304H197.029V686ZM236.893 686H219.117V642.792H203.365V627.304H252.557V642.792H236.893V686ZM311.405 686H291.165L283.069 667.52H276.645V686H258.869V627.304H290.197C303.925 627.304 311.317 636.456 311.317 647.456C311.317 657.576 305.421 662.944 300.757 665.232L311.405 686ZM287.469 652.032C290.461 652.032 293.277 650.624 293.277 647.368C293.277 644.2 290.461 642.792 287.469 642.792H276.645V652.032H287.469ZM336.286 686H318.51V627.304H336.286V686ZM374.88 687.056C356.488 687.056 342.584 674.736 342.584 656.696C342.584 638.568 356.488 626.336 374.88 626.336C390.28 626.336 398.024 635.312 401.544 643.408L386.232 650.536C384.736 645.96 380.16 642 374.88 642C366.344 642 360.624 648.512 360.624 656.696C360.624 664.88 366.344 671.392 374.88 671.392C380.16 671.392 384.736 667.432 386.232 662.856L401.544 669.896C398.112 677.728 390.28 687.056 374.88 687.056ZM424.887 686H407.111V627.304H424.887V686ZM464.714 686H446.938V642.792H431.186V627.304H480.378V642.792H464.714V686ZM520.13 686H502.354V662.68L480.353 627.304H500.33L511.242 647.104L521.978 627.304H541.954L520.13 662.68V686ZM544.877 687.056C539.773 687.056 535.461 682.744 535.461 677.64C535.461 672.536 539.773 668.224 544.877 668.224C549.981 668.224 554.293 672.536 554.293 677.64C554.293 682.744 549.981 687.056 544.877 687.056Z" fill="url(#paint0_linear_580_2)"/>
<defs>
<linearGradient id="paint0_linear_580_2" x1="22" y1="0" x2="815.588" y2="10.0445" gradientUnits="userSpaceOnUse">
<stop stop-color="#6656FF"/>
<stop offset="1" stop-color="#1E22AA"/>
</linearGradient>
</defs>
</svg>
