<svg width="1128" height="177" viewBox="0 0 1128 177" fill="none" xmlns="http://www.w3.org/2000/svg">
<path d="M450 125.589C450.172 124.535 450.261 123.469 450.267 122.4C450.969 92.7586 470.139 73.0456 501.814 69.2528C506.661 68.6489 511.508 68.6972 516.355 68.3107C521.711 67.8758 527.116 67.5859 532.399 66.7162C539.67 65.5325 544.517 62.0537 545.098 53.9125C545.226 50.6824 546.053 47.518 547.522 44.6358C550.091 40.0941 547.788 37.8957 544.25 36.2047C535.84 32.1944 527.285 28.5224 518.9 24.4156C514.646 22.5739 510.68 20.1332 507.122 17.1681C505.013 15.1872 501.839 12.9163 503.438 8.49542C505.038 4.07451 509.473 4.87172 511.896 5.47567C522.348 7.85294 532.586 11.0849 542.505 15.1389C550.285 18.4968 557.046 24.2465 564.317 28.764C566.136 30.0362 568.277 30.7729 570.496 30.8899C574.102 30.6266 577.722 31.1374 581.113 32.3876C584.503 33.6378 587.585 35.5985 590.151 38.1373C597.959 45.808 605.368 53.8712 612.35 62.2953C619.427 71.0164 618.458 78.3363 609.224 84.714C603.626 88.5793 596.791 90.6568 590.587 93.7007C588.7 94.3668 587.066 95.5989 585.91 97.2278C583.899 101.199 582.502 105.451 581.766 109.838L580 125" stroke="white" stroke-width="9"/>
<path d="M450 125.589C450.172 124.535 450.261 123.469 450.267 122.4C450.969 92.7586 470.139 73.0456 501.814 69.2528C506.661 68.6489 511.508 68.6972 516.355 68.3107C521.711 67.8758 527.116 67.5859 532.399 66.7162C539.67 65.5325 544.517 62.0537 545.098 53.9125C545.226 50.6824 546.053 47.518 547.522 44.6358C550.091 40.0941 547.788 37.8957 544.25 36.2047C535.84 32.1944 527.285 28.5224 518.9 24.4156C514.646 22.5739 510.68 20.1332 507.122 17.1681C505.013 15.1872 501.839 12.9163 503.438 8.49542C505.038 4.07451 509.473 4.87172 511.896 5.47567C522.348 7.85294 532.586 11.0849 542.505 15.1389C550.285 18.4968 557.046 24.2465 564.317 28.764C566.136 30.0362 568.277 30.7729 570.496 30.8899C574.102 30.6266 577.722 31.1374 581.113 32.3876C584.503 33.6378 587.585 35.5985 590.151 38.1373C597.959 45.808 605.368 53.8712 612.35 62.2953C619.427 71.0164 618.458 78.3363 609.224 84.714C603.626 88.5793 596.791 90.6568 590.587 93.7007C588.7 94.3668 587.066 95.5989 585.91 97.2278C583.899 101.199 582.502 105.451 581.766 109.838L580 125" stroke="white" stroke-opacity="0.2" stroke-width="9"/>
<path d="M434.047 170H418.017L416.337 164.54H399.537L397.857 170H381.827L399.047 123.31H416.827L434.047 170ZM412.557 152.22L407.937 137.17L403.317 152.22H412.557ZM465.894 170H436.564V123.31H464.914C474.574 123.31 478.774 129.75 478.774 135.21C478.774 141.02 475.344 144.94 470.794 145.92C475.834 146.69 479.684 151.31 479.684 157.33C479.684 163.84 475.274 170 465.894 170ZM461.624 140.53C463.094 140.53 464.424 139.41 464.424 137.73C464.424 136.12 463.094 135.07 461.624 135.07H450.704V140.53H461.624ZM462.044 158.24C464.074 158.24 465.334 157.05 465.334 155.3C465.334 153.62 464.074 152.29 462.044 152.29H450.704V158.24H462.044ZM508.403 170.84C493.983 170.84 482.853 161.04 482.853 146.69C482.853 132.34 493.983 122.54 508.403 122.54C522.823 122.54 533.953 132.34 533.953 146.69C533.953 161.04 522.823 170.84 508.403 170.84ZM508.403 158.38C515.193 158.38 519.603 153.2 519.603 146.69C519.603 140.18 515.193 135 508.403 135C501.613 135 497.203 140.18 497.203 146.69C497.203 153.2 501.613 158.38 508.403 158.38ZM562.067 170.84C546.317 170.84 538.967 162.37 538.967 150.82V123.31H553.317V150.33C553.317 154.81 556.257 158.38 562.067 158.38C567.807 158.38 570.747 154.81 570.747 150.33V123.31H585.097V150.75C585.097 162.37 577.817 170.84 562.067 170.84ZM616.779 170H602.639V135.63H590.109V123.31H629.239V135.63H616.779V170ZM675.201 170.84C659.451 170.84 652.101 162.37 652.101 150.82V123.31H666.451V150.33C666.451 154.81 669.391 158.38 675.201 158.38C680.941 158.38 683.881 154.81 683.881 150.33V123.31H698.231V150.75C698.231 162.37 690.951 170.84 675.201 170.84ZM723.893 170.84C713.953 170.84 707.163 167.9 702.193 163.42L709.543 152.92C713.043 156.28 718.293 158.94 724.593 158.94C727.253 158.94 729.773 158.24 729.773 156.42C729.773 151.94 703.733 156.49 703.733 138.08C703.733 130.17 710.313 122.61 723.123 122.61C730.753 122.61 737.613 124.78 742.933 129.12L735.373 139.13C731.313 136.05 726.063 134.51 721.653 134.51C718.853 134.51 718.083 135.42 718.083 136.61C718.083 141.02 744.053 137.24 744.053 154.6C744.053 164.89 736.423 170.84 723.893 170.84Z" fill="white"/>
</svg>
