<svg width="860" height="177" viewBox="0 0 860 177" fill="none" xmlns="http://www.w3.org/2000/svg">
<path d="M360 125.589C360.172 124.535 360.261 123.469 360.267 122.4C360.969 92.7586 380.139 73.0456 411.814 69.2528C416.661 68.6489 421.508 68.6972 426.355 68.3107C431.711 67.8758 437.116 67.5859 442.399 66.7162C449.67 65.5325 454.517 62.0537 455.098 53.9125C455.226 50.6824 456.053 47.518 457.522 44.6358C460.091 40.0941 457.788 37.8957 454.25 36.2047C445.84 32.1944 437.285 28.5224 428.9 24.4156C424.646 22.5739 420.68 20.1332 417.122 17.1681C415.013 15.1872 411.839 12.9163 413.438 8.49542C415.038 4.07451 419.473 4.87172 421.896 5.47567C432.348 7.85294 442.586 11.0849 452.505 15.1389C460.285 18.4968 467.046 24.2465 474.317 28.764C476.136 30.0362 478.277 30.7729 480.496 30.8899C484.102 30.6266 487.722 31.1374 491.113 32.3876C494.503 33.6378 497.585 35.5985 500.151 38.1373C507.959 45.808 515.368 53.8712 522.35 62.2953C529.427 71.0164 528.458 78.3363 519.224 84.714C513.626 88.5793 506.791 90.6568 500.587 93.7007C498.7 94.3668 497.066 95.5989 495.91 97.2278C493.899 101.199 492.502 105.451 491.766 109.838L490 125" stroke="white" stroke-width="9"/>
<path d="M360 125.589C360.172 124.535 360.261 123.469 360.267 122.4C360.969 92.7586 380.139 73.0456 411.814 69.2528C416.661 68.6489 421.508 68.6972 426.355 68.3107C431.711 67.8758 437.116 67.5859 442.399 66.7162C449.67 65.5325 454.517 62.0537 455.098 53.9125C455.226 50.6824 456.053 47.518 457.522 44.6358C460.091 40.0941 457.788 37.8957 454.25 36.2047C445.84 32.1944 437.285 28.5224 428.9 24.4156C424.646 22.5739 420.68 20.1332 417.122 17.1681C415.013 15.1872 411.839 12.9163 413.438 8.49542C415.038 4.07451 419.473 4.87172 421.896 5.47567C432.348 7.85294 442.586 11.0849 452.505 15.1389C460.285 18.4968 467.046 24.2465 474.317 28.764C476.136 30.0362 478.277 30.7729 480.496 30.8899C484.102 30.6266 487.722 31.1374 491.113 32.3876C494.503 33.6378 497.585 35.5985 500.151 38.1373C507.959 45.808 515.368 53.8712 522.35 62.2953C529.427 71.0164 528.458 78.3363 519.224 84.714C513.626 88.5793 506.791 90.6568 500.587 93.7007C498.7 94.3668 497.066 95.5989 495.91 97.2278C493.899 101.199 492.502 105.451 491.766 109.838L490 125" stroke="white" stroke-opacity="0.2" stroke-width="9"/>
<path d="M300.799 170H284.769L283.089 164.54H266.289L264.609 170H248.579L265.799 123.31H283.579L300.799 170ZM279.309 152.22L274.689 137.17L270.069 152.22H279.309ZM324.246 170H303.316V123.31H324.176C338.876 123.31 349.796 131.71 349.796 146.62C349.796 161.53 338.876 170 324.246 170ZM324.176 157.68C331.246 157.68 335.446 152.5 335.446 146.62C335.446 140.32 331.806 135.63 324.246 135.63H317.456V157.68H324.176ZM383.452 170H365.672L348.452 123.31H364.482L374.562 154.74L384.642 123.31H400.672L383.452 170ZM417.329 170H403.189V123.31H417.329V170ZM442.989 170.84C433.049 170.84 426.259 167.9 421.289 163.42L428.639 152.92C432.139 156.28 437.389 158.94 443.689 158.94C446.349 158.94 448.869 158.24 448.869 156.42C448.869 151.94 422.829 156.49 422.829 138.08C422.829 130.17 429.409 122.61 442.219 122.61C449.849 122.61 456.709 124.78 462.029 129.12L454.469 139.13C450.409 136.05 445.159 134.51 440.749 134.51C437.949 134.51 437.179 135.42 437.179 136.61C437.179 141.02 463.149 137.24 463.149 154.6C463.149 164.89 455.519 170.84 442.989 170.84ZM490.819 170.84C476.399 170.84 465.269 161.04 465.269 146.69C465.269 132.34 476.399 122.54 490.819 122.54C505.239 122.54 516.369 132.34 516.369 146.69C516.369 161.04 505.239 170.84 490.819 170.84ZM490.819 158.38C497.609 158.38 502.019 153.2 502.019 146.69C502.019 140.18 497.609 135 490.819 135C484.029 135 479.619 140.18 479.619 146.69C479.619 153.2 484.029 158.38 490.819 158.38ZM563.173 170H547.073L540.633 155.3H535.523V170H521.383V123.31H546.303C557.223 123.31 563.103 130.59 563.103 139.34C563.103 147.39 558.413 151.66 554.703 153.48L563.173 170ZM544.133 142.98C546.513 142.98 548.753 141.86 548.753 139.27C548.753 136.75 546.513 135.63 544.133 135.63H535.523V142.98H544.133ZM594.057 170H579.917V151.45L562.417 123.31H578.307L586.987 139.06L595.527 123.31H611.417L594.057 151.45V170Z" fill="white"/>
</svg>
