<svg width="779" height="593" viewBox="0 0 779 593" fill="none" xmlns="http://www.w3.org/2000/svg">
<path d="M225.265 216C225.265 216 206.265 209 197.265 209C196.405 209 195.555 209.1 194.705 209.28C188.945 210.5 183.645 215.45 181.105 218.15C180.115 219.21 179.545 219.92 179.545 219.92C179.545 219.92 179.605 219.23 179.725 218.02C180.315 211.66 182.495 190.79 186.405 177.43C187.805 172.66 189.415 168.85 191.265 167C195.575 162.68 197.565 157.5 198.485 153.64C199.265 150.33 199.265 148 199.265 148L191.975 144.86L190.625 136.04C190.385 137.08 189.275 139.11 185.545 143C185.225 143.33 184.875 143.61 184.505 143.85C179.125 147.23 168.155 141.35 162.245 137.65C164.705 129.1 169.165 121.28 177.265 120C196.265 117 196.265 106 208.265 118C209.255 118.99 210.255 119.94 211.255 120.86C215.095 128.2 216.495 138.04 216.995 144.88C217.355 149.67 217.265 153 217.265 153C217.265 153 222.265 183 230.265 189C238.265 195 225.265 216 225.265 216Z" fill="#2F2E41"/>
<path d="M188.265 168L174.753 187.819L205.265 196V168H188.265Z" fill="#FFB6B6"/>
<path opacity="0.1" d="M188.265 168L174.753 187.819L205.265 196V168H188.265Z" fill="black"/>
<path d="M696.217 484.943C697.668 484.367 699.515 487.61 700.761 487.033C702.003 486.458 700.601 483.037 701.736 478.575C701.941 477.77 703.232 472.699 705.355 472.467C709.38 472.026 712.855 489.356 718.869 489.207C720.189 489.175 721.771 488.297 725.875 488.057C727.508 487.962 728.395 488.035 728.856 488.619C729.51 489.447 728.736 490.582 727.958 493.387C726.791 497.595 727.711 497.997 726.499 501.137C725.599 503.468 724.62 504.47 725.117 505.197C725.822 506.227 728.239 504.884 729.29 505.983C730.363 507.105 729.289 510.012 728.168 511.944C726.063 515.569 723.18 516.806 720.748 518.571C718.105 520.489 714.761 523.927 712.318 530.563L692.765 590.254C696.518 577.806 706.241 543.245 709.337 530.002C710.231 526.18 711.022 522.213 708.973 518.823C707 515.56 702.633 513.226 698.622 508.233C698.153 507.65 696.87 506.011 697.395 504.916C697.828 504.011 699.102 504.303 699.52 503.465C700.079 502.34 698.242 500.901 696.841 498.022C695.853 495.992 695.585 494.279 695.354 492.805C695.285 492.36 694.286 485.71 696.217 484.943Z" fill="#F2F2F2"/>
<path d="M742.589 560.129C743.29 560.675 742.231 562.518 742.874 562.962C743.515 563.406 744.789 561.731 747.307 561.001C747.761 560.869 750.622 560.039 751.349 561.014C752.726 562.862 745.224 569.568 747.032 572.477C747.428 573.116 748.316 573.639 749.618 575.584C750.135 576.358 750.356 576.814 750.202 577.209C749.984 577.769 749.204 577.717 747.603 578.144C745.201 578.785 745.269 579.353 743.378 579.664C741.975 579.895 741.2 579.703 740.987 580.158C740.685 580.8 742.041 581.599 741.805 582.432C741.564 583.282 739.827 583.595 738.555 583.601C736.169 583.614 734.73 582.556 733.162 581.872C731.458 581.128 728.806 580.479 724.844 581.194L689.905 588.82C697.098 587.071 716.866 581.871 724.259 579.57C726.393 578.905 728.568 578.149 729.641 576.165C730.673 574.256 730.558 571.438 731.852 568.029C732.003 567.631 732.437 566.528 733.126 566.47C733.695 566.422 733.919 567.131 734.451 567.094C735.165 567.044 735.341 565.727 736.349 564.209C737.061 563.139 737.825 562.512 738.481 561.974C738.679 561.811 741.655 559.402 742.589 560.129Z" fill="#F2F2F2"/>
<path d="M726.124 552.442L729.469 548.986L729.497 548.55C729.625 546.532 730.168 544.884 731.112 543.651C731.262 543.455 731.422 543.266 731.585 543.074C732.231 542.313 733.034 541.368 733.406 539.829C733.612 538.97 733.946 536.872 732.594 536.119C732.233 535.913 731.87 535.873 731.548 535.903C731.554 535.838 731.56 535.773 731.566 535.702C731.633 534.835 731.525 534.358 731.421 533.898C731.341 533.545 731.258 533.181 731.244 532.458C731.238 532.142 731.248 531.875 731.256 531.651C731.28 530.973 731.273 530.136 730.545 529.588C729.746 529.029 728.85 529.355 728.256 529.57C727.197 529.954 726.562 530.329 726.14 530.579C725.987 530.67 725.813 530.772 725.748 530.794C725.217 530.968 723.462 529.067 722.797 528.355C721.308 526.75 720.02 525.362 718.578 525.969C717.546 526.403 717.084 527.672 717.169 529.847C717.196 530.523 717.321 531.119 717.457 531.615C717.063 531.567 716.632 531.628 716.235 531.939C715.297 532.679 715.375 534.206 716.465 536.482C716.734 537.049 717.099 537.809 717.824 538.599C718.165 538.97 718.507 539.261 718.803 539.504C718.674 539.684 718.568 539.906 718.524 540.184C718.393 541.001 718.833 541.779 719.867 542.472C720.992 543.25 722.042 543.732 722.967 544.157C723.774 544.53 724.468 544.853 724.908 545.242C725.715 545.976 725.846 547.177 725.934 548.671L726.124 552.442Z" fill="#F2F2F2"/>
<path d="M741.553 528.4L744.047 532.513L744.462 532.65C746.381 533.286 747.837 534.23 748.791 535.456C748.943 535.651 749.085 535.853 749.229 536.059C749.801 536.877 750.512 537.894 751.906 538.644C752.685 539.06 754.629 539.916 755.7 538.799C755.991 538.502 756.123 538.162 756.175 537.842C756.236 537.865 756.298 537.887 756.365 537.911C757.186 538.196 757.675 538.212 758.146 538.228C758.508 538.24 758.882 538.252 759.584 538.422C759.892 538.496 760.147 538.574 760.362 538.639C761.012 538.834 761.823 539.039 762.538 538.473C763.281 537.842 763.193 536.893 763.135 536.264C763.033 535.143 762.831 534.433 762.697 533.962C762.648 533.79 762.593 533.596 762.588 533.527C762.555 532.97 764.839 531.754 765.696 531.292C767.626 530.259 769.296 529.365 769.074 527.816C768.916 526.708 767.805 525.939 765.681 525.469C765.019 525.324 764.412 525.294 763.897 525.3C764.043 524.931 764.094 524.498 763.893 524.035C763.416 522.94 761.919 522.629 759.44 523.105C758.824 523.222 757.996 523.383 757.048 523.883C756.602 524.119 756.235 524.376 755.925 524.6C755.783 524.43 755.595 524.272 755.338 524.158C754.58 523.824 753.716 524.053 752.784 524.877C751.745 525.768 751.013 526.661 750.367 527.448C749.802 528.134 749.313 528.724 748.825 529.051C747.911 529.645 746.716 529.467 745.248 529.174L741.553 528.4Z" fill="#F2F2F2"/>
<path d="M752.126 518.774L755.471 515.318L755.499 514.882C755.627 512.864 756.17 511.216 757.114 509.982C757.264 509.786 757.424 509.598 757.587 509.406C758.233 508.645 759.036 507.699 759.408 506.161C759.614 505.302 759.948 503.204 758.596 502.451C758.234 502.245 757.872 502.204 757.55 502.235C757.556 502.17 757.562 502.104 757.568 502.033C757.635 501.167 757.527 500.69 757.423 500.23C757.343 499.877 757.26 499.512 757.246 498.79C757.24 498.473 757.25 498.207 757.258 497.983C757.282 497.304 757.275 496.468 756.546 495.92C755.747 495.361 754.851 495.687 754.258 495.902C753.199 496.286 752.564 496.661 752.142 496.91C751.989 497.001 751.815 497.104 751.75 497.126C751.219 497.299 749.464 495.398 748.799 494.687C747.31 493.082 746.022 491.693 744.58 492.301C743.548 492.734 743.086 494.004 743.171 496.178C743.198 496.855 743.323 497.45 743.459 497.946C743.065 497.899 742.634 497.959 742.237 498.271C741.299 499.01 741.377 500.538 742.467 502.814C742.736 503.381 743.101 504.141 743.825 504.93C744.167 505.302 744.509 505.592 744.805 505.835C744.676 506.016 744.57 506.237 744.526 506.515C744.395 507.333 744.835 508.11 745.869 508.804C746.994 509.582 748.044 510.063 748.969 510.489C749.776 510.862 750.47 511.185 750.91 511.574C751.717 512.308 751.848 513.509 751.936 515.003L752.126 518.774Z" fill="#F2F2F2"/>
<path d="M691.546 589.215L692.722 589.33L693.565 590.15C693.646 590.075 693.848 589.917 694.163 589.667C695.883 588.295 701.119 584.121 708.432 576.827C713.536 571.736 718.445 566.239 723.024 560.487C727.61 554.727 730.741 550.102 733.258 546.386C735.156 543.583 736.92 540.88 738.636 538.246C743.225 531.209 747.559 524.564 753.283 517.921C754.56 516.437 757.22 513.35 761.748 511.376C764.374 510.232 767.24 509.628 770.265 509.585L770.231 507.22C766.89 507.27 763.718 507.94 760.801 509.211C755.781 511.399 752.883 514.763 751.491 516.379C745.666 523.14 741.29 529.85 736.658 536.954C734.947 539.578 733.191 542.27 731.301 545.061C728.807 548.743 725.703 553.327 721.176 559.013C716.653 564.697 711.804 570.126 706.764 575.154C699.543 582.356 694.384 586.467 692.689 587.817C691.785 588.539 691.595 588.69 691.546 589.215Z" fill="#F2F2F2"/>
<path d="M771.401 515.206C771.477 515.265 771.556 515.324 771.639 515.379C773.298 516.523 775.51 516.709 778.212 515.932C779.481 515.565 780.54 514.846 782.653 513.413C782.98 513.193 784.614 512.058 786.498 510.215C787.73 509.011 788.142 508.428 788.259 507.723C788.391 506.939 788.21 506.18 787.871 505.502C788.033 505.341 788.156 505.142 788.224 504.893C788.508 503.867 787.581 503.315 787.085 503.01C786.83 502.86 786.511 502.675 786.211 502.417C785.738 502.014 785.587 501.664 785.356 501.136C785.136 500.631 784.862 500.002 784.267 499.312C783.1 497.947 781.629 497.441 781.144 497.273C778.6 496.385 776.388 497.188 773.828 498.117C773.315 498.305 771.498 499.025 769.569 500.445C768.177 501.469 767.779 502.095 767.556 502.617C767.096 503.688 767.245 504.619 767.753 506.814C768.282 509.109 768.548 510.259 768.891 511.098C769.692 513.05 770.195 514.275 771.401 515.206Z" fill="#F2F2F2"/>
<path d="M696.399 580.665L678.781 580.663L670.399 512.706L696.402 512.708L696.399 580.665Z" fill="#A0616A"/>
<path d="M636.036 580.265C635.488 581.189 635.198 584.171 635.198 585.245C635.198 588.548 637.875 591.225 641.178 591.225H695.74C697.992 591.225 699.819 589.398 699.819 587.145V584.874C699.819 584.874 702.518 578.047 696.961 569.632C696.961 569.632 690.054 576.221 679.734 565.9L676.691 560.387L654.661 576.499L642.451 578.002C639.779 578.33 637.41 577.951 636.036 580.265Z" fill="#2F2E41"/>
<path d="M648.289 580.665L630.671 580.663L622.29 512.706L648.293 512.708L648.289 580.665Z" fill="#A0616A"/>
<path d="M587.927 580.265C587.378 581.189 587.089 584.171 587.089 585.245C587.089 588.548 589.766 591.225 593.069 591.225H647.63C649.883 591.225 651.709 589.398 651.709 587.145V584.874C651.709 584.874 654.409 578.047 648.852 569.632C648.852 569.632 641.945 576.221 631.625 565.9L628.581 560.387L606.552 576.499L594.341 578.002C591.67 578.33 589.301 577.951 587.927 580.265Z" fill="#2F2E41"/>
<path d="M649.642 93.5909C649.642 93.5909 640.465 98.9723 643.475 104.294C646.484 109.616 650.68 116.865 647.834 119.148C644.987 121.431 640.288 131.497 640.288 131.497C640.288 131.497 620.231 128.695 622.114 144.276C623.997 159.856 633.42 161.98 625.343 168.834C617.267 175.688 633.737 183.886 633.737 183.886C633.737 183.886 645.107 180.342 647.701 169.447C650.295 158.551 645.389 177.778 647.034 179.156C648.68 180.535 655.069 189.622 659.59 177.54C664.111 165.459 659.634 160.774 665.608 153.644C671.582 146.513 675.644 134.98 675.466 132.964C675.288 130.947 682.3 112.55 671.508 105.376C660.715 98.2011 649.642 93.5909 649.642 93.5909Z" fill="#2F2E41"/>
<path d="M653.856 136.374L647.361 159.459H683.008L671.27 131.015L653.856 136.374Z" fill="#A0616A"/>
<path opacity="0.1" d="M653.856 136.374L647.361 159.459H683.008L671.27 131.015L653.856 136.374Z" fill="black"/>
<path d="M699.523 297.5C699.523 297.5 714.75 316.879 711.289 355.638C707.828 394.398 696.062 563.351 696.062 563.351H675.688L659.379 405.472L649.398 563.351L618.238 561.907L625.371 284.851L699.523 297.5Z" fill="#2F2E41"/>
<path d="M538.662 164.046C534.071 157.797 533.574 150.362 537.552 147.441C541.529 144.52 548.474 147.219 553.066 153.471C554.934 155.943 556.183 158.827 556.709 161.881L575.827 188.606L563.094 197.31L545.599 170.04C542.841 168.625 540.462 166.569 538.662 164.046Z" fill="#A0616A"/>
<path d="M655.645 189.84L601.447 229.264C601.447 229.264 589.421 237.355 575.512 219.746C561.603 202.137 547.591 174.921 547.591 174.921L560.127 165.59L575.407 185.502C575.407 185.502 585.495 191.974 585.714 194.962C585.933 197.951 583.586 198.724 587.172 198.461C590.759 198.198 591.212 196.178 590.839 199.302C590.467 202.426 587.698 205.633 592.304 202.892C596.911 200.151 597.684 202.498 597.684 202.498L633.747 169.811C633.747 169.811 655.162 158.628 658.005 172.841C660.849 187.055 655.645 189.84 655.645 189.84Z" fill="#DEDEDE"/>
<path d="M648.651 156.652H680.397L709.559 202.332L697.446 265.662L705.406 306.151L624.371 284.851L630.747 282.327L634.117 256.318L619.582 211.935L632.04 175.339L648.651 156.652Z" fill="#DEDEDE"/>
<path d="M683.792 119.924C683.792 131.78 674.181 141.391 662.325 141.391C650.469 141.391 640.858 131.78 640.858 119.924C640.858 108.068 650.469 98.4567 662.325 98.4567C674.181 98.4567 683.792 108.068 683.792 119.924Z" fill="#A0616A"/>
<path d="M654.096 95.9522C654.096 95.9522 650.519 105.97 656.243 108.117C661.968 110.263 669.839 113.126 669.123 116.704C668.408 120.281 671.27 131.015 671.27 131.015C671.27 131.015 654.096 141.748 665.546 152.482C676.995 163.215 685.581 158.792 683.793 169.233C682.004 179.673 699.893 175.38 699.893 175.38C699.893 175.38 706.333 165.362 701.324 155.344C696.315 145.326 704.902 163.215 707.048 163.215C709.195 163.215 719.929 166.078 715.635 153.913C711.342 141.748 704.902 141.033 704.902 131.73C704.902 122.428 700.608 110.979 699.177 109.548C697.746 108.117 691.306 89.5121 678.426 90.9432C665.546 92.3743 654.096 95.9522 654.096 95.9522Z" fill="#2F2E41"/>
<path d="M681.846 331.85C679.832 339.655 674.173 344.942 669.206 343.659C664.239 342.377 661.847 335.011 663.862 327.204C664.625 324.074 666.125 321.173 668.239 318.742L677.189 285.781L692.568 290.311L682.112 322.324C682.785 325.475 682.694 328.741 681.846 331.85Z" fill="#A0616A"/>
<path d="M677.768 190.403C677.768 190.403 686.478 166.865 696.025 168.397C705.571 169.93 714.275 184.726 714.275 184.726L707.374 268.459L688.418 316.243L668.311 308.316L678.755 260.562L677.768 190.403Z" fill="#DEDEDE"/>
<path d="M148.928 579.83L167.238 579.828L175.949 509.201L148.924 509.203L148.928 579.83Z" fill="#FFB6B6"/>
<path d="M211.662 579.415C212.232 580.375 212.533 583.474 212.533 584.591C212.533 588.023 209.75 590.805 206.318 590.805H149.612C147.271 590.805 145.373 588.907 145.373 586.566V584.205C145.373 584.205 142.567 577.109 148.343 568.364C148.343 568.364 155.521 575.212 166.247 564.486L169.409 558.756L192.305 575.5L204.995 577.062C207.772 577.404 210.234 577.009 211.662 579.415Z" fill="#2F2E41"/>
<path d="M111.531 540.76L124.374 553.811L180.83 510.49L161.876 491.226L111.531 540.76Z" fill="#FFB6B6"/>
<path d="M155.824 585.19C155.539 586.269 153.541 588.657 152.745 589.44C150.298 591.847 146.363 591.815 143.956 589.368L104.188 548.945C102.546 547.276 102.568 544.592 104.237 542.949L105.92 541.294C105.92 541.294 109.011 534.318 119.296 532.302C119.296 532.302 119.448 542.221 134.616 542.345L140.919 540.581L145.039 568.646L152.825 578.788C154.529 581.007 156.537 582.485 155.824 585.19Z" fill="#2F2E41"/>
<path d="M225.203 346.001L180.794 236.516L205.628 232.802L238.697 333.277L244.337 348.069C247.106 350.678 249.209 353.913 250.471 357.502C253.753 366.442 251.802 375.379 246.115 377.467C240.428 379.555 233.158 374.003 229.878 365.065C228.518 361.511 228.029 357.683 228.452 353.9L225.393 345.925L225.203 346.001Z" fill="#FFB6B6"/>
<path d="M211.104 205.189L233.746 297.067C233.746 297.067 209.224 288.6 198.29 303.38C198.29 303.38 173.374 209.82 178.421 202.998C183.468 196.177 208.469 194.325 210.946 204.134" fill="#E6E6E6"/>
<path d="M222.659 286.836L238.659 440.836L170.659 529.836L153.659 516.836L195.159 439.336L148.659 334.836C148.659 334.836 155.659 287.836 158.659 281.836C161.659 275.836 222.659 286.836 222.659 286.836Z" fill="#2F2E41"/>
<path d="M157.659 325.836L148.659 334.836L142.159 541.336L177.159 545.336L185.409 378.895L157.659 325.836Z" fill="#2F2E41"/>
<path d="M178.159 180.336L204.159 189.336L226.159 235.336V293.1C226.159 293.1 226.159 299.336 218.159 296.336C210.159 293.336 179.159 281.336 179.159 281.336C179.159 281.336 160.159 293.336 155.159 290.336C150.159 287.336 150.159 285.43 150.159 281.383C150.159 277.336 144.659 240.836 144.659 240.836L162.659 194.836L178.159 180.336Z" fill="#E6E6E6"/>
<path d="M169.778 344.849L142.049 230H167.159L185.006 334.26L188.397 349.723C190.749 352.714 192.35 356.224 193.068 359.96C194.992 369.287 191.741 377.837 185.807 379.061C179.874 380.285 173.505 373.719 171.583 364.395C170.763 360.678 170.846 356.82 171.824 353.142L169.978 344.802L169.778 344.849Z" fill="#FFB6B6"/>
<path d="M174.659 203.836L180.265 280C180.265 280 163.265 278 150.265 291C150.265 291 136.659 202.836 142.659 196.836C148.659 190.836 173.659 192.702 174.659 202.769" fill="#E6E6E6"/>
<path d="M512.611 233.5H281.918C274.665 233.5 268.765 227.6 268.765 220.347V185.653C268.765 178.4 274.665 172.5 281.918 172.5H525.765V220.347C525.765 227.6 519.864 233.5 512.611 233.5Z" fill="#E6E6E6"/>
<path d="M572.664 159.542C572.41 159.542 572.156 159.446 571.961 159.254C571.568 158.866 571.564 158.232 571.952 157.84C574.581 155.18 576.016 151.655 575.993 147.916C575.971 144.176 574.493 140.669 571.834 138.041C569.194 135.434 565.703 134 561.996 134C561.967 134 561.938 134 561.909 134C558.169 134.023 554.663 135.5 552.035 138.16C551.646 138.554 551.014 138.557 550.621 138.169C550.228 137.781 550.224 137.147 550.612 136.755C553.616 133.714 557.624 132.026 561.897 132C561.93 132 561.963 132 561.996 132C566.233 132 570.222 133.638 573.239 136.619C576.279 139.623 577.967 143.63 577.993 147.904C578.019 152.178 576.379 156.206 573.375 159.246C573.179 159.443 572.921 159.542 572.664 159.542Z" fill="#3F3D56"/>
<path d="M452.765 208.5H341.765C339.008 208.5 336.765 206.257 336.765 203.5C336.765 200.743 339.008 198.5 341.765 198.5H452.765C455.521 198.5 457.765 200.743 457.765 203.5C457.765 206.257 455.521 208.5 452.765 208.5Z" fill="white"/>
<path d="M562.765 150.665C560.008 150.665 557.765 148.422 557.765 145.665C557.765 142.908 560.008 140.665 562.765 140.665C565.521 140.665 567.765 142.908 567.765 145.665C567.765 148.422 565.521 150.665 562.765 150.665ZM562.765 142.665C561.11 142.665 559.765 144.011 559.765 145.665C559.765 147.319 561.11 148.665 562.765 148.665C564.419 148.665 565.765 147.319 565.765 145.665C565.765 144.011 564.419 142.665 562.765 142.665Z" fill="#3F3D56"/>
<path d="M330.013 356H249.517C245.511 356 242.265 359.247 242.265 363.252V448.748C242.265 452.753 245.511 456 249.517 456H330.013C334.018 456 337.265 452.753 337.265 448.748V363.252C337.265 359.247 334.018 356 330.013 356Z" fill="white"/>
<path d="M330.013 457H249.517C244.966 457 241.265 453.298 241.265 448.748V363.252C241.265 358.702 244.966 355 249.517 355H330.013C334.563 355 338.265 358.702 338.265 363.252V448.748C338.265 453.298 334.563 457 330.013 457ZM249.517 357C246.069 357 243.265 359.805 243.265 363.252V448.748C243.265 452.195 246.069 455 249.517 455H330.013C333.46 455 336.265 452.195 336.265 448.748V363.252C336.265 359.805 333.46 357 330.013 357H249.517Z" fill="#E6E6E6"/>
<path d="M292.265 368H255.265V383.759H292.265V368Z" fill="#E6E6E6"/>
<path d="M319.665 414.5H289.865C287.604 414.5 285.765 412.66 285.765 410.399V401.841C285.765 399.58 287.604 397.741 289.865 397.741H319.665C321.925 397.741 323.765 399.58 323.765 401.841V410.399C323.765 412.66 321.925 414.5 319.665 414.5Z" fill="#E6E6E6"/>
<path d="M294.665 441H264.865C262.328 441 260.265 438.937 260.265 436.399V427.841C260.265 425.305 262.328 423.241 264.865 423.241H294.665C297.201 423.241 299.265 425.305 299.265 427.841V436.399C299.265 438.937 297.201 441 294.665 441ZM264.865 425.241C263.431 425.241 262.265 426.407 262.265 427.841V436.399C262.265 437.833 263.431 439 264.865 439H294.665C296.098 439 297.265 437.833 297.265 436.399V427.841C297.265 426.407 296.098 425.241 294.665 425.241H264.865Z" fill="#E6E6E6"/>
<path d="M280.265 378.5H265.265C263.886 378.5 262.765 377.379 262.765 376C262.765 374.621 263.886 373.5 265.265 373.5H280.265C281.643 373.5 282.765 374.621 282.765 376C282.765 377.379 281.643 378.5 280.265 378.5Z" fill="white"/>
<path d="M313.265 408.5H298.265C296.886 408.5 295.765 407.379 295.765 406C295.765 404.621 296.886 403.5 298.265 403.5H313.265C314.643 403.5 315.765 404.621 315.765 406C315.765 407.379 314.643 408.5 313.265 408.5Z" fill="white"/>
<path d="M286.265 434.5H271.265C269.886 434.5 268.765 433.379 268.765 432C268.765 430.621 269.886 429.5 271.265 429.5H286.265C287.643 429.5 288.765 430.621 288.765 432C288.765 433.379 287.643 434.5 286.265 434.5Z" fill="#E6E6E6"/>
<path d="M343.777 405.627C360.071 403.912 375.523 396.675 387.471 385.495C400.256 373.532 408.256 357.069 410.168 339.691C411.284 329.548 410.396 319.259 407.416 309.494C406.852 307.646 404.012 308.613 404.576 310.462C409.65 327.09 408.365 345.472 401.196 361.299C394.578 375.908 382.933 387.748 368.719 395.092C360.9 399.131 352.321 401.712 343.571 402.633C341.658 402.834 341.849 405.83 343.777 405.627Z" fill="#3F3D56"/>
<path d="M391.609 319.286L402.243 296.468L399.905 296.908L417.673 315.318C419.017 316.711 421.006 314.463 419.672 313.081L401.904 294.671C401.24 293.983 399.954 294.279 399.566 295.111L388.933 317.928C388.118 319.677 390.793 321.038 391.609 319.286Z" fill="#3F3D56"/>
<path d="M851.034 590.845H0V592.528H851.034V590.845Z" fill="#E6E6E6"/>
<path d="M304.374 244H268.156C262.702 244 258.265 239.563 258.265 234.109V197.891C258.265 192.437 262.702 188 268.156 188H304.374C309.827 188 314.265 192.437 314.265 197.891V234.109C314.265 239.563 309.827 244 304.374 244ZM268.156 190.545C264.105 190.545 260.81 193.84 260.81 197.891V234.109C260.81 238.16 264.105 241.455 268.156 241.455H304.374C308.424 241.455 311.719 238.16 311.719 234.109V197.891C311.719 193.84 308.424 190.545 304.374 190.545H268.156Z" fill="#3F3D56"/>
<path d="M304.346 233.182H282.357C275.038 233.182 269.083 227.227 269.083 219.908V197.918L304.346 233.182Z" fill="#6656FF"/>
<path d="M513.493 44H485.036C480.751 44 477.265 40.5137 477.265 36.2285V7.77148C477.265 3.48632 480.751 0 485.036 0H513.493C517.778 0 521.265 3.48633 521.265 7.77148V36.2285C521.265 40.5137 517.778 44 513.493 44ZM485.036 2C481.853 2 479.265 4.58887 479.265 7.77148V36.2285C479.265 39.4111 481.853 42 485.036 42H513.493C516.676 42 519.265 39.4111 519.265 36.2285V7.77148C519.265 4.58886 516.676 2 513.493 2H485.036Z" fill="#E6E6E6"/>
<path d="M513.472 35.5H496.194C490.443 35.5 485.765 30.8213 485.765 25.0708V7.79297L513.472 35.5Z" fill="#6656FF"/>
<path d="M578.493 106H550.036C545.751 106 542.265 102.514 542.265 98.2285V69.7715C542.265 65.4863 545.751 62 550.036 62H578.493C582.778 62 586.265 65.4863 586.265 69.7715V98.2285C586.265 102.514 582.778 106 578.493 106ZM550.036 64C546.854 64 544.265 66.5889 544.265 69.7715V98.2285C544.265 101.411 546.854 104 550.036 104H578.493C581.676 104 584.265 101.411 584.265 98.2285V69.7715C584.265 66.5888 581.676 64 578.493 64H550.036Z" fill="#E6E6E6"/>
<path d="M551.265 71V97H577.265L551.265 71Z" fill="#6656FF"/>
<path d="M482.265 206.286V170.714C482.265 165.358 486.623 161 491.979 161H527.55C532.907 161 537.265 165.358 537.265 170.714V206.286C537.265 211.642 532.907 216 527.55 216H491.979C486.623 216 482.265 211.642 482.265 206.286ZM491.979 163.5C488.001 163.5 484.765 166.736 484.765 170.714V206.286C484.765 210.264 488.001 213.5 491.979 213.5H527.55C531.529 213.5 534.765 210.264 534.765 206.286V170.714C534.765 166.736 531.529 163.5 527.55 163.5H491.979Z" fill="#3F3D56"/>
<path d="M493.515 172.25L526.015 172.25V204.75L493.515 172.25Z" fill="#6656FF"/>
<path d="M194.729 176.848C208.859 176.848 220.314 165.394 220.314 151.263C220.314 137.133 208.859 125.678 194.729 125.678C180.598 125.678 169.144 137.133 169.144 151.263C169.144 165.394 180.598 176.848 194.729 176.848Z" fill="#FFB6B6"/>
<path d="M229.265 142C224.265 147 220.265 152 220.265 152L218.265 144C218.265 144 217.805 144.34 216.995 144.88C213.825 147.04 205.315 152.47 198.485 153.64C195.445 154.16 192.745 153.83 190.985 152C187.255 148.11 186.145 146.08 185.905 145.04L184.555 153.86L177.265 157C177.265 157 177.265 167.98 185.265 176C185.655 176.39 186.035 176.87 186.405 177.43C190.225 183.19 192.965 197.29 194.705 209.28C196.245 219.94 196.985 228.92 196.985 228.92C196.985 228.92 189.415 219.44 181.105 218.15C180.645 218.08 180.185 218.03 179.725 218.02C179.575 218 179.415 218 179.265 218C170.265 218 151.265 225 151.265 225C151.265 225 138.265 204 146.265 198C154.265 192 159.265 162 159.265 162C159.265 162 158.935 149.16 162.245 137.65C164.705 129.1 169.165 121.28 177.265 120C196.265 117 196.265 106 208.265 118C209.255 118.99 210.255 119.94 211.255 120.86C222.435 131.14 233.855 137.41 229.265 142Z" fill="#2F2E41"/>
<path d="M562.932 54.3596C564.43 48.9933 564.076 43.2017 562.037 38.0249C559.855 32.4851 555.651 27.8951 550.396 25.1151C547.329 23.4926 543.965 22.4855 540.504 22.2054C539.849 22.1524 539.799 23.1715 540.454 23.2245C546.347 23.7014 551.998 26.4088 556.105 30.6565C559.895 34.5776 562.181 39.7416 562.724 45.1549C563.022 48.1326 562.764 51.168 561.96 54.05C561.784 54.6801 562.755 54.9945 562.932 54.3596Z" fill="#E6E6E6"/>
<path d="M541.621 28.4286L535.738 22.2105L535.585 23.0047L543.629 19.6915C544.238 19.4409 543.776 18.5306 543.172 18.7793L535.128 22.0925C534.827 22.2165 534.759 22.66 534.974 22.8868L540.857 29.1049C541.308 29.5815 542.073 28.9061 541.621 28.4286Z" fill="#E6E6E6"/>
<path d="M496.782 56.3947C495.285 61.761 495.638 67.5526 497.678 72.7295C499.86 78.2692 504.063 82.8593 509.318 85.6392C512.386 87.2618 515.75 88.2689 519.211 88.549C519.865 88.602 519.915 87.5829 519.26 87.5299C513.367 87.0529 507.716 84.3456 503.61 80.0978C499.819 76.1768 497.533 71.0128 496.991 65.5995C496.692 62.6217 496.95 59.5863 497.754 56.7044C497.93 56.0742 496.959 55.7598 496.782 56.3947Z" fill="#E6E6E6"/>
<path d="M518.093 82.3257L523.976 88.5438L524.13 87.7496L516.085 91.0628C515.476 91.3134 515.938 92.2237 516.542 91.975L524.587 88.6618C524.888 88.5379 524.955 88.0943 524.74 87.8676L518.857 81.6495C518.406 81.1728 517.641 81.8482 518.093 82.3257Z" fill="#E6E6E6"/>
</svg>
