<svg width="1128" height="177" viewBox="0 0 1128 177" fill="none" xmlns="http://www.w3.org/2000/svg">
<path d="M520 125.589C520.172 124.535 520.261 123.469 520.267 122.4C520.969 92.7586 540.139 73.0456 571.814 69.2528C576.661 68.6489 581.508 68.6972 586.355 68.3107C591.711 67.8758 597.116 67.5859 602.399 66.7162C609.67 65.5325 614.517 62.0537 615.098 53.9125C615.226 50.6824 616.053 47.518 617.522 44.6358C620.091 40.0941 617.788 37.8957 614.25 36.2047C605.84 32.1944 597.285 28.5224 588.9 24.4156C584.646 22.5739 580.68 20.1332 577.122 17.1681C575.013 15.1872 571.839 12.9163 573.438 8.49542C575.038 4.07451 579.473 4.87172 581.896 5.47567C592.348 7.85294 602.586 11.0849 612.505 15.1389C620.285 18.4968 627.046 24.2465 634.317 28.764C636.136 30.0362 638.277 30.7729 640.496 30.8899C644.102 30.6266 647.722 31.1374 651.113 32.3876C654.503 33.6378 657.585 35.5985 660.151 38.1373C667.959 45.808 675.368 53.8712 682.35 62.2953C689.427 71.0164 688.458 78.3363 679.224 84.714C673.626 88.5793 666.791 90.6568 660.587 93.7007C658.7 94.3668 657.066 95.5989 655.91 97.2278C653.899 101.199 652.502 105.451 651.766 109.838L650 125" stroke="white" stroke-width="9"/>
<path d="M520 125.589C520.172 124.535 520.261 123.469 520.267 122.4C520.969 92.7586 540.139 73.0456 571.814 69.2528C576.661 68.6489 581.508 68.6972 586.355 68.3107C591.711 67.8758 597.116 67.5859 602.399 66.7162C609.67 65.5325 614.517 62.0537 615.098 53.9125C615.226 50.6824 616.053 47.518 617.522 44.6358C620.091 40.0941 617.788 37.8957 614.25 36.2047C605.84 32.1944 597.285 28.5224 588.9 24.4156C584.646 22.5739 580.68 20.1332 577.122 17.1681C575.013 15.1872 571.839 12.9163 573.438 8.49542C575.038 4.07451 579.473 4.87172 581.896 5.47567C592.348 7.85294 602.586 11.0849 612.505 15.1389C620.285 18.4968 627.046 24.2465 634.317 28.764C636.136 30.0362 638.277 30.7729 640.496 30.8899C644.102 30.6266 647.722 31.1374 651.113 32.3876C654.503 33.6378 657.585 35.5985 660.151 38.1373C667.959 45.808 675.368 53.8712 682.35 62.2953C689.427 71.0164 688.458 78.3363 679.224 84.714C673.626 88.5793 666.791 90.6568 660.587 93.7007C658.7 94.3668 657.066 95.5989 655.91 97.2278C653.899 101.199 652.502 105.451 651.766 109.838L650 125" stroke="white" stroke-opacity="0.2" stroke-width="9"/>
<path d="M431.433 170.84C416.803 170.84 405.743 161.04 405.743 146.69C405.743 132.27 416.803 122.54 431.433 122.54C443.683 122.54 449.843 129.68 452.643 136.12L440.463 141.79C439.273 138.15 435.633 135 431.433 135C424.643 135 420.093 140.18 420.093 146.69C420.093 153.2 424.643 158.38 431.433 158.38C435.633 158.38 439.273 155.23 440.463 151.59L452.643 157.19C449.913 163.42 443.683 170.84 431.433 170.84ZM503.568 170H487.538L485.858 164.54H469.058L467.378 170H451.348L468.568 123.31H486.348L503.568 170ZM482.078 152.22L477.458 137.17L472.838 152.22H482.078ZM547.876 170H531.776L525.336 155.3H520.226V170H506.086V123.31H531.006C541.926 123.31 547.806 130.59 547.806 139.34C547.806 147.39 543.116 151.66 539.406 153.48L547.876 170ZM528.836 142.98C531.216 142.98 533.456 141.86 533.456 139.27C533.456 136.75 531.216 135.63 528.836 135.63H520.226V142.98H528.836ZM588.947 170H553.527V123.31H588.947V135.63H567.667V140.25H588.457V152.57H567.667V157.68H588.947V170ZM630.646 170H595.226V123.31H630.646V135.63H609.366V140.25H630.156V152.57H609.366V157.68H630.646V170ZM678.716 170H662.616L656.176 155.3H651.066V170H636.926V123.31H661.846C672.766 123.31 678.646 130.59 678.646 139.34C678.646 147.39 673.956 151.66 670.246 153.48L678.716 170ZM659.676 142.98C662.056 142.98 664.296 141.86 664.296 139.27C664.296 136.75 662.056 135.63 659.676 135.63H651.066V142.98H659.676ZM702.497 170.84C692.557 170.84 685.767 167.9 680.797 163.42L688.147 152.92C691.647 156.28 696.897 158.94 703.197 158.94C705.857 158.94 708.377 158.24 708.377 156.42C708.377 151.94 682.337 156.49 682.337 138.08C682.337 130.17 688.917 122.61 701.727 122.61C709.357 122.61 716.217 124.78 721.537 129.12L713.977 139.13C709.917 136.05 704.667 134.51 700.257 134.51C697.457 134.51 696.687 135.42 696.687 136.61C696.687 141.02 722.657 137.24 722.657 154.6C722.657 164.89 715.027 170.84 702.497 170.84Z" fill="white"/>
</svg>
