<svg width="831" height="582" viewBox="0 0 831 582" fill="none" xmlns="http://www.w3.org/2000/svg">
<g clip-path="url(#clip0_47_954)">
<path d="M820.473 470.081C820.284 467.912 815.084 467.637 815.025 465.722C814.965 463.814 820.107 463.423 824.961 459.216C825.837 458.458 831.353 453.677 830.315 450.883C828.348 445.589 804.565 452.094 800.988 444.502C800.203 442.836 800.308 440.314 798.041 435.047C797.138 432.951 796.494 431.891 795.477 431.681C794.034 431.383 793.103 433.058 790.092 435.783C785.576 439.87 784.498 438.974 781.341 442.449C778.997 445.029 778.36 446.877 777.142 446.711C775.418 446.476 775.58 442.623 773.552 441.999C771.483 441.363 768.528 444.52 766.821 447.127C763.617 452.018 763.878 456.388 763.198 460.524C762.459 465.019 760.263 471.339 753.516 478.536L691.313 540.25C704.488 527.784 741.504 494.045 756.08 481.902C760.288 478.396 764.74 474.929 770.247 475.365C775.55 475.784 781.193 479.77 789.927 481.649C790.947 481.868 793.794 482.443 794.831 481.105C795.688 479.998 794.527 478.592 795.312 477.547C796.364 476.145 799.308 477.537 803.773 477.484C806.922 477.446 809.227 476.708 811.21 476.074C811.807 475.883 820.725 472.969 820.473 470.081Z" fill="#F2F2F2"/>
<path d="M697.717 459.28C696.598 458.747 694.962 461.22 694.005 460.696C693.052 460.175 694.344 457.538 693.679 453.942C693.56 453.294 692.805 449.207 691.134 448.91C687.968 448.348 684.299 461.898 679.54 461.463C678.496 461.367 677.289 460.588 674.049 460.181C672.76 460.02 672.054 460.03 671.657 460.469C671.095 461.091 671.648 462.031 672.117 464.295C672.82 467.691 672.069 467.961 672.864 470.513C673.454 472.408 674.177 473.254 673.744 473.804C673.131 474.583 671.287 473.391 670.396 474.206C669.487 475.039 670.184 477.4 670.97 478.99C672.447 481.973 674.667 483.106 676.5 484.633C678.493 486.293 680.962 489.194 682.547 494.582L694.889 542.918C692.573 532.855 686.693 504.953 684.939 494.295C684.433 491.218 684.015 488.033 685.818 485.455C687.554 482.974 691.139 481.354 694.581 477.61C694.983 477.173 696.086 475.941 695.729 475.046C695.433 474.306 694.408 474.47 694.121 473.783C693.737 472.862 695.27 471.819 696.532 469.612C697.422 468.056 697.725 466.711 697.985 465.556C698.064 465.207 699.207 459.99 697.717 459.28Z" fill="#F2F2F2"/>
<path d="M717.6 475.003L719.817 468.671L720.343 468.363C722.779 466.941 724.494 465.233 725.442 463.284C725.593 462.975 725.728 462.657 725.865 462.334C726.41 461.053 727.087 459.46 728.773 458.034C729.715 457.24 732.122 455.511 733.907 456.727C734.39 457.048 734.667 457.475 734.83 457.896C734.907 457.848 734.986 457.8 735.07 457.747C736.109 457.121 736.771 456.958 737.41 456.8C737.9 456.679 738.407 456.555 739.316 456.12C739.715 455.93 740.04 455.751 740.315 455.6C741.146 455.146 742.193 454.632 743.332 455.197C744.529 455.844 744.683 457.165 744.786 458.04C744.97 459.6 744.899 460.627 744.852 461.309C744.834 461.557 744.815 461.838 744.828 461.933C744.944 462.703 748.413 463.703 749.716 464.087C752.648 464.94 755.185 465.678 755.329 467.855C755.434 469.413 754.14 470.785 751.376 472.038C750.515 472.428 749.695 472.644 748.991 472.785C749.296 473.246 749.491 473.822 749.35 474.511C749.015 476.144 747.061 477.001 743.542 477.066C742.666 477.084 741.49 477.105 740.052 476.696C739.376 476.502 738.8 476.258 738.312 476.04C738.167 476.314 737.957 476.584 737.638 476.813C736.701 477.488 735.456 477.425 733.945 476.57C732.27 475.654 731.014 474.645 729.904 473.758C728.935 472.985 728.098 472.321 727.337 472.016C725.918 471.469 724.338 472.057 722.42 472.881L717.6 475.003Z" fill="#F2F2F2"/>
<path d="M737.929 440.728L731.241 440.19L730.81 439.758C728.817 437.762 726.729 436.537 724.604 436.114C724.266 436.047 723.925 435.997 723.577 435.946C722.2 435.744 720.487 435.494 718.681 434.224C717.674 433.514 715.391 431.624 716.114 429.59C716.303 429.041 716.645 428.665 717.011 428.4C716.944 428.338 716.878 428.274 716.806 428.206C715.937 427.36 715.611 426.76 715.297 426.183C715.055 425.739 714.806 425.281 714.155 424.511C713.87 424.174 713.614 423.904 713.399 423.677C712.749 422.989 711.986 422.106 712.244 420.86C712.566 419.539 713.805 419.055 714.625 418.733C716.088 418.16 717.099 417.968 717.77 417.84C718.015 417.795 718.291 417.742 718.38 417.705C719.096 417.398 719.183 413.789 719.224 412.431C719.305 409.378 719.375 406.737 721.445 406.045C722.925 405.549 724.58 406.452 726.494 408.808C727.089 409.542 727.506 410.281 727.821 410.926C728.189 410.514 728.697 410.179 729.4 410.14C731.064 410.05 732.389 411.723 733.344 415.111C733.584 415.953 733.902 417.086 733.871 418.58C733.856 419.284 733.765 419.903 733.679 420.43C733.98 420.5 734.295 420.635 734.597 420.886C735.488 421.621 735.743 422.842 735.298 424.52C734.837 426.372 734.181 427.843 733.604 429.142C733.101 430.276 732.672 431.253 732.57 432.066C732.401 433.578 733.37 434.957 734.654 436.604L737.929 440.728Z" fill="#F2F2F2"/>
<path d="M743.321 421.524L745.538 415.191L746.064 414.883C748.501 413.461 750.215 411.753 751.163 409.805C751.314 409.495 751.449 409.177 751.586 408.854C752.131 407.573 752.808 405.98 754.494 404.554C755.437 403.761 757.844 402.032 759.628 403.247C760.111 403.569 760.388 403.995 760.551 404.417C760.628 404.368 760.707 404.32 760.791 404.267C761.83 403.642 762.493 403.478 763.131 403.321C763.622 403.199 764.128 403.075 765.037 402.641C765.436 402.45 765.762 402.271 766.036 402.12C766.867 401.666 767.914 401.152 769.054 401.718C770.25 402.365 770.404 403.686 770.507 404.56C770.691 406.121 770.62 407.148 770.573 407.829C770.555 408.078 770.537 408.358 770.55 408.453C770.665 409.224 774.134 410.224 775.437 410.608C778.369 411.46 780.906 412.198 781.05 414.376C781.155 415.934 779.861 417.305 777.097 418.558C776.236 418.948 775.416 419.164 774.712 419.305C775.017 419.766 775.212 420.342 775.071 421.032C774.736 422.664 772.783 423.521 769.263 423.586C768.387 423.605 767.211 423.625 765.774 423.216C765.097 423.022 764.521 422.778 764.033 422.561C763.889 422.834 763.678 423.105 763.359 423.334C762.422 424.008 761.177 423.945 759.666 423.09C757.992 422.174 756.735 421.166 755.625 420.278C754.656 419.505 753.819 418.842 753.058 418.537C751.639 417.99 750.059 418.577 748.141 419.401L743.321 421.524Z" fill="#F2F2F2"/>
<path d="M693.372 541.12L692.492 539.725L690.943 539.187C690.985 539.039 691.056 538.688 691.172 538.139C691.807 535.137 693.736 525.997 698.257 512.316C701.414 502.766 705.199 493.208 709.507 483.901C713.822 474.58 717.63 467.783 720.69 462.321C722.998 458.201 725.266 454.311 727.477 450.523C733.381 440.401 738.957 430.839 743.661 419.547C744.712 417.027 746.898 411.78 746.528 404.899C746.312 400.908 745.272 396.957 743.434 393.158L746.404 391.721C748.432 395.919 749.58 400.294 749.82 404.725C750.231 412.353 747.849 418.071 746.704 420.818C741.917 432.309 736.286 441.963 730.325 452.182C728.123 455.957 725.864 459.829 723.566 463.932C720.534 469.345 716.76 476.082 712.5 485.284C708.242 494.479 704.505 503.921 701.387 513.35C696.923 526.858 695.023 535.862 694.399 538.82C694.065 540.399 693.995 540.73 693.372 541.12Z" fill="#F2F2F2"/>
<path d="M735.715 395.258C735.593 395.199 735.471 395.137 735.35 395.068C732.886 393.715 731.271 391.074 730.55 387.218C730.214 385.406 730.447 383.636 730.913 380.105C730.984 379.56 731.376 376.812 732.496 373.31C733.227 371.022 733.696 370.143 734.502 369.556C735.398 368.9 736.457 368.652 737.515 368.65C737.614 368.348 737.786 368.069 738.053 367.83C739.155 366.835 740.423 367.645 741.114 368.073C741.46 368.297 741.89 368.579 742.399 368.791C743.198 369.129 743.729 369.099 744.531 369.056C745.3 369.015 746.255 368.963 747.487 369.273C749.92 369.875 751.471 371.393 751.983 371.893C754.681 374.509 755.064 377.769 755.506 381.544C755.593 382.3 755.832 385.016 755.267 388.31C754.86 390.686 754.329 391.574 753.817 392.178C752.77 393.421 751.516 393.819 748.461 394.557C745.269 395.334 743.668 395.721 742.407 395.818C739.472 396.04 737.63 396.179 735.715 395.258Z" fill="#F2F2F2"/>
<path d="M566.714 573.103L416.783 516.351C394.295 507.839 382.925 482.618 391.438 460.13L541.465 63.783C549.978 41.2953 575.198 29.9252 597.686 38.4374L747.616 95.19C770.104 103.702 781.474 128.923 772.961 151.41C715.506 311.627 652.798 491.664 622.934 547.757C614.421 570.245 589.201 581.616 566.714 573.103Z" fill="black"/>
<path d="M718.093 200.505C717.075 200.505 716.248 201.333 716.248 202.35V261.383C716.248 262.401 717.075 263.228 718.093 263.228C719.11 263.228 719.938 262.401 719.938 261.383V202.35C719.938 201.333 719.11 200.505 718.093 200.505Z" fill="black"/>
<path d="M756.983 151.051L619.054 546.281C611.645 565.855 590.35 576.099 570.616 570.05L570.608 570.046C570.317 569.956 570.025 569.866 569.729 569.763C569.21 569.596 568.698 569.412 568.18 569.216C568.18 569.216 566.335 568.36 562.965 566.788C559.56 565.204 554.609 562.886 548.444 559.97C546.593 559.102 544.645 558.177 542.588 557.201C538.492 555.256 533.994 553.12 529.18 550.805C527.258 549.89 525.273 548.931 523.246 547.957C512.881 542.978 501.289 537.358 489.098 531.342C487.034 530.334 484.955 529.311 482.863 528.272C482.316 527.996 393.572 466.217 395.322 461.593L545.347 65.2527C553.063 44.8681 575.836 34.6014 596.221 42.3175L618.253 50.6573C621.773 51.9896 623.564 55.8039 622.537 59.4292C622.475 59.6719 622.412 59.9146 622.367 60.1639C621.67 63.9338 623.974 67.6169 627.563 68.9753L705.006 98.2892C708.594 99.6476 712.76 98.4136 714.734 95.1269C714.865 94.9103 714.979 94.6872 715.093 94.4641C716.724 91.0674 720.592 89.3951 724.112 90.7274L746.144 99.0672C766.528 106.783 764.699 130.667 756.983 151.051Z" fill="white"/>
<path d="M516.529 127.055C515.577 126.695 514.511 127.176 514.151 128.128L508.926 141.93C508.566 142.882 509.047 143.948 509.998 144.309C510.95 144.669 512.016 144.188 512.377 143.236L517.601 129.434C517.961 128.482 517.481 127.416 516.529 127.055Z" fill="black"/>
<path d="M467.409 200.505C466.392 200.505 465.564 201.333 465.564 202.35V230.944C465.564 231.962 466.392 232.789 467.409 232.789C468.427 232.789 469.254 231.962 469.254 230.944V202.35C469.254 201.333 468.427 200.505 467.409 200.505Z" fill="black"/>
<path d="M467.409 241.091C466.392 241.091 465.564 241.918 465.564 242.936V271.53C465.564 272.547 466.392 273.375 467.409 273.375C468.427 273.375 469.254 272.547 469.254 271.53V242.936C469.254 241.918 468.427 241.091 467.409 241.091Z" fill="black"/>
<path d="M615.4 56.4851L582.337 43.9697C582.177 43.909 581.998 43.9898 581.937 44.15L580.524 47.883C580.463 48.0433 580.544 48.2223 580.704 48.283L613.768 60.7984C613.928 60.859 614.107 60.7783 614.168 60.618L615.581 56.885C615.641 56.7248 615.561 56.5457 615.4 56.4851Z" fill="#E6E6E6"/>
<path d="M725.644 103.147C727.55 103.868 729.679 102.908 730.401 101.002C731.122 99.0964 730.162 96.9667 728.256 96.2454C726.351 95.524 724.221 96.4841 723.5 98.3898C722.778 100.296 723.738 102.425 725.644 103.147Z" fill="#E6E6E6"/>
<path d="M735.133 106.739C737.039 107.46 739.169 106.5 739.89 104.594C740.611 102.688 739.651 100.559 737.746 99.8374C735.84 99.116 733.71 100.076 732.989 101.982C732.267 103.888 733.227 106.017 735.133 106.739Z" fill="#E6E6E6"/>
<path d="M744.623 110.33C746.528 111.052 748.658 110.092 749.379 108.186C750.101 106.28 749.141 104.151 747.235 103.429C745.329 102.708 743.199 103.668 742.478 105.574C741.757 107.479 742.717 109.609 744.623 110.33Z" fill="#E6E6E6"/>
<path d="M674.884 194.871C672.981 194.154 670.997 193.673 668.978 193.437C673.969 174.684 664.655 155.078 646.916 148.363C631.919 142.636 615.388 147.734 605.418 159.803C602.698 157.333 599.534 155.395 596.094 154.093C580.397 148.151 562.644 156.609 556.444 172.987C550.245 189.366 557.935 207.493 573.632 213.434L577.728 214.985L573.731 213.472L577.739 214.989C577.998 214.54 578.222 214.072 578.408 213.588C583.82 200.257 595.938 194.617 611.017 198.357C613.328 198.919 615.528 199.776 617.802 200.437C620.316 201.163 622.828 201.963 625.384 202.479C628.899 203.196 631.704 202.453 633.367 198.859C633.981 197.415 634.901 196.122 636.065 195.067C638.015 193.449 637.344 192.054 636.023 190.677C632.881 187.407 629.615 184.266 626.501 180.956C624.88 179.387 623.493 177.596 622.381 175.637C621.761 174.374 620.705 172.796 622.193 171.066C623.681 169.335 625.564 170.462 626.564 171.154C630.917 174.035 635.025 177.266 638.847 180.816C641.813 183.681 643.905 187.456 646.441 190.76C647.051 191.651 647.9 192.354 648.891 192.79C650.578 193.292 652.14 194.148 653.469 195.3C654.799 196.452 655.866 197.873 656.599 199.468C658.837 204.295 660.827 209.231 662.56 214.258C664.286 219.436 662.587 222.59 657.286 223.893C654.072 224.681 650.602 224.446 647.253 224.757C646.279 224.734 645.323 225.012 644.517 225.552C642.918 227.007 641.552 228.695 640.463 230.56C639.253 232.884 638.261 235.316 637.499 237.823L655.934 244.801C669.125 249.794 684.031 242.69 689.239 228.931C694.447 215.173 688.076 199.864 674.884 194.871Z" fill="url(#paint0_linear_47_954)"/>
<path d="M591.369 412.543H357.653C348.245 412.543 340.59 404.888 340.59 395.48V218.752C340.59 209.344 348.245 201.689 357.653 201.689H591.369C600.778 201.689 608.432 209.344 608.432 218.752V395.48C608.432 404.888 600.778 412.543 591.369 412.543Z" fill="white"/>
<path d="M591.369 412.543H357.653C348.245 412.543 340.59 404.888 340.59 395.48V218.752C340.59 209.344 348.245 201.689 357.653 201.689H591.369C600.778 201.689 608.432 209.344 608.432 218.752V395.48C608.432 404.888 600.778 412.543 591.369 412.543ZM357.653 204.539C349.816 204.539 343.44 210.915 343.44 218.752V395.48C343.44 403.318 349.816 409.694 357.653 409.694H591.369C599.206 409.694 605.583 403.318 605.583 395.48V218.752C605.583 210.915 599.206 204.539 591.369 204.539H357.653Z" fill="black"/>
<path d="M565.691 223.06C568.052 223.06 569.965 221.146 569.965 218.786C569.965 216.425 568.052 214.511 565.691 214.511C563.331 214.511 561.417 216.425 561.417 218.786C561.417 221.146 563.331 223.06 565.691 223.06Z" fill="black"/>
<path d="M577.089 223.06C579.449 223.06 581.363 221.146 581.363 218.786C581.363 216.425 579.449 214.511 577.089 214.511C574.728 214.511 572.814 216.425 572.814 218.786C572.814 221.146 574.728 223.06 577.089 223.06Z" fill="black"/>
<path d="M588.487 223.06C590.847 223.06 592.761 221.146 592.761 218.786C592.761 216.425 590.847 214.511 588.487 214.511C586.126 214.511 584.212 216.425 584.212 218.786C584.212 221.146 586.126 223.06 588.487 223.06Z" fill="black"/>
<path d="M364.81 287.883C363.631 287.883 362.673 288.841 362.673 290.02C362.673 290.594 362.895 291.126 363.298 291.518C363.704 291.934 364.236 292.157 364.81 292.157H585.637C586.815 292.157 587.774 291.198 587.774 290.02C587.774 289.445 587.552 288.914 587.149 288.521C586.743 288.105 586.211 287.883 585.637 287.883H364.81Z" fill="#E6E6E6"/>
<path d="M545.746 287.171V292.869H364.81C364.027 292.869 363.314 292.556 362.802 292.029C362.274 291.516 361.961 290.804 361.961 290.02C361.961 288.453 363.243 287.171 364.81 287.171L545.746 287.171Z" fill="#1E22AA"/>
<path d="M582.075 276.485H553.582C550.439 276.485 547.883 273.93 547.883 270.787C547.883 267.644 550.439 265.088 553.582 265.088H582.075C585.218 265.088 587.774 267.644 587.774 270.787C587.774 273.93 585.218 276.485 582.075 276.485Z" fill="#E6E6E6"/>
<path d="M395.441 246.567H366.947C363.805 246.567 361.249 244.011 361.249 240.868C361.249 237.725 363.805 235.169 366.947 235.169H395.441C398.583 235.169 401.14 237.725 401.14 240.868C401.14 244.011 398.583 246.567 395.441 246.567Z" fill="#E6E6E6"/>
<path d="M364.81 351.994C363.631 351.994 362.673 352.953 362.673 354.131C362.673 354.706 362.895 355.237 363.298 355.629C363.704 356.045 364.236 356.268 364.81 356.268H585.637C586.815 356.268 587.774 355.309 587.774 354.131C587.774 353.556 587.552 353.025 587.149 352.633C586.743 352.217 586.211 351.994 585.637 351.994H364.81Z" fill="#E6E6E6"/>
<path d="M436.045 351.281V356.98H364.81C364.027 356.98 363.314 356.667 362.802 356.14C362.274 355.627 361.961 354.914 361.961 354.131C361.961 352.564 363.243 351.282 364.81 351.282L436.045 351.281Z" fill="#1E22AA"/>
<path d="M582.075 340.596H553.582C550.439 340.596 547.883 338.041 547.883 334.898C547.883 331.755 550.439 329.199 553.582 329.199H582.075C585.218 329.199 587.774 331.755 587.774 334.898C587.774 338.041 585.218 340.596 582.075 340.596Z" fill="#E6E6E6"/>
</g>
<defs>
<linearGradient id="paint0_linear_47_954" x1="560.569" y1="162.09" x2="695.288" y2="213.085" gradientUnits="userSpaceOnUse">
<stop stop-color="#6656FF"/>
<stop offset="0.19" stop-color="#6152F9"/>
<stop offset="0.44" stop-color="#5248E8"/>
<stop offset="0.72" stop-color="#3B37CC"/>
<stop offset="1" stop-color="#1E22AA"/>
</linearGradient>
<clipPath id="clip0_47_954">
<rect width="830.444" height="581.975" fill="white"/>
</clipPath>
</defs>
</svg>
