<svg width="860" height="177" viewBox="0 0 860 177" fill="none" xmlns="http://www.w3.org/2000/svg">
<path d="M354 125.589C354.172 124.535 354.261 123.469 354.267 122.4C354.969 92.7586 374.139 73.0456 405.814 69.2528C410.661 68.6489 415.508 68.6972 420.355 68.3107C425.711 67.8758 431.116 67.5859 436.399 66.7162C443.67 65.5325 448.517 62.0537 449.098 53.9125C449.226 50.6824 450.053 47.518 451.522 44.6358C454.091 40.0941 451.788 37.8957 448.25 36.2047C439.84 32.1944 431.285 28.5224 422.9 24.4156C418.646 22.5739 414.68 20.1332 411.122 17.1681C409.013 15.1872 405.839 12.9163 407.438 8.49542C409.038 4.07451 413.473 4.87172 415.896 5.47567C426.348 7.85294 436.586 11.0849 446.505 15.1389C454.285 18.4968 461.046 24.2465 468.317 28.764C470.136 30.0362 472.277 30.7729 474.496 30.8899C478.102 30.6266 481.722 31.1374 485.113 32.3876C488.503 33.6378 491.585 35.5985 494.151 38.1373C501.959 45.808 509.368 53.8712 516.35 62.2953C523.427 71.0164 522.458 78.3363 513.224 84.714C507.626 88.5793 500.791 90.6568 494.587 93.7007C492.7 94.3668 491.066 95.5989 489.91 97.2278C487.899 101.199 486.502 105.451 485.766 109.838L484 125" stroke="white" stroke-width="9"/>
<path d="M354 125.589C354.172 124.535 354.261 123.469 354.267 122.4C354.969 92.7586 374.139 73.0456 405.814 69.2528C410.661 68.6489 415.508 68.6972 420.355 68.3107C425.711 67.8758 431.116 67.5859 436.399 66.7162C443.67 65.5325 448.517 62.0537 449.098 53.9125C449.226 50.6824 450.053 47.518 451.522 44.6358C454.091 40.0941 451.788 37.8957 448.25 36.2047C439.84 32.1944 431.285 28.5224 422.9 24.4156C418.646 22.5739 414.68 20.1332 411.122 17.1681C409.013 15.1872 405.839 12.9163 407.438 8.49542C409.038 4.07451 413.473 4.87172 415.896 5.47567C426.348 7.85294 436.586 11.0849 446.505 15.1389C454.285 18.4968 461.046 24.2465 468.317 28.764C470.136 30.0362 472.277 30.7729 474.496 30.8899C478.102 30.6266 481.722 31.1374 485.113 32.3876C488.503 33.6378 491.585 35.5985 494.151 38.1373C501.959 45.808 509.368 53.8712 516.35 62.2953C523.427 71.0164 522.458 78.3363 513.224 84.714C507.626 88.5793 500.791 90.6568 494.587 93.7007C492.7 94.3668 491.066 95.5989 489.91 97.2278C487.899 101.199 486.502 105.451 485.766 109.838L484 125" stroke="white" stroke-opacity="0.2" stroke-width="9"/>
<path d="M233.804 170H198.384V123.31H233.804V135.63H212.524V140.25H233.314V152.57H212.524V157.68H233.804V170ZM285.024 170H271.444L254.224 146.34V170H240.084V123.31H254.644L270.884 145.43V123.31H285.024V170ZM339.764 170H323.734L322.054 164.54H305.254L303.574 170H287.544L304.764 123.31H322.544L339.764 170ZM318.274 152.22L313.654 137.17L309.034 152.22H318.274ZM371.611 170H342.281V123.31H370.631C380.291 123.31 384.491 129.75 384.491 135.21C384.491 141.02 381.061 144.94 376.511 145.92C381.551 146.69 385.401 151.31 385.401 157.33C385.401 163.84 380.991 170 371.611 170ZM367.341 140.53C368.811 140.53 370.141 139.41 370.141 137.73C370.141 136.12 368.811 135.07 367.341 135.07H356.421V140.53H367.341ZM367.761 158.24C369.791 158.24 371.051 157.05 371.051 155.3C371.051 153.62 369.791 152.29 367.761 152.29H356.421V158.24H367.761ZM422.94 170H391.09V123.31H405.23V157.68H422.94V170ZM464.039 170H428.619V123.31H464.039V135.63H442.759V140.25H463.549V152.57H442.759V157.68H464.039V170ZM525.758 170H511.618V141.93L501.188 170H494.888L484.458 141.93V170H470.318V123.31H489.848L498.038 145.71L506.228 123.31H525.758V170ZM568.765 170H533.345V123.31H568.765V135.63H547.485V140.25H568.275V152.57H547.485V157.68H568.765V170ZM619.985 170H606.405L589.185 146.34V170H575.045V123.31H589.605L605.845 145.43V123.31H619.985V170ZM651.695 170H637.555V135.63H625.025V123.31H664.155V135.63H651.695V170Z" fill="white"/>
</svg>
