<svg width="852" height="439" viewBox="0 0 852 439" fill="none" xmlns="http://www.w3.org/2000/svg">
<path d="M100.294 361.184C99.2359 360.764 97.8881 363.13 96.9792 362.708C96.0736 362.289 97.0965 359.794 96.268 356.539C96.1186 355.952 95.177 352.253 93.6282 352.083C90.6924 351.762 88.1575 364.403 83.7705 364.295C82.8077 364.271 81.6534 363.631 78.6599 363.456C77.4689 363.386 76.8221 363.439 76.4857 363.865C76.0082 364.47 76.5728 365.297 77.1406 367.344C77.9921 370.413 77.3207 370.706 78.2048 372.997C78.8611 374.697 79.5759 375.428 79.2127 375.959C78.6987 376.709 76.9356 375.73 76.1688 376.532C75.3863 377.35 76.1693 379.471 76.9874 380.88C78.5226 383.524 80.6262 384.427 82.4 385.714C84.3277 387.113 86.7672 389.621 88.5493 394.462L102.813 438.004C100.075 428.923 92.9823 403.712 90.7235 394.053C90.0715 391.264 89.4946 388.37 90.9893 385.898C92.4284 383.518 95.6143 381.815 98.5399 378.173C98.8816 377.748 99.8177 376.552 99.4351 375.753C99.1189 375.093 98.1895 375.306 97.885 374.695C97.4767 373.874 98.8174 372.825 99.8392 370.725C100.56 369.244 100.755 367.994 100.924 366.919C100.974 366.594 101.703 361.743 100.294 361.184Z" fill="#F2F2F2"/>
<path d="M66.4691 416.029C65.9575 416.427 66.7298 417.771 66.2609 418.096C65.7937 418.419 64.8643 417.197 63.0276 416.664C62.6964 416.568 60.6092 415.963 60.0791 416.675C59.0742 418.023 64.5471 422.914 63.2283 425.036C62.9388 425.502 62.2916 425.884 61.342 427.302C60.9642 427.867 60.8035 428.2 60.9155 428.488C61.0745 428.896 61.6437 428.858 62.8118 429.17C64.5638 429.637 64.5141 430.052 65.8934 430.279C66.9172 430.447 67.4824 430.307 67.6379 430.639C67.8581 431.107 66.8686 431.69 67.0409 432.298C67.2167 432.918 68.4837 433.146 69.4113 433.151C71.1521 433.16 72.202 432.388 73.3457 431.889C74.5886 431.347 76.5233 430.873 79.4134 431.395L104.899 436.958C99.6526 435.681 85.2325 431.888 79.8398 430.21C78.2831 429.725 76.6964 429.173 75.9143 427.726C75.1612 426.333 75.2447 424.278 74.3014 421.792C74.1913 421.501 73.8743 420.697 73.3721 420.654C72.9569 420.619 72.7932 421.136 72.4051 421.109C71.8845 421.073 71.7563 420.112 71.0205 419.005C70.5016 418.224 69.9445 417.767 69.4653 417.374C69.3208 417.256 67.1501 415.499 66.4691 416.029Z" fill="#F2F2F2"/>
<path d="M78.4802 410.421L76.0399 407.901L76.0196 407.582C75.9261 406.11 75.5296 404.908 74.8411 404.008C74.7316 403.865 74.6149 403.728 74.4961 403.588C74.0249 403.033 73.439 402.343 73.1679 401.221C73.018 400.594 72.7741 399.064 73.7604 398.515C74.024 398.364 74.2883 398.335 74.5236 398.357C74.5189 398.31 74.5149 398.262 74.5101 398.21C74.4611 397.578 74.54 397.23 74.6161 396.895C74.6744 396.637 74.735 396.371 74.7451 395.844C74.7496 395.613 74.7421 395.419 74.7361 395.256C74.7187 394.761 74.7239 394.15 75.2553 393.751C75.8382 393.343 76.4918 393.581 76.9247 393.738C77.6971 394.018 78.1606 394.291 78.4679 394.473C78.58 394.54 78.7066 394.614 78.7543 394.63C79.1414 394.757 80.422 393.37 80.9069 392.851C81.9929 391.68 82.9326 390.668 83.9841 391.111C84.7368 391.427 85.0745 392.353 85.0123 393.939C84.9927 394.433 84.9015 394.867 84.8022 395.229C85.0893 395.194 85.4041 395.238 85.6936 395.466C86.378 396.005 86.3207 397.119 85.5258 398.779C85.3293 399.193 85.063 399.747 84.5347 400.323C84.2856 400.595 84.0364 400.806 83.8204 400.984C83.9145 401.115 83.9915 401.277 84.0237 401.48C84.1193 402.076 83.798 402.643 83.0441 403.149C82.2234 403.717 81.4576 404.068 80.7827 404.378C80.1939 404.65 79.6877 404.886 79.3668 405.17C78.7783 405.705 78.6826 406.581 78.6182 407.671L78.4802 410.421Z" fill="#F2F2F2"/>
<path d="M67.2245 392.884L65.4052 395.884L65.1024 395.984C63.7022 396.448 62.6401 397.136 61.9444 398.031C61.8338 398.173 61.7304 398.321 61.6251 398.471C61.2077 399.068 60.6891 399.809 59.6723 400.356C59.1043 400.66 57.6858 401.284 56.9045 400.469C56.6922 400.253 56.5965 400.004 56.5585 399.771C56.5139 399.788 56.4685 399.804 56.4198 399.821C55.8207 400.029 55.4639 400.041 55.1203 400.053C54.8562 400.062 54.5837 400.07 54.0715 400.194C53.8469 400.249 53.6609 400.305 53.5044 400.352C53.0301 400.495 52.4384 400.644 51.9169 400.232C51.3748 399.771 51.4389 399.079 51.481 398.62C51.5558 397.802 51.703 397.284 51.8008 396.941C51.8368 396.816 51.8768 396.674 51.8805 396.624C51.9047 396.218 50.2385 395.331 49.6133 394.993C48.2056 394.24 46.9875 393.588 47.1492 392.458C47.2643 391.65 48.0745 391.088 49.6244 390.746C50.107 390.64 50.5501 390.618 50.9251 390.622C50.8189 390.353 50.7817 390.038 50.9283 389.7C51.2762 388.901 52.3686 388.674 54.1763 389.022C54.626 389.107 55.23 389.224 55.9212 389.589C56.2465 389.761 56.5144 389.948 56.7409 390.112C56.8443 389.988 56.9812 389.872 57.1692 389.79C57.7216 389.546 58.3518 389.713 59.0321 390.314C59.7896 390.964 60.3235 391.615 60.795 392.189C61.2073 392.69 61.5636 393.12 61.9198 393.358C62.5868 393.792 63.4583 393.662 64.529 393.448L67.2245 392.884Z" fill="#F2F2F2"/>
<path d="M59.5114 385.862L57.0712 383.341L57.0509 383.023C56.9573 381.551 56.5609 380.349 55.8723 379.449C55.7629 379.306 55.6461 379.168 55.5273 379.028C55.0561 378.473 54.4702 377.783 54.1991 376.661C54.0492 376.035 53.8054 374.504 54.7917 373.955C55.0552 373.805 55.3195 373.775 55.5549 373.798C55.5502 373.75 55.5461 373.702 55.5413 373.651C55.4923 373.018 55.5713 372.67 55.6474 372.335C55.7057 372.077 55.7663 371.811 55.7763 371.285C55.7808 371.054 55.7734 370.859 55.7673 370.696C55.7499 370.201 55.7551 369.591 56.2866 369.191C56.8694 368.783 57.523 369.021 57.9559 369.178C58.7283 369.458 59.1918 369.732 59.4992 369.913C59.6112 369.98 59.7379 370.055 59.7856 370.071C60.1726 370.197 61.4532 368.811 61.9382 368.291C63.0241 367.121 63.9638 366.108 65.0153 366.551C65.7681 366.867 66.1057 367.794 66.0436 369.379C66.024 369.873 65.9328 370.307 65.8335 370.669C66.1206 370.635 66.4353 370.679 66.7248 370.906C67.4093 371.445 67.3519 372.559 66.5571 374.22C66.3605 374.633 66.0943 375.188 65.566 375.764C65.3169 376.035 65.0677 376.247 64.8516 376.424C64.9457 376.556 65.0228 376.717 65.055 376.92C65.1506 377.516 64.8293 378.083 64.0753 378.589C63.2546 379.157 62.4888 379.508 61.814 379.819C61.2252 380.09 60.719 380.326 60.398 380.61C59.8096 381.145 59.7138 382.021 59.6494 383.111L59.5114 385.862Z" fill="#F2F2F2"/>
<path d="M103.703 437.245L102.845 437.33L102.231 437.928C102.172 437.873 102.024 437.758 101.795 437.575C100.54 436.574 96.7201 433.53 91.3858 428.209C87.6623 424.495 84.0817 420.485 80.7416 416.29C77.3964 412.088 75.1125 408.715 73.2764 406.004C71.8918 403.959 70.6053 401.987 69.3531 400.066C66.0062 394.933 62.8441 390.086 58.6689 385.24C57.7373 384.157 55.7972 381.906 52.4944 380.466C50.5786 379.631 48.488 379.191 46.2812 379.159L46.3061 377.434C48.7432 377.471 51.0575 377.959 53.1846 378.886C56.8466 380.483 58.9607 382.936 59.9764 384.115C64.2253 389.047 67.4173 393.941 70.7962 399.124C72.0446 401.038 73.325 403.001 74.704 405.038C76.523 407.723 78.7872 411.067 82.0896 415.215C85.3892 419.361 88.9263 423.321 92.6025 426.989C97.8698 432.242 101.633 435.241 102.869 436.226C103.529 436.753 103.667 436.863 103.703 437.245Z" fill="#F2F2F2"/>
<path d="M45.4523 383.26C45.3964 383.303 45.3387 383.345 45.2783 383.385C44.0681 384.22 42.455 384.356 40.4838 383.789C39.558 383.521 38.7852 382.997 37.244 381.952C37.006 381.791 35.8137 380.963 34.4394 379.619C33.541 378.741 33.2404 378.316 33.1546 377.801C33.0583 377.229 33.1906 376.676 33.4379 376.181C33.3197 376.063 33.2297 375.918 33.1804 375.737C32.9735 374.988 33.6494 374.586 34.0116 374.363C34.1973 374.254 34.4301 374.119 34.6487 373.931C34.9937 373.637 35.104 373.381 35.2723 372.996C35.4331 372.627 35.633 372.169 36.0667 371.666C36.9184 370.67 37.9914 370.301 38.345 370.179C40.2004 369.531 41.8139 370.116 43.6819 370.794C44.0556 370.931 45.381 371.456 46.7884 372.492C47.8038 373.239 48.0944 373.695 48.2567 374.076C48.592 374.858 48.4837 375.537 48.113 377.138C47.7275 378.812 47.5333 379.651 47.283 380.263C46.6986 381.687 46.3317 382.58 45.4523 383.26Z" fill="#F2F2F2"/>
<path d="M102.006 283.3L121.956 316.321L238.218 309.441L207.261 269.541L102.006 283.3Z" fill="#F2F2F2"/>
<path d="M136.744 437.742C136.067 437.742 135.477 437.243 135.383 436.553L100.642 182.825C100.539 182.072 101.065 181.378 101.818 181.275C102.571 181.166 103.265 181.698 103.368 182.451L138.109 436.18C138.212 436.933 137.685 437.627 136.933 437.73C136.869 437.738 136.806 437.742 136.744 437.742Z" fill="#F2F2F2"/>
<path d="M102.005 438.065C101.245 438.065 100.629 437.449 100.629 436.689V182.687C100.629 181.927 101.245 181.311 102.005 181.311C102.765 181.311 103.381 181.927 103.381 182.687V436.689C103.381 437.449 102.765 438.065 102.005 438.065Z" fill="#F2F2F2"/>
<path d="M276.397 437.055C275.812 437.055 275.27 436.679 275.085 436.092L192.876 174.796C192.648 174.071 193.051 173.298 193.776 173.07C194.5 172.843 195.273 173.245 195.501 173.97L277.71 435.265C277.938 435.99 277.535 436.763 276.81 436.991C276.673 437.034 276.534 437.055 276.397 437.055Z" fill="#F2F2F2"/>
<path d="M251.287 437.377C250.672 437.377 250.113 436.963 249.954 436.34L192.855 205.728C192.668 204.992 193.113 204.243 193.85 204.055C194.588 203.869 195.335 204.313 195.522 205.05L252.621 435.662C252.809 436.398 252.363 437.147 251.627 437.335C251.513 437.364 251.399 437.377 251.287 437.377Z" fill="#F2F2F2"/>
<path d="M102.006 186.733L197.286 185.268L214.828 285.364H103.382L102.006 186.733Z" fill="#F2F2F2"/>
<path d="M851.034 436.667H0V438.35H851.034V436.667Z" fill="#E6E6E6"/>
<path d="M174.492 77.3648C177.379 78.9871 182.038 72.5705 183.094 75.7091C184.15 78.8477 181.592 91.5119 180.273 94.5491C179.617 96.0588 178.69 97.4396 178.047 98.9546C177.403 100.47 177.058 102.211 177.627 103.756C178.617 106.444 181.883 107.538 183.503 109.9C185.39 112.652 184.628 116.358 183.746 119.575C182.986 122.349 182.176 125.147 180.712 127.623C179.249 130.098 177.043 132.254 174.287 133.073C170.777 134.115 167.026 132.876 163.643 131.477C160.39 130.132 157.172 128.607 154.405 126.431C151.639 124.254 149.33 121.366 148.363 117.981C147.15 113.736 148.164 109.09 150.264 105.206C152.365 101.322 155.472 98.0864 158.66 95.0317C164.029 89.8868 169.743 85.1018 175.751 80.7193" fill="#2F2E41"/>
<path d="M192.408 229.773L269.445 258.954C269.445 258.954 275.865 265.374 277.032 276.462C278.2 287.551 299.793 350.581 299.793 350.581L281.118 357.585C281.118 357.585 249.602 309.145 251.353 289.302C251.353 289.302 247.852 279.946 246.101 279.663C244.35 279.38 218.087 265.957 201.162 267.708C184.238 269.459 139.883 274.711 138.716 254.285C137.549 233.858 147.785 233.858 147.785 233.858L192.408 229.773Z" fill="#2F2E41"/>
<path d="M295.709 345.329C295.709 345.329 300.961 343.578 304.463 347.08C307.965 350.581 307.965 353.499 307.965 353.499C307.965 353.499 335.395 352.916 336.562 356.417C337.729 359.919 333.644 373.926 323.722 374.509C313.801 375.093 279.951 382.096 279.951 375.677C279.951 369.257 280.535 354.667 282.869 354.667C285.204 354.667 295.709 345.329 295.709 345.329Z" fill="#2F2E41"/>
<path d="M199.063 248.335L255.211 308.615C255.211 308.615 258.123 317.213 254.259 327.672C250.395 338.131 241.842 404.207 241.842 404.207L221.996 402.215C221.996 402.215 215.192 344.827 225.55 327.812C225.55 327.812 226.553 317.873 225.109 316.844C223.664 315.815 206.062 292.149 190.112 286.224C174.162 280.298 132.068 265.365 140.067 246.534C148.067 227.702 157.245 232.236 157.245 232.236L199.063 248.335Z" fill="#2F2E41"/>
<path d="M240.506 397.688C240.506 397.688 245.991 398.444 247.58 403.135C249.169 407.825 247.877 410.441 247.877 410.441C247.877 410.441 272.728 422.066 272.224 425.722C271.72 429.379 261.854 440.128 252.7 436.257C243.546 432.387 210.095 423.675 212.938 417.919C215.781 412.163 222.766 399.34 224.859 400.374C226.952 401.408 240.506 397.688 240.506 397.688Z" fill="#2F2E41"/>
<path d="M147.763 124.431L166.438 136.687L187.449 168.785C187.449 168.785 192.117 202.635 190.367 204.386C188.616 206.137 189.199 207.888 189.199 211.389C189.199 214.891 193.487 215.263 190.759 218.287C188.032 221.311 185.744 221.94 189.806 223.085C193.868 224.229 198.588 223.112 196.228 226.588C193.868 230.065 195.619 231.232 194.452 232.399C193.285 233.567 146.036 283.467 137.282 264.208C128.528 244.948 127.92 171.12 127.92 171.12L134.226 147.069L147.763 124.431Z" fill="#CCCCCC"/>
<path d="M90.2209 261.927C88.2337 268.647 90.0902 275.119 94.367 276.383C98.6437 277.647 103.72 273.225 105.707 266.502C106.538 263.828 106.716 260.993 106.226 258.236L114.287 229.657L100.795 226.161L94.2813 254.705C92.3705 256.754 90.9782 259.23 90.2209 261.927Z" fill="#FFB6B6"/>
<path d="M167.06 165.017C167.06 165.017 145.308 148.411 137.028 158.883C128.748 169.356 98.4151 215.846 98.4151 215.846L96.4043 233.563L113.607 237.36L141.412 196.389L167.06 165.017Z" fill="#CCCCCC"/>
<path d="M276.415 100.484C281.404 95.562 282.908 88.9988 279.775 85.8248C276.642 82.6507 270.06 84.068 265.071 88.9921C263.051 90.9317 261.525 93.3269 260.62 95.9772L239.748 117.097L249.868 126.681L269.37 104.843C272.033 103.973 274.449 102.478 276.415 100.484Z" fill="#FFB6B6"/>
<path d="M162.301 148.168C162.301 148.168 173.314 173.22 185.625 168.056C197.936 162.892 246.965 136.86 246.965 136.86L257.29 122.323L244.067 110.683L199.919 133.106L162.301 148.168Z" fill="#CCCCCC"/>
<path d="M167.281 119.451C178.849 119.451 188.228 110.073 188.228 98.5042C188.228 86.9356 178.849 77.5574 167.281 77.5574C155.712 77.5574 146.334 86.9356 146.334 98.5042C146.334 110.073 155.712 119.451 167.281 119.451Z" fill="#FFB6B6"/>
<path d="M143.667 131.31C148.556 138.284 151.056 146.901 150.659 155.409C156.202 152.724 159.944 147.05 161.217 141.024C162.49 134.998 161.519 128.67 159.473 122.861C159.452 122.803 159.432 122.744 159.411 122.686C156.304 113.966 159.191 104.221 166.695 98.7999C171.756 95.1436 176.146 90.5564 179.515 85.2983C181.417 82.3299 183.034 78.6062 181.613 75.3797C180.304 72.4066 176.921 71.017 173.809 70.0872C166.701 67.9641 159.149 66.7561 151.853 68.0995C144.558 69.4429 137.535 73.6384 134.087 80.2064C130.639 86.7745 131.542 95.7383 137.139 100.607C135.374 101.178 134.125 103.049 134.275 104.898C134.425 106.747 135.958 108.392 137.792 108.671C136.596 108.629 135.89 110.205 136.316 111.323C136.743 112.442 137.843 113.137 138.893 113.713C140.388 114.533 142.046 115.391 142.052 117.538C142.055 118.4 141.748 119.235 141.246 119.935C140.03 121.632 138.067 122.396 136.177 123.113C140.174 124.29 143.361 127.862 144.077 131.967" fill="#2F2E41"/>
<path d="M317.546 125.611C352.232 125.611 380.351 97.4921 380.351 62.8056C380.351 28.119 352.232 0 317.546 0C282.859 0 254.74 28.119 254.74 62.8056C254.74 97.4921 282.859 125.611 317.546 125.611Z" fill="#6656FF"/>
<path d="M314.292 63.1032L308.295 98.668L314.528 99.7191L320.525 64.1542L314.292 63.1032Z" fill="white"/>
<path d="M337.539 85.027L316.109 71.3284L291.373 77.2429L323.682 26.4166L337.539 85.027Z" fill="white"/>
<path d="M713.544 369.291C714.471 368.923 715.651 370.994 716.446 370.625C717.239 370.258 716.344 368.074 717.069 365.224C717.2 364.711 718.024 361.472 719.38 361.324C721.95 361.042 724.169 372.108 728.009 372.014C728.852 371.993 729.863 371.433 732.483 371.279C733.526 371.219 734.092 371.265 734.386 371.638C734.804 372.167 734.31 372.892 733.813 374.683C733.068 377.37 733.655 377.627 732.881 379.632C732.307 381.12 731.681 381.76 731.999 382.224C732.449 382.882 733.992 382.024 734.664 382.726C735.349 383.442 734.663 385.299 733.947 386.533C732.603 388.847 730.762 389.638 729.209 390.765C727.522 391.989 725.386 394.185 723.826 398.422L711.34 436.539C713.737 428.59 719.945 406.52 721.923 398.064C722.493 395.623 722.998 393.09 721.69 390.926C720.43 388.842 717.641 387.351 715.08 384.163C714.781 383.791 713.962 382.744 714.296 382.045C714.573 381.467 715.387 381.654 715.653 381.118C716.011 380.4 714.837 379.481 713.943 377.643C713.312 376.347 713.141 375.252 712.993 374.311C712.949 374.027 712.311 369.78 713.544 369.291Z" fill="#F2F2F2"/>
<path d="M743.156 417.302C743.603 417.65 742.927 418.827 743.338 419.111C743.747 419.394 744.56 418.325 746.168 417.858C746.458 417.774 748.285 417.245 748.749 417.867C749.629 419.047 744.838 423.329 745.993 425.187C746.246 425.595 746.813 425.929 747.644 427.171C747.975 427.665 748.115 427.956 748.017 428.208C747.878 428.566 747.38 428.533 746.357 428.806C744.824 429.215 744.867 429.578 743.66 429.776C742.763 429.924 742.269 429.801 742.132 430.091C741.94 430.502 742.806 431.012 742.655 431.544C742.501 432.087 741.392 432.286 740.58 432.291C739.056 432.299 738.137 431.623 737.136 431.186C736.048 430.711 734.354 430.296 731.824 430.754L709.514 435.623C714.107 434.506 726.73 431.185 731.451 429.716C732.814 429.292 734.203 428.809 734.887 427.542C735.547 426.323 735.473 424.524 736.299 422.347C736.396 422.092 736.673 421.388 737.113 421.351C737.476 421.32 737.619 421.773 737.959 421.749C738.415 421.718 738.527 420.877 739.171 419.907C739.626 419.224 740.113 418.824 740.533 418.48C740.659 418.376 742.559 416.838 743.156 417.302Z" fill="#F2F2F2"/>
<path d="M732.642 412.393L734.778 410.186L734.796 409.908C734.878 408.619 735.225 407.567 735.827 406.779C735.923 406.654 736.025 406.534 736.129 406.411C736.542 405.925 737.055 405.321 737.292 404.339C737.423 403.79 737.637 402.451 736.773 401.97C736.543 401.839 736.311 401.813 736.105 401.832C736.109 401.791 736.113 401.749 736.117 401.704C736.16 401.15 736.091 400.845 736.024 400.552C735.973 400.326 735.92 400.093 735.911 399.632C735.908 399.43 735.914 399.26 735.919 399.117C735.935 398.684 735.93 398.15 735.465 397.8C734.955 397.443 734.382 397.651 734.003 397.788C733.327 398.033 732.922 398.273 732.652 398.432C732.554 398.49 732.443 398.555 732.402 398.57C732.063 398.681 730.942 397.467 730.517 397.012C729.567 395.987 728.744 395.101 727.824 395.488C727.165 395.765 726.869 396.576 726.923 397.964C726.941 398.397 727.02 398.777 727.107 399.093C726.856 399.063 726.581 399.102 726.327 399.301C725.728 399.773 725.778 400.748 726.474 402.202C726.646 402.564 726.879 403.049 727.342 403.553C727.56 403.791 727.778 403.976 727.967 404.131C727.884 404.246 727.817 404.388 727.789 404.566C727.705 405.087 727.986 405.584 728.646 406.027C729.365 406.524 730.035 406.831 730.626 407.103C731.142 407.341 731.585 407.547 731.866 407.796C732.381 408.264 732.465 409.031 732.521 409.985L732.642 412.393Z" fill="#F2F2F2"/>
<path d="M742.494 397.041L744.087 399.667L744.352 399.755C745.578 400.161 746.507 400.763 747.116 401.546C747.213 401.671 747.304 401.8 747.396 401.932C747.761 402.454 748.215 403.103 749.105 403.582C749.603 403.848 750.844 404.395 751.528 403.681C751.714 403.491 751.798 403.274 751.831 403.07C751.87 403.085 751.91 403.099 751.953 403.114C752.477 403.296 752.789 403.306 753.09 403.316C753.321 403.324 753.56 403.332 754.008 403.44C754.205 403.488 754.368 403.537 754.505 403.579C754.92 403.703 755.438 403.835 755.894 403.473C756.369 403.07 756.313 402.464 756.276 402.063C756.211 401.346 756.082 400.893 755.996 400.593C755.965 400.483 755.93 400.359 755.926 400.315C755.905 399.959 757.364 399.183 757.911 398.887C759.143 398.228 760.21 397.657 760.068 396.668C759.967 395.961 759.258 395.469 757.901 395.169C757.479 395.076 757.091 395.057 756.763 395.061C756.856 394.826 756.888 394.549 756.76 394.254C756.455 393.554 755.499 393.356 753.917 393.66C753.523 393.734 752.994 393.837 752.389 394.156C752.104 394.307 751.87 394.471 751.672 394.615C751.581 394.506 751.461 394.405 751.297 394.332C750.813 394.119 750.261 394.265 749.666 394.791C749.003 395.36 748.535 395.931 748.123 396.433C747.762 396.871 747.45 397.248 747.138 397.456C746.554 397.836 745.791 397.722 744.854 397.535L742.494 397.041Z" fill="#F2F2F2"/>
<path d="M749.245 390.894L751.381 388.687L751.399 388.408C751.481 387.12 751.828 386.068 752.431 385.28C752.527 385.155 752.629 385.034 752.733 384.912C753.145 384.426 753.658 383.822 753.896 382.84C754.027 382.291 754.24 380.951 753.377 380.471C753.146 380.339 752.915 380.313 752.709 380.333C752.713 380.291 752.716 380.249 752.721 380.204C752.764 379.651 752.694 379.346 752.628 379.052C752.577 378.827 752.524 378.594 752.515 378.133C752.511 377.931 752.518 377.761 752.523 377.618C752.538 377.184 752.534 376.65 752.068 376.3C751.558 375.943 750.986 376.151 750.607 376.289C749.931 376.534 749.525 376.773 749.256 376.933C749.158 376.991 749.047 377.056 749.005 377.07C748.666 377.181 747.545 375.967 747.121 375.513C746.17 374.488 745.348 373.601 744.427 373.989C743.768 374.266 743.473 375.077 743.527 376.465C743.544 376.897 743.624 377.277 743.711 377.594C743.46 377.564 743.184 377.602 742.931 377.801C742.331 378.273 742.382 379.249 743.077 380.702C743.25 381.064 743.483 381.55 743.945 382.054C744.163 382.291 744.381 382.477 744.57 382.632C744.488 382.747 744.421 382.889 744.392 383.066C744.309 383.588 744.59 384.085 745.25 384.527C745.968 385.024 746.639 385.332 747.23 385.604C747.745 385.842 748.188 386.048 748.469 386.296C748.984 386.765 749.068 387.532 749.124 388.486L749.245 390.894Z" fill="#F2F2F2"/>
<path d="M710.561 435.875L711.312 435.949L711.85 436.472C711.901 436.425 712.031 436.323 712.231 436.164C713.33 435.288 716.674 432.623 721.343 427.965C724.603 424.713 727.737 421.203 730.661 417.531C733.59 413.852 735.589 410.899 737.196 408.526C738.408 406.736 739.535 405.01 740.631 403.328C743.561 398.835 746.329 394.591 749.984 390.349C750.799 389.402 752.498 387.43 755.389 386.17C757.066 385.439 758.896 385.054 760.828 385.026L760.806 383.516C758.673 383.548 756.647 383.976 754.785 384.787C751.579 386.185 749.728 388.333 748.839 389.365C745.12 393.682 742.325 397.967 739.368 402.503C738.275 404.179 737.154 405.898 735.947 407.68C734.354 410.031 732.372 412.958 729.481 416.59C726.593 420.219 723.496 423.686 720.278 426.897C715.667 431.495 712.373 434.12 711.291 434.983C710.713 435.444 710.592 435.54 710.561 435.875Z" fill="#F2F2F2"/>
<path d="M761.553 388.616C761.602 388.654 761.652 388.691 761.705 388.726C762.765 389.457 764.177 389.575 765.902 389.079C766.713 388.845 767.389 388.386 768.739 387.471C768.947 387.33 769.991 386.605 771.194 385.429C771.98 384.66 772.243 384.288 772.318 383.837C772.403 383.336 772.287 382.852 772.07 382.419C772.174 382.316 772.253 382.189 772.296 382.03C772.477 381.375 771.885 381.022 771.568 380.828C771.406 380.732 771.202 380.614 771.01 380.449C770.708 380.192 770.612 379.968 770.465 379.631C770.324 379.308 770.149 378.907 769.769 378.466C769.024 377.595 768.084 377.271 767.775 377.165C766.151 376.597 764.738 377.11 763.103 377.703C762.776 377.823 761.615 378.283 760.383 379.19C759.494 379.844 759.24 380.243 759.098 380.577C758.804 381.261 758.899 381.855 759.224 383.257C759.561 384.722 759.731 385.457 759.95 385.993C760.462 387.239 760.783 388.021 761.553 388.616Z" fill="#F2F2F2"/>
<path d="M516.504 428.215L503.215 425.138L508.757 372.415L528.371 376.956L516.504 428.215Z" fill="#A0616A"/>
<path d="M471.042 417.375C470.467 417.976 469.728 420.175 469.54 420.985C468.964 423.476 470.516 425.963 473.007 426.54L514.162 436.065C515.862 436.459 517.558 435.4 517.952 433.7L518.348 431.987C518.348 431.987 521.576 427.308 518.854 419.991C518.854 419.991 512.494 423.755 506.511 414.169L505.178 409.479L485.748 417.786L476.275 416.788C474.203 416.569 472.482 415.869 471.042 417.375Z" fill="#2F2E41"/>
<path d="M655.956 399.797L646.077 409.203L605.094 375.575L619.674 361.693L655.956 399.797Z" fill="#A0616A"/>
<path d="M621.898 431.802C622.083 432.613 623.513 434.439 624.087 435.042C625.85 436.893 628.78 436.965 630.632 435.202L661.224 406.07C662.487 404.867 662.536 402.868 661.333 401.605L660.12 400.331C660.12 400.331 657.989 395.062 650.38 393.311C650.38 393.311 650.025 400.693 638.729 400.417L634.079 398.95L630.329 419.746L624.286 427.108C622.963 428.719 621.432 429.771 621.898 431.802Z" fill="#2F2E41"/>
<path d="M712.049 301.111L694.585 330.018L592.809 323.995L619.909 289.066L712.049 301.111Z" fill="#F2F2F2"/>
<path d="M681.638 436.31C682.23 436.31 682.747 435.873 682.829 435.269L713.242 213.155C713.332 212.496 712.871 211.888 712.212 211.798C711.553 211.703 710.946 212.169 710.855 212.828L680.443 434.942C680.353 435.602 680.814 436.209 681.473 436.299C681.528 436.307 681.583 436.31 681.638 436.31Z" fill="#F2F2F2"/>
<path d="M712.048 436.592C712.713 436.592 713.253 436.053 713.253 435.388V213.034C713.253 212.369 712.713 211.83 712.048 211.83C711.383 211.83 710.844 212.369 710.844 213.034V435.388C710.844 436.053 711.383 436.592 712.048 436.592Z" fill="#F2F2F2"/>
<path d="M559.385 435.709C559.897 435.709 560.372 435.379 560.533 434.865L632.499 206.126C632.699 205.492 632.346 204.815 631.712 204.615C631.077 204.417 630.401 204.769 630.201 205.403L558.236 434.142C558.036 434.776 558.388 435.453 559.023 435.653C559.143 435.69 559.265 435.709 559.385 435.709Z" fill="#F2F2F2"/>
<path d="M581.366 435.99C581.904 435.99 582.394 435.628 582.532 435.083L632.517 233.205C632.681 232.56 632.291 231.904 631.647 231.74C631 231.577 630.346 231.966 630.182 232.611L580.198 434.489C580.034 435.133 580.423 435.789 581.068 435.953C581.168 435.978 581.268 435.99 581.366 435.99Z" fill="#F2F2F2"/>
<path d="M712.048 216.576L628.64 215.294L613.283 302.917H710.844L712.048 216.576Z" fill="#F2F2F2"/>
<path d="M679.999 275.183C679.999 275.183 694.505 311.164 667.68 319.37C640.855 327.576 602.196 339.17 602.196 339.17L646.642 382.189L624.73 396.192C624.73 396.192 543.896 340.825 543.896 327.576C543.896 314.327 610.141 280.001 610.141 280.001L646.642 266.96L679.999 275.183Z" fill="#2F2E41"/>
<path d="M595.56 266.96C595.56 266.96 521.094 272.428 515.482 286.904C509.871 301.38 498.67 376.215 498.67 376.215L537.811 383.158L549.49 319.37L656.645 281.237L595.56 266.96Z" fill="#2F2E41"/>
<path d="M555.826 184.73L575.49 160.692L597.207 174.936C597.207 174.936 679.054 228.111 682.438 278.007C682.438 278.007 649.508 309.682 607.253 269.898L576.632 261.777L555.826 184.73Z" fill="#CCCCCC"/>
<path d="M468.497 284.712C461.965 287.171 455.402 285.795 453.837 281.638C452.273 277.482 456.299 272.119 462.831 269.661C465.69 268.585 468.555 268.243 471.004 268.548L498.811 258.478L503.259 271.628L475.375 280.159C473.735 282.004 471.356 283.636 468.497 284.712Z" fill="#A0616A"/>
<path d="M562.391 186.819L555.827 184.73L537.056 242.083L472.867 265.63L476.966 281.44L549.959 264.021L578.133 236.547L562.391 186.819Z" fill="#CCCCCC"/>
<path d="M550.397 167.624C563.257 167.624 573.682 157.198 573.682 144.338C573.682 131.478 563.257 121.053 550.397 121.053C537.537 121.053 527.111 131.478 527.111 144.338C527.111 157.198 537.537 167.624 550.397 167.624Z" fill="#A0616A"/>
<path d="M573.458 126.79C573.458 126.79 567.401 107.231 547.312 109.843C547.312 109.843 543.251 113.804 539.821 113.187C536.39 112.571 529.958 122.805 528.24 122.783C526.521 122.762 523.635 124.444 526.499 124.48C529.364 124.516 532.486 123.123 528.494 125.365C524.502 127.607 521.851 129.579 524.701 130.761C527.551 131.943 528.096 128.798 524.397 132.19C520.697 135.581 522.946 133.604 524.644 135.345C526.341 137.085 523.672 146.57 523.672 146.57C523.672 146.57 523.447 139.341 533.187 139.463C542.927 139.586 549.2 141.957 552.101 139.128C555.002 136.299 559.26 140.666 561.94 143.414C564.619 146.162 566.918 145.618 566.918 145.618L564.461 158.766C564.461 158.766 574.498 158.053 575.136 152.884C575.774 147.714 573.264 142.259 575.004 140.562C576.745 138.865 573.458 126.79 573.458 126.79Z" fill="#2F2E41"/>
<path d="M456.589 280.067C486.954 280.067 511.57 255.452 511.57 225.087C511.57 194.723 486.954 170.107 456.589 170.107C426.225 170.107 401.609 194.723 401.609 225.087C401.609 255.452 426.225 280.067 456.589 280.067Z" fill="#6656FF"/>
<path d="M459.439 225.348L453.982 226.268L459.232 257.401L464.689 256.481L459.439 225.348Z" fill="white"/>
<path d="M439.088 244.54L457.847 232.548L479.501 237.726L451.218 193.232L439.088 244.54Z" fill="white"/>
<path d="M472.758 253.441C465.779 253.445 460.12 249.848 460.117 245.406C460.115 240.965 465.77 237.362 472.749 237.358C475.804 237.357 478.606 238.045 480.792 239.192L510.363 239.547L509.901 253.421L480.798 251.598C478.614 252.748 475.813 253.439 472.758 253.441Z" fill="#A0616A"/>
<path d="M585.163 184.987C599.447 200.601 601.202 223.959 589.41 241.531L565.73 263.192L489.803 255.988L491.404 238.215L545.066 235.328L585.163 184.987Z" fill="#CCCCCC"/>
</svg>
