<svg width="860" height="39" viewBox="0 0 860 39" fill="none" xmlns="http://www.w3.org/2000/svg">
<path d="M287.43 18.3942C287.43 18.3938 287.431 18.3934 287.431 18.393L293.958 11.4586C294.237 11.1629 294.606 11 295 11C295.393 11 295.763 11.1628 296.042 11.4585L302.566 18.3894C302.568 18.3917 302.57 18.3942 302.572 18.3965C303.144 19.007 303.143 19.9975 302.569 20.6065C302.308 20.8848 301.962 21.046 301.592 21.0629C301.577 21.0644 301.562 21.0652 301.546 21.0652H301.286V26.1685C301.286 27.1784 300.513 28 299.562 28H297.008C296.75 28 296.54 27.777 296.54 27.502V23.501C296.54 23.0402 296.187 22.6653 295.753 22.6653H294.247C293.813 22.6653 293.46 23.0402 293.46 23.501V27.502C293.46 27.777 293.25 28 292.991 28H290.438C289.487 28 288.713 27.1784 288.713 26.1685V21.0652H288.472C288.079 21.0652 287.709 20.9024 287.431 20.6067C286.857 19.9967 286.856 19.0045 287.43 18.3942Z" fill="white"/>
<path d="M324.322 24H321.891V19.223H316.536V24H314.122V12.661H316.536V17.115H321.891V12.661H324.322V24ZM330.314 24.204C327.611 24.204 325.979 22.215 325.979 19.886C325.979 17.557 327.611 15.585 330.314 15.585C333.034 15.585 334.666 17.557 334.666 19.886C334.666 22.215 333.034 24.204 330.314 24.204ZM330.314 22.283C331.674 22.283 332.422 21.178 332.422 19.886C332.422 18.611 331.674 17.506 330.314 17.506C328.971 17.506 328.223 18.611 328.223 19.886C328.223 21.178 328.971 22.283 330.314 22.283ZM348.643 24H346.467V18.815C346.467 18.05 346.127 17.506 345.243 17.506C344.478 17.506 343.849 18.016 343.543 18.458V24H341.367V18.815C341.367 18.05 341.027 17.506 340.143 17.506C339.395 17.506 338.766 18.016 338.443 18.458V24H336.284V15.789H338.443V16.843C338.8 16.367 339.871 15.585 341.129 15.585C342.336 15.585 343.118 16.146 343.407 17.064C343.883 16.333 344.971 15.585 346.229 15.585C347.742 15.585 348.643 16.384 348.643 18.067V24ZM354.636 24.204C352.137 24.204 350.25 22.521 350.25 19.886C350.25 17.506 352.018 15.585 354.5 15.585C356.965 15.585 358.614 17.421 358.614 20.09V20.6H352.511C352.664 21.603 353.48 22.436 354.874 22.436C355.571 22.436 356.523 22.147 357.05 21.637L358.019 23.065C357.203 23.813 355.911 24.204 354.636 24.204ZM356.54 19.104C356.472 18.322 355.928 17.353 354.5 17.353C353.157 17.353 352.579 18.288 352.494 19.104H356.54Z" fill="white"/>
<path d="M384.022 20.3212L378.866 25.2197L378.116 25.9322C377.762 26.2678 377.304 26.1653 377.039 25.9182C376.906 25.7937 376.808 25.6228 376.795 25.4332C376.781 25.239 376.857 25.0436 377.036 24.8821L382.19 19.985L382.357 19.8265L377.784 15.4822L377.065 14.7994C376.893 14.6357 376.824 14.4379 376.839 14.244C376.855 14.055 376.949 13.8822 377.08 13.7552C377.211 13.6281 377.388 13.5387 377.581 13.5264C377.777 13.5139 377.978 13.5822 378.148 13.7519L383.272 18.6194L383.981 19.2927C384.35 19.5383 384.322 20.0362 384.022 20.3212Z" fill="white" stroke="white" stroke-width="0.3"/>
<path d="M405.168 24.204C402.975 24.204 401.411 23.473 400.34 22.402L401.666 20.515C402.465 21.348 403.706 22.062 405.27 22.062C406.613 22.062 407.242 21.467 407.242 20.804C407.242 18.832 400.714 20.209 400.714 15.942C400.714 14.055 402.346 12.491 405.015 12.491C406.817 12.491 408.313 13.035 409.435 14.072L408.092 15.874C407.174 15.024 405.95 14.633 404.794 14.633C403.774 14.633 403.196 15.075 403.196 15.755C403.196 17.54 409.707 16.333 409.707 20.566C409.707 22.64 408.211 24.204 405.168 24.204ZM415.123 24.204C412.624 24.204 410.737 22.521 410.737 19.886C410.737 17.506 412.505 15.585 414.987 15.585C417.452 15.585 419.101 17.421 419.101 20.09V20.6H412.998C413.151 21.603 413.967 22.436 415.361 22.436C416.058 22.436 417.01 22.147 417.537 21.637L418.506 23.065C417.69 23.813 416.398 24.204 415.123 24.204ZM417.027 19.104C416.959 18.322 416.415 17.353 414.987 17.353C413.644 17.353 413.066 18.288 412.981 19.104H417.027ZM422.82 24H420.661V15.789H422.82V16.894C423.415 16.18 424.418 15.585 425.438 15.585V17.693C425.285 17.659 425.098 17.642 424.843 17.642C424.129 17.642 423.177 18.05 422.82 18.577V24ZM431.241 24H428.912L425.614 15.789H427.926L430.068 21.501L432.227 15.789H434.539L431.241 24ZM436.574 14.905C435.877 14.905 435.299 14.327 435.299 13.613C435.299 12.899 435.877 12.338 436.574 12.338C437.288 12.338 437.866 12.899 437.866 13.613C437.866 14.327 437.288 14.905 436.574 14.905ZM437.662 24H435.503V15.789H437.662V24ZM443.627 24.204C441.111 24.204 439.275 22.419 439.275 19.886C439.275 17.37 441.111 15.585 443.627 15.585C445.31 15.585 446.33 16.316 446.874 17.064L445.463 18.39C445.072 17.812 444.477 17.506 443.729 17.506C442.42 17.506 441.502 18.458 441.502 19.886C441.502 21.314 442.42 22.283 443.729 22.283C444.477 22.283 445.072 21.943 445.463 21.382L446.874 22.708C446.33 23.456 445.31 24.204 443.627 24.204ZM452.145 24.204C449.646 24.204 447.759 22.521 447.759 19.886C447.759 17.506 449.527 15.585 452.009 15.585C454.474 15.585 456.123 17.421 456.123 20.09V20.6H450.02C450.173 21.603 450.989 22.436 452.383 22.436C453.08 22.436 454.032 22.147 454.559 21.637L455.528 23.065C454.712 23.813 453.42 24.204 452.145 24.204ZM454.049 19.104C453.981 18.322 453.437 17.353 452.009 17.353C450.666 17.353 450.088 18.288 450.003 19.104H454.049ZM460.64 24.204C459.212 24.204 457.835 23.728 456.968 22.929L457.903 21.365C458.515 21.943 459.722 22.504 460.742 22.504C461.677 22.504 462.119 22.147 462.119 21.637C462.119 20.294 457.257 21.399 457.257 18.169C457.257 16.792 458.447 15.585 460.623 15.585C462 15.585 463.105 16.061 463.921 16.707L463.054 18.237C462.561 17.727 461.626 17.285 460.623 17.285C459.841 17.285 459.331 17.625 459.331 18.084C459.331 19.291 464.21 18.271 464.21 21.586C464.21 23.099 462.918 24.204 460.64 24.204Z" fill="white"/>
<path d="M489.022 20.3212L483.866 25.2197L483.116 25.9322C482.762 26.2678 482.304 26.1653 482.039 25.9182C481.906 25.7937 481.808 25.6228 481.795 25.4332C481.781 25.239 481.857 25.0436 482.036 24.8821L487.19 19.985L487.357 19.8265L482.784 15.4822L482.065 14.7994C481.893 14.6357 481.824 14.4379 481.839 14.244C481.855 14.055 481.949 13.8822 482.08 13.7552C482.211 13.6281 482.388 13.5387 482.581 13.5264C482.777 13.5139 482.978 13.5822 483.148 13.7519L488.272 18.6194L488.981 19.2927C489.35 19.5383 489.322 20.0362 489.022 20.3212Z" fill="white" stroke="white" stroke-width="0.3"/>
<path d="M516.696 24H513.959L513.245 22.079H508.383L507.669 24H504.932L509.301 12.661H512.327L516.696 24ZM512.582 19.954L510.814 15.075L509.046 19.954H512.582ZM525.512 24H523.336V22.946C522.69 23.762 521.806 24.204 520.803 24.204C518.746 24.204 517.165 22.64 517.165 19.886C517.165 17.217 518.712 15.585 520.803 15.585C521.772 15.585 522.69 15.993 523.336 16.843V12.661H525.512V24ZM521.483 22.283C522.197 22.283 522.979 21.892 523.336 21.348V18.441C522.979 17.897 522.197 17.506 521.483 17.506C520.242 17.506 519.392 18.475 519.392 19.886C519.392 21.314 520.242 22.283 521.483 22.283ZM532.107 24H529.778L526.48 15.789H528.792L530.934 21.501L533.093 15.789H535.405L532.107 24ZM537.44 14.905C536.743 14.905 536.165 14.327 536.165 13.613C536.165 12.899 536.743 12.338 537.44 12.338C538.154 12.338 538.732 12.899 538.732 13.613C538.732 14.327 538.154 14.905 537.44 14.905ZM538.528 24H536.369V15.789H538.528V24ZM543.627 24.204C542.199 24.204 540.822 23.728 539.955 22.929L540.89 21.365C541.502 21.943 542.709 22.504 543.729 22.504C544.664 22.504 545.106 22.147 545.106 21.637C545.106 20.294 540.244 21.399 540.244 18.169C540.244 16.792 541.434 15.585 543.61 15.585C544.987 15.585 546.092 16.061 546.908 16.707L546.041 18.237C545.548 17.727 544.613 17.285 543.61 17.285C542.828 17.285 542.318 17.625 542.318 18.084C542.318 19.291 547.197 18.271 547.197 21.586C547.197 23.099 545.905 24.204 543.627 24.204ZM552.578 24.204C549.875 24.204 548.243 22.215 548.243 19.886C548.243 17.557 549.875 15.585 552.578 15.585C555.298 15.585 556.93 17.557 556.93 19.886C556.93 22.215 555.298 24.204 552.578 24.204ZM552.578 22.283C553.938 22.283 554.686 21.178 554.686 19.886C554.686 18.611 553.938 17.506 552.578 17.506C551.235 17.506 550.487 18.611 550.487 19.886C550.487 21.178 551.235 22.283 552.578 22.283ZM560.708 24H558.549V15.789H560.708V16.894C561.303 16.18 562.306 15.585 563.326 15.585V17.693C563.173 17.659 562.986 17.642 562.731 17.642C562.017 17.642 561.065 18.05 560.708 18.577V24ZM564.403 27.196L564.709 25.275C564.896 25.36 565.185 25.411 565.389 25.411C565.95 25.411 566.324 25.258 566.528 24.816L566.834 24.102L563.502 15.789H565.814L567.956 21.501L570.115 15.789H572.427L568.568 25.343C567.956 26.89 566.868 27.298 565.457 27.332C565.219 27.332 564.658 27.281 564.403 27.196Z" fill="white"/>
</svg>
