<svg width="860" height="39" viewBox="0 0 860 39" fill="none" xmlns="http://www.w3.org/2000/svg">
<g filter="url(#filter0_d_257_126)">
<path d="M337.93 18.3942C337.93 18.3938 337.931 18.3934 337.931 18.393L344.458 11.4586C344.737 11.1629 345.106 11 345.5 11C345.893 11 346.263 11.1628 346.542 11.4585L353.066 18.3894C353.068 18.3917 353.07 18.3942 353.072 18.3965C353.644 19.007 353.643 19.9975 353.069 20.6065C352.808 20.8848 352.462 21.046 352.092 21.0629C352.077 21.0644 352.062 21.0652 352.046 21.0652H351.786V26.1685C351.786 27.1784 351.013 28 350.062 28H347.508C347.25 28 347.04 27.777 347.04 27.502V23.501C347.04 23.0402 346.687 22.6653 346.253 22.6653H344.747C344.313 22.6653 343.96 23.0402 343.96 23.501V27.502C343.96 27.777 343.75 28 343.491 28H340.938C339.987 28 339.213 27.1784 339.213 26.1685V21.0652H338.972C338.579 21.0652 338.209 20.9024 337.931 20.6067C337.357 19.9967 337.356 19.0045 337.93 18.3942Z" fill="white"/>
<path d="M374.822 24H372.391V19.223H367.036V24H364.622V12.661H367.036V17.115H372.391V12.661H374.822V24ZM380.814 24.204C378.111 24.204 376.479 22.215 376.479 19.886C376.479 17.557 378.111 15.585 380.814 15.585C383.534 15.585 385.166 17.557 385.166 19.886C385.166 22.215 383.534 24.204 380.814 24.204ZM380.814 22.283C382.174 22.283 382.922 21.178 382.922 19.886C382.922 18.611 382.174 17.506 380.814 17.506C379.471 17.506 378.723 18.611 378.723 19.886C378.723 21.178 379.471 22.283 380.814 22.283ZM399.143 24H396.967V18.815C396.967 18.05 396.627 17.506 395.743 17.506C394.978 17.506 394.349 18.016 394.043 18.458V24H391.867V18.815C391.867 18.05 391.527 17.506 390.643 17.506C389.895 17.506 389.266 18.016 388.943 18.458V24H386.784V15.789H388.943V16.843C389.3 16.367 390.371 15.585 391.629 15.585C392.836 15.585 393.618 16.146 393.907 17.064C394.383 16.333 395.471 15.585 396.729 15.585C398.242 15.585 399.143 16.384 399.143 18.067V24ZM405.136 24.204C402.637 24.204 400.75 22.521 400.75 19.886C400.75 17.506 402.518 15.585 405 15.585C407.465 15.585 409.114 17.421 409.114 20.09V20.6H403.011C403.164 21.603 403.98 22.436 405.374 22.436C406.071 22.436 407.023 22.147 407.55 21.637L408.519 23.065C407.703 23.813 406.411 24.204 405.136 24.204ZM407.04 19.104C406.972 18.322 406.428 17.353 405 17.353C403.657 17.353 403.079 18.288 402.994 19.104H407.04Z" fill="white"/>
<path d="M434.524 20.3212L429.368 25.2197L428.618 25.9322C428.264 26.2678 427.806 26.1653 427.541 25.9182C427.407 25.7937 427.31 25.6228 427.297 25.4332C427.283 25.239 427.359 25.0436 427.537 24.8821L432.692 19.985L432.859 19.8265L428.286 15.4822L427.567 14.7994C427.395 14.6357 427.326 14.4379 427.341 14.244C427.356 14.055 427.451 13.8822 427.582 13.7552C427.713 13.6281 427.89 13.5387 428.083 13.5264C428.279 13.5139 428.48 13.5822 428.65 13.7519L433.774 18.6194L434.483 19.2927C434.852 19.5383 434.824 20.0362 434.524 20.3212Z" fill="white" stroke="white" stroke-width="0.3"/>
<path d="M462.196 24H459.459L458.745 22.079H453.883L453.169 24H450.432L454.801 12.661H457.827L462.196 24ZM458.082 19.954L456.314 15.075L454.546 19.954H458.082ZM465.351 21.365C465.725 21.892 466.507 22.283 467.221 22.283C468.462 22.283 469.295 21.314 469.295 19.886C469.295 18.475 468.462 17.506 467.221 17.506C466.507 17.506 465.725 17.914 465.351 18.458V21.365ZM465.351 24H463.192V12.661H465.351V16.843C465.997 15.993 466.915 15.585 467.884 15.585C469.975 15.585 471.522 17.217 471.522 19.886C471.522 22.64 469.958 24.204 467.884 24.204C466.898 24.204 465.997 23.762 465.351 22.946V24ZM476.961 24.204C474.258 24.204 472.626 22.215 472.626 19.886C472.626 17.557 474.258 15.585 476.961 15.585C479.681 15.585 481.313 17.557 481.313 19.886C481.313 22.215 479.681 24.204 476.961 24.204ZM476.961 22.283C478.321 22.283 479.069 21.178 479.069 19.886C479.069 18.611 478.321 17.506 476.961 17.506C475.618 17.506 474.87 18.611 474.87 19.886C474.87 21.178 475.618 22.283 476.961 22.283ZM490.632 24H488.473V22.963C487.912 23.575 486.926 24.204 485.583 24.204C483.781 24.204 482.931 23.218 482.931 21.62V15.789H485.09V20.77C485.09 21.909 485.685 22.283 486.603 22.283C487.436 22.283 488.099 21.824 488.473 21.348V15.789H490.632V24ZM495.53 24.204C494.017 24.204 493.218 23.422 493.218 21.943V17.676H491.858V15.789H493.218V13.545H495.377V15.789H497.043V17.676H495.377V21.365C495.377 21.892 495.649 22.283 496.125 22.283C496.448 22.283 496.754 22.164 496.873 22.028L497.332 23.677C497.009 23.966 496.431 24.204 495.53 24.204ZM508.054 24.204C504.603 24.204 502.937 22.266 502.937 19.461V12.661H505.385V19.393C505.385 20.974 506.303 22.062 508.054 22.062C509.805 22.062 510.706 20.974 510.706 19.393V12.661H513.171V19.461C513.171 22.266 511.505 24.204 508.054 24.204ZM518.329 24.204C516.901 24.204 515.524 23.728 514.657 22.929L515.592 21.365C516.204 21.943 517.411 22.504 518.431 22.504C519.366 22.504 519.808 22.147 519.808 21.637C519.808 20.294 514.946 21.399 514.946 18.169C514.946 16.792 516.136 15.585 518.312 15.585C519.689 15.585 520.794 16.061 521.61 16.707L520.743 18.237C520.25 17.727 519.315 17.285 518.312 17.285C517.53 17.285 517.02 17.625 517.02 18.084C517.02 19.291 521.899 18.271 521.899 21.586C521.899 23.099 520.607 24.204 518.329 24.204Z" fill="white"/>
</g>
<defs>
<filter id="filter0_d_257_126" x="-4" y="0" width="868" height="47" filterUnits="userSpaceOnUse" color-interpolation-filters="sRGB">
<feFlood flood-opacity="0" result="BackgroundImageFix"/>
<feColorMatrix in="SourceAlpha" type="matrix" values="0 0 0 0 0 0 0 0 0 0 0 0 0 0 0 0 0 0 127 0" result="hardAlpha"/>
<feOffset dy="4"/>
<feGaussianBlur stdDeviation="2"/>
<feComposite in2="hardAlpha" operator="out"/>
<feColorMatrix type="matrix" values="0 0 0 0 0 0 0 0 0 0 0 0 0 0 0 0 0 0 0.25 0"/>
<feBlend mode="normal" in2="BackgroundImageFix" result="effect1_dropShadow_257_126"/>
<feBlend mode="normal" in="SourceGraphic" in2="effect1_dropShadow_257_126" result="shape"/>
</filter>
</defs>
</svg>
