<svg width="860" height="39" viewBox="0 0 860 39" fill="none" xmlns="http://www.w3.org/2000/svg">
<path d="M260.43 18.3942C260.43 18.3938 260.431 18.3934 260.431 18.393L266.958 11.4586C267.237 11.1629 267.606 11 268 11C268.393 11 268.763 11.1628 269.042 11.4585L275.566 18.3894C275.568 18.3917 275.57 18.3942 275.572 18.3965C276.144 19.007 276.143 19.9975 275.569 20.6065C275.308 20.8848 274.962 21.046 274.592 21.0629C274.577 21.0644 274.562 21.0652 274.546 21.0652H274.286V26.1685C274.286 27.1784 273.513 28 272.562 28H270.008C269.75 28 269.54 27.777 269.54 27.502V23.501C269.54 23.0402 269.187 22.6653 268.753 22.6653H267.247C266.813 22.6653 266.46 23.0402 266.46 23.501V27.502C266.46 27.777 266.25 28 265.991 28H263.438C262.487 28 261.713 27.1784 261.713 26.1685V21.0652H261.472C261.079 21.0652 260.709 20.9024 260.431 20.6067C259.857 19.9967 259.856 19.0045 260.43 18.3942Z" fill="white"/>
<path d="M297.322 24H294.891V19.223H289.536V24H287.122V12.661H289.536V17.115H294.891V12.661H297.322V24ZM303.314 24.204C300.611 24.204 298.979 22.215 298.979 19.886C298.979 17.557 300.611 15.585 303.314 15.585C306.034 15.585 307.666 17.557 307.666 19.886C307.666 22.215 306.034 24.204 303.314 24.204ZM303.314 22.283C304.674 22.283 305.422 21.178 305.422 19.886C305.422 18.611 304.674 17.506 303.314 17.506C301.971 17.506 301.223 18.611 301.223 19.886C301.223 21.178 301.971 22.283 303.314 22.283ZM321.643 24H319.467V18.815C319.467 18.05 319.127 17.506 318.243 17.506C317.478 17.506 316.849 18.016 316.543 18.458V24H314.367V18.815C314.367 18.05 314.027 17.506 313.143 17.506C312.395 17.506 311.766 18.016 311.443 18.458V24H309.284V15.789H311.443V16.843C311.8 16.367 312.871 15.585 314.129 15.585C315.336 15.585 316.118 16.146 316.407 17.064C316.883 16.333 317.971 15.585 319.229 15.585C320.742 15.585 321.643 16.384 321.643 18.067V24ZM327.636 24.204C325.137 24.204 323.25 22.521 323.25 19.886C323.25 17.506 325.018 15.585 327.5 15.585C329.965 15.585 331.614 17.421 331.614 20.09V20.6H325.511C325.664 21.603 326.48 22.436 327.874 22.436C328.571 22.436 329.523 22.147 330.05 21.637L331.019 23.065C330.203 23.813 328.911 24.204 327.636 24.204ZM329.54 19.104C329.472 18.322 328.928 17.353 327.5 17.353C326.157 17.353 325.579 18.288 325.494 19.104H329.54Z" fill="white"/>
<path d="M357.022 20.3212L351.866 25.2197L351.116 25.9322C350.762 26.2678 350.304 26.1653 350.039 25.9182C349.906 25.7937 349.808 25.6228 349.795 25.4332C349.781 25.239 349.857 25.0436 350.036 24.8821L355.19 19.985L355.357 19.8265L350.784 15.4822L350.065 14.7994C349.893 14.6357 349.824 14.4379 349.839 14.244C349.855 14.055 349.949 13.8822 350.08 13.7552C350.211 13.6281 350.388 13.5387 350.581 13.5264C350.777 13.5139 350.978 13.5822 351.148 13.7519L356.272 18.6194L356.981 19.2927C357.35 19.5383 357.322 20.0362 357.022 20.3212Z" fill="white" stroke="white" stroke-width="0.3"/>
<path d="M378.168 24.204C375.975 24.204 374.411 23.473 373.34 22.402L374.666 20.515C375.465 21.348 376.706 22.062 378.27 22.062C379.613 22.062 380.242 21.467 380.242 20.804C380.242 18.832 373.714 20.209 373.714 15.942C373.714 14.055 375.346 12.491 378.015 12.491C379.817 12.491 381.313 13.035 382.435 14.072L381.092 15.874C380.174 15.024 378.95 14.633 377.794 14.633C376.774 14.633 376.196 15.075 376.196 15.755C376.196 17.54 382.707 16.333 382.707 20.566C382.707 22.64 381.211 24.204 378.168 24.204ZM388.123 24.204C385.624 24.204 383.737 22.521 383.737 19.886C383.737 17.506 385.505 15.585 387.987 15.585C390.452 15.585 392.101 17.421 392.101 20.09V20.6H385.998C386.151 21.603 386.967 22.436 388.361 22.436C389.058 22.436 390.01 22.147 390.537 21.637L391.506 23.065C390.69 23.813 389.398 24.204 388.123 24.204ZM390.027 19.104C389.959 18.322 389.415 17.353 387.987 17.353C386.644 17.353 386.066 18.288 385.981 19.104H390.027ZM395.82 24H393.661V15.789H395.82V16.894C396.415 16.18 397.418 15.585 398.438 15.585V17.693C398.285 17.659 398.098 17.642 397.843 17.642C397.129 17.642 396.177 18.05 395.82 18.577V24ZM404.241 24H401.912L398.614 15.789H400.926L403.068 21.501L405.227 15.789H407.539L404.241 24ZM409.574 14.905C408.877 14.905 408.299 14.327 408.299 13.613C408.299 12.899 408.877 12.338 409.574 12.338C410.288 12.338 410.866 12.899 410.866 13.613C410.866 14.327 410.288 14.905 409.574 14.905ZM410.662 24H408.503V15.789H410.662V24ZM416.627 24.204C414.111 24.204 412.275 22.419 412.275 19.886C412.275 17.37 414.111 15.585 416.627 15.585C418.31 15.585 419.33 16.316 419.874 17.064L418.463 18.39C418.072 17.812 417.477 17.506 416.729 17.506C415.42 17.506 414.502 18.458 414.502 19.886C414.502 21.314 415.42 22.283 416.729 22.283C417.477 22.283 418.072 21.943 418.463 21.382L419.874 22.708C419.33 23.456 418.31 24.204 416.627 24.204ZM425.145 24.204C422.646 24.204 420.759 22.521 420.759 19.886C420.759 17.506 422.527 15.585 425.009 15.585C427.474 15.585 429.123 17.421 429.123 20.09V20.6H423.02C423.173 21.603 423.989 22.436 425.383 22.436C426.08 22.436 427.032 22.147 427.559 21.637L428.528 23.065C427.712 23.813 426.42 24.204 425.145 24.204ZM427.049 19.104C426.981 18.322 426.437 17.353 425.009 17.353C423.666 17.353 423.088 18.288 423.003 19.104H427.049ZM433.64 24.204C432.212 24.204 430.835 23.728 429.968 22.929L430.903 21.365C431.515 21.943 432.722 22.504 433.742 22.504C434.677 22.504 435.119 22.147 435.119 21.637C435.119 20.294 430.257 21.399 430.257 18.169C430.257 16.792 431.447 15.585 433.623 15.585C435 15.585 436.105 16.061 436.921 16.707L436.054 18.237C435.561 17.727 434.626 17.285 433.623 17.285C432.841 17.285 432.331 17.625 432.331 18.084C432.331 19.291 437.21 18.271 437.21 21.586C437.21 23.099 435.918 24.204 433.64 24.204Z" fill="white"/>
<path d="M462.022 20.3212L456.866 25.2197L456.116 25.9322C455.762 26.2678 455.304 26.1653 455.039 25.9182C454.906 25.7937 454.808 25.6228 454.795 25.4332C454.781 25.239 454.857 25.0436 455.036 24.8821L460.19 19.985L460.357 19.8265L455.784 15.4822L455.065 14.7994C454.893 14.6357 454.824 14.4379 454.839 14.244C454.855 14.055 454.949 13.8822 455.08 13.7552C455.211 13.6281 455.388 13.5387 455.581 13.5264C455.777 13.5139 455.978 13.5822 456.148 13.7519L461.272 18.6194L461.981 19.2927C462.35 19.5383 462.322 20.0362 462.022 20.3212Z" fill="white" stroke="white" stroke-width="0.3"/>
<path d="M481.536 24H479.122V12.661H481.536V24ZM496.095 24H493.919V18.815C493.919 18.05 493.579 17.506 492.695 17.506C491.93 17.506 491.301 18.016 490.995 18.458V24H488.819V18.815C488.819 18.05 488.479 17.506 487.595 17.506C486.847 17.506 486.218 18.016 485.895 18.458V24H483.736V15.789H485.895V16.843C486.252 16.367 487.323 15.585 488.581 15.585C489.788 15.585 490.57 16.146 490.859 17.064C491.335 16.333 492.423 15.585 493.681 15.585C495.194 15.585 496.095 16.384 496.095 18.067V24ZM502.921 24.204C501.952 24.204 501.068 23.796 500.388 22.946V27.128H498.229V15.789H500.388V16.826C501.017 16.027 501.918 15.585 502.921 15.585C505.029 15.585 506.559 17.149 506.559 19.886C506.559 22.623 505.029 24.204 502.921 24.204ZM502.241 22.283C503.482 22.283 504.332 21.314 504.332 19.886C504.332 18.475 503.482 17.506 502.241 17.506C501.544 17.506 500.762 17.897 500.388 18.441V21.331C500.745 21.858 501.544 22.283 502.241 22.283ZM510.299 24H508.14V12.661H510.299V24ZM516.299 24.204C513.8 24.204 511.913 22.521 511.913 19.886C511.913 17.506 513.681 15.585 516.163 15.585C518.628 15.585 520.277 17.421 520.277 20.09V20.6H514.174C514.327 21.603 515.143 22.436 516.537 22.436C517.234 22.436 518.186 22.147 518.713 21.637L519.682 23.065C518.866 23.813 517.574 24.204 516.299 24.204ZM518.203 19.104C518.135 18.322 517.591 17.353 516.163 17.353C514.82 17.353 514.242 18.288 514.157 19.104H518.203ZM534.196 24H532.02V18.815C532.02 18.05 531.68 17.506 530.796 17.506C530.031 17.506 529.402 18.016 529.096 18.458V24H526.92V18.815C526.92 18.05 526.58 17.506 525.696 17.506C524.948 17.506 524.319 18.016 523.996 18.458V24H521.837V15.789H523.996V16.843C524.353 16.367 525.424 15.585 526.682 15.585C527.889 15.585 528.671 16.146 528.96 17.064C529.436 16.333 530.524 15.585 531.782 15.585C533.295 15.585 534.196 16.384 534.196 18.067V24ZM540.189 24.204C537.69 24.204 535.803 22.521 535.803 19.886C535.803 17.506 537.571 15.585 540.053 15.585C542.518 15.585 544.167 17.421 544.167 20.09V20.6H538.064C538.217 21.603 539.033 22.436 540.427 22.436C541.124 22.436 542.076 22.147 542.603 21.637L543.572 23.065C542.756 23.813 541.464 24.204 540.189 24.204ZM542.093 19.104C542.025 18.322 541.481 17.353 540.053 17.353C538.71 17.353 538.132 18.288 538.047 19.104H542.093ZM553.444 24H551.268V19.036C551.268 17.897 550.673 17.506 549.755 17.506C548.905 17.506 548.259 17.982 547.885 18.458V24H545.726V15.789H547.885V16.843C548.412 16.231 549.432 15.585 550.758 15.585C552.577 15.585 553.444 16.605 553.444 18.203V24ZM558.325 24.204C556.812 24.204 556.013 23.422 556.013 21.943V17.676H554.653V15.789H556.013V13.545H558.172V15.789H559.838V17.676H558.172V21.365C558.172 21.892 558.444 22.283 558.92 22.283C559.243 22.283 559.549 22.164 559.668 22.028L560.127 23.677C559.804 23.966 559.226 24.204 558.325 24.204ZM568.421 24H566.245V23.133C565.684 23.813 564.715 24.204 563.644 24.204C562.335 24.204 560.805 23.32 560.805 21.484C560.805 19.546 562.335 18.832 563.644 18.832C564.749 18.832 565.701 19.189 566.245 19.835V18.798C566.245 17.965 565.531 17.421 564.443 17.421C563.576 17.421 562.76 17.761 562.08 18.39L561.23 16.877C562.233 15.976 563.525 15.585 564.817 15.585C566.704 15.585 568.421 16.333 568.421 18.696V24ZM564.511 22.742C565.208 22.742 565.888 22.504 566.245 22.028V21.008C565.888 20.532 565.208 20.277 564.511 20.277C563.661 20.277 562.964 20.736 562.964 21.518C562.964 22.3 563.661 22.742 564.511 22.742ZM573.3 24.204C571.787 24.204 570.988 23.422 570.988 21.943V17.676H569.628V15.789H570.988V13.545H573.147V15.789H574.813V17.676H573.147V21.365C573.147 21.892 573.419 22.283 573.895 22.283C574.218 22.283 574.524 22.164 574.643 22.028L575.102 23.677C574.779 23.966 574.201 24.204 573.3 24.204ZM577.361 14.905C576.664 14.905 576.086 14.327 576.086 13.613C576.086 12.899 576.664 12.338 577.361 12.338C578.075 12.338 578.653 12.899 578.653 13.613C578.653 14.327 578.075 14.905 577.361 14.905ZM578.449 24H576.29V15.789H578.449V24ZM584.398 24.204C581.695 24.204 580.063 22.215 580.063 19.886C580.063 17.557 581.695 15.585 584.398 15.585C587.118 15.585 588.75 17.557 588.75 19.886C588.75 22.215 587.118 24.204 584.398 24.204ZM584.398 22.283C585.758 22.283 586.506 21.178 586.506 19.886C586.506 18.611 585.758 17.506 584.398 17.506C583.055 17.506 582.307 18.611 582.307 19.886C582.307 21.178 583.055 22.283 584.398 22.283ZM598.086 24H595.91V19.036C595.91 17.897 595.315 17.506 594.397 17.506C593.547 17.506 592.901 17.982 592.527 18.458V24H590.368V15.789H592.527V16.843C593.054 16.231 594.074 15.585 595.4 15.585C597.219 15.585 598.086 16.605 598.086 18.203V24Z" fill="white"/>
</svg>
