<svg width="860" height="39" viewBox="0 0 860 39" fill="none" xmlns="http://www.w3.org/2000/svg">
<path d="M341.43 18.3942C341.43 18.3938 341.431 18.3934 341.431 18.393L347.958 11.4586C348.237 11.1629 348.606 11 349 11C349.393 11 349.763 11.1628 350.042 11.4585L356.566 18.3894C356.568 18.3917 356.57 18.3942 356.572 18.3965C357.144 19.007 357.143 19.9975 356.569 20.6065C356.308 20.8848 355.962 21.046 355.592 21.0629C355.577 21.0644 355.562 21.0652 355.546 21.0652H355.286V26.1685C355.286 27.1784 354.513 28 353.562 28H351.008C350.75 28 350.54 27.777 350.54 27.502V23.501C350.54 23.0402 350.187 22.6653 349.753 22.6653H348.247C347.813 22.6653 347.46 23.0402 347.46 23.501V27.502C347.46 27.777 347.25 28 346.991 28H344.438C343.487 28 342.713 27.1784 342.713 26.1685V21.0652H342.472C342.079 21.0652 341.709 20.9024 341.431 20.6067C340.857 19.9967 340.856 19.0045 341.43 18.3942Z" fill="white"/>
<path d="M378.322 24H375.891V19.223H370.536V24H368.122V12.661H370.536V17.115H375.891V12.661H378.322V24ZM384.314 24.204C381.611 24.204 379.979 22.215 379.979 19.886C379.979 17.557 381.611 15.585 384.314 15.585C387.034 15.585 388.666 17.557 388.666 19.886C388.666 22.215 387.034 24.204 384.314 24.204ZM384.314 22.283C385.674 22.283 386.422 21.178 386.422 19.886C386.422 18.611 385.674 17.506 384.314 17.506C382.971 17.506 382.223 18.611 382.223 19.886C382.223 21.178 382.971 22.283 384.314 22.283ZM402.643 24H400.467V18.815C400.467 18.05 400.127 17.506 399.243 17.506C398.478 17.506 397.849 18.016 397.543 18.458V24H395.367V18.815C395.367 18.05 395.027 17.506 394.143 17.506C393.395 17.506 392.766 18.016 392.443 18.458V24H390.284V15.789H392.443V16.843C392.8 16.367 393.871 15.585 395.129 15.585C396.336 15.585 397.118 16.146 397.407 17.064C397.883 16.333 398.971 15.585 400.229 15.585C401.742 15.585 402.643 16.384 402.643 18.067V24ZM408.636 24.204C406.137 24.204 404.25 22.521 404.25 19.886C404.25 17.506 406.018 15.585 408.5 15.585C410.965 15.585 412.614 17.421 412.614 20.09V20.6H406.511C406.664 21.603 407.48 22.436 408.874 22.436C409.571 22.436 410.523 22.147 411.05 21.637L412.019 23.065C411.203 23.813 409.911 24.204 408.636 24.204ZM410.54 19.104C410.472 18.322 409.928 17.353 408.5 17.353C407.157 17.353 406.579 18.288 406.494 19.104H410.54Z" fill="white"/>
<path d="M438.022 20.3212L432.866 25.2197L432.116 25.9322C431.762 26.2678 431.304 26.1653 431.039 25.9182C430.906 25.7937 430.808 25.6228 430.795 25.4332C430.781 25.239 430.857 25.0436 431.036 24.8821L436.19 19.985L436.357 19.8265L431.784 15.4822L431.065 14.7994C430.893 14.6357 430.824 14.4379 430.839 14.244C430.855 14.055 430.949 13.8822 431.08 13.7552C431.211 13.6281 431.388 13.5387 431.581 13.5264C431.777 13.5139 431.978 13.5822 432.148 13.7519L437.272 18.6194L437.981 19.2927C438.35 19.5383 438.322 20.0362 438.022 20.3212Z" fill="white" stroke="white" stroke-width="0.3"/>
<path d="M459.168 24.204C456.975 24.204 455.411 23.473 454.34 22.402L455.666 20.515C456.465 21.348 457.706 22.062 459.27 22.062C460.613 22.062 461.242 21.467 461.242 20.804C461.242 18.832 454.714 20.209 454.714 15.942C454.714 14.055 456.346 12.491 459.015 12.491C460.817 12.491 462.313 13.035 463.435 14.072L462.092 15.874C461.174 15.024 459.95 14.633 458.794 14.633C457.774 14.633 457.196 15.075 457.196 15.755C457.196 17.54 463.707 16.333 463.707 20.566C463.707 22.64 462.211 24.204 459.168 24.204ZM469.123 24.204C466.624 24.204 464.737 22.521 464.737 19.886C464.737 17.506 466.505 15.585 468.987 15.585C471.452 15.585 473.101 17.421 473.101 20.09V20.6H466.998C467.151 21.603 467.967 22.436 469.361 22.436C470.058 22.436 471.01 22.147 471.537 21.637L472.506 23.065C471.69 23.813 470.398 24.204 469.123 24.204ZM471.027 19.104C470.959 18.322 470.415 17.353 468.987 17.353C467.644 17.353 467.066 18.288 466.981 19.104H471.027ZM476.82 24H474.661V15.789H476.82V16.894C477.415 16.18 478.418 15.585 479.438 15.585V17.693C479.285 17.659 479.098 17.642 478.843 17.642C478.129 17.642 477.177 18.05 476.82 18.577V24ZM485.241 24H482.912L479.614 15.789H481.926L484.068 21.501L486.227 15.789H488.539L485.241 24ZM490.574 14.905C489.877 14.905 489.299 14.327 489.299 13.613C489.299 12.899 489.877 12.338 490.574 12.338C491.288 12.338 491.866 12.899 491.866 13.613C491.866 14.327 491.288 14.905 490.574 14.905ZM491.662 24H489.503V15.789H491.662V24ZM497.627 24.204C495.111 24.204 493.275 22.419 493.275 19.886C493.275 17.37 495.111 15.585 497.627 15.585C499.31 15.585 500.33 16.316 500.874 17.064L499.463 18.39C499.072 17.812 498.477 17.506 497.729 17.506C496.42 17.506 495.502 18.458 495.502 19.886C495.502 21.314 496.42 22.283 497.729 22.283C498.477 22.283 499.072 21.943 499.463 21.382L500.874 22.708C500.33 23.456 499.31 24.204 497.627 24.204ZM506.145 24.204C503.646 24.204 501.759 22.521 501.759 19.886C501.759 17.506 503.527 15.585 506.009 15.585C508.474 15.585 510.123 17.421 510.123 20.09V20.6H504.02C504.173 21.603 504.989 22.436 506.383 22.436C507.08 22.436 508.032 22.147 508.559 21.637L509.528 23.065C508.712 23.813 507.42 24.204 506.145 24.204ZM508.049 19.104C507.981 18.322 507.437 17.353 506.009 17.353C504.666 17.353 504.088 18.288 504.003 19.104H508.049ZM514.64 24.204C513.212 24.204 511.835 23.728 510.968 22.929L511.903 21.365C512.515 21.943 513.722 22.504 514.742 22.504C515.677 22.504 516.119 22.147 516.119 21.637C516.119 20.294 511.257 21.399 511.257 18.169C511.257 16.792 512.447 15.585 514.623 15.585C516 15.585 517.105 16.061 517.921 16.707L517.054 18.237C516.561 17.727 515.626 17.285 514.623 17.285C513.841 17.285 513.331 17.625 513.331 18.084C513.331 19.291 518.21 18.271 518.21 21.586C518.21 23.099 516.918 24.204 514.64 24.204Z" fill="white"/>
</svg>
