<svg width="860" height="39" viewBox="0 0 860 39" fill="none" xmlns="http://www.w3.org/2000/svg">
<path d="M343.43 18.3942C343.43 18.3938 343.431 18.3934 343.431 18.393L349.958 11.4586C350.237 11.1629 350.606 11 351 11C351.393 11 351.763 11.1628 352.042 11.4585L358.566 18.3894C358.568 18.3917 358.57 18.3942 358.572 18.3965C359.144 19.007 359.143 19.9975 358.569 20.6065C358.308 20.8848 357.962 21.046 357.592 21.0629C357.577 21.0644 357.562 21.0652 357.546 21.0652H357.286V26.1685C357.286 27.1784 356.513 28 355.562 28H353.008C352.75 28 352.54 27.777 352.54 27.502V23.501C352.54 23.0402 352.187 22.6653 351.753 22.6653H350.247C349.813 22.6653 349.46 23.0402 349.46 23.501V27.502C349.46 27.777 349.25 28 348.991 28H346.438C345.487 28 344.713 27.1784 344.713 26.1685V21.0652H344.472C344.079 21.0652 343.709 20.9024 343.431 20.6067C342.857 19.9967 342.856 19.0045 343.43 18.3942Z" fill="white"/>
<path d="M380.322 24H377.891V19.223H372.536V24H370.122V12.661H372.536V17.115H377.891V12.661H380.322V24ZM386.314 24.204C383.611 24.204 381.979 22.215 381.979 19.886C381.979 17.557 383.611 15.585 386.314 15.585C389.034 15.585 390.666 17.557 390.666 19.886C390.666 22.215 389.034 24.204 386.314 24.204ZM386.314 22.283C387.674 22.283 388.422 21.178 388.422 19.886C388.422 18.611 387.674 17.506 386.314 17.506C384.971 17.506 384.223 18.611 384.223 19.886C384.223 21.178 384.971 22.283 386.314 22.283ZM404.643 24H402.467V18.815C402.467 18.05 402.127 17.506 401.243 17.506C400.478 17.506 399.849 18.016 399.543 18.458V24H397.367V18.815C397.367 18.05 397.027 17.506 396.143 17.506C395.395 17.506 394.766 18.016 394.443 18.458V24H392.284V15.789H394.443V16.843C394.8 16.367 395.871 15.585 397.129 15.585C398.336 15.585 399.118 16.146 399.407 17.064C399.883 16.333 400.971 15.585 402.229 15.585C403.742 15.585 404.643 16.384 404.643 18.067V24ZM410.636 24.204C408.137 24.204 406.25 22.521 406.25 19.886C406.25 17.506 408.018 15.585 410.5 15.585C412.965 15.585 414.614 17.421 414.614 20.09V20.6H408.511C408.664 21.603 409.48 22.436 410.874 22.436C411.571 22.436 412.523 22.147 413.05 21.637L414.019 23.065C413.203 23.813 411.911 24.204 410.636 24.204ZM412.54 19.104C412.472 18.322 411.928 17.353 410.5 17.353C409.157 17.353 408.579 18.288 408.494 19.104H412.54Z" fill="white"/>
<path d="M440.022 20.3212L434.866 25.2197L434.116 25.9322C433.762 26.2678 433.304 26.1653 433.039 25.9182C432.906 25.7937 432.808 25.6228 432.795 25.4332C432.781 25.239 432.857 25.0436 433.036 24.8821L438.19 19.985L438.357 19.8265L433.784 15.4822L433.065 14.7994C432.893 14.6357 432.824 14.4379 432.839 14.244C432.855 14.055 432.949 13.8822 433.08 13.7552C433.211 13.6281 433.388 13.5387 433.581 13.5264C433.777 13.5139 433.978 13.5822 434.148 13.7519L439.272 18.6194L439.981 19.2927C440.35 19.5383 440.322 20.0362 440.022 20.3212Z" fill="white" stroke="white" stroke-width="0.3"/>
<path d="M462.63 24.204C459.213 24.204 456.578 21.824 456.578 18.339C456.578 14.837 459.213 12.474 462.63 12.474C465.112 12.474 466.557 13.817 467.356 15.245L465.282 16.265C464.806 15.347 463.786 14.616 462.63 14.616C460.556 14.616 459.06 16.197 459.06 18.339C459.06 20.481 460.556 22.062 462.63 22.062C463.786 22.062 464.806 21.331 465.282 20.413L467.356 21.416C466.557 22.827 465.112 24.204 462.63 24.204ZM475.848 24H473.672V23.133C473.111 23.813 472.142 24.204 471.071 24.204C469.762 24.204 468.232 23.32 468.232 21.484C468.232 19.546 469.762 18.832 471.071 18.832C472.176 18.832 473.128 19.189 473.672 19.835V18.798C473.672 17.965 472.958 17.421 471.87 17.421C471.003 17.421 470.187 17.761 469.507 18.39L468.657 16.877C469.66 15.976 470.952 15.585 472.244 15.585C474.131 15.585 475.848 16.333 475.848 18.696V24ZM471.938 22.742C472.635 22.742 473.315 22.504 473.672 22.028V21.008C473.315 20.532 472.635 20.277 471.938 20.277C471.088 20.277 470.391 20.736 470.391 21.518C470.391 22.3 471.088 22.742 471.938 22.742ZM480.131 24H477.972V15.789H480.131V16.894C480.726 16.18 481.729 15.585 482.749 15.585V17.693C482.596 17.659 482.409 17.642 482.154 17.642C481.44 17.642 480.488 18.05 480.131 18.577V24ZM487.957 24.204C485.458 24.204 483.571 22.521 483.571 19.886C483.571 17.506 485.339 15.585 487.821 15.585C490.286 15.585 491.935 17.421 491.935 20.09V20.6H485.832C485.985 21.603 486.801 22.436 488.195 22.436C488.892 22.436 489.844 22.147 490.371 21.637L491.34 23.065C490.524 23.813 489.232 24.204 487.957 24.204ZM489.861 19.104C489.793 18.322 489.249 17.353 487.821 17.353C486.478 17.353 485.9 18.288 485.815 19.104H489.861ZM497.354 24.204C494.855 24.204 492.968 22.521 492.968 19.886C492.968 17.506 494.736 15.585 497.218 15.585C499.683 15.585 501.332 17.421 501.332 20.09V20.6H495.229C495.382 21.603 496.198 22.436 497.592 22.436C498.289 22.436 499.241 22.147 499.768 21.637L500.737 23.065C499.921 23.813 498.629 24.204 497.354 24.204ZM499.258 19.104C499.19 18.322 498.646 17.353 497.218 17.353C495.875 17.353 495.297 18.288 495.212 19.104H499.258ZM505.05 24H502.891V15.789H505.05V16.894C505.645 16.18 506.648 15.585 507.668 15.585V17.693C507.515 17.659 507.328 17.642 507.073 17.642C506.359 17.642 505.407 18.05 505.05 18.577V24ZM511.975 24.204C510.547 24.204 509.17 23.728 508.303 22.929L509.238 21.365C509.85 21.943 511.057 22.504 512.077 22.504C513.012 22.504 513.454 22.147 513.454 21.637C513.454 20.294 508.592 21.399 508.592 18.169C508.592 16.792 509.782 15.585 511.958 15.585C513.335 15.585 514.44 16.061 515.256 16.707L514.389 18.237C513.896 17.727 512.961 17.285 511.958 17.285C511.176 17.285 510.666 17.625 510.666 18.084C510.666 19.291 515.545 18.271 515.545 21.586C515.545 23.099 514.253 24.204 511.975 24.204Z" fill="white"/>
</svg>
