<svg width="860" height="39" viewBox="0 0 860 39" fill="none" xmlns="http://www.w3.org/2000/svg">
<path d="M245.93 18.3942C245.93 18.3938 245.931 18.3934 245.931 18.393L252.458 11.4586C252.737 11.1629 253.106 11 253.5 11C253.893 11 254.263 11.1628 254.542 11.4585L261.066 18.3894C261.068 18.3917 261.07 18.3942 261.072 18.3965C261.644 19.007 261.643 19.9975 261.069 20.6065C260.808 20.8848 260.462 21.046 260.092 21.0629C260.077 21.0644 260.062 21.0652 260.046 21.0652H259.786V26.1685C259.786 27.1784 259.013 28 258.062 28H255.508C255.25 28 255.04 27.777 255.04 27.502V23.501C255.04 23.0402 254.687 22.6653 254.253 22.6653H252.747C252.313 22.6653 251.96 23.0402 251.96 23.501V27.502C251.96 27.777 251.75 28 251.491 28H248.938C247.987 28 247.213 27.1784 247.213 26.1685V21.0652H246.972C246.579 21.0652 246.209 20.9024 245.931 20.6067C245.357 19.9967 245.356 19.0045 245.93 18.3942Z" fill="white"/>
<path d="M282.822 24H280.391V19.223H275.036V24H272.622V12.661H275.036V17.115H280.391V12.661H282.822V24ZM288.814 24.204C286.111 24.204 284.479 22.215 284.479 19.886C284.479 17.557 286.111 15.585 288.814 15.585C291.534 15.585 293.166 17.557 293.166 19.886C293.166 22.215 291.534 24.204 288.814 24.204ZM288.814 22.283C290.174 22.283 290.922 21.178 290.922 19.886C290.922 18.611 290.174 17.506 288.814 17.506C287.471 17.506 286.723 18.611 286.723 19.886C286.723 21.178 287.471 22.283 288.814 22.283ZM307.143 24H304.967V18.815C304.967 18.05 304.627 17.506 303.743 17.506C302.978 17.506 302.349 18.016 302.043 18.458V24H299.867V18.815C299.867 18.05 299.527 17.506 298.643 17.506C297.895 17.506 297.266 18.016 296.943 18.458V24H294.784V15.789H296.943V16.843C297.3 16.367 298.371 15.585 299.629 15.585C300.836 15.585 301.618 16.146 301.907 17.064C302.383 16.333 303.471 15.585 304.729 15.585C306.242 15.585 307.143 16.384 307.143 18.067V24ZM313.136 24.204C310.637 24.204 308.75 22.521 308.75 19.886C308.75 17.506 310.518 15.585 313 15.585C315.465 15.585 317.114 17.421 317.114 20.09V20.6H311.011C311.164 21.603 311.98 22.436 313.374 22.436C314.071 22.436 315.023 22.147 315.55 21.637L316.519 23.065C315.703 23.813 314.411 24.204 313.136 24.204ZM315.04 19.104C314.972 18.322 314.428 17.353 313 17.353C311.657 17.353 311.079 18.288 310.994 19.104H315.04Z" fill="white"/>
<path d="M342.522 20.3212L337.366 25.2197L336.616 25.9322C336.262 26.2678 335.804 26.1653 335.539 25.9182C335.406 25.7937 335.308 25.6228 335.295 25.4332C335.281 25.239 335.357 25.0436 335.536 24.8821L340.69 19.985L340.857 19.8265L336.284 15.4822L335.565 14.7994C335.393 14.6357 335.324 14.4379 335.339 14.244C335.355 14.055 335.449 13.8822 335.58 13.7552C335.711 13.6281 335.888 13.5387 336.081 13.5264C336.277 13.5139 336.478 13.5822 336.648 13.7519L341.772 18.6194L342.481 19.2927C342.85 19.5383 342.822 20.0362 342.522 20.3212Z" fill="white" stroke="white" stroke-width="0.3"/>
<path d="M363.668 24.204C361.475 24.204 359.911 23.473 358.84 22.402L360.166 20.515C360.965 21.348 362.206 22.062 363.77 22.062C365.113 22.062 365.742 21.467 365.742 20.804C365.742 18.832 359.214 20.209 359.214 15.942C359.214 14.055 360.846 12.491 363.515 12.491C365.317 12.491 366.813 13.035 367.935 14.072L366.592 15.874C365.674 15.024 364.45 14.633 363.294 14.633C362.274 14.633 361.696 15.075 361.696 15.755C361.696 17.54 368.207 16.333 368.207 20.566C368.207 22.64 366.711 24.204 363.668 24.204ZM373.623 24.204C371.124 24.204 369.237 22.521 369.237 19.886C369.237 17.506 371.005 15.585 373.487 15.585C375.952 15.585 377.601 17.421 377.601 20.09V20.6H371.498C371.651 21.603 372.467 22.436 373.861 22.436C374.558 22.436 375.51 22.147 376.037 21.637L377.006 23.065C376.19 23.813 374.898 24.204 373.623 24.204ZM375.527 19.104C375.459 18.322 374.915 17.353 373.487 17.353C372.144 17.353 371.566 18.288 371.481 19.104H375.527ZM381.32 24H379.161V15.789H381.32V16.894C381.915 16.18 382.918 15.585 383.938 15.585V17.693C383.785 17.659 383.598 17.642 383.343 17.642C382.629 17.642 381.677 18.05 381.32 18.577V24ZM389.741 24H387.412L384.114 15.789H386.426L388.568 21.501L390.727 15.789H393.039L389.741 24ZM395.074 14.905C394.377 14.905 393.799 14.327 393.799 13.613C393.799 12.899 394.377 12.338 395.074 12.338C395.788 12.338 396.366 12.899 396.366 13.613C396.366 14.327 395.788 14.905 395.074 14.905ZM396.162 24H394.003V15.789H396.162V24ZM402.127 24.204C399.611 24.204 397.775 22.419 397.775 19.886C397.775 17.37 399.611 15.585 402.127 15.585C403.81 15.585 404.83 16.316 405.374 17.064L403.963 18.39C403.572 17.812 402.977 17.506 402.229 17.506C400.92 17.506 400.002 18.458 400.002 19.886C400.002 21.314 400.92 22.283 402.229 22.283C402.977 22.283 403.572 21.943 403.963 21.382L405.374 22.708C404.83 23.456 403.81 24.204 402.127 24.204ZM410.645 24.204C408.146 24.204 406.259 22.521 406.259 19.886C406.259 17.506 408.027 15.585 410.509 15.585C412.974 15.585 414.623 17.421 414.623 20.09V20.6H408.52C408.673 21.603 409.489 22.436 410.883 22.436C411.58 22.436 412.532 22.147 413.059 21.637L414.028 23.065C413.212 23.813 411.92 24.204 410.645 24.204ZM412.549 19.104C412.481 18.322 411.937 17.353 410.509 17.353C409.166 17.353 408.588 18.288 408.503 19.104H412.549ZM419.14 24.204C417.712 24.204 416.335 23.728 415.468 22.929L416.403 21.365C417.015 21.943 418.222 22.504 419.242 22.504C420.177 22.504 420.619 22.147 420.619 21.637C420.619 20.294 415.757 21.399 415.757 18.169C415.757 16.792 416.947 15.585 419.123 15.585C420.5 15.585 421.605 16.061 422.421 16.707L421.554 18.237C421.061 17.727 420.126 17.285 419.123 17.285C418.341 17.285 417.831 17.625 417.831 18.084C417.831 19.291 422.71 18.271 422.71 21.586C422.71 23.099 421.418 24.204 419.14 24.204Z" fill="white"/>
<path d="M447.522 20.3212L442.366 25.2197L441.616 25.9322C441.262 26.2678 440.804 26.1653 440.539 25.9182C440.406 25.7937 440.308 25.6228 440.295 25.4332C440.281 25.239 440.357 25.0436 440.536 24.8821L445.69 19.985L445.857 19.8265L441.284 15.4822L440.565 14.7994C440.393 14.6357 440.324 14.4379 440.339 14.244C440.355 14.055 440.449 13.8822 440.58 13.7552C440.711 13.6281 440.888 13.5387 441.081 13.5264C441.277 13.5139 441.478 13.5822 441.648 13.7519L446.772 18.6194L447.481 19.2927C447.85 19.5383 447.822 20.0362 447.522 20.3212Z" fill="white" stroke="white" stroke-width="0.3"/>
<path d="M469.671 24H467.24V14.786H463.925V12.661H472.969V14.786H469.671V24ZM476.664 24.204C474.165 24.204 472.278 22.521 472.278 19.886C472.278 17.506 474.046 15.585 476.528 15.585C478.993 15.585 480.642 17.421 480.642 20.09V20.6H474.539C474.692 21.603 475.508 22.436 476.902 22.436C477.599 22.436 478.551 22.147 479.078 21.637L480.047 23.065C479.231 23.813 477.939 24.204 476.664 24.204ZM478.568 19.104C478.5 18.322 477.956 17.353 476.528 17.353C475.185 17.353 474.607 18.288 474.522 19.104H478.568ZM484.361 24H482.202V15.789H484.361V16.894C484.956 16.18 485.959 15.585 486.979 15.585V17.693C486.826 17.659 486.639 17.642 486.384 17.642C485.67 17.642 484.718 18.05 484.361 18.577V24ZM490.487 24H488.328V15.789H490.487V16.894C491.082 16.18 492.085 15.585 493.105 15.585V17.693C492.952 17.659 492.765 17.642 492.51 17.642C491.796 17.642 490.844 18.05 490.487 18.577V24ZM501.56 24H499.384V23.133C498.823 23.813 497.854 24.204 496.783 24.204C495.474 24.204 493.944 23.32 493.944 21.484C493.944 19.546 495.474 18.832 496.783 18.832C497.888 18.832 498.84 19.189 499.384 19.835V18.798C499.384 17.965 498.67 17.421 497.582 17.421C496.715 17.421 495.899 17.761 495.219 18.39L494.369 16.877C495.372 15.976 496.664 15.585 497.956 15.585C499.843 15.585 501.56 16.333 501.56 18.696V24ZM497.65 22.742C498.347 22.742 499.027 22.504 499.384 22.028V21.008C499.027 20.532 498.347 20.277 497.65 20.277C496.8 20.277 496.103 20.736 496.103 21.518C496.103 22.3 496.8 22.742 497.65 22.742ZM505.843 21.365C506.217 21.892 506.999 22.283 507.713 22.283C508.954 22.283 509.787 21.314 509.787 19.886C509.787 18.475 508.954 17.506 507.713 17.506C506.999 17.506 506.217 17.914 505.843 18.458V21.365ZM505.843 24H503.684V12.661H505.843V16.843C506.489 15.993 507.407 15.585 508.376 15.585C510.467 15.585 512.014 17.217 512.014 19.886C512.014 22.64 510.45 24.204 508.376 24.204C507.39 24.204 506.489 23.762 505.843 22.946V24ZM515.804 21.365C516.178 21.892 516.96 22.283 517.674 22.283C518.915 22.283 519.748 21.314 519.748 19.886C519.748 18.475 518.915 17.506 517.674 17.506C516.96 17.506 516.178 17.914 515.804 18.458V21.365ZM515.804 24H513.645V12.661H515.804V16.843C516.45 15.993 517.368 15.585 518.337 15.585C520.428 15.585 521.975 17.217 521.975 19.886C521.975 22.64 520.411 24.204 518.337 24.204C517.351 24.204 516.45 23.762 515.804 22.946V24ZM524.677 14.905C523.98 14.905 523.402 14.327 523.402 13.613C523.402 12.899 523.98 12.338 524.677 12.338C525.391 12.338 525.969 12.899 525.969 13.613C525.969 14.327 525.391 14.905 524.677 14.905ZM525.765 24H523.606V15.789H525.765V24ZM530.66 24.204C529.147 24.204 528.348 23.422 528.348 21.943V17.676H526.988V15.789H528.348V13.545H530.507V15.789H532.173V17.676H530.507V21.365C530.507 21.892 530.779 22.283 531.255 22.283C531.578 22.283 531.884 22.164 532.003 22.028L532.462 23.677C532.139 23.966 531.561 24.204 530.66 24.204ZM540.107 24.204C538.951 24.204 537.863 23.881 537.047 23.082L538.101 21.246C538.543 21.671 539.121 22.062 539.903 22.062C540.974 22.062 541.671 21.331 541.671 20.243V12.661H544.102V20.277C544.102 22.946 542.419 24.204 540.107 24.204ZM553.985 24H551.826V22.963C551.265 23.575 550.279 24.204 548.936 24.204C547.134 24.204 546.284 23.218 546.284 21.62V15.789H548.443V20.77C548.443 21.909 549.038 22.283 549.956 22.283C550.789 22.283 551.452 21.824 551.826 21.348V15.789H553.985V24ZM568.488 24H566.312V18.815C566.312 18.05 565.972 17.506 565.088 17.506C564.323 17.506 563.694 18.016 563.388 18.458V24H561.212V18.815C561.212 18.05 560.872 17.506 559.988 17.506C559.24 17.506 558.611 18.016 558.288 18.458V24H556.129V15.789H558.288V16.843C558.645 16.367 559.716 15.585 560.974 15.585C562.181 15.585 562.963 16.146 563.252 17.064C563.728 16.333 564.816 15.585 566.074 15.585C567.587 15.585 568.488 16.384 568.488 18.067V24ZM575.314 24.204C574.345 24.204 573.461 23.796 572.781 22.946V27.128H570.622V15.789H572.781V16.826C573.41 16.027 574.311 15.585 575.314 15.585C577.422 15.585 578.952 17.149 578.952 19.886C578.952 22.623 577.422 24.204 575.314 24.204ZM574.634 22.283C575.875 22.283 576.725 21.314 576.725 19.886C576.725 18.475 575.875 17.506 574.634 17.506C573.937 17.506 573.155 17.897 572.781 18.441V21.331C573.138 21.858 573.937 22.283 574.634 22.283ZM583.491 24.204C582.063 24.204 580.686 23.728 579.819 22.929L580.754 21.365C581.366 21.943 582.573 22.504 583.593 22.504C584.528 22.504 584.97 22.147 584.97 21.637C584.97 20.294 580.108 21.399 580.108 18.169C580.108 16.792 581.298 15.585 583.474 15.585C584.851 15.585 585.956 16.061 586.772 16.707L585.905 18.237C585.412 17.727 584.477 17.285 583.474 17.285C582.692 17.285 582.182 17.625 582.182 18.084C582.182 19.291 587.061 18.271 587.061 21.586C587.061 23.099 585.769 24.204 583.491 24.204ZM591.388 24.204C589.875 24.204 589.076 23.422 589.076 21.943V17.676H587.716V15.789H589.076V13.545H591.235V15.789H592.901V17.676H591.235V21.365C591.235 21.892 591.507 22.283 591.983 22.283C592.306 22.283 592.612 22.164 592.731 22.028L593.19 23.677C592.867 23.966 592.289 24.204 591.388 24.204ZM601.485 24H599.309V23.133C598.748 23.813 597.779 24.204 596.708 24.204C595.399 24.204 593.869 23.32 593.869 21.484C593.869 19.546 595.399 18.832 596.708 18.832C597.813 18.832 598.765 19.189 599.309 19.835V18.798C599.309 17.965 598.595 17.421 597.507 17.421C596.64 17.421 595.824 17.761 595.144 18.39L594.294 16.877C595.297 15.976 596.589 15.585 597.881 15.585C599.768 15.585 601.485 16.333 601.485 18.696V24ZM597.575 22.742C598.272 22.742 598.952 22.504 599.309 22.028V21.008C598.952 20.532 598.272 20.277 597.575 20.277C596.725 20.277 596.028 20.736 596.028 21.518C596.028 22.3 596.725 22.742 597.575 22.742ZM605.768 24H603.609V15.789H605.768V16.894C606.363 16.18 607.366 15.585 608.386 15.585V17.693C608.233 17.659 608.046 17.642 607.791 17.642C607.077 17.642 606.125 18.05 605.768 18.577V24ZM612.489 24.204C610.976 24.204 610.177 23.422 610.177 21.943V17.676H608.817V15.789H610.177V13.545H612.336V15.789H614.002V17.676H612.336V21.365C612.336 21.892 612.608 22.283 613.084 22.283C613.407 22.283 613.713 22.164 613.832 22.028L614.291 23.677C613.968 23.966 613.39 24.204 612.489 24.204Z" fill="white"/>
</svg>
