<svg width="862" height="290" viewBox="0 0 862 290" fill="none" xmlns="http://www.w3.org/2000/svg">
<path d="M128.143 136.763C127.197 136.765 126.254 136.898 125.337 137.16C124.42 126.952 117.138 119 108.312 119C100.843 118.975 94.4894 124.59 92.1389 132.424C90.5483 131.712 88.8526 131.346 87.1414 131.346C79.332 131.346 73 138.852 73 148.111C73 157.371 79.332 164.895 87.1414 164.895H89.1789H87.1908H89.1843C89.2234 164.624 89.2436 164.351 89.2448 164.077C89.404 156.472 93.748 151.414 100.926 150.441C102.024 150.286 103.123 150.299 104.221 150.2C105.435 150.088 106.659 150.014 107.856 149.791C109.504 149.487 110.602 148.594 110.734 146.506C110.763 145.677 110.951 144.865 111.283 144.126C111.865 142.961 111.344 142.397 110.542 141.963C108.636 140.934 106.698 139.992 104.798 138.938C103.834 138.466 102.935 137.84 102.129 137.079C101.651 136.571 100.931 135.988 101.294 134.854C101.656 133.72 102.661 133.924 103.21 134.079C105.579 134.689 107.899 135.518 110.147 136.558C111.909 137.42 113.442 138.895 115.089 140.054C115.501 140.38 115.987 140.569 116.49 140.599C117.307 140.532 118.127 140.663 118.895 140.984C119.664 141.304 120.362 141.807 120.943 142.459C122.713 144.427 124.392 146.495 125.974 148.656C127.578 150.894 127.358 152.772 125.265 154.408C123.997 155.4 122.448 155.933 121.042 156.714C120.615 156.884 120.244 157.201 119.982 157.618C119.527 158.637 119.21 159.728 119.043 160.854C118.9 162.23 118.869 163.618 118.95 165H128.121C134.684 165 140 158.697 140 150.919C140 143.14 134.706 136.763 128.143 136.763Z" fill="white"/>
<path d="M80.624 82H55.892L53.3 73.576H27.38L24.788 82H0.0559999L26.624 9.96399H54.056L80.624 82ZM47.468 54.568L40.34 31.348L33.212 54.568H47.468ZM116.986 83.296C94.4143 83.296 77.3503 68.176 77.3503 46.036C77.3503 23.788 94.4143 8.776 116.986 8.776C135.886 8.776 145.39 19.792 149.71 29.728L130.918 38.476C129.082 32.86 123.466 28 116.986 28C106.51 28 99.4903 35.992 99.4903 46.036C99.4903 56.08 106.51 64.072 116.986 64.072C123.466 64.072 129.082 59.212 130.918 53.596L149.71 62.236C145.498 71.848 135.886 83.296 116.986 83.296ZM192.291 83.296C169.719 83.296 152.655 68.176 152.655 46.036C152.655 23.788 169.719 8.776 192.291 8.776C211.191 8.776 220.695 19.792 225.015 29.728L206.223 38.476C204.387 32.86 198.771 28 192.291 28C181.815 28 174.795 35.992 174.795 46.036C174.795 56.08 181.815 64.072 192.291 64.072C198.771 64.072 204.387 59.212 206.223 53.596L225.015 62.236C220.803 71.848 211.191 83.296 192.291 83.296ZM286.496 82H231.848V9.96399H286.496V28.972H253.664V36.1H285.74V55.108H253.664V62.992H286.496V82ZM345.324 82H296.184V9.96399H318V62.992H345.324V82ZM408.734 82H354.086V9.96399H408.734V28.972H375.902V36.1H407.978V55.108H375.902V62.992H408.734V82ZM482.898 82H458.058L448.122 59.32H440.238V82H418.422V9.96399H456.87C473.718 9.96399 482.79 21.196 482.79 34.696C482.79 47.116 475.554 53.704 469.83 56.512L482.898 82ZM453.522 40.312C457.194 40.312 460.65 38.584 460.65 34.588C460.65 30.7 457.194 28.972 453.522 28.972H440.238V40.312H453.522ZM564.409 82H539.677L537.085 73.576H511.165L508.573 82H483.841L510.409 9.96399H537.841L564.409 82ZM531.253 54.568L524.125 31.348L516.997 54.568H531.253ZM599.119 82H577.303V28.972H557.971V9.96399H618.343V28.972H599.119V82ZM680.738 82H626.09V9.96399H680.738V28.972H647.906V36.1H679.982V55.108H647.906V62.992H680.738V82ZM48.872 184H27.056V155.38L0.0559999 111.964H24.572L37.964 136.264L51.14 111.964H75.656L48.872 155.38V184ZM110.759 185.296C88.5105 185.296 71.3385 170.176 71.3385 148.036C71.3385 125.896 88.5105 110.776 110.759 110.776C133.007 110.776 150.179 125.896 150.179 148.036C150.179 170.176 133.007 185.296 110.759 185.296ZM110.759 166.072C121.235 166.072 128.039 158.08 128.039 148.036C128.039 137.992 121.235 130 110.759 130C100.283 130 93.4785 137.992 93.4785 148.036C93.4785 158.08 100.283 166.072 110.759 166.072ZM193.554 185.296C169.254 185.296 157.914 172.228 157.914 154.408V111.964H180.054V153.652C180.054 160.564 184.59 166.072 193.554 166.072C202.41 166.072 206.946 160.564 206.946 153.652V111.964H229.086V154.3C229.086 172.228 217.854 185.296 193.554 185.296ZM305.183 184H280.343L270.407 161.32H262.523V184H240.707V111.964H279.155C296.003 111.964 305.075 123.196 305.075 136.696C305.075 149.116 297.839 155.704 292.115 158.512L305.183 184ZM275.807 142.312C279.479 142.312 282.935 140.584 282.935 136.588C282.935 132.7 279.479 130.972 275.807 130.972H262.523V142.312H275.807ZM355.686 185.296C348.666 185.296 341.214 183.784 335.598 179.464L344.454 162.832C346.83 164.452 350.07 166.072 353.742 166.072C358.494 166.072 361.734 163.048 361.734 157.972V111.964H383.55V158.296C383.55 176.764 372.426 185.296 355.686 185.296ZM430.751 185.296C408.503 185.296 391.331 170.176 391.331 148.036C391.331 125.896 408.503 110.776 430.751 110.776C452.999 110.776 470.171 125.896 470.171 148.036C470.171 170.176 452.999 185.296 430.751 185.296ZM430.751 166.072C441.227 166.072 448.031 158.08 448.031 148.036C448.031 137.992 441.227 130 430.751 130C420.275 130 413.471 137.992 413.471 148.036C413.471 158.08 420.275 166.072 430.751 166.072ZM513.546 185.296C489.246 185.296 477.906 172.228 477.906 154.408V111.964H500.046V153.652C500.046 160.564 504.582 166.072 513.546 166.072C522.402 166.072 526.938 160.564 526.938 153.652V111.964H549.078V154.3C549.078 172.228 537.846 185.296 513.546 185.296ZM625.175 184H600.335L590.399 161.32H582.515V184H560.699V111.964H599.147C615.995 111.964 625.067 123.196 625.067 136.696C625.067 149.116 617.831 155.704 612.107 158.512L625.175 184ZM595.799 142.312C599.471 142.312 602.927 140.584 602.927 136.588C602.927 132.7 599.471 130.972 595.799 130.972H582.515V142.312H595.799ZM703.231 184H682.279L655.711 147.496V184H633.895V111.964H656.359L681.415 146.092V111.964H703.231V184ZM769.543 184H714.895V111.964H769.543V130.972H736.711V138.1H768.787V157.108H736.711V164.992H769.543V184ZM820.27 184H798.454V155.38L771.454 111.964H795.97L809.362 136.264L822.538 111.964H847.054L820.27 155.38V184ZM45.092 286H23.276V232.972H3.944V213.964H64.316V232.972H45.092V286ZM105.485 287.296C83.2371 287.296 66.0651 272.176 66.0651 250.036C66.0651 227.896 83.2371 212.776 105.485 212.776C127.733 212.776 144.905 227.896 144.905 250.036C144.905 272.176 127.733 287.296 105.485 287.296ZM105.485 268.072C115.961 268.072 122.765 260.08 122.765 250.036C122.765 239.992 115.961 232 105.485 232C95.0091 232 88.2051 239.992 88.2051 250.036C88.2051 260.08 95.0091 268.072 105.485 268.072ZM228.399 286H205.503L196.215 245.176L186.927 286H164.031L143.403 213.964H167.811L177.099 258.028L188.007 213.964H204.423L215.331 258.028L224.511 213.964H249.027L228.399 286ZM322.042 286H297.31L294.718 277.576H268.798L266.206 286H241.474L268.042 213.964H295.474L322.042 286ZM288.886 258.568L281.758 235.348L274.63 258.568H288.886ZM390.402 286H365.562L355.626 263.32H347.742V286H325.926V213.964H364.374C381.222 213.964 390.294 225.196 390.294 238.696C390.294 251.116 383.058 257.704 377.334 260.512L390.402 286ZM361.026 244.312C364.698 244.312 368.154 242.584 368.154 238.588C368.154 234.7 364.698 232.972 361.026 232.972H347.742V244.312H361.026ZM431.413 286H399.121V213.964H431.305C453.985 213.964 470.833 226.924 470.833 249.928C470.833 272.932 453.985 286 431.413 286ZM431.305 266.992C442.213 266.992 448.693 259 448.693 249.928C448.693 240.208 443.077 232.972 431.413 232.972H420.937V266.992H431.305ZM506.617 287.296C491.281 287.296 480.805 282.76 473.137 275.848L484.477 259.648C489.877 264.832 497.977 268.936 507.697 268.936C511.801 268.936 515.689 267.856 515.689 265.048C515.689 258.136 475.513 265.156 475.513 236.752C475.513 224.548 485.665 212.884 505.429 212.884C517.201 212.884 527.785 216.232 535.993 222.928L524.329 238.372C518.065 233.62 509.965 231.244 503.161 231.244C498.841 231.244 497.653 232.648 497.653 234.484C497.653 241.288 537.721 235.456 537.721 262.24C537.721 278.116 525.949 287.296 506.617 287.296Z" fill="white"/>
</svg>
