<svg width="831" height="585" viewBox="0 0 831 585" fill="none" xmlns="http://www.w3.org/2000/svg">
<g clip-path="url(#clip0_269_3)">
<path d="M820.473 473.081C820.284 470.912 815.084 470.637 815.025 468.722C814.965 466.814 820.107 466.423 824.961 462.216C825.837 461.458 831.353 456.677 830.315 453.883C828.348 448.589 804.565 455.094 800.988 447.502C800.203 445.836 800.308 443.314 798.041 438.047C797.138 435.951 796.494 434.891 795.477 434.681C794.034 434.383 793.103 436.058 790.092 438.783C785.576 442.87 784.498 441.974 781.341 445.449C778.997 448.029 778.36 449.877 777.142 449.711C775.418 449.476 775.58 445.623 773.552 444.999C771.483 444.363 768.528 447.52 766.821 450.127C763.617 455.018 763.878 459.388 763.198 463.524C762.459 468.019 760.263 474.339 753.516 481.536L691.313 543.25C704.488 530.784 741.504 497.045 756.08 484.902C760.288 481.396 764.74 477.929 770.247 478.365C775.55 478.784 781.193 482.77 789.927 484.649C790.947 484.868 793.794 485.443 794.831 484.105C795.688 482.998 794.527 481.592 795.312 480.547C796.364 479.145 799.308 480.537 803.773 480.484C806.922 480.446 809.227 479.708 811.21 479.074C811.807 478.883 820.725 475.969 820.473 473.081Z" fill="#F2F2F2"/>
<path d="M697.717 462.28C696.598 461.747 694.962 464.22 694.005 463.696C693.052 463.175 694.344 460.538 693.679 456.942C693.56 456.294 692.805 452.207 691.134 451.91C687.968 451.348 684.299 464.898 679.54 464.463C678.496 464.367 677.289 463.588 674.049 463.181C672.76 463.02 672.054 463.03 671.657 463.469C671.095 464.091 671.648 465.031 672.117 467.295C672.82 470.691 672.069 470.961 672.864 473.513C673.454 475.408 674.177 476.254 673.744 476.804C673.131 477.583 671.287 476.391 670.396 477.206C669.487 478.039 670.184 480.4 670.97 481.99C672.447 484.973 674.667 486.106 676.5 487.633C678.493 489.293 680.962 492.194 682.547 497.582L694.889 545.918C692.573 535.855 686.693 507.953 684.939 497.295C684.433 494.218 684.015 491.033 685.818 488.455C687.554 485.974 691.139 484.354 694.581 480.61C694.983 480.173 696.086 478.941 695.729 478.046C695.433 477.306 694.408 477.47 694.121 476.783C693.737 475.862 695.27 474.819 696.532 472.612C697.422 471.056 697.725 469.711 697.985 468.556C698.064 468.207 699.207 462.99 697.717 462.28Z" fill="#F2F2F2"/>
<path d="M717.6 478.003L719.817 471.671L720.343 471.363C722.779 469.941 724.494 468.233 725.442 466.284C725.593 465.975 725.728 465.657 725.865 465.334C726.41 464.053 727.087 462.46 728.773 461.034C729.715 460.24 732.122 458.511 733.907 459.727C734.39 460.048 734.667 460.475 734.83 460.896C734.907 460.848 734.986 460.8 735.07 460.747C736.109 460.121 736.771 459.958 737.41 459.8C737.9 459.679 738.407 459.555 739.316 459.12C739.715 458.93 740.04 458.751 740.315 458.6C741.146 458.146 742.193 457.632 743.332 458.197C744.529 458.844 744.683 460.165 744.786 461.04C744.97 462.6 744.899 463.627 744.852 464.309C744.834 464.557 744.815 464.838 744.828 464.933C744.944 465.703 748.413 466.703 749.716 467.087C752.648 467.94 755.185 468.678 755.329 470.855C755.434 472.413 754.14 473.785 751.376 475.038C750.515 475.428 749.695 475.644 748.991 475.785C749.296 476.246 749.491 476.822 749.35 477.511C749.015 479.144 747.061 480.001 743.542 480.066C742.666 480.084 741.49 480.105 740.052 479.696C739.376 479.502 738.8 479.258 738.312 479.04C738.167 479.314 737.957 479.584 737.638 479.813C736.701 480.488 735.456 480.425 733.945 479.57C732.27 478.654 731.014 477.645 729.904 476.758C728.935 475.985 728.098 475.321 727.337 475.016C725.918 474.469 724.338 475.057 722.42 475.881L717.6 478.003Z" fill="#F2F2F2"/>
<path d="M737.929 443.728L731.241 443.19L730.81 442.758C728.817 440.762 726.729 439.537 724.604 439.114C724.266 439.047 723.925 438.997 723.577 438.946C722.2 438.744 720.487 438.494 718.681 437.224C717.674 436.514 715.391 434.624 716.114 432.59C716.303 432.041 716.645 431.665 717.011 431.4C716.944 431.338 716.878 431.274 716.806 431.206C715.937 430.36 715.611 429.76 715.297 429.183C715.055 428.739 714.806 428.281 714.155 427.511C713.87 427.174 713.614 426.904 713.399 426.677C712.749 425.989 711.986 425.106 712.244 423.86C712.566 422.539 713.805 422.055 714.625 421.733C716.088 421.16 717.099 420.968 717.77 420.84C718.015 420.795 718.291 420.742 718.38 420.705C719.096 420.398 719.183 416.789 719.224 415.431C719.305 412.378 719.375 409.737 721.445 409.045C722.925 408.549 724.58 409.452 726.494 411.808C727.089 412.542 727.506 413.281 727.821 413.926C728.189 413.514 728.697 413.179 729.4 413.14C731.064 413.05 732.389 414.723 733.344 418.111C733.584 418.953 733.902 420.086 733.871 421.58C733.856 422.284 733.765 422.903 733.679 423.43C733.98 423.5 734.295 423.635 734.597 423.886C735.488 424.621 735.743 425.842 735.298 427.52C734.837 429.372 734.181 430.843 733.604 432.142C733.101 433.276 732.672 434.253 732.57 435.066C732.401 436.578 733.37 437.957 734.654 439.604L737.929 443.728Z" fill="#F2F2F2"/>
<path d="M743.321 424.524L745.538 418.191L746.064 417.883C748.501 416.461 750.215 414.753 751.163 412.805C751.314 412.495 751.449 412.177 751.586 411.854C752.131 410.573 752.808 408.98 754.494 407.554C755.437 406.761 757.844 405.032 759.628 406.247C760.111 406.569 760.388 406.995 760.551 407.417C760.628 407.368 760.707 407.32 760.791 407.267C761.83 406.642 762.493 406.478 763.131 406.321C763.622 406.199 764.128 406.075 765.037 405.641C765.436 405.45 765.762 405.271 766.036 405.12C766.867 404.666 767.914 404.152 769.054 404.718C770.25 405.365 770.404 406.686 770.507 407.56C770.691 409.121 770.62 410.148 770.573 410.829C770.555 411.078 770.537 411.358 770.55 411.453C770.665 412.224 774.134 413.224 775.437 413.608C778.369 414.46 780.906 415.198 781.05 417.376C781.155 418.934 779.861 420.305 777.097 421.558C776.236 421.948 775.416 422.164 774.712 422.305C775.017 422.766 775.212 423.342 775.071 424.032C774.736 425.664 772.783 426.521 769.263 426.586C768.387 426.605 767.211 426.625 765.774 426.216C765.097 426.022 764.521 425.778 764.033 425.561C763.889 425.834 763.678 426.105 763.359 426.334C762.422 427.008 761.177 426.945 759.666 426.09C757.992 425.174 756.735 424.166 755.625 423.278C754.656 422.505 753.819 421.842 753.058 421.537C751.639 420.99 750.059 421.577 748.141 422.401L743.321 424.524Z" fill="#F2F2F2"/>
<path d="M693.372 544.12L692.492 542.725L690.943 542.187C690.985 542.039 691.056 541.688 691.172 541.139C691.807 538.137 693.736 528.997 698.257 515.316C701.414 505.766 705.199 496.208 709.507 486.901C713.822 477.58 717.63 470.783 720.69 465.321C722.998 461.2 725.266 457.311 727.477 453.523C733.381 443.401 738.957 433.839 743.661 422.547C744.712 420.027 746.898 414.78 746.528 407.899C746.312 403.908 745.272 399.957 743.434 396.158L746.404 394.721C748.432 398.919 749.58 403.294 749.82 407.725C750.231 415.353 747.849 421.071 746.704 423.818C741.917 435.309 736.286 444.963 730.325 455.182C728.123 458.957 725.864 462.829 723.566 466.932C720.534 472.345 716.76 479.082 712.5 488.284C708.242 497.479 704.505 506.921 701.387 516.35C696.923 529.858 695.023 538.862 694.399 541.82C694.065 543.399 693.995 543.73 693.372 544.12Z" fill="#F2F2F2"/>
<path d="M735.715 398.258C735.593 398.199 735.471 398.137 735.35 398.068C732.886 396.715 731.271 394.074 730.55 390.218C730.214 388.406 730.447 386.636 730.913 383.105C730.984 382.56 731.376 379.812 732.496 376.31C733.227 374.022 733.696 373.143 734.502 372.556C735.398 371.9 736.457 371.652 737.515 371.65C737.614 371.348 737.786 371.069 738.053 370.83C739.155 369.835 740.423 370.645 741.114 371.073C741.46 371.297 741.89 371.579 742.399 371.791C743.198 372.129 743.729 372.099 744.531 372.056C745.3 372.015 746.255 371.963 747.487 372.273C749.92 372.875 751.471 374.393 751.983 374.893C754.681 377.509 755.064 380.769 755.506 384.544C755.593 385.3 755.832 388.016 755.267 391.31C754.86 393.686 754.329 394.574 753.817 395.178C752.77 396.421 751.516 396.819 748.461 397.557C745.269 398.334 743.668 398.721 742.407 398.818C739.472 399.04 737.63 399.179 735.715 398.258Z" fill="#F2F2F2"/>
<path d="M566.714 576.103L416.783 519.351C394.295 510.839 382.925 485.618 391.438 463.13L541.465 66.783C549.978 44.2953 575.198 32.9252 597.686 41.4374L747.616 98.19C770.104 106.702 781.474 131.923 772.961 154.41C715.506 314.627 652.798 494.664 622.934 550.757C614.421 573.245 589.201 584.616 566.714 576.103Z" fill="black"/>
<path d="M718.093 203.505C717.075 203.505 716.248 204.333 716.248 205.35V264.383C716.248 265.401 717.075 266.228 718.093 266.228C719.11 266.228 719.938 265.401 719.938 264.383V205.35C719.938 204.333 719.11 203.505 718.093 203.505Z" fill="black"/>
<path d="M756.983 154.051L619.054 549.281C611.645 568.855 590.35 579.099 570.616 573.05L570.608 573.046C570.317 572.956 570.025 572.866 569.729 572.763C569.21 572.596 568.698 572.412 568.18 572.216C568.18 572.216 566.335 571.36 562.965 569.788C559.56 568.204 554.609 565.886 548.444 562.97C546.593 562.102 544.645 561.177 542.588 560.201C538.492 558.256 533.994 556.12 529.18 553.805C527.258 552.89 525.273 551.931 523.246 550.957C512.881 545.978 501.289 540.358 489.098 534.342C487.034 533.334 484.955 532.311 482.863 531.272C482.316 530.996 393.572 469.217 395.322 464.593L545.347 68.2527C553.063 47.8681 575.836 37.6014 596.221 45.3175L618.253 53.6573C621.773 54.9896 623.564 58.8039 622.537 62.4292C622.475 62.6719 622.412 62.9146 622.367 63.1639C621.67 66.9338 623.974 70.6169 627.563 71.9753L705.006 101.289C708.594 102.648 712.76 101.414 714.734 98.1269C714.865 97.9103 714.979 97.6872 715.093 97.4641C716.724 94.0674 720.592 92.3951 724.112 93.7274L746.144 102.067C766.528 109.783 764.699 133.667 756.983 154.051Z" fill="white"/>
<path d="M516.529 130.055C515.577 129.695 514.511 130.176 514.151 131.128L508.926 144.93C508.566 145.882 509.047 146.948 509.998 147.309C510.95 147.669 512.016 147.188 512.377 146.236L517.601 132.434C517.961 131.482 517.481 130.416 516.529 130.055Z" fill="black"/>
<path d="M467.409 203.505C466.392 203.505 465.564 204.333 465.564 205.35V233.944C465.564 234.962 466.392 235.789 467.409 235.789C468.427 235.789 469.254 234.962 469.254 233.944V205.35C469.254 204.333 468.427 203.505 467.409 203.505Z" fill="black"/>
<path d="M467.409 244.091C466.392 244.091 465.564 244.918 465.564 245.936V274.53C465.564 275.547 466.392 276.375 467.409 276.375C468.427 276.375 469.254 275.547 469.254 274.53V245.936C469.254 244.918 468.427 244.091 467.409 244.091Z" fill="black"/>
<path d="M615.4 59.4851L582.337 46.9697C582.177 46.909 581.998 46.9898 581.937 47.15L580.524 50.883C580.463 51.0433 580.544 51.2223 580.704 51.283L613.768 63.7984C613.928 63.859 614.107 63.7783 614.168 63.618L615.581 59.885C615.641 59.7248 615.561 59.5457 615.4 59.4851Z" fill="#E6E6E6"/>
<path d="M725.644 106.147C727.55 106.868 729.679 105.908 730.401 104.002C731.122 102.096 730.162 99.9667 728.256 99.2454C726.351 98.524 724.221 99.4841 723.5 101.39C722.778 103.296 723.738 105.425 725.644 106.147Z" fill="#E6E6E6"/>
<path d="M735.133 109.739C737.039 110.46 739.169 109.5 739.89 107.594C740.611 105.688 739.651 103.559 737.746 102.837C735.84 102.116 733.71 103.076 732.989 104.982C732.267 106.888 733.227 109.017 735.133 109.739Z" fill="#E6E6E6"/>
<path d="M744.623 113.33C746.528 114.052 748.658 113.092 749.379 111.186C750.101 109.28 749.141 107.151 747.235 106.429C745.329 105.708 743.199 106.668 742.478 108.574C741.757 110.479 742.717 112.609 744.623 113.33Z" fill="#E6E6E6"/>
<path d="M674.884 197.871C672.981 197.154 670.997 196.673 668.978 196.437C673.969 177.684 664.655 158.078 646.916 151.363C631.919 145.636 615.388 150.734 605.418 162.803C602.698 160.333 599.534 158.395 596.094 157.093C580.397 151.151 562.644 159.609 556.444 175.987C550.245 192.366 557.935 210.493 573.632 216.434L577.728 217.985L573.731 216.472L577.739 217.989C577.998 217.54 578.222 217.072 578.408 216.588C583.82 203.257 595.938 197.617 611.017 201.357C613.328 201.919 615.528 202.776 617.802 203.437C620.316 204.163 622.828 204.963 625.384 205.479C628.899 206.196 631.704 205.453 633.367 201.859C633.981 200.415 634.901 199.122 636.065 198.067C638.015 196.449 637.344 195.054 636.023 193.677C632.881 190.407 629.615 187.266 626.501 183.956C624.88 182.387 623.493 180.596 622.381 178.637C621.761 177.374 620.705 175.796 622.193 174.066C623.681 172.335 625.564 173.462 626.564 174.154C630.917 177.035 635.025 180.266 638.847 183.816C641.813 186.681 643.905 190.456 646.441 193.76C647.051 194.651 647.9 195.354 648.891 195.79C650.578 196.292 652.14 197.148 653.469 198.3C654.799 199.452 655.866 200.873 656.599 202.468C658.837 207.295 660.827 212.231 662.56 217.258C664.286 222.436 662.587 225.59 657.286 226.893C654.072 227.681 650.602 227.446 647.253 227.757C646.279 227.734 645.323 228.012 644.517 228.552C642.918 230.007 641.552 231.695 640.463 233.56C639.253 235.884 638.261 238.316 637.499 240.823L655.934 247.801C669.125 252.794 684.031 245.69 689.239 231.931C694.447 218.173 688.076 202.864 674.884 197.871Z" fill="url(#paint0_linear_269_3)"/>
<path d="M591.369 415.543H357.653C348.245 415.543 340.59 407.888 340.59 398.48V221.752C340.59 212.344 348.245 204.689 357.653 204.689H591.369C600.778 204.689 608.432 212.344 608.432 221.752V398.48C608.432 407.888 600.778 415.543 591.369 415.543Z" fill="white"/>
<path d="M591.369 415.543H357.653C348.245 415.543 340.59 407.888 340.59 398.48V221.752C340.59 212.344 348.245 204.689 357.653 204.689H591.369C600.778 204.689 608.432 212.344 608.432 221.752V398.48C608.432 407.888 600.778 415.543 591.369 415.543ZM357.653 207.539C349.816 207.539 343.44 213.915 343.44 221.752V398.48C343.44 406.318 349.816 412.694 357.653 412.694H591.369C599.206 412.694 605.583 406.318 605.583 398.48V221.752C605.583 213.915 599.206 207.539 591.369 207.539H357.653Z" fill="black"/>
<path d="M565.691 226.06C568.052 226.06 569.965 224.146 569.965 221.786C569.965 219.425 568.052 217.511 565.691 217.511C563.331 217.511 561.417 219.425 561.417 221.786C561.417 224.146 563.331 226.06 565.691 226.06Z" fill="black"/>
<path d="M577.089 226.06C579.449 226.06 581.363 224.146 581.363 221.786C581.363 219.425 579.449 217.511 577.089 217.511C574.728 217.511 572.814 219.425 572.814 221.786C572.814 224.146 574.728 226.06 577.089 226.06Z" fill="black"/>
<path d="M588.487 226.06C590.847 226.06 592.761 224.146 592.761 221.786C592.761 219.425 590.847 217.511 588.487 217.511C586.126 217.511 584.212 219.425 584.212 221.786C584.212 224.146 586.126 226.06 588.487 226.06Z" fill="black"/>
<path d="M364.81 290.883C363.631 290.883 362.673 291.841 362.673 293.02C362.673 293.594 362.895 294.126 363.298 294.518C363.704 294.934 364.236 295.157 364.81 295.157H585.637C586.815 295.157 587.774 294.198 587.774 293.02C587.774 292.445 587.552 291.914 587.149 291.521C586.743 291.105 586.211 290.883 585.637 290.883H364.81Z" fill="#E6E6E6"/>
<path d="M545.746 290.171V295.869H364.81C364.027 295.869 363.314 295.556 362.802 295.029C362.274 294.516 361.961 293.804 361.961 293.02C361.961 291.453 363.243 290.171 364.81 290.171L545.746 290.171Z" fill="#1E22AA"/>
<path d="M582.075 279.485H553.582C550.439 279.485 547.883 276.93 547.883 273.787C547.883 270.644 550.439 268.088 553.582 268.088H582.075C585.218 268.088 587.774 270.644 587.774 273.787C587.774 276.93 585.218 279.485 582.075 279.485Z" fill="#E6E6E6"/>
<path d="M395.441 249.567H366.947C363.805 249.567 361.249 247.011 361.249 243.868C361.249 240.725 363.805 238.169 366.947 238.169H395.441C398.583 238.169 401.14 240.725 401.14 243.868C401.14 247.011 398.583 249.567 395.441 249.567Z" fill="#E6E6E6"/>
<path d="M364.81 354.994C363.631 354.994 362.673 355.953 362.673 357.131C362.673 357.706 362.895 358.237 363.298 358.629C363.704 359.045 364.236 359.268 364.81 359.268H585.637C586.815 359.268 587.774 358.309 587.774 357.131C587.774 356.556 587.552 356.025 587.149 355.633C586.743 355.217 586.211 354.994 585.637 354.994H364.81Z" fill="#E6E6E6"/>
<path d="M436.045 354.281V359.98H364.81C364.027 359.98 363.314 359.667 362.802 359.14C362.274 358.627 361.961 357.914 361.961 357.131C361.961 355.564 363.243 354.282 364.81 354.282L436.045 354.281Z" fill="#1E22AA"/>
<path d="M582.075 343.596H553.582C550.439 343.596 547.883 341.041 547.883 337.898C547.883 334.755 550.439 332.199 553.582 332.199H582.075C585.218 332.199 587.774 334.755 587.774 337.898C587.774 341.041 585.218 343.596 582.075 343.596Z" fill="#E6E6E6"/>
</g>
<rect x="282" width="311" height="36" rx="18" fill="#1E22AA"/>
<path d="M311.27 24H303.404V11.994H311.27V13.326H304.898V17.196H311.144V18.528H304.898V22.668H311.27V24ZM325.442 24H324.092V18.096C324.092 16.998 323.624 16.296 322.49 16.296C321.59 16.296 320.636 16.926 320.186 17.628V24H318.836V18.096C318.836 16.998 318.386 16.296 317.234 16.296C316.352 16.296 315.416 16.944 314.948 17.646V24H313.598V15.306H314.948V16.566C315.326 16.008 316.478 15.09 317.774 15.09C319.088 15.09 319.844 15.81 320.096 16.71C320.582 15.918 321.752 15.09 323.012 15.09C324.596 15.09 325.442 15.972 325.442 17.718V24ZM332.419 24.216C331.231 24.216 330.205 23.64 329.485 22.686V27.312H328.135V15.306H329.485V16.602C330.115 15.72 331.195 15.09 332.419 15.09C334.705 15.09 336.289 16.818 336.289 19.644C336.289 22.452 334.705 24.216 332.419 24.216ZM332.077 23.01C333.823 23.01 334.867 21.57 334.867 19.644C334.867 17.718 333.823 16.296 332.077 16.296C331.015 16.296 329.953 16.926 329.485 17.682V21.606C329.953 22.362 331.015 23.01 332.077 23.01ZM342.234 24.216C339.588 24.216 337.932 22.164 337.932 19.644C337.932 17.124 339.588 15.09 342.234 15.09C344.88 15.09 346.536 17.124 346.536 19.644C346.536 22.164 344.88 24.216 342.234 24.216ZM342.234 23.01C344.088 23.01 345.114 21.426 345.114 19.644C345.114 17.88 344.088 16.296 342.234 16.296C340.38 16.296 339.354 17.88 339.354 19.644C339.354 21.426 340.38 23.01 342.234 23.01ZM357.629 24H356.261L353.993 17.016L351.725 24H350.375L347.603 15.306H349.007L351.131 22.236L353.417 15.306H354.587L356.855 22.236L358.979 15.306H360.401L357.629 24ZM365.897 24.216C363.305 24.216 361.451 22.362 361.451 19.644C361.451 17.124 363.251 15.09 365.735 15.09C368.363 15.09 369.911 17.142 369.911 19.752V20.094H362.891C362.999 21.732 364.133 23.1 366.005 23.1C367.013 23.1 368.003 22.704 368.705 21.984L369.353 22.866C368.471 23.73 367.301 24.216 365.897 24.216ZM368.579 19.086C368.561 17.808 367.697 16.206 365.717 16.206C363.863 16.206 362.945 17.772 362.873 19.086H368.579ZM373.448 24H372.098V15.306H373.448V16.692C374.15 15.792 375.158 15.108 376.346 15.108V16.494C376.184 16.476 376.022 16.458 375.824 16.458C374.978 16.458 373.844 17.142 373.448 17.844V24ZM388.44 24.216C384.984 24.216 382.266 21.696 382.266 18.006C382.266 14.316 384.984 11.796 388.44 11.796C390.564 11.796 392.04 12.804 392.994 14.172L391.752 14.874C391.068 13.848 389.808 13.128 388.44 13.128C385.812 13.128 383.814 15.126 383.814 18.006C383.814 20.85 385.812 22.884 388.44 22.884C389.808 22.884 391.068 22.146 391.752 21.138L393.012 21.822C392.004 23.208 390.564 24.216 388.44 24.216ZM402.08 24H400.73V22.776C400.064 23.532 398.93 24.216 397.634 24.216C395.816 24.216 394.862 23.316 394.862 21.444V15.306H396.212V21.03C396.212 22.56 396.986 23.01 398.174 23.01C399.218 23.01 400.226 22.398 400.73 21.696V15.306H402.08V24ZM407.548 24.216C406.108 24.216 404.92 23.766 404.038 22.848L404.722 21.876C405.298 22.542 406.396 23.118 407.584 23.118C408.916 23.118 409.654 22.488 409.654 21.624C409.654 19.518 404.272 20.814 404.272 17.592C404.272 16.224 405.424 15.09 407.494 15.09C408.988 15.09 410.032 15.648 410.716 16.35L410.086 17.286C409.564 16.656 408.628 16.188 407.494 16.188C406.306 16.188 405.568 16.782 405.568 17.556C405.568 19.446 410.95 18.204 410.95 21.588C410.95 23.046 409.78 24.216 407.548 24.216ZM415.357 24.216C414.061 24.216 413.413 23.478 413.413 22.182V16.494H411.973V15.306H413.413V12.93H414.781V15.306H416.545V16.494H414.781V21.894C414.781 22.542 415.069 23.01 415.645 23.01C416.041 23.01 416.383 22.83 416.563 22.632L416.959 23.658C416.617 23.982 416.131 24.216 415.357 24.216ZM422.232 24.216C419.586 24.216 417.93 22.164 417.93 19.644C417.93 17.124 419.586 15.09 422.232 15.09C424.878 15.09 426.534 17.124 426.534 19.644C426.534 22.164 424.878 24.216 422.232 24.216ZM422.232 23.01C424.086 23.01 425.112 21.426 425.112 19.644C425.112 17.88 424.086 16.296 422.232 16.296C420.378 16.296 419.352 17.88 419.352 19.644C419.352 21.426 420.378 23.01 422.232 23.01ZM440.579 24H439.229V18.096C439.229 16.998 438.761 16.296 437.627 16.296C436.727 16.296 435.773 16.926 435.323 17.628V24H433.973V18.096C433.973 16.998 433.523 16.296 432.371 16.296C431.489 16.296 430.553 16.944 430.085 17.646V24H428.735V15.306H430.085V16.566C430.463 16.008 431.615 15.09 432.911 15.09C434.225 15.09 434.981 15.81 435.233 16.71C435.719 15.918 436.889 15.09 438.149 15.09C439.733 15.09 440.579 15.972 440.579 17.718V24ZM447.214 24.216C444.622 24.216 442.768 22.362 442.768 19.644C442.768 17.124 444.568 15.09 447.052 15.09C449.68 15.09 451.228 17.142 451.228 19.752V20.094H444.208C444.316 21.732 445.45 23.1 447.322 23.1C448.33 23.1 449.32 22.704 450.022 21.984L450.67 22.866C449.788 23.73 448.618 24.216 447.214 24.216ZM449.896 19.086C449.878 17.808 449.014 16.206 447.034 16.206C445.18 16.206 444.262 17.772 444.19 19.086H449.896ZM454.764 24H453.414V15.306H454.764V16.692C455.466 15.792 456.474 15.108 457.662 15.108V16.494C457.5 16.476 457.338 16.458 457.14 16.458C456.294 16.458 455.16 17.142 454.764 17.844V24ZM462.128 24.216C460.688 24.216 459.5 23.766 458.618 22.848L459.302 21.876C459.878 22.542 460.976 23.118 462.164 23.118C463.496 23.118 464.234 22.488 464.234 21.624C464.234 19.518 458.852 20.814 458.852 17.592C458.852 16.224 460.004 15.09 462.074 15.09C463.568 15.09 464.612 15.648 465.296 16.35L464.666 17.286C464.144 16.656 463.208 16.188 462.074 16.188C460.886 16.188 460.148 16.782 460.148 17.556C460.148 19.446 465.53 18.204 465.53 21.588C465.53 23.046 464.36 24.216 462.128 24.216ZM482.065 24H480.193C479.833 23.694 479.365 23.226 478.879 22.74C477.997 23.622 476.881 24.216 475.423 24.216C473.371 24.216 471.697 23.082 471.697 20.868C471.697 18.996 472.957 18.042 474.343 17.286C473.803 16.368 473.425 15.432 473.425 14.586C473.425 13.002 474.739 11.814 476.449 11.814C477.997 11.814 479.149 12.66 479.149 14.172C479.149 15.972 477.619 16.764 476.089 17.556C476.575 18.204 477.097 18.816 477.493 19.266C477.979 19.842 478.447 20.364 478.915 20.868C479.563 19.878 479.995 18.78 480.211 18.114L481.363 18.636C480.967 19.59 480.445 20.724 479.725 21.732C480.445 22.47 481.183 23.19 482.065 24ZM475.567 23.1C476.557 23.1 477.385 22.614 478.069 21.912C477.385 21.192 476.755 20.508 476.413 20.094C475.909 19.518 475.387 18.87 474.919 18.186C473.911 18.798 473.137 19.536 473.137 20.778C473.137 22.272 474.289 23.1 475.567 23.1ZM474.811 14.622C474.811 15.252 475.117 15.99 475.531 16.692C476.809 16.062 477.907 15.432 477.907 14.226C477.907 13.344 477.295 12.858 476.485 12.858C475.567 12.858 474.811 13.578 474.811 14.622ZM496.508 24H488.642V11.994H496.508V13.326H490.136V17.196H496.382V18.528H490.136V22.668H496.508V24ZM510.68 24H509.33V18.096C509.33 16.998 508.862 16.296 507.728 16.296C506.828 16.296 505.874 16.926 505.424 17.628V24H504.074V18.096C504.074 16.998 503.624 16.296 502.472 16.296C501.59 16.296 500.654 16.944 500.186 17.646V24H498.836V15.306H500.186V16.566C500.564 16.008 501.716 15.09 503.012 15.09C504.326 15.09 505.082 15.81 505.334 16.71C505.82 15.918 506.99 15.09 508.25 15.09C509.834 15.09 510.68 15.972 510.68 17.718V24ZM517.657 24.216C516.469 24.216 515.443 23.64 514.723 22.686V27.312H513.373V15.306H514.723V16.602C515.353 15.72 516.433 15.09 517.657 15.09C519.943 15.09 521.527 16.818 521.527 19.644C521.527 22.452 519.943 24.216 517.657 24.216ZM517.315 23.01C519.061 23.01 520.105 21.57 520.105 19.644C520.105 17.718 519.061 16.296 517.315 16.296C516.253 16.296 515.191 16.926 514.723 17.682V21.606C515.191 22.362 516.253 23.01 517.315 23.01ZM525.024 24H523.674V11.994H525.024V24ZM531.515 24.216C528.869 24.216 527.213 22.164 527.213 19.644C527.213 17.124 528.869 15.09 531.515 15.09C534.161 15.09 535.817 17.124 535.817 19.644C535.817 22.164 534.161 24.216 531.515 24.216ZM531.515 23.01C533.369 23.01 534.395 21.426 534.395 19.644C534.395 17.88 533.369 16.296 531.515 16.296C529.661 16.296 528.635 17.88 528.635 19.644C528.635 21.426 529.661 23.01 531.515 23.01ZM537.55 27.402L537.748 26.178C537.946 26.268 538.27 26.322 538.486 26.322C539.08 26.322 539.476 26.124 539.782 25.404L540.358 24.09L536.722 15.306H538.198L541.078 22.434L543.976 15.306H545.434L541.078 25.764C540.556 27.024 539.674 27.51 538.522 27.528C538.234 27.528 537.784 27.474 537.55 27.402ZM550.784 24.216C548.192 24.216 546.338 22.362 546.338 19.644C546.338 17.124 548.138 15.09 550.622 15.09C553.25 15.09 554.798 17.142 554.798 19.752V20.094H547.778C547.886 21.732 549.02 23.1 550.892 23.1C551.9 23.1 552.89 22.704 553.592 21.984L554.24 22.866C553.358 23.73 552.188 24.216 550.784 24.216ZM553.466 19.086C553.448 17.808 552.584 16.206 550.604 16.206C548.75 16.206 547.832 17.772 547.76 19.086H553.466ZM560.927 24.216C558.335 24.216 556.481 22.362 556.481 19.644C556.481 17.124 558.281 15.09 560.765 15.09C563.393 15.09 564.941 17.142 564.941 19.752V20.094H557.921C558.029 21.732 559.163 23.1 561.035 23.1C562.043 23.1 563.033 22.704 563.735 21.984L564.383 22.866C563.501 23.73 562.331 24.216 560.927 24.216ZM563.609 19.086C563.591 17.808 562.727 16.206 560.747 16.206C558.893 16.206 557.975 17.772 557.903 19.086H563.609ZM569.899 24.216C568.459 24.216 567.271 23.766 566.389 22.848L567.073 21.876C567.649 22.542 568.747 23.118 569.935 23.118C571.267 23.118 572.005 22.488 572.005 21.624C572.005 19.518 566.623 20.814 566.623 17.592C566.623 16.224 567.775 15.09 569.845 15.09C571.339 15.09 572.383 15.648 573.067 16.35L572.437 17.286C571.915 16.656 570.979 16.188 569.845 16.188C568.657 16.188 567.919 16.782 567.919 17.556C567.919 19.446 573.301 18.204 573.301 21.588C573.301 23.046 572.131 24.216 569.899 24.216Z" fill="white"/>
<defs>
<linearGradient id="paint0_linear_269_3" x1="560.569" y1="165.09" x2="695.288" y2="216.085" gradientUnits="userSpaceOnUse">
<stop stop-color="#6656FF"/>
<stop offset="0.19" stop-color="#6152F9"/>
<stop offset="0.44" stop-color="#5248E8"/>
<stop offset="0.72" stop-color="#3B37CC"/>
<stop offset="1" stop-color="#1E22AA"/>
</linearGradient>
<clipPath id="clip0_269_3">
<rect width="830.444" height="581.975" fill="white" transform="translate(0 3)"/>
</clipPath>
</defs>
</svg>
