<svg width="491" height="559" viewBox="0 0 491 559" fill="none" xmlns="http://www.w3.org/2000/svg">
<path d="M480.473 447.081C480.283 444.912 475.084 444.636 475.024 442.722C474.965 440.814 480.107 440.423 484.961 436.216C485.836 435.457 491.352 430.676 490.314 427.883C488.347 422.589 464.564 429.094 460.988 421.502C460.203 419.836 460.308 417.314 458.04 412.046C457.138 409.951 456.493 408.891 455.476 408.681C454.034 408.383 453.102 410.058 450.091 412.783C445.575 416.87 444.498 415.973 441.34 419.449C438.997 422.028 438.359 423.877 437.141 423.711C435.417 423.476 435.58 419.622 433.552 418.999C431.482 418.363 428.528 421.52 426.82 424.127C423.617 429.018 423.877 433.388 423.197 437.524C422.458 442.019 420.263 448.339 413.516 455.536L351.312 517.25C364.488 504.784 401.504 471.045 416.08 458.902C420.287 455.396 424.739 451.929 430.247 452.364C435.55 452.784 441.192 456.77 449.926 458.649C450.946 458.868 453.793 459.443 454.83 458.104C455.687 456.998 454.526 455.592 455.311 454.547C456.364 453.145 459.307 454.537 463.773 454.483C466.922 454.446 469.227 453.708 471.209 453.074C471.807 452.883 480.724 449.969 480.473 447.081Z" fill="#F2F2F2"/>
<path d="M357.717 436.28C356.598 435.747 354.962 438.219 354.005 437.696C353.052 437.175 354.344 434.538 353.679 430.942C353.56 430.293 352.805 426.207 351.134 425.91C347.968 425.348 344.299 438.898 339.54 438.463C338.496 438.367 337.289 437.588 334.049 437.181C332.76 437.019 332.054 437.03 331.657 437.468C331.095 438.09 331.648 439.031 332.117 441.295C332.82 444.691 332.069 444.961 332.864 447.513C333.454 449.408 334.177 450.254 333.744 450.804C333.131 451.582 331.287 450.391 330.396 451.206C329.487 452.038 330.184 454.399 330.97 455.989C332.447 458.973 334.667 460.106 336.5 461.633C338.493 463.293 340.962 466.194 342.547 471.582L354.889 519.918C352.573 509.855 346.693 481.952 344.939 471.295C344.433 468.218 344.015 465.033 345.818 462.455C347.554 459.973 351.139 458.354 354.581 454.61C354.983 454.172 356.086 452.941 355.729 452.046C355.433 451.306 354.408 451.47 354.121 450.783C353.737 449.862 355.27 448.819 356.532 446.612C357.422 445.055 357.725 443.711 357.985 442.555C358.064 442.207 359.207 436.989 357.717 436.28Z" fill="#F2F2F2"/>
<path d="M377.6 452.003L379.817 445.671L380.343 445.363C382.779 443.941 384.494 442.233 385.442 440.284C385.593 439.975 385.728 439.657 385.865 439.334C386.41 438.053 387.087 436.46 388.773 435.034C389.715 434.24 392.122 432.511 393.907 433.727C394.39 434.048 394.667 434.475 394.83 434.896C394.907 434.848 394.986 434.8 395.07 434.747C396.109 434.121 396.771 433.958 397.41 433.8C397.9 433.679 398.407 433.555 399.316 433.12C399.715 432.93 400.04 432.751 400.315 432.6C401.146 432.146 402.193 431.632 403.332 432.197C404.529 432.844 404.683 434.165 404.786 435.04C404.97 436.6 404.899 437.627 404.852 438.309C404.834 438.557 404.815 438.838 404.828 438.933C404.944 439.703 408.413 440.703 409.716 441.087C412.648 441.94 415.185 442.678 415.329 444.855C415.434 446.413 414.14 447.785 411.376 449.038C410.515 449.428 409.695 449.644 408.991 449.785C409.296 450.246 409.491 450.822 409.35 451.511C409.015 453.144 407.061 454.001 403.542 454.066C402.666 454.084 401.49 454.105 400.052 453.696C399.376 453.502 398.8 453.258 398.312 453.04C398.167 453.314 397.957 453.584 397.638 453.813C396.701 454.488 395.456 454.425 393.945 453.57C392.27 452.654 391.014 451.645 389.904 450.758C388.935 449.985 388.098 449.321 387.337 449.016C385.918 448.469 384.338 449.057 382.42 449.881L377.6 452.003Z" fill="#F2F2F2"/>
<path d="M397.929 417.728L391.241 417.19L390.81 416.758C388.817 414.762 386.729 413.537 384.604 413.114C384.266 413.047 383.925 412.997 383.577 412.946C382.2 412.744 380.487 412.494 378.681 411.224C377.674 410.514 375.391 408.624 376.114 406.59C376.303 406.041 376.645 405.665 377.011 405.4C376.944 405.338 376.878 405.274 376.806 405.206C375.937 404.36 375.611 403.76 375.297 403.183C375.055 402.739 374.806 402.281 374.155 401.511C373.87 401.174 373.614 400.904 373.399 400.677C372.749 399.989 371.986 399.106 372.244 397.86C372.566 396.539 373.805 396.055 374.625 395.733C376.088 395.16 377.099 394.968 377.77 394.84C378.015 394.795 378.291 394.742 378.38 394.705C379.096 394.398 379.183 390.789 379.224 389.431C379.305 386.378 379.375 383.737 381.445 383.045C382.925 382.549 384.58 383.452 386.494 385.808C387.089 386.542 387.506 387.281 387.821 387.926C388.189 387.514 388.697 387.179 389.4 387.14C391.064 387.05 392.389 388.723 393.344 392.111C393.584 392.953 393.902 394.086 393.871 395.58C393.856 396.284 393.765 396.903 393.679 397.43C393.98 397.5 394.295 397.635 394.597 397.886C395.488 398.621 395.743 399.842 395.298 401.52C394.837 403.372 394.181 404.843 393.604 406.142C393.101 407.276 392.672 408.253 392.57 409.066C392.401 410.578 393.37 411.957 394.654 413.604L397.929 417.728Z" fill="#F2F2F2"/>
<path d="M403.321 398.523L405.538 392.191L406.064 391.883C408.501 390.461 410.215 388.753 411.163 386.804C411.314 386.495 411.449 386.177 411.586 385.854C412.131 384.573 412.808 382.98 414.494 381.554C415.437 380.76 417.844 379.032 419.628 380.247C420.111 380.568 420.388 380.995 420.551 381.416C420.628 381.368 420.707 381.32 420.791 381.267C421.83 380.641 422.493 380.478 423.131 380.32C423.622 380.199 424.128 380.075 425.037 379.64C425.436 379.45 425.762 379.271 426.036 379.12C426.867 378.666 427.914 378.152 429.054 378.717C430.25 379.364 430.404 380.685 430.507 381.56C430.691 383.12 430.62 384.148 430.573 384.829C430.555 385.077 430.537 385.358 430.55 385.453C430.665 386.223 434.134 387.223 435.437 387.607C438.369 388.46 440.906 389.198 441.05 391.375C441.155 392.933 439.861 394.305 437.097 395.558C436.236 395.948 435.416 396.164 434.712 396.305C435.017 396.766 435.212 397.342 435.071 398.032C434.736 399.664 432.783 400.521 429.263 400.586C428.387 400.605 427.211 400.625 425.774 400.216C425.097 400.022 424.521 399.778 424.033 399.56C423.889 399.834 423.678 400.104 423.359 400.333C422.422 401.008 421.177 400.945 419.666 400.09C417.992 399.174 416.735 398.166 415.625 397.278C414.656 396.505 413.819 395.841 413.058 395.536C411.639 394.989 410.059 395.577 408.141 396.401L403.321 398.523Z" fill="#F2F2F2"/>
<path d="M353.372 518.12L352.492 516.725L350.943 516.187C350.985 516.039 351.056 515.688 351.172 515.139C351.807 512.137 353.736 502.997 358.257 489.316C361.414 479.766 365.199 470.208 369.507 460.901C373.822 451.58 377.63 444.783 380.69 439.321C382.998 435.201 385.266 431.311 387.477 427.523C393.381 417.401 398.957 407.839 403.661 396.547C404.712 394.027 406.898 388.78 406.528 381.899C406.312 377.908 405.272 373.957 403.434 370.158L406.404 368.721C408.432 372.919 409.58 377.294 409.82 381.725C410.231 389.353 407.849 395.071 406.704 397.818C401.917 409.309 396.286 418.963 390.325 429.182C388.123 432.957 385.864 436.829 383.566 440.932C380.534 446.345 376.76 453.082 372.5 462.284C368.242 471.479 364.505 480.921 361.387 490.35C356.923 503.858 355.023 512.862 354.399 515.82C354.065 517.399 353.995 517.73 353.372 518.12Z" fill="#F2F2F2"/>
<path d="M395.715 372.258C395.593 372.199 395.471 372.137 395.35 372.068C392.886 370.715 391.271 368.074 390.55 364.218C390.214 362.406 390.447 360.636 390.913 357.105C390.984 356.56 391.376 353.812 392.496 350.31C393.227 348.022 393.696 347.143 394.502 346.556C395.398 345.9 396.457 345.652 397.515 345.65C397.614 345.348 397.786 345.069 398.053 344.83C399.155 343.835 400.423 344.645 401.114 345.073C401.46 345.297 401.89 345.579 402.399 345.791C403.198 346.129 403.729 346.099 404.531 346.056C405.3 346.015 406.255 345.963 407.487 346.273C409.92 346.875 411.471 348.393 411.983 348.893C414.681 351.509 415.064 354.769 415.506 358.544C415.593 359.3 415.832 362.016 415.267 365.31C414.86 367.686 414.329 368.574 413.817 369.178C412.77 370.421 411.516 370.819 408.461 371.557C405.269 372.334 403.668 372.721 402.407 372.818C399.472 373.04 397.63 373.179 395.715 372.258Z" fill="#F2F2F2"/>
<path d="M226.714 550.103L76.7831 493.351C54.2954 484.839 42.9253 459.618 51.4377 437.13L201.465 40.783C209.978 18.2953 235.198 6.92525 257.686 15.4374L407.616 72.19C430.104 80.702 441.474 105.923 432.961 128.41C375.506 288.627 312.798 468.664 282.934 524.757C274.421 547.245 249.201 558.616 226.714 550.103Z" fill="black"/>
<path d="M378.093 177.505C377.075 177.505 376.248 178.333 376.248 179.35V238.383C376.248 239.401 377.075 240.228 378.093 240.228C379.11 240.228 379.938 239.401 379.938 238.383V179.35C379.938 178.333 379.11 177.505 378.093 177.505Z" fill="black"/>
<path d="M416.983 128.051L279.054 523.281C271.645 542.855 250.35 553.099 230.616 547.05L230.608 547.046C230.317 546.956 230.025 546.866 229.729 546.763C229.21 546.596 228.698 546.412 228.18 546.216C228.18 546.216 226.335 545.36 222.965 543.788C219.56 542.204 214.609 539.886 208.444 536.97C206.593 536.102 204.645 535.177 202.588 534.201C198.492 532.256 193.994 530.12 189.18 527.805C187.258 526.89 185.273 525.931 183.246 524.957C172.881 519.978 161.289 514.358 149.098 508.342C147.034 507.334 144.955 506.311 142.863 505.272C142.316 504.996 53.5718 443.217 55.322 438.593L205.347 42.2527C213.063 21.8681 235.836 11.6014 256.221 19.3175L278.253 27.6573C281.773 28.9896 283.564 32.8039 282.537 36.4292C282.475 36.6719 282.412 36.9146 282.367 37.1639C281.67 40.9338 283.974 44.6169 287.563 45.9753L365.006 75.2892C368.594 76.6476 372.76 75.4136 374.734 72.1269C374.865 71.9103 374.979 71.6872 375.093 71.4641C376.724 68.0674 380.592 66.3951 384.112 67.7274L406.144 76.0672C426.528 83.7833 424.699 107.667 416.983 128.051Z" fill="white"/>
<path d="M176.529 104.055C175.577 103.695 174.511 104.176 174.151 105.128L168.926 118.93C168.566 119.882 169.047 120.948 169.998 121.309C170.95 121.669 172.016 121.188 172.377 120.236L177.601 106.434C177.961 105.482 177.481 104.416 176.529 104.055Z" fill="black"/>
<path d="M127.409 177.505C126.392 177.505 125.564 178.333 125.564 179.35V207.944C125.564 208.962 126.392 209.789 127.409 209.789C128.427 209.789 129.254 208.962 129.254 207.944V179.35C129.254 178.333 128.427 177.505 127.409 177.505Z" fill="black"/>
<path d="M127.409 218.091C126.392 218.091 125.564 218.918 125.564 219.936V248.53C125.564 249.547 126.392 250.375 127.409 250.375C128.427 250.375 129.254 249.547 129.254 248.53V219.936C129.254 218.918 128.427 218.091 127.409 218.091Z" fill="black"/>
<path d="M275.4 33.4851L242.337 20.9697C242.177 20.909 241.998 20.9898 241.937 21.15L240.524 24.883C240.463 25.0433 240.544 25.2223 240.704 25.283L273.768 37.7984C273.928 37.859 274.107 37.7783 274.168 37.618L275.581 33.885C275.641 33.7248 275.561 33.5457 275.4 33.4851Z" fill="#E6E6E6"/>
<path d="M385.644 80.1466C387.55 80.868 389.679 79.9079 390.401 78.0022C391.122 76.0964 390.162 73.9667 388.256 73.2454C386.351 72.524 384.221 73.4841 383.5 75.3898C382.778 77.2956 383.738 79.4253 385.644 80.1466Z" fill="#E6E6E6"/>
<path d="M395.133 83.7387C397.039 84.46 399.169 83.4999 399.89 81.5942C400.611 79.6884 399.651 77.5588 397.746 76.8374C395.84 76.116 393.71 77.0762 392.989 78.9819C392.267 80.8876 393.227 83.0173 395.133 83.7387Z" fill="#E6E6E6"/>
<path d="M404.623 87.3305C406.528 88.0518 408.658 87.0917 409.379 85.186C410.101 83.2803 409.141 81.1506 407.235 80.4292C405.329 79.7078 403.199 80.668 402.478 82.5737C401.757 84.4794 402.717 86.6091 404.623 87.3305Z" fill="#E6E6E6"/>
<path d="M334.884 171.871C332.981 171.154 330.997 170.673 328.978 170.437C333.969 151.684 324.655 132.078 306.916 125.363C291.919 119.636 275.388 124.734 265.418 136.803C262.698 134.333 259.534 132.395 256.094 131.093C240.397 125.151 222.644 133.609 216.444 149.987C210.245 166.366 217.935 184.493 233.632 190.434L237.728 191.985L233.731 190.472L237.739 191.989C237.998 191.54 238.222 191.072 238.408 190.588C243.82 177.257 255.938 171.617 271.017 175.357C273.328 175.919 275.528 176.776 277.802 177.437C280.316 178.163 282.828 178.963 285.384 179.479C288.899 180.196 291.704 179.453 293.367 175.859C293.981 174.415 294.901 173.122 296.065 172.067C298.015 170.449 297.344 169.054 296.023 167.677C292.881 164.407 289.615 161.266 286.501 157.956C284.88 156.387 283.493 154.596 282.381 152.637C281.761 151.374 280.705 149.796 282.193 148.066C283.681 146.335 285.564 147.462 286.564 148.154C290.917 151.035 295.025 154.266 298.847 157.816C301.813 160.681 303.905 164.456 306.441 167.76C307.051 168.651 307.9 169.354 308.891 169.79C310.578 170.292 312.14 171.148 313.469 172.3C314.799 173.452 315.866 174.873 316.599 176.468C318.837 181.295 320.827 186.231 322.56 191.258C324.286 196.436 322.587 199.59 317.286 200.893C314.072 201.681 310.602 201.446 307.253 201.757C306.279 201.734 305.323 202.012 304.517 202.552C302.918 204.007 301.552 205.695 300.463 207.56C299.253 209.884 298.261 212.316 297.499 214.823L315.934 221.801C329.125 226.794 344.031 219.69 349.239 205.931C354.447 192.173 348.076 176.864 334.884 171.871Z" fill="url(#paint0_linear_518_3)"/>
<path d="M251.369 389.543H17.6532C8.24455 389.543 0.590332 381.888 0.590332 372.48V195.752C0.590332 186.344 8.24455 178.689 17.6532 178.689H251.369C260.778 178.689 268.432 186.344 268.432 195.752V372.48C268.432 381.888 260.778 389.543 251.369 389.543Z" fill="white"/>
<path d="M251.369 389.543H17.6532C8.24455 389.543 0.590332 381.888 0.590332 372.48V195.752C0.590332 186.344 8.24455 178.689 17.6532 178.689H251.369C260.778 178.689 268.432 186.344 268.432 195.752V372.48C268.432 381.888 260.778 389.543 251.369 389.543ZM17.6532 181.539C9.81602 181.539 3.4397 187.915 3.4397 195.752V372.48C3.4397 380.318 9.81602 386.694 17.6532 386.694H251.369C259.206 386.694 265.583 380.318 265.583 372.48V195.752C265.583 187.915 259.206 181.539 251.369 181.539H17.6532Z" fill="black"/>
<path d="M225.691 200.06C228.052 200.06 229.965 198.146 229.965 195.786C229.965 193.425 228.052 191.511 225.691 191.511C223.331 191.511 221.417 193.425 221.417 195.786C221.417 198.146 223.331 200.06 225.691 200.06Z" fill="black"/>
<path d="M237.089 200.06C239.449 200.06 241.363 198.146 241.363 195.786C241.363 193.425 239.449 191.511 237.089 191.511C234.728 191.511 232.814 193.425 232.814 195.786C232.814 198.146 234.728 200.06 237.089 200.06Z" fill="black"/>
<path d="M248.487 200.06C250.847 200.06 252.761 198.146 252.761 195.786C252.761 193.425 250.847 191.511 248.487 191.511C246.126 191.511 244.212 193.425 244.212 195.786C244.212 198.146 246.126 200.06 248.487 200.06Z" fill="black"/>
<path d="M24.8099 264.883C23.6314 264.883 22.6729 265.841 22.6729 267.02C22.6729 267.594 22.8947 268.126 23.2975 268.518C23.7038 268.934 24.236 269.157 24.8099 269.157H245.637C246.815 269.157 247.774 268.198 247.774 267.02C247.774 266.445 247.552 265.914 247.149 265.521C246.743 265.105 246.211 264.883 245.637 264.883H24.8099Z" fill="#E6E6E6"/>
<path d="M205.746 264.171V269.869H24.8103C24.0267 269.869 23.3144 269.556 22.8015 269.029C22.2743 268.516 21.9609 267.804 21.9609 267.02C21.9609 265.453 23.2432 264.171 24.8103 264.171L205.746 264.171Z" fill="#1E22AA"/>
<path d="M242.075 253.485H213.582C210.439 253.485 207.883 250.93 207.883 247.787C207.883 244.644 210.439 242.088 213.582 242.088H242.075C245.218 242.088 247.774 244.644 247.774 247.787C247.774 250.93 245.218 253.485 242.075 253.485Z" fill="#E6E6E6"/>
<path d="M55.4411 223.567H26.9473C23.805 223.567 21.2485 221.011 21.2485 217.868C21.2485 214.725 23.805 212.169 26.9473 212.169H55.4411C58.5833 212.169 61.1398 214.725 61.1398 217.868C61.1398 221.011 58.5833 223.567 55.4411 223.567Z" fill="#E6E6E6"/>
<path d="M24.8099 328.994C23.6314 328.994 22.6729 329.953 22.6729 331.131C22.6729 331.706 22.8947 332.237 23.2975 332.629C23.7038 333.045 24.236 333.268 24.8099 333.268H245.637C246.815 333.268 247.774 332.309 247.774 331.131C247.774 330.556 247.552 330.025 247.149 329.633C246.743 329.217 246.211 328.994 245.637 328.994H24.8099Z" fill="#E6E6E6"/>
<path d="M96.0448 328.281V333.98H24.8103C24.0267 333.98 23.3144 333.667 22.8015 333.14C22.2743 332.627 21.9609 331.914 21.9609 331.131C21.9609 329.564 23.2432 328.282 24.8103 328.282L96.0448 328.281Z" fill="#1E22AA"/>
<path d="M242.075 317.596H213.582C210.439 317.596 207.883 315.041 207.883 311.898C207.883 308.755 210.439 306.199 213.582 306.199H242.075C245.218 306.199 247.774 308.755 247.774 311.898C247.774 315.041 245.218 317.596 242.075 317.596Z" fill="#E6E6E6"/>
<defs>
<linearGradient id="paint0_linear_518_3" x1="220.569" y1="139.09" x2="355.288" y2="190.085" gradientUnits="userSpaceOnUse">
<stop stop-color="#6656FF"/>
<stop offset="0.19" stop-color="#6152F9"/>
<stop offset="0.44" stop-color="#5248E8"/>
<stop offset="0.72" stop-color="#3B37CC"/>
<stop offset="1" stop-color="#1E22AA"/>
</linearGradient>
</defs>
</svg>
