<svg width="34" height="34" viewBox="0 0 34 34" fill="none" xmlns="http://www.w3.org/2000/svg">
<g clip-path="url(#clip0_65_339)">
<path d="M33.9666 9.99609C33.8869 8.18954 33.5948 6.94755 33.1763 5.87136C32.7446 4.729 32.0804 3.70624 31.2102 2.85603C30.36 1.99258 29.3305 1.32164 28.2013 0.896659C27.1189 0.478167 25.8834 0.186026 24.0769 0.106375C22.2568 0.0199776 21.679 0 17.0629 0C12.4468 0 11.869 0.0199776 10.0557 0.0996288C8.24911 0.17928 7.00713 0.47168 5.93119 0.889914C4.78857 1.32164 3.76582 1.98583 2.9156 2.85603C2.05215 3.70624 1.38147 4.73574 0.95623 5.86487C0.537737 6.94755 0.245596 8.1828 0.165945 9.98935C0.079548 11.8094 0.0595703 12.3872 0.0595703 17.0033C0.0595703 21.6195 0.079548 22.1973 0.159199 24.0105C0.23885 25.8171 0.531251 27.0591 0.949744 28.1353C1.38147 29.2776 2.05215 30.3004 2.9156 31.1506C3.76582 32.0141 4.79531 32.685 5.92444 33.11C7.00713 33.5285 8.24237 33.8206 10.0492 33.9003C11.8622 33.9802 12.4403 33.9999 17.0564 33.9999C21.6725 33.9999 22.2503 33.9802 24.0636 33.9003C25.8702 33.8206 27.1122 33.5285 28.1881 33.11C30.4731 32.2266 32.2796 30.42 33.1631 28.1353C33.5813 27.0526 33.8737 25.8171 33.9534 24.0105C34.033 22.1973 34.053 21.6195 34.053 17.0033C34.053 12.3872 34.0462 11.8094 33.9666 9.99609ZM30.9048 23.8777C30.8317 25.5382 30.5527 26.4349 30.3203 27.0326C29.749 28.5138 28.5734 29.6894 27.0922 30.2607C26.4944 30.4932 25.5913 30.7721 23.9373 30.845C22.144 30.9249 21.6061 30.9446 17.0696 30.9446C12.5332 30.9446 11.9886 30.9249 10.2017 30.845C8.54125 30.7721 7.64459 30.4932 7.04682 30.2607C6.30972 29.9883 5.63879 29.5566 5.0942 28.992C4.52964 28.4407 4.09791 27.7765 3.82549 27.0394C3.59302 26.4416 3.31411 25.5382 3.24121 23.8845C3.1613 22.0911 3.14158 21.553 3.14158 17.0166C3.14158 12.4801 3.1613 11.9355 3.24121 10.1489C3.31411 8.48843 3.59302 7.59177 3.82549 6.994C4.09791 6.25664 4.52964 5.58596 5.10095 5.04112C5.65202 4.47655 6.31621 4.04483 7.05357 3.77266C7.65134 3.5402 8.55475 3.26129 10.2085 3.18812C12.0018 3.10847 12.5399 3.08849 17.0761 3.08849C21.6194 3.08849 22.1572 3.10847 23.944 3.18812C25.6045 3.26129 26.5012 3.5402 27.0989 3.77266C27.836 4.04483 28.507 4.47655 29.0516 5.04112C29.6161 5.59245 30.0479 6.25664 30.3203 6.994C30.5527 7.59177 30.8317 8.49492 30.9048 10.1489C30.9845 11.9422 31.0044 12.4801 31.0044 17.0166C31.0044 21.553 30.9845 22.0844 30.9048 23.8777Z" fill="white"/>
<path d="M17.0632 8.26953C12.2413 8.26953 8.3291 12.1815 8.3291 17.0037C8.3291 21.8258 12.2413 25.7378 17.0632 25.7378C21.8854 25.7378 25.7974 21.8258 25.7974 17.0037C25.7974 12.1815 21.8854 8.26953 17.0632 8.26953ZM17.0632 22.6693C13.935 22.6693 11.3976 20.1321 11.3976 17.0037C11.3976 13.8752 13.935 11.338 17.0632 11.338C20.1917 11.338 22.7288 13.8752 22.7288 17.0037C22.7288 20.1321 20.1917 22.6693 17.0632 22.6693Z" fill="white"/>
<path d="M28.1818 7.92378C28.1818 9.0498 27.2688 9.9628 26.1425 9.9628C25.0165 9.9628 24.1035 9.0498 24.1035 7.92378C24.1035 6.79751 25.0165 5.88477 26.1425 5.88477C27.2688 5.88477 28.1818 6.79751 28.1818 7.92378Z" fill="white"/>
</g>
<defs>
<clipPath id="clip0_65_339">
<rect width="34" height="34" fill="white"/>
</clipPath>
</defs>
</svg>
