<svg width="461" height="595" viewBox="0 0 461 595" fill="none" xmlns="http://www.w3.org/2000/svg">
<path d="M398.19 232.126C398.76 231.235 402.348 225.624 405.007 226.192C410.047 227.27 407.313 249.6 414.639 251.827C416.247 252.316 418.51 251.889 423.565 253.241C425.576 253.778 426.619 254.221 426.942 255.111C427.402 256.374 426.013 257.436 423.95 260.514C420.856 265.131 421.807 265.986 419.087 269.295C417.067 271.751 415.482 272.571 415.792 273.649C416.232 275.174 419.69 274.518 420.52 276.267C421.368 278.052 418.907 281.136 416.78 283.021C412.786 286.56 408.807 286.901 405.162 288.061C401.202 289.322 395.785 292.138 390.178 299.179L345.369 359.833C348.983 358.463 356.024 355.65 365.628 350.839C373.729 346.779 381.761 342.159 389.5 337.101C392.838 334.92 395.754 332.891 398.374 331.001L398.108 331.14L399.388 326.508C399.879 324.667 400.201 323.163 399.52 321.954C399.144 321.307 398.435 320.64 397.609 319.866C396.661 318.982 395.585 317.98 394.537 316.589C393.565 315.338 393.344 314.222 393.829 313.287C393.994 312.969 394.21 312.743 394.438 312.577C394.178 312.165 393.881 311.677 393.617 311.092C393.058 309.848 392.921 308.783 392.822 307.991C392.416 304.804 392.932 302.927 394.362 302.409C394.966 302.191 395.511 302.291 395.968 302.505C396.002 301.852 396.089 301.083 396.327 300.254C397.094 297.593 398.161 296.244 399.582 296.132C401.567 295.975 402.568 298.169 403.725 300.703C404.243 301.829 405.604 304.829 406.315 304.831C406.403 304.83 406.653 304.777 406.875 304.728C407.484 304.595 408.402 304.396 409.835 304.356C410.638 304.333 411.851 304.298 412.593 305.293C413.254 306.247 412.928 307.26 412.628 308.071C412.529 308.338 412.41 308.656 412.29 309.041C412.018 309.919 411.973 310.393 411.928 310.852C411.87 311.449 411.81 312.069 411.382 313.089C411.346 313.172 411.313 313.249 411.279 313.325C411.681 313.417 412.103 313.611 412.457 314.005C413.789 315.455 412.546 317.857 411.954 318.812C410.89 320.523 409.541 321.344 408.456 322.005C408.182 322.172 407.913 322.335 407.654 322.512C406.308 323.429 405.191 324.818 404.297 326.605C405.355 325.799 406.367 325.023 407.316 324.292C410.718 321.675 413.915 319.125 417.033 316.639C420.239 314.082 423.378 311.58 426.571 309.139L426.37 308.261L427.142 308.709C432.178 304.879 437.364 301.201 443.188 297.711C443.426 297.568 443.709 297.4 444 297.23L444.277 296.226C444.768 294.385 445.09 292.882 444.409 291.673C444.033 291.026 443.323 290.358 442.497 289.585C441.55 288.701 440.473 287.699 439.425 286.308C438.454 285.057 438.233 283.941 438.718 283.006C438.882 282.688 439.099 282.462 439.327 282.296C439.066 281.883 438.77 281.396 438.506 280.81C437.946 279.566 437.809 278.502 437.711 277.709C437.305 274.523 437.821 272.646 439.25 272.128C439.854 271.91 440.4 272.009 440.857 272.224C440.891 271.57 440.978 270.801 441.216 269.973C441.983 267.311 443.05 265.962 444.47 265.851C446.455 265.694 447.456 267.887 448.613 270.422C449.132 271.548 450.493 274.547 451.203 274.55C451.291 274.549 451.542 274.495 451.764 274.446C452.373 274.314 453.291 274.115 454.724 274.074C455.527 274.052 456.74 274.017 457.482 275.012C458.143 275.965 457.817 276.979 457.517 277.789C457.417 278.057 457.298 278.374 457.179 278.76C456.907 279.638 456.861 280.111 456.816 280.57C456.759 281.167 456.699 281.787 456.271 282.808C456.234 282.891 456.201 282.968 456.168 283.044C456.57 283.136 456.991 283.33 457.345 283.723C458.678 285.174 457.435 287.575 456.843 288.531C455.778 290.241 454.429 291.063 453.345 291.724C453.071 291.891 452.802 292.054 452.542 292.231C451.782 292.749 451.097 293.425 450.478 294.225C452.453 293.558 454.734 293.01 457.306 292.774C460.38 292.493 463.494 292.7 466.598 293.377C466.62 293.143 466.641 292.913 466.665 292.658C466.929 289.803 467.122 288.619 468.106 287.508C468.583 286.966 469.315 286.37 471.407 285.689C474.307 284.745 476.79 284.602 477.484 284.58C480.95 284.481 483.944 284.397 486.662 286.487C487.181 286.884 488.756 288.084 489.621 290.201C490.063 291.272 490.143 292.141 490.207 292.84C490.275 293.571 490.317 294.054 490.728 294.73C490.987 295.162 491.298 295.513 491.546 295.796C492.024 296.363 492.922 297.401 492.169 298.528C491.988 298.8 491.76 298.992 491.5 299.121C491.637 300.077 491.553 301.066 491.08 301.961C490.656 302.766 489.925 303.306 487.955 304.268C484.941 305.741 482.512 306.458 482.029 306.594C478.903 307.48 477.335 307.925 475.655 307.861C472.079 307.718 469.481 306.609 467.934 304.563C467.856 304.463 467.784 304.361 467.715 304.259C466.63 302.651 466.513 300.969 466.326 298.291C466.29 297.774 466.301 297.178 466.346 296.418C463.414 295.737 460.475 295.504 457.583 295.769C451.322 296.343 446.873 299.009 444.737 300.291C439.415 303.48 434.618 306.847 429.965 310.348L430.526 310.674C432.182 311.616 433.555 312.308 434.897 311.956C435.618 311.757 436.444 311.24 437.402 310.637C438.498 309.945 439.739 309.158 441.351 308.497C442.807 307.874 443.943 307.943 444.724 308.65C444.99 308.89 445.154 309.156 445.257 309.419C445.722 309.272 446.268 309.108 446.902 309.002C448.247 308.776 449.311 308.914 450.103 309.019C453.288 309.435 454.973 310.41 455.112 311.924C455.169 312.564 454.934 313.066 454.611 313.454C455.235 313.652 455.957 313.932 456.698 314.372C459.077 315.789 460.112 317.164 459.859 318.566C459.507 320.525 457.132 320.937 454.387 321.414C453.166 321.63 449.92 322.185 449.737 322.872C449.715 322.957 449.704 323.213 449.695 323.441C449.669 324.063 449.628 325.002 449.304 326.398C449.122 327.181 448.848 328.363 447.698 328.828C446.608 329.226 445.71 328.653 445.002 328.157C444.769 327.993 444.492 327.798 444.149 327.584C443.369 327.098 442.922 326.934 442.49 326.775C441.927 326.567 441.342 326.352 440.464 325.679C440.393 325.623 440.326 325.572 440.262 325.52C440.071 325.885 439.776 326.244 439.305 326.486C437.564 327.408 435.557 325.596 434.783 324.781C433.398 323.317 432.946 321.804 432.582 320.587C432.49 320.28 432.4 319.979 432.294 319.682C431.632 317.82 430.25 316.097 428.185 314.56L427.739 314.228L427.312 312.367C424.509 314.53 421.733 316.737 418.907 318.991C415.779 321.487 412.566 324.048 409.151 326.676C404.623 330.159 398.99 334.495 391.144 339.621C383.31 344.739 375.179 349.417 366.974 353.528C359.667 357.189 353.814 359.712 349.798 361.33C361.5 362.113 377.687 363.042 385.002 363.174C387.847 363.225 390.778 363.181 392.867 361.213C394.879 359.318 395.867 355.868 398.794 352.266C399.135 351.846 400.102 350.687 400.957 350.892C401.664 351.061 401.651 352.008 402.309 352.176C403.192 352.401 403.931 350.88 405.757 349.449C407.045 348.44 408.218 347.989 409.227 347.601C409.532 347.484 414.091 345.764 414.929 347.015C415.558 347.955 413.541 349.758 414.14 350.553C414.737 351.345 416.946 349.831 420.281 349.956C420.882 349.979 424.672 350.121 425.16 351.59C426.085 354.374 414.336 359.475 415.357 363.714C415.581 364.644 416.444 365.631 417.239 368.503C417.555 369.645 417.639 370.284 417.295 370.7C416.808 371.29 415.886 370.914 413.78 370.79C410.621 370.604 410.476 371.317 408.067 370.937C406.279 370.654 405.419 370.113 404.98 370.576C404.358 371.232 405.678 372.74 405.059 373.652C404.427 374.583 402.204 374.265 400.664 373.765C397.776 372.826 396.46 370.971 394.839 369.517C393.078 367.937 390.133 366.091 385.059 365.371L349.143 361.592C347.044 362.429 345.496 363.001 344.595 363.334C344.115 363.511 343.807 363.621 343.68 363.679L343.204 362.764L342.671 363.485C342.836 363.25 343.018 362.99 343.192 362.741L342.99 362.351L341.614 361.741C341.799 361.32 342.002 361.136 342.551 360.899L339.79 360.608C340.625 360.676 341.63 360.753 342.704 360.832C342.93 360.741 343.208 360.638 343.555 360.51C343.959 360.361 344.507 360.158 345.164 359.91C356.057 344.205 378.461 310.929 386.801 297.309C389.411 293.047 391.953 288.57 390.833 283.655C389.754 278.923 385.411 274.355 382.562 266.718C382.229 265.826 381.334 263.331 382.406 262.218C383.292 261.298 384.715 262.161 385.554 261.314C386.681 260.179 385.036 257.705 384.495 253.666C384.113 250.818 384.475 248.64 384.786 246.767C384.879 246.202 386.333 237.766 388.973 237.612C390.957 237.497 391.892 242.155 393.629 241.956C395.359 241.757 395.033 237.063 398.19 232.126Z" fill="#F2F2F2"/>
<path d="M31.1243 428.248L351.877 383.915C362.613 382.432 371.473 374.74 374.451 364.319L448.12 106.479C450.616 97.7403 448.752 88.6913 443.007 81.6504C437.261 74.6094 428.772 70.9707 419.707 71.6625L96.5486 96.421C84.8574 97.3165 75.0432 105.549 72.1255 116.906L0.863434 394.32C-1.41043 403.173 0.863403 412.531 6.94748 419.351C12.1862 425.226 19.6151 428.507 27.359 428.507C28.6079 428.507 29.8665 428.421 31.1243 428.248Z" fill="#E6E6E6"/>
<path d="M116.854 367.127L218.59 353.066C221.994 352.595 224.805 350.156 225.749 346.85L249.115 265.07C249.907 262.298 249.316 259.428 247.494 257.194C245.671 254.961 242.979 253.807 240.104 254.026L137.605 261.879C133.897 262.163 130.784 264.775 129.859 268.377L107.256 356.366C106.535 359.174 107.256 362.142 109.186 364.305C110.847 366.169 113.204 367.209 115.66 367.209C116.056 367.209 116.455 367.182 116.854 367.127Z" fill="white"/>
<path d="M121.337 143.673L310.193 126.289C314.954 125.851 318.66 123.663 318.453 121.411C318.245 119.16 314.203 117.686 309.442 118.124L120.586 135.508C115.824 135.947 112.121 138.134 112.328 140.385C112.535 142.636 116.576 144.111 121.337 143.673Z" fill="white"/>
<path d="M111.038 193.311L299.894 175.927C304.656 175.489 308.361 173.301 308.154 171.05C307.947 168.799 303.904 167.324 299.143 167.763L110.287 185.147C105.526 185.585 101.822 187.772 102.029 190.023C102.236 192.274 106.277 193.749 111.038 193.311Z" fill="white"/>
<path d="M107.402 236.575L296.258 219.191C301.019 218.753 304.724 216.565 304.517 214.314C304.31 212.063 300.267 210.588 295.506 211.027L106.65 228.411C101.889 228.849 98.1851 231.036 98.3923 233.287C98.5995 235.538 102.64 237.013 107.402 236.575Z" fill="white"/>
<path d="M221.198 215.677C216.457 210.513 209.95 208.772 206.664 211.79C203.378 214.807 204.557 221.438 209.3 226.604C211.166 228.694 213.505 230.306 216.122 231.306L236.484 252.935L246.43 243.163L225.301 222.879C224.528 220.185 223.121 217.716 221.198 215.677Z" fill="#FFB6B6"/>
<path d="M337.28 220.49C337.28 220.49 325.382 209.608 311.144 219.109C296.906 228.611 263.75 252.915 263.75 252.915L240.518 224.101L222.211 240.694C222.211 240.694 254.503 297.575 275.367 285.056C296.23 272.538 342.807 236.801 340.692 229.407C338.577 222.013 337.28 220.49 337.28 220.49Z" fill="#6C63FF"/>
<path d="M249.178 485.954L268.135 521.278L283.748 502.383L265.788 478.114L249.178 485.954Z" fill="#FFB6B6"/>
<path d="M261.437 516.395L269.458 559.734C269.458 559.734 274.842 574.764 283.495 559.497C292.149 544.23 307.818 512.644 298.81 506.855C289.801 501.066 278.922 496.389 278.922 496.389L261.437 516.395Z" fill="#2F2E41"/>
<path d="M237.992 524.423L217.992 560.423L242.992 563.423L253.992 534.423L237.992 524.423Z" fill="#FFB6B6"/>
<path d="M343.991 198.423C343.991 198.423 345.991 218.423 348.991 220.423C351.991 222.423 313.976 220.423 313.976 220.423L324.991 198.423H343.991Z" fill="#FFB6B6"/>
<path d="M303 226.438L316.992 215.423H351.205L373.992 234.423L359.492 301.923L366.492 334.923L277.492 337.923L293.492 307.923C293.492 307.923 274.492 287.923 280.492 274.923C286.492 261.923 303 226.438 303 226.438Z" fill="#6656FF"/>
<path d="M286.493 329.923L273.493 336.923C273.493 336.923 203.493 402.923 209.493 422.923C215.493 442.923 255.493 499.923 255.493 499.923L274.493 489.923L246.493 428.923L299.993 375.423L271.274 426.048L230.493 532.923L254.493 542.923L316.493 417.923C316.493 417.923 367.493 382.923 370.493 360.923C373.493 338.923 366.493 334.923 366.493 334.923L286.493 329.923Z" fill="#2F2E41"/>
<path d="M218.492 551.923L185.492 582.923C185.492 582.923 175.492 595.923 193.492 594.923C211.492 593.923 247.492 589.923 247.492 578.923C247.492 567.923 245.492 555.923 245.492 555.923L218.492 551.923Z" fill="#2F2E41"/>
<path d="M333.992 203.423C321.29 203.423 310.992 193.125 310.992 180.423C310.992 167.72 321.29 157.423 333.992 157.423C346.695 157.423 356.992 167.72 356.992 180.423C356.992 193.125 346.695 203.423 333.992 203.423Z" fill="#FFB6B6"/>
<path d="M234.217 272.196L253.172 329.923C253.677 331.461 254.99 332.596 256.585 332.873L292.835 339.178C296.086 339.743 298.772 336.65 297.757 333.51L278.827 274.999C278.316 273.42 276.957 272.265 275.316 272.015L239.041 266.495C235.811 266.004 233.198 269.092 234.217 272.196Z" fill="white"/>
<path d="M293.603 340.244C295.146 340.244 296.611 339.585 297.65 338.389C298.897 336.952 299.292 335.013 298.707 333.203L279.777 274.691C279.145 272.739 277.493 271.335 275.464 271.027L239.19 265.507C237.329 265.223 235.488 265.913 234.27 267.351C233.054 268.79 232.678 270.718 233.266 272.508L252.221 330.234C252.842 332.128 254.448 333.516 256.412 333.859L292.663 340.163C292.977 340.218 293.292 340.244 293.603 340.244ZM238.371 267.444C238.542 267.444 238.716 267.457 238.889 267.483L275.164 273.004C276.439 273.197 277.477 274.08 277.873 275.307L296.754 333.666C297.101 334.737 296.988 335.94 296.322 336.848C295.544 337.909 294.279 338.41 293.005 338.192L278.459 335.663C263.87 333.126 251.868 322.751 247.249 308.681L235.202 271.993C234.898 271.069 234.936 270.039 235.415 269.193C236.046 268.079 237.17 267.444 238.371 267.444Z" fill="#3F3D56"/>
<path d="M289.552 317.167C282.547 317.426 277.002 321.251 277.168 325.71C277.334 330.168 283.147 333.57 290.154 333.31C292.955 333.244 295.7 332.509 298.158 331.165L327.826 329.692L326.838 315.784L297.695 318.713C295.143 317.555 292.351 317.025 289.552 317.167Z" fill="#FFB6B6"/>
<path d="M368.492 231.923C368.492 231.923 352.492 233.923 350.492 250.923C348.492 267.923 345.492 308.923 345.492 308.923L308.492 307.923L309.252 332.619C309.252 332.619 373.492 344.923 377.492 320.923C381.492 296.923 384.492 238.293 377.492 235.108C370.492 231.923 368.492 231.923 368.492 231.923Z" fill="#6656FF"/>
<path d="M388.723 73.4144L396.953 69.5158C393.578 74.2266 390.669 81.5839 389.112 87.4383C386.475 81.9849 382.225 75.3122 378.018 71.3264L386.716 73.564C381.356 47.2961 361.197 28.4383 338.112 28.4383L337.785 27.4895C361.898 27.4895 383.251 46.0859 388.723 73.4144Z" fill="#3F3D56"/>
<path d="M350.844 101H402.844C405.049 101 406.844 99.2056 406.844 97C406.844 94.7944 405.049 93 402.844 93H350.844C348.638 93 346.844 94.7944 346.844 97C346.844 99.2056 348.638 101 350.844 101Z" fill="#6C63FF"/>
<path d="M241.052 281.12L275.152 283.994C276.011 284.066 276.77 283.426 276.842 282.566C276.915 281.706 276.274 280.948 275.414 280.876L241.314 278.002C240.455 277.93 239.697 278.57 239.624 279.43C239.552 280.29 240.192 281.048 241.052 281.12Z" fill="#3F3D56"/>
<path d="M244.052 291.12L278.152 293.994C279.011 294.066 279.77 293.426 279.842 292.566C279.915 291.706 279.274 290.948 278.414 290.876L244.314 288.002C243.455 287.93 242.697 288.57 242.624 289.43C242.552 290.29 243.192 291.048 244.052 291.12Z" fill="#3F3D56"/>
<path d="M247.052 301.12L281.152 303.994C282.011 304.066 282.77 303.426 282.842 302.566C282.915 301.706 282.274 300.948 281.414 300.876L247.314 298.002C246.455 297.93 245.697 298.57 245.624 299.43C245.552 300.29 246.192 301.048 247.052 301.12Z" fill="#3F3D56"/>
<path d="M340.148 188.692L324.058 170.217L326.74 162.425L318.103 170.633L313.644 169.422C313.644 169.422 313.683 153.6 326.316 152.886C338.949 152.171 348.011 153.502 348.011 153.502C348.011 153.502 366.075 159.162 366.781 163.501C367.487 167.839 377.607 173.603 377.607 173.603C377.607 173.603 386.387 180.135 382.283 191.082C378.178 202.029 368.812 215.694 375.295 222.355C381.779 229.017 390.94 234.144 386.476 236.701C382.012 239.258 373.96 227.27 366.627 232.063C359.294 236.856 346.903 256.107 335.28 246.164C323.657 236.222 321.507 224.707 321.507 224.707L340.057 206.375C340.057 206.375 351.295 187.206 340.148 188.692Z" fill="#2F2E41"/>
<path d="M312.435 4.62193H362.982C364.256 4.62193 365.293 3.58504 365.293 2.31072C365.293 1.0364 364.256 0 362.982 0H312.435C311.161 0 310.125 1.03641 310.125 2.31073C310.125 3.58505 311.161 4.62193 312.435 4.62193Z" fill="#3F3D56"/>
<path d="M285.311 29.2784H390.105C391.379 29.2784 392.416 28.2415 392.416 26.9672C392.416 25.6929 391.379 24.6565 390.105 24.6565H285.311C284.036 24.6565 283 25.6929 283 26.9672C283 28.2415 284.036 29.2784 285.311 29.2784Z" fill="#3F3D56"/>
</svg>
