<svg width="860" height="177" viewBox="0 0 860 177" fill="none" xmlns="http://www.w3.org/2000/svg">
<path d="M381 125.589C381.172 124.535 381.261 123.469 381.267 122.4C381.969 92.7586 401.139 73.0456 432.814 69.2528C437.661 68.6489 442.508 68.6972 447.355 68.3107C452.711 67.8758 458.116 67.5859 463.399 66.7162C470.67 65.5325 475.517 62.0537 476.098 53.9125C476.226 50.6824 477.053 47.518 478.522 44.6358C481.091 40.0941 478.788 37.8957 475.25 36.2047C466.84 32.1944 458.285 28.5224 449.9 24.4156C445.646 22.5739 441.68 20.1332 438.122 17.1681C436.013 15.1872 432.839 12.9163 434.438 8.49542C436.038 4.07451 440.473 4.87172 442.896 5.47567C453.348 7.85294 463.586 11.0849 473.505 15.1389C481.285 18.4968 488.046 24.2465 495.317 28.764C497.136 30.0362 499.277 30.7729 501.496 30.8899C505.102 30.6266 508.722 31.1374 512.113 32.3876C515.503 33.6378 518.585 35.5985 521.151 38.1373C528.959 45.808 536.368 53.8712 543.35 62.2953C550.427 71.0164 549.458 78.3363 540.224 84.714C534.626 88.5793 527.791 90.6568 521.587 93.7007C519.7 94.3668 518.066 95.5989 516.91 97.2278C514.899 101.199 513.502 105.451 512.766 109.838L511 125" stroke="white" stroke-width="9"/>
<path d="M381 125.589C381.172 124.535 381.261 123.469 381.267 122.4C381.969 92.7586 401.139 73.0456 432.814 69.2528C437.661 68.6489 442.508 68.6972 447.355 68.3107C452.711 67.8758 458.116 67.5859 463.399 66.7162C470.67 65.5325 475.517 62.0537 476.098 53.9125C476.226 50.6824 477.053 47.518 478.522 44.6358C481.091 40.0941 478.788 37.8957 475.25 36.2047C466.84 32.1944 458.285 28.5224 449.9 24.4156C445.646 22.5739 441.68 20.1332 438.122 17.1681C436.013 15.1872 432.839 12.9163 434.438 8.49542C436.038 4.07451 440.473 4.87172 442.896 5.47567C453.348 7.85294 463.586 11.0849 473.505 15.1389C481.285 18.4968 488.046 24.2465 495.317 28.764C497.136 30.0362 499.277 30.7729 501.496 30.8899C505.102 30.6266 508.722 31.1374 512.113 32.3876C515.503 33.6378 518.585 35.5985 521.151 38.1373C528.959 45.808 536.368 53.8712 543.35 62.2953C550.427 71.0164 549.458 78.3363 540.224 84.714C534.626 88.5793 527.791 90.6568 521.587 93.7007C519.7 94.3668 518.066 95.5989 516.91 97.2278C514.899 101.199 513.502 105.451 512.766 109.838L511 125" stroke="white" stroke-opacity="0.2" stroke-width="9"/>
<path d="M137.979 170H123.839V123.31H137.979V170ZM200.949 170H186.809V141.93L176.379 170H170.079L159.649 141.93V170H145.509V123.31H165.039L173.229 145.71L181.419 123.31H200.949V170ZM222.676 170H208.536V123.31H233.456C244.376 123.31 250.256 130.59 250.256 139.34C250.256 148.02 244.376 155.3 233.456 155.3H222.676V170ZM231.636 142.98C234.016 142.98 235.906 141.79 235.906 139.34C235.906 136.82 234.016 135.63 231.636 135.63H222.676V142.98H231.636ZM286.734 170H254.884V123.31H269.024V157.68H286.734V170ZM327.833 170H292.413V123.31H327.833V135.63H306.553V140.25H327.343V152.57H306.553V157.68H327.833V170ZM389.552 170H375.412V141.93L364.982 170H358.682L348.252 141.93V170H334.112V123.31H353.642L361.832 145.71L370.022 123.31H389.552V170ZM432.559 170H397.139V123.31H432.559V135.63H411.279V140.25H432.069V152.57H411.279V157.68H432.559V170ZM483.779 170H470.199L452.979 146.34V170H438.839V123.31H453.399L469.639 145.43V123.31H483.779V170ZM515.489 170H501.349V135.63H488.819V123.31H527.949V135.63H515.489V170ZM575.98 170H559.95L558.27 164.54H541.47L539.79 170H523.76L540.98 123.31H558.76L575.98 170ZM554.49 152.22L549.87 137.17L545.25 152.22H554.49ZM598.477 170H584.337V135.63H571.807V123.31H610.937V135.63H598.477V170ZM630.098 170H615.958V123.31H630.098V170ZM660.658 170.84C646.238 170.84 635.108 161.04 635.108 146.69C635.108 132.34 646.238 122.54 660.658 122.54C675.078 122.54 686.208 132.34 686.208 146.69C686.208 161.04 675.078 170.84 660.658 170.84ZM660.658 158.38C667.448 158.38 671.858 153.2 671.858 146.69C671.858 140.18 667.448 135 660.658 135C653.868 135 649.458 140.18 649.458 146.69C649.458 153.2 653.868 158.38 660.658 158.38ZM736.161 170H722.581L705.361 146.34V170H691.221V123.31H705.781L722.021 145.43V123.31H736.161V170Z" fill="white"/>
</svg>
