<svg width="1128" height="177" viewBox="0 0 1128 177" fill="none" xmlns="http://www.w3.org/2000/svg">
<path d="M498 125.589C498.172 124.535 498.261 123.469 498.267 122.4C498.969 92.7586 518.139 73.0456 549.814 69.2528C554.661 68.6489 559.508 68.6972 564.355 68.3107C569.711 67.8758 575.116 67.5859 580.399 66.7162C587.67 65.5325 592.517 62.0537 593.098 53.9125C593.226 50.6824 594.053 47.518 595.522 44.6358C598.091 40.0941 595.788 37.8957 592.25 36.2047C583.84 32.1944 575.285 28.5224 566.9 24.4156C562.646 22.5739 558.68 20.1332 555.122 17.1681C553.013 15.1872 549.839 12.9163 551.438 8.49542C553.038 4.07451 557.473 4.87172 559.896 5.47567C570.348 7.85294 580.586 11.0849 590.505 15.1389C598.285 18.4968 605.046 24.2465 612.317 28.764C614.136 30.0362 616.277 30.7729 618.496 30.8899C622.102 30.6266 625.722 31.1374 629.113 32.3876C632.503 33.6378 635.585 35.5985 638.151 38.1373C645.959 45.808 653.368 53.8712 660.35 62.2953C667.427 71.0164 666.458 78.3363 657.224 84.714C651.626 88.5793 644.791 90.6568 638.587 93.7007C636.7 94.3668 635.066 95.5989 633.91 97.2278C631.899 101.199 630.502 105.451 629.766 109.838L628 125" stroke="white" stroke-width="9"/>
<path d="M498 125.589C498.172 124.535 498.261 123.469 498.267 122.4C498.969 92.7586 518.139 73.0456 549.814 69.2528C554.661 68.6489 559.508 68.6972 564.355 68.3107C569.711 67.8758 575.116 67.5859 580.399 66.7162C587.67 65.5325 592.517 62.0537 593.098 53.9125C593.226 50.6824 594.053 47.518 595.522 44.6358C598.091 40.0941 595.788 37.8957 592.25 36.2047C583.84 32.1944 575.285 28.5224 566.9 24.4156C562.646 22.5739 558.68 20.1332 555.122 17.1681C553.013 15.1872 549.839 12.9163 551.438 8.49542C553.038 4.07451 557.473 4.87172 559.896 5.47567C570.348 7.85294 580.586 11.0849 590.505 15.1389C598.285 18.4968 605.046 24.2465 612.317 28.764C614.136 30.0362 616.277 30.7729 618.496 30.8899C622.102 30.6266 625.722 31.1374 629.113 32.3876C632.503 33.6378 635.585 35.5985 638.151 38.1373C645.959 45.808 653.368 53.8712 660.35 62.2953C667.427 71.0164 666.458 78.3363 657.224 84.714C651.626 88.5793 644.791 90.6568 638.587 93.7007C636.7 94.3668 635.066 95.5989 633.91 97.2278C631.899 101.199 630.502 105.451 629.766 109.838L628 125" stroke="white" stroke-opacity="0.2" stroke-width="9"/>
<path d="M49.3729 170.84C34.7429 170.84 23.6829 161.04 23.6829 146.69C23.6829 132.27 34.7429 122.54 49.3729 122.54C61.6229 122.54 67.7829 129.68 70.5829 136.12L58.4029 141.79C57.2129 138.15 53.5729 135 49.3729 135C42.5829 135 38.0329 140.18 38.0329 146.69C38.0329 153.2 42.5829 158.38 49.3729 158.38C53.5729 158.38 57.2129 155.23 58.4029 151.59L70.5829 157.19C67.8529 163.42 61.6229 170.84 49.3729 170.84ZM116.801 170H100.701L94.2614 155.3H89.1514V170H75.0114V123.31H99.9314C110.851 123.31 116.731 130.59 116.731 139.34C116.731 147.39 112.041 151.66 108.331 153.48L116.801 170ZM97.7614 142.98C100.141 142.98 102.381 141.86 102.381 139.27C102.381 136.75 100.141 135.63 97.7614 135.63H89.1514V142.98H97.7614ZM157.873 170H122.453V123.31H157.873V135.63H136.593V140.25H157.383V152.57H136.593V157.68H157.873V170ZM211.332 170H195.302L193.622 164.54H176.822L175.142 170H159.112L176.332 123.31H194.112L211.332 170ZM189.842 152.22L185.222 137.17L180.602 152.22H189.842ZM233.829 170H219.689V135.63H207.159V123.31H246.289V135.63H233.829V170ZM286.73 170H251.31V123.31H286.73V135.63H265.45V140.25H286.24V152.57H265.45V157.68H286.73V170ZM331.781 170H310.851V123.31H331.711C346.411 123.31 357.331 131.71 357.331 146.62C357.331 161.53 346.411 170 331.781 170ZM331.711 157.68C338.781 157.68 342.981 152.5 342.981 146.62C342.981 140.32 339.341 135.63 331.781 135.63H324.991V157.68H331.711ZM397.814 170H362.394V123.31H397.814V135.63H376.534V140.25H397.324V152.57H376.534V157.68H397.814V170ZM439.513 170H404.093V123.31H439.513V135.63H418.233V140.25H439.023V152.57H418.233V157.68H439.513V170ZM459.933 170H445.793V123.31H470.713C481.633 123.31 487.513 130.59 487.513 139.34C487.513 148.02 481.633 155.3 470.713 155.3H459.933V170ZM468.893 142.98C471.273 142.98 473.163 141.79 473.163 139.34C473.163 136.82 471.273 135.63 468.893 135.63H459.933V142.98H468.893ZM527.56 170H492.14V123.31H527.56V135.63H506.28V140.25H527.07V152.57H506.28V157.68H527.56V170ZM575.63 170H559.53L553.09 155.3H547.98V170H533.84V123.31H558.76C569.68 123.31 575.56 130.59 575.56 139.34C575.56 147.39 570.87 151.66 567.16 153.48L575.63 170ZM556.59 142.98C558.97 142.98 561.21 141.86 561.21 139.27C561.21 136.75 558.97 135.63 556.59 135.63H547.98V142.98H556.59ZM622.293 170.84C607.663 170.84 596.603 161.04 596.603 146.69C596.603 132.27 607.663 122.54 622.293 122.54C634.543 122.54 640.703 129.68 643.503 136.12L631.323 141.79C630.133 138.15 626.493 135 622.293 135C615.503 135 610.953 140.18 610.953 146.69C610.953 153.2 615.503 158.38 622.293 158.38C626.493 158.38 630.133 155.23 631.323 151.59L643.503 157.19C640.773 163.42 634.543 170.84 622.293 170.84ZM670.961 170.84C656.541 170.84 645.411 161.04 645.411 146.69C645.411 132.34 656.541 122.54 670.961 122.54C685.381 122.54 696.511 132.34 696.511 146.69C696.511 161.04 685.381 170.84 670.961 170.84ZM670.961 158.38C677.751 158.38 682.161 153.2 682.161 146.69C682.161 140.18 677.751 135 670.961 135C664.171 135 659.761 140.18 659.761 146.69C659.761 153.2 664.171 158.38 670.961 158.38ZM746.465 170H732.885L715.665 146.34V170H701.525V123.31H716.085L732.325 145.43V123.31H746.465V170ZM798.965 170H785.385L768.165 146.34V170H754.025V123.31H768.585L784.825 145.43V123.31H798.965V170ZM841.945 170H806.525V123.31H841.945V135.63H820.665V140.25H841.455V152.57H820.665V157.68H841.945V170ZM871.394 170.84C856.764 170.84 845.704 161.04 845.704 146.69C845.704 132.27 856.764 122.54 871.394 122.54C883.644 122.54 889.804 129.68 892.604 136.12L880.424 141.79C879.234 138.15 875.594 135 871.394 135C864.604 135 860.054 140.18 860.054 146.69C860.054 153.2 864.604 158.38 871.394 158.38C875.594 158.38 879.234 155.23 880.424 151.59L892.604 157.19C889.874 163.42 883.644 170.84 871.394 170.84ZM921.183 170H907.043V135.63H894.513V123.31H933.643V135.63H921.183V170ZM952.804 170H938.664V123.31H952.804V170ZM983.364 170.84C968.944 170.84 957.814 161.04 957.814 146.69C957.814 132.34 968.944 122.54 983.364 122.54C997.784 122.54 1008.91 132.34 1008.91 146.69C1008.91 161.04 997.784 170.84 983.364 170.84ZM983.364 158.38C990.154 158.38 994.564 153.2 994.564 146.69C994.564 140.18 990.154 135 983.364 135C976.574 135 972.164 140.18 972.164 146.69C972.164 153.2 976.574 158.38 983.364 158.38ZM1058.87 170H1045.29L1028.07 146.34V170H1013.93V123.31H1028.49L1044.73 145.43V123.31H1058.87V170ZM1084.56 170.84C1074.62 170.84 1067.83 167.9 1062.86 163.42L1070.21 152.92C1073.71 156.28 1078.96 158.94 1085.26 158.94C1087.92 158.94 1090.44 158.24 1090.44 156.42C1090.44 151.94 1064.4 156.49 1064.4 138.08C1064.4 130.17 1070.98 122.61 1083.79 122.61C1091.42 122.61 1098.28 124.78 1103.6 129.12L1096.04 139.13C1091.98 136.05 1086.73 134.51 1082.32 134.51C1079.52 134.51 1078.75 135.42 1078.75 136.61C1078.75 141.02 1104.72 137.24 1104.72 154.6C1104.72 164.89 1097.09 170.84 1084.56 170.84Z" fill="white"/>
</svg>
