<svg width="1128" height="177" viewBox="0 0 1128 177" fill="none" xmlns="http://www.w3.org/2000/svg">
<path d="M480 125.589C480.172 124.535 480.261 123.469 480.267 122.4C480.969 92.7586 500.139 73.0456 531.814 69.2528C536.661 68.6489 541.508 68.6972 546.355 68.3107C551.711 67.8758 557.116 67.5859 562.399 66.7162C569.67 65.5325 574.517 62.0537 575.098 53.9125C575.226 50.6824 576.053 47.518 577.522 44.6358C580.091 40.0941 577.788 37.8957 574.25 36.2047C565.84 32.1944 557.285 28.5224 548.9 24.4156C544.646 22.5739 540.68 20.1332 537.122 17.1681C535.013 15.1872 531.839 12.9163 533.438 8.49542C535.038 4.07451 539.473 4.87172 541.896 5.47567C552.348 7.85294 562.586 11.0849 572.505 15.1389C580.285 18.4968 587.046 24.2465 594.317 28.764C596.136 30.0362 598.277 30.7729 600.496 30.8899C604.102 30.6266 607.722 31.1374 611.113 32.3876C614.503 33.6378 617.585 35.5985 620.151 38.1373C627.959 45.808 635.368 53.8712 642.35 62.2953C649.427 71.0164 648.458 78.3363 639.224 84.714C633.626 88.5793 626.791 90.6568 620.587 93.7007C618.7 94.3668 617.066 95.5989 615.91 97.2278C613.899 101.199 612.502 105.451 611.766 109.838L610 125" stroke="white" stroke-width="9"/>
<path d="M480 125.589C480.172 124.535 480.261 123.469 480.267 122.4C480.969 92.7586 500.139 73.0456 531.814 69.2528C536.661 68.6489 541.508 68.6972 546.355 68.3107C551.711 67.8758 557.116 67.5859 562.399 66.7162C569.67 65.5325 574.517 62.0537 575.098 53.9125C575.226 50.6824 576.053 47.518 577.522 44.6358C580.091 40.0941 577.788 37.8957 574.25 36.2047C565.84 32.1944 557.285 28.5224 548.9 24.4156C544.646 22.5739 540.68 20.1332 537.122 17.1681C535.013 15.1872 531.839 12.9163 533.438 8.49542C535.038 4.07451 539.473 4.87172 541.896 5.47567C552.348 7.85294 562.586 11.0849 572.505 15.1389C580.285 18.4968 587.046 24.2465 594.317 28.764C596.136 30.0362 598.277 30.7729 600.496 30.8899C604.102 30.6266 607.722 31.1374 611.113 32.3876C614.503 33.6378 617.585 35.5985 620.151 38.1373C627.959 45.808 635.368 53.8712 642.35 62.2953C649.427 71.0164 648.458 78.3363 639.224 84.714C633.626 88.5793 626.791 90.6568 620.587 93.7007C618.7 94.3668 617.066 95.5989 615.91 97.2278C613.899 101.199 612.502 105.451 611.766 109.838L610 125" stroke="white" stroke-opacity="0.2" stroke-width="9"/>
<path d="M59.7137 170.84C49.7737 170.84 42.9837 167.9 38.0137 163.42L45.3637 152.92C48.8637 156.28 54.1137 158.94 60.4137 158.94C63.0737 158.94 65.5937 158.24 65.5937 156.42C65.5937 151.94 39.5537 156.49 39.5537 138.08C39.5537 130.17 46.1337 122.61 58.9437 122.61C66.5737 122.61 73.4337 124.78 78.7537 129.12L71.1937 139.13C67.1337 136.05 61.8837 134.51 57.4737 134.51C54.6737 134.51 53.9037 135.42 53.9037 136.61C53.9037 141.02 79.8737 137.24 79.8737 154.6C79.8737 164.89 72.2437 170.84 59.7137 170.84ZM119.933 170H84.5134V123.31H119.933V135.63H98.6534V140.25H119.443V152.57H98.6534V157.68H119.933V170ZM168.003 170H151.903L145.463 155.3H140.353V170H126.213V123.31H151.133C162.053 123.31 167.933 130.59 167.933 139.34C167.933 147.39 163.243 151.66 159.533 153.48L168.003 170ZM148.963 142.98C151.343 142.98 153.583 141.86 153.583 139.27C153.583 136.75 151.343 135.63 148.963 135.63H140.353V142.98H148.963ZM202.93 170H185.15L167.93 123.31H183.96L194.04 154.74L204.12 123.31H220.15L202.93 170ZM236.808 170H222.668V123.31H236.808V170ZM267.508 170.84C252.878 170.84 241.818 161.04 241.818 146.69C241.818 132.27 252.878 122.54 267.508 122.54C279.758 122.54 285.918 129.68 288.718 136.12L276.538 141.79C275.348 138.15 271.708 135 267.508 135C260.718 135 256.168 140.18 256.168 146.69C256.168 153.2 260.718 158.38 267.508 158.38C271.708 158.38 275.348 155.23 276.538 151.59L288.718 157.19C285.988 163.42 279.758 170.84 267.508 170.84ZM328.566 170H293.146V123.31H328.566V135.63H307.286V140.25H328.076V152.57H307.286V157.68H328.566V170ZM375.857 170.84C361.227 170.84 350.167 161.04 350.167 146.69C350.167 132.27 361.227 122.54 375.857 122.54C388.107 122.54 394.267 129.68 397.067 136.12L384.887 141.79C383.697 138.15 380.057 135 375.857 135C369.067 135 364.517 140.18 364.517 146.69C364.517 153.2 369.067 158.38 375.857 158.38C380.057 158.38 383.697 155.23 384.887 151.59L397.067 157.19C394.337 163.42 388.107 170.84 375.857 170.84ZM433.346 170H401.496V123.31H415.636V157.68H433.346V170ZM453.165 170H439.025V123.31H453.165V170ZM496.115 170H460.695V123.31H496.115V135.63H474.835V140.25H495.625V152.57H474.835V157.68H496.115V170ZM547.334 170H533.754L516.534 146.34V170H502.394V123.31H516.954L533.194 145.43V123.31H547.334V170ZM579.044 170H564.904V135.63H552.374V123.31H591.504V135.63H579.044V170ZM613.972 170.84C604.032 170.84 597.242 167.9 592.272 163.42L599.622 152.92C603.122 156.28 608.372 158.94 614.672 158.94C617.332 158.94 619.852 158.24 619.852 156.42C619.852 151.94 593.812 156.49 593.812 138.08C593.812 130.17 600.392 122.61 613.202 122.61C620.832 122.61 627.692 124.78 633.012 129.12L625.452 139.13C621.392 136.05 616.142 134.51 611.732 134.51C608.932 134.51 608.162 135.42 608.162 136.61C608.162 141.02 634.132 137.24 634.132 154.6C634.132 164.89 626.502 170.84 613.972 170.84ZM674.743 170.84C664.803 170.84 658.013 167.9 653.043 163.42L660.393 152.92C663.893 156.28 669.143 158.94 675.443 158.94C678.103 158.94 680.623 158.24 680.623 156.42C680.623 151.94 654.583 156.49 654.583 138.08C654.583 130.17 661.163 122.61 673.973 122.61C681.603 122.61 688.463 124.78 693.783 129.12L686.223 139.13C682.163 136.05 676.913 134.51 672.503 134.51C669.703 134.51 668.933 135.42 668.933 136.61C668.933 141.02 694.903 137.24 694.903 154.6C694.903 164.89 687.273 170.84 674.743 170.84ZM734.963 170H699.543V123.31H734.963V135.63H713.683V140.25H734.473V152.57H713.683V157.68H734.963V170ZM788.422 170H772.392L770.712 164.54H753.912L752.232 170H736.202L753.422 123.31H771.202L788.422 170ZM766.932 152.22L762.312 137.17L757.692 152.22H766.932ZM846.379 170H832.239V141.93L821.809 170H815.509L805.079 141.93V170H790.939V123.31H810.469L818.659 145.71L826.849 123.31H846.379V170ZM885.817 170H853.967V123.31H868.107V157.68H885.817V170ZM926.916 170H891.496V123.31H926.916V135.63H905.636V140.25H926.426V152.57H905.636V157.68H926.916V170ZM951.325 170.84C941.385 170.84 934.595 167.9 929.625 163.42L936.975 152.92C940.475 156.28 945.725 158.94 952.025 158.94C954.685 158.94 957.205 158.24 957.205 156.42C957.205 151.94 931.165 156.49 931.165 138.08C931.165 130.17 937.745 122.61 950.555 122.61C958.185 122.61 965.045 124.78 970.365 129.12L962.805 139.13C958.745 136.05 953.495 134.51 949.085 134.51C946.285 134.51 945.515 135.42 945.515 136.61C945.515 141.02 971.485 137.24 971.485 154.6C971.485 164.89 963.855 170.84 951.325 170.84ZM994.255 170.84C984.315 170.84 977.525 167.9 972.555 163.42L979.905 152.92C983.405 156.28 988.655 158.94 994.955 158.94C997.615 158.94 1000.13 158.24 1000.13 156.42C1000.13 151.94 974.095 156.49 974.095 138.08C974.095 130.17 980.675 122.61 993.485 122.61C1001.11 122.61 1007.97 124.78 1013.29 129.12L1005.73 139.13C1001.67 136.05 996.425 134.51 992.015 134.51C989.215 134.51 988.445 135.42 988.445 136.61C988.445 141.02 1014.41 137.24 1014.41 154.6C1014.41 164.89 1006.78 170.84 994.255 170.84ZM1050.9 170H1019.05V123.31H1033.19V157.68H1050.9V170ZM1074.09 170H1059.95V151.45L1042.45 123.31H1058.34L1067.02 139.06L1075.56 123.31H1091.45L1074.09 151.45V170Z" fill="white"/>
</svg>
