<svg width="860" height="177" viewBox="0 0 860 177" fill="none" xmlns="http://www.w3.org/2000/svg">
<path d="M338 125.589C338.172 124.535 338.261 123.469 338.267 122.4C338.969 92.7586 358.139 73.0456 389.814 69.2528C394.661 68.6489 399.508 68.6972 404.355 68.3107C409.711 67.8758 415.116 67.5859 420.399 66.7162C427.67 65.5325 432.517 62.0537 433.098 53.9125C433.226 50.6824 434.053 47.518 435.522 44.6358C438.091 40.0941 435.788 37.8957 432.25 36.2047C423.84 32.1944 415.285 28.5224 406.9 24.4156C402.646 22.5739 398.68 20.1332 395.122 17.1681C393.013 15.1872 389.839 12.9163 391.438 8.49542C393.038 4.07451 397.473 4.87172 399.896 5.47567C410.348 7.85294 420.586 11.0849 430.505 15.1389C438.285 18.4968 445.046 24.2465 452.317 28.764C454.136 30.0362 456.277 30.7729 458.496 30.8899C462.102 30.6266 465.722 31.1374 469.113 32.3876C472.503 33.6378 475.585 35.5985 478.151 38.1373C485.959 45.808 493.368 53.8712 500.35 62.2953C507.427 71.0164 506.458 78.3363 497.224 84.714C491.626 88.5793 484.791 90.6568 478.587 93.7007C476.7 94.3668 475.066 95.5989 473.91 97.2278C471.899 101.199 470.502 105.451 469.766 109.838L468 125" stroke="white" stroke-width="9"/>
<path d="M338 125.589C338.172 124.535 338.261 123.469 338.267 122.4C338.969 92.7586 358.139 73.0456 389.814 69.2528C394.661 68.6489 399.508 68.6972 404.355 68.3107C409.711 67.8758 415.116 67.5859 420.399 66.7162C427.67 65.5325 432.517 62.0537 433.098 53.9125C433.226 50.6824 434.053 47.518 435.522 44.6358C438.091 40.0941 435.788 37.8957 432.25 36.2047C423.84 32.1944 415.285 28.5224 406.9 24.4156C402.646 22.5739 398.68 20.1332 395.122 17.1681C393.013 15.1872 389.839 12.9163 391.438 8.49542C393.038 4.07451 397.473 4.87172 399.896 5.47567C410.348 7.85294 420.586 11.0849 430.505 15.1389C438.285 18.4968 445.046 24.2465 452.317 28.764C454.136 30.0362 456.277 30.7729 458.496 30.8899C462.102 30.6266 465.722 31.1374 469.113 32.3876C472.503 33.6378 475.585 35.5985 478.151 38.1373C485.959 45.808 493.368 53.8712 500.35 62.2953C507.427 71.0164 506.458 78.3363 497.224 84.714C491.626 88.5793 484.791 90.6568 478.587 93.7007C476.7 94.3668 475.066 95.5989 473.91 97.2278C471.899 101.199 470.502 105.451 469.766 109.838L468 125" stroke="white" stroke-opacity="0.2" stroke-width="9"/>
<path d="M66.9223 170.84C52.5023 170.84 41.3723 161.04 41.3723 146.69C41.3723 132.34 52.5023 122.54 66.9223 122.54C81.3423 122.54 92.4723 132.34 92.4723 146.69C92.4723 161.04 81.3423 170.84 66.9223 170.84ZM66.9223 158.38C73.7123 158.38 78.1223 153.2 78.1223 146.69C78.1223 140.18 73.7123 135 66.9223 135C60.1323 135 55.7223 140.18 55.7223 146.69C55.7223 153.2 60.1323 158.38 66.9223 158.38ZM111.626 170H97.4861V123.31H122.406C133.326 123.31 139.206 130.59 139.206 139.34C139.206 148.02 133.326 155.3 122.406 155.3H111.626V170ZM120.586 142.98C122.966 142.98 124.856 141.79 124.856 139.34C124.856 136.82 122.966 135.63 120.586 135.63H111.626V142.98H120.586ZM167.984 170H153.844V135.63H141.314V123.31H180.444V135.63H167.984V170ZM199.605 170H185.465V123.31H199.605V170ZM262.574 170H248.434V141.93L238.004 170H231.704L221.274 141.93V170H207.134V123.31H226.664L234.854 145.71L243.044 123.31H262.574V170ZM284.302 170H270.162V123.31H284.302V170ZM327.532 170H290.572V158.8L308.352 135.63H290.572V123.31H327.042V134.44L309.192 157.68H327.532V170ZM369.224 170H333.804V123.31H369.224V135.63H347.944V140.25H368.734V152.57H347.944V157.68H369.224V170ZM419.945 170H405.805V151.45L388.305 123.31H404.195L412.875 139.06L421.415 123.31H437.305L419.945 151.45V170ZM460.057 170.84C445.637 170.84 434.507 161.04 434.507 146.69C434.507 132.34 445.637 122.54 460.057 122.54C474.477 122.54 485.607 132.34 485.607 146.69C485.607 161.04 474.477 170.84 460.057 170.84ZM460.057 158.38C466.847 158.38 471.257 153.2 471.257 146.69C471.257 140.18 466.847 135 460.057 135C453.267 135 448.857 140.18 448.857 146.69C448.857 153.2 453.267 158.38 460.057 158.38ZM513.721 170.84C497.971 170.84 490.621 162.37 490.621 150.82V123.31H504.971V150.33C504.971 154.81 507.911 158.38 513.721 158.38C519.461 158.38 522.401 154.81 522.401 150.33V123.31H536.751V150.75C536.751 162.37 529.471 170.84 513.721 170.84ZM586.073 170H569.973L563.533 155.3H558.423V170H544.283V123.31H569.203C580.123 123.31 586.003 130.59 586.003 139.34C586.003 147.39 581.313 151.66 577.603 153.48L586.073 170ZM567.033 142.98C569.413 142.98 571.653 141.86 571.653 139.27C571.653 136.75 569.413 135.63 567.033 135.63H558.423V142.98H567.033ZM627.696 170.84C617.756 170.84 610.966 167.9 605.996 163.42L613.346 152.92C616.846 156.28 622.096 158.94 628.396 158.94C631.056 158.94 633.576 158.24 633.576 156.42C633.576 151.94 607.536 156.49 607.536 138.08C607.536 130.17 614.116 122.61 626.926 122.61C634.556 122.61 641.416 124.78 646.736 129.12L639.176 139.13C635.116 136.05 629.866 134.51 625.456 134.51C622.656 134.51 621.886 135.42 621.886 136.61C621.886 141.02 647.856 137.24 647.856 154.6C647.856 164.89 640.226 170.84 627.696 170.84ZM698.992 170H682.962L681.282 164.54H664.482L662.802 170H646.772L663.992 123.31H681.772L698.992 170ZM677.502 152.22L672.882 137.17L668.262 152.22H677.502ZM733.359 170H701.509V123.31H715.649V157.68H733.359V170ZM774.459 170H739.039V123.31H774.459V135.63H753.179V140.25H773.969V152.57H753.179V157.68H774.459V170ZM798.868 170.84C788.928 170.84 782.138 167.9 777.168 163.42L784.518 152.92C788.018 156.28 793.268 158.94 799.568 158.94C802.228 158.94 804.748 158.24 804.748 156.42C804.748 151.94 778.708 156.49 778.708 138.08C778.708 130.17 785.288 122.61 798.098 122.61C805.728 122.61 812.588 124.78 817.908 129.12L810.348 139.13C806.288 136.05 801.038 134.51 796.628 134.51C793.828 134.51 793.058 135.42 793.058 136.61C793.058 141.02 819.028 137.24 819.028 154.6C819.028 164.89 811.398 170.84 798.868 170.84Z" fill="white"/>
</svg>
