<svg width="1128" height="177" viewBox="0 0 1128 177" fill="none" xmlns="http://www.w3.org/2000/svg">
<path d="M468 125.589C468.172 124.535 468.261 123.469 468.267 122.4C468.969 92.7586 488.139 73.0456 519.814 69.2528C524.661 68.6489 529.508 68.6972 534.355 68.3107C539.711 67.8758 545.116 67.5859 550.399 66.7162C557.67 65.5325 562.517 62.0537 563.098 53.9125C563.226 50.6824 564.053 47.518 565.522 44.6358C568.091 40.0941 565.788 37.8957 562.25 36.2047C553.84 32.1944 545.285 28.5224 536.9 24.4156C532.646 22.5739 528.68 20.1332 525.122 17.1681C523.013 15.1872 519.839 12.9163 521.438 8.49542C523.038 4.07451 527.473 4.87172 529.896 5.47567C540.348 7.85294 550.586 11.0849 560.505 15.1389C568.285 18.4968 575.046 24.2465 582.317 28.764C584.136 30.0362 586.277 30.7729 588.496 30.8899C592.102 30.6266 595.722 31.1374 599.113 32.3876C602.503 33.6378 605.585 35.5985 608.151 38.1373C615.959 45.808 623.368 53.8712 630.35 62.2953C637.427 71.0164 636.458 78.3363 627.224 84.714C621.626 88.5793 614.791 90.6568 608.587 93.7007C606.7 94.3668 605.066 95.5989 603.91 97.2278C601.899 101.199 600.502 105.451 599.766 109.838L598 125" stroke="white" stroke-width="9"/>
<path d="M468 125.589C468.172 124.535 468.261 123.469 468.267 122.4C468.969 92.7586 488.139 73.0456 519.814 69.2528C524.661 68.6489 529.508 68.6972 534.355 68.3107C539.711 67.8758 545.116 67.5859 550.399 66.7162C557.67 65.5325 562.517 62.0537 563.098 53.9125C563.226 50.6824 564.053 47.518 565.522 44.6358C568.091 40.0941 565.788 37.8957 562.25 36.2047C553.84 32.1944 545.285 28.5224 536.9 24.4156C532.646 22.5739 528.68 20.1332 525.122 17.1681C523.013 15.1872 519.839 12.9163 521.438 8.49542C523.038 4.07451 527.473 4.87172 529.896 5.47567C540.348 7.85294 550.586 11.0849 560.505 15.1389C568.285 18.4968 575.046 24.2465 582.317 28.764C584.136 30.0362 586.277 30.7729 588.496 30.8899C592.102 30.6266 595.722 31.1374 599.113 32.3876C602.503 33.6378 605.585 35.5985 608.151 38.1373C615.959 45.808 623.368 53.8712 630.35 62.2953C637.427 71.0164 636.458 78.3363 627.224 84.714C621.626 88.5793 614.791 90.6568 608.587 93.7007C606.7 94.3668 605.066 95.5989 603.91 97.2278C601.899 101.199 600.502 105.451 599.766 109.838L598 125" stroke="white" stroke-opacity="0.2" stroke-width="9"/>
<path d="M403.336 170H371.486V123.31H385.626V157.68H403.336V170ZM444.435 170H409.015V123.31H444.435V135.63H423.155V140.25H443.945V152.57H423.155V157.68H444.435V170ZM474.865 170H460.725V135.63H448.195V123.31H487.325V135.63H474.865V170ZM506.345 131.64C506.345 137.8 503.055 143.19 497.595 147.04L492.485 142.91C494.725 141.93 497.945 138.85 498.855 136.19C498.505 136.33 497.805 136.47 497.035 136.47C493.675 136.47 490.945 133.88 490.945 129.96C490.945 125.9 494.305 122.61 498.225 122.61C502.495 122.61 506.345 125.9 506.345 131.64ZM530.163 170.84C520.223 170.84 513.433 167.9 508.463 163.42L515.813 152.92C519.313 156.28 524.563 158.94 530.863 158.94C533.523 158.94 536.043 158.24 536.043 156.42C536.043 151.94 510.003 156.49 510.003 138.08C510.003 130.17 516.583 122.61 529.393 122.61C537.023 122.61 543.883 124.78 549.203 129.12L541.643 139.13C537.583 136.05 532.333 134.51 527.923 134.51C525.123 134.51 524.353 135.42 524.353 136.61C524.353 141.02 550.323 137.24 550.323 154.6C550.323 164.89 542.693 170.84 530.163 170.84ZM596.954 170H582.814V135.63H570.284V123.31H609.414V135.63H596.954V170ZM657.445 170H641.415L639.735 164.54H622.935L621.255 170H605.225L622.445 123.31H640.225L657.445 170ZM635.955 152.22L631.335 137.17L626.715 152.22H635.955ZM691.813 170H659.963V123.31H674.103V157.68H691.813V170ZM741.942 170H724.722L714.222 153.55L711.632 157.05V170H697.492V123.31H711.632V140.81L723.882 123.31H741.172L723.532 145.01L741.942 170ZM756.215 152.64H744.875L742.985 123.31H757.965L756.215 152.64ZM750.545 170.77C746.485 170.77 743.125 167.34 743.125 163.35C743.125 159.29 746.485 155.86 750.545 155.86C754.605 155.86 757.965 159.29 757.965 163.35C757.965 167.34 754.605 170.77 750.545 170.77Z" fill="white"/>
</svg>
