<svg width="525" height="586" viewBox="0 0 525 586" fill="none" xmlns="http://www.w3.org/2000/svg">
<g clip-path="url(#clip0_269_2)">
<path d="M117.675 142.744L113.675 163.744L133.618 169.366L131.14 146.946L117.675 142.744Z" fill="#A0616A"/>
<path d="M0 577.445C0 578.105 0.53003 578.635 1.19006 578.635H523.48C524.14 578.635 524.67 578.105 524.67 577.445C524.67 576.785 524.14 576.255 523.48 576.255H1.19006C0.53003 576.255 0 576.785 0 577.445Z" fill="#CCCCCC"/>
<path d="M356.037 292.309H150.369C127.046 292.309 108.139 311.216 108.139 334.539V533.971C108.139 557.294 127.046 576.201 150.369 576.201H356.037C379.36 576.201 398.267 557.294 398.267 533.971V334.539C398.267 311.216 379.36 292.309 356.037 292.309Z" fill="white"/>
<path d="M356.038 577.201H150.369C126.532 577.201 107.139 557.808 107.139 533.971V334.539C107.139 310.702 126.532 291.309 150.369 291.309H356.038C379.875 291.309 399.268 310.702 399.268 334.539V533.971C399.268 557.808 379.874 577.201 356.038 577.201ZM150.369 293.309C127.634 293.309 109.139 311.804 109.139 334.539V533.971C109.139 556.706 127.634 575.201 150.369 575.201H356.038C378.772 575.201 397.268 556.706 397.268 533.971V334.539C397.268 311.804 378.772 293.309 356.038 293.309L150.369 293.309Z" fill="black"/>
<path d="M370.935 378.77H288.267C284.761 378.77 281.908 375.917 281.908 372.411C281.908 368.905 284.761 366.052 288.267 366.052H370.935C374.441 366.052 377.294 368.905 377.294 372.411C377.294 375.917 374.441 378.77 370.935 378.77Z" fill="#6C63FF"/>
<path d="M293.382 428.777H213.025C210.999 428.777 209.351 427.129 209.351 425.103C209.351 423.077 210.999 421.43 213.025 421.43H293.382C295.408 421.43 297.055 423.077 297.055 425.103C297.055 427.129 295.408 428.777 293.382 428.777Z" fill="#6C63FF"/>
<path d="M179.805 305.967H133.927C133.756 305.967 133.617 306.105 133.617 306.277V311.618C133.617 311.789 133.756 311.928 133.927 311.928H179.805C179.976 311.928 180.115 311.789 180.115 311.618V306.277C180.115 306.105 179.976 305.967 179.805 305.967Z" fill="#6C63FF"/>
<path d="M334.336 311.928C336.97 311.928 339.105 309.793 339.105 307.159C339.105 304.525 336.97 302.39 334.336 302.39C331.702 302.39 329.567 304.525 329.567 307.159C329.567 309.793 331.702 311.928 334.336 311.928Z" fill="black"/>
<path d="M347.451 311.928C350.085 311.928 352.22 309.793 352.22 307.159C352.22 304.525 350.085 302.39 347.451 302.39C344.817 302.39 342.682 304.525 342.682 307.159C342.682 309.793 344.817 311.928 347.451 311.928Z" fill="black"/>
<path d="M360.566 311.928C363.2 311.928 365.335 309.793 365.335 307.159C365.335 304.525 363.2 302.39 360.566 302.39C357.932 302.39 355.797 304.525 355.797 307.159C355.797 309.793 357.932 311.928 360.566 311.928Z" fill="black"/>
<path d="M149.868 448.445C149.868 449.105 150.398 449.635 151.058 449.635H355.348C356.008 449.635 356.538 449.105 356.538 448.445C356.538 447.785 356.008 447.255 355.348 447.255H151.058C150.398 447.255 149.868 447.785 149.868 448.445Z" fill="black"/>
<path d="M212.173 154.917C216.522 151.323 221.902 150.655 224.188 153.423C226.475 156.191 224.802 161.347 220.451 164.942C218.733 166.401 216.69 167.428 214.493 167.936L195.873 182.93L189.023 174.042L208.107 160.205C209.02 158.143 210.415 156.33 212.173 154.917Z" fill="#A0616A"/>
<path d="M104.553 188.747C104.543 188.084 104.549 182.3 108.831 178.644C113.75 174.445 120.691 176.145 123.126 176.741C128.749 178.118 129.21 180.53 134.492 183.009C144.372 187.646 131.992 185.273 137.871 183.786C139.907 183.271 169.184 181.241 176.471 176.755C190.645 168.032 200.302 162.742 200.302 162.742L206.615 175.368C206.615 175.368 197.486 188.062 184.638 197.465C171.459 207.111 164.869 211.934 154.855 213.798C153.992 213.958 132.783 217.58 115.7 204.817C111.803 201.906 104.664 196.572 104.553 188.747Z" fill="#E6E6E6"/>
<path d="M124.137 156.635C136.283 156.635 146.129 146.789 146.129 134.643C146.129 122.496 136.283 112.65 124.137 112.65C111.99 112.65 102.144 122.496 102.144 134.643C102.144 146.789 111.99 156.635 124.137 156.635Z" fill="#A0616A"/>
<path d="M296.375 282.398L273.725 259.214L262.034 271.41L278.908 293.639L295.646 295.554L296.375 282.398Z" fill="#A0616A"/>
<path d="M167.046 238.922C168.371 239.032 172.581 239.876 176.604 237.662C179.351 236.151 180.759 233.904 181.235 233.19C187.136 224.327 209.787 210.505 230.116 209.655C234.719 209.462 237.749 209.996 240.503 211.431C244.409 213.467 245.968 216.383 250.924 223.214C253.635 226.951 256.634 230.471 259.378 234.184C275.44 255.92 281.529 257.626 280.906 264.595C280.216 272.327 271.877 279.662 266.335 278.815C264.066 278.468 263.187 276.89 260.154 273.695C251.263 264.328 247.585 266.058 241.254 258.883C233.864 250.506 234.831 243.56 230.976 243.292C227.4 243.043 225.88 248.968 218.247 256.84C214.753 260.442 212.266 262.094 204.688 267.351C175.177 287.824 174.706 289.263 168.751 290.896C166.145 291.61 147.651 296.681 141.063 288.612C130.754 275.985 155.109 237.93 167.046 238.922Z" fill="#2F2E41"/>
<path d="M289.451 287.637C291.116 286.889 293.064 286.014 293.691 284.003C294.115 282.642 293.871 280.964 292.994 279.805C291.983 278.467 290.486 278.291 290.547 278.054C290.639 277.693 294.178 277.834 298.064 279.208C298.797 279.467 302.119 280.681 306.344 283.979C309.729 286.622 309.274 287.152 311.397 288.676C317.913 293.354 324.025 289.667 327.551 294.054C328.912 295.747 329.492 298.151 328.919 300.095C327.769 303.998 322.176 305.341 319.12 306.034C311.758 307.705 306.186 306.341 300.368 305.361C280.582 302.027 269.464 305.063 267.976 300.479C267.695 299.612 268.152 299.686 269.678 293.319C271.184 287.035 271.134 285.309 272.417 284.806C274.347 284.049 275.643 287.494 280.506 288.673C284.815 289.718 288.371 288.122 289.451 287.637Z" fill="#2F2E41"/>
<path d="M256.108 358.242L250.385 326.34L233.862 329.866L235.342 357.736L248.117 368.719L256.108 358.242Z" fill="#A0616A"/>
<path d="M173.508 249.645C174.542 250.48 177.552 253.542 182.125 253.97C185.245 254.262 187.672 253.194 188.467 252.87C198.327 248.85 224.831 250.133 242.129 260.844C246.047 263.27 248.254 265.413 249.727 268.147C251.816 272.025 251.468 275.313 251.733 283.748C251.878 288.363 252.383 292.96 252.568 297.572C253.653 324.577 257.733 329.409 253.305 334.825C248.392 340.835 237.374 342.222 233.263 338.41C231.58 336.848 231.739 335.049 231.024 330.702C228.927 317.958 224.911 317.325 223.703 307.833C222.291 296.751 226.992 291.547 223.952 289.16C221.133 286.946 216.549 290.996 205.812 293.223C200.899 294.242 197.913 294.212 188.69 294.307C152.775 294.676 151.578 295.602 145.733 293.608C143.176 292.736 125.026 286.547 124.105 276.171C122.665 259.934 164.187 242.122 173.508 249.645Z" fill="#2F2E41"/>
<path d="M247.436 358.689C249.234 359.006 251.337 359.376 252.985 358.064C254.1 357.176 254.84 355.65 254.766 354.198C254.681 352.523 253.541 351.537 253.724 351.375C254.003 351.129 256.853 353.233 259.296 356.551C259.757 357.177 261.824 360.047 263.468 365.149C264.785 369.237 264.111 369.42 265.012 371.873C267.777 379.402 274.904 379.784 275.359 385.394C275.534 387.559 274.664 389.874 273.099 391.16C269.956 393.744 264.574 391.715 261.655 390.573C254.626 387.821 250.781 383.564 246.517 379.486C232.017 365.616 221.113 361.886 222.456 357.257C222.71 356.381 223.047 356.699 227.884 352.288C232.659 347.934 233.587 346.478 234.931 346.782C236.953 347.239 236.091 350.818 239.453 354.524C242.432 357.809 246.271 358.484 247.436 358.689Z" fill="#2F2E41"/>
<path d="M127.135 138.847C127.991 135.784 126.916 134.668 128.012 133.293C128.012 133.293 128.453 132.74 132.396 131.247C131.233 124.497 132.104 123.356 132.104 123.355C133.108 122.04 135.119 121.722 136.488 121.894C139.384 122.258 139.897 124.876 141.75 124.817C144.309 124.736 147.379 119.612 146.426 115.171C145.649 111.549 142.298 108.859 141.457 109.325C140.624 109.788 137.626 107.747 136.488 108.156C135.712 108.436 132.056 108.064 131.227 108.449C130.322 108.869 127.73 111.483 127.482 111.154C125.759 108.864 125.796 108.065 124.797 107.572C123.026 106.697 121.101 108.313 117.782 109.91C110.952 113.195 108.952 111.236 105.798 114.002C104.204 115.4 103.35 118.071 101.706 123.355C99.4065 130.746 98.2569 134.442 99.3673 137.97C100.5 141.568 102.167 140.785 104.629 145.862C107.368 151.513 106.424 154.798 109.013 156.092C111.014 157.093 114.229 156.456 115.443 154.631C117.522 151.506 112.149 147.279 113.982 142.355C115.107 139.332 118.577 137.04 120.705 137.678C123.111 138.4 123.288 142.714 124.797 142.647C126.089 142.59 126.986 139.381 127.135 138.847Z" fill="#2F2E41"/>
<path d="M110.474 159.892C114.975 154.846 133.306 160.069 135.027 168.076C135.734 171.37 133.122 172.761 133.858 176.553C134.934 182.099 141.027 181.721 145.549 187.368C151.97 195.384 145.355 203.22 152.564 216.597C154.105 219.455 155.403 221.865 158.118 224.197C164.347 229.547 170.145 227.712 173.317 232.673C175.689 236.383 174.715 240.955 174.486 242.026C173.55 246.418 171.013 247.489 169.225 251.087C166.25 257.075 169.618 261.471 169.81 268.625C170.049 277.576 165.292 289.983 155.78 294.054C145.092 298.628 132.203 291.053 125.966 283.532C122.244 279.044 121.163 274.904 119.535 269.794C112.258 246.957 108.147 249.022 102.582 230.919C96.2206 210.224 94.9699 185.979 102.582 178.307C103.591 177.29 106.368 174.939 108.136 170.707C110.515 165.012 108.46 162.151 110.474 159.892Z" fill="#E6E6E6"/>
<path d="M176.974 277.359C180.463 281.792 181.004 287.186 178.182 289.406C175.36 291.626 170.245 289.832 166.755 285.396C165.337 283.644 164.359 281.577 163.903 279.369L149.356 260.398L156.873 254.665L171.784 273.168C173.824 274.13 175.603 275.567 176.974 277.359Z" fill="#A0616A"/>
<path d="M123.698 179.123C124.345 178.979 130.008 177.805 134.461 181.251C139.576 185.209 139.328 192.351 139.241 194.856C139.04 200.642 136.773 201.586 135.424 207.262C132.9 217.88 137.707 227.749 140.362 233.201C141.281 235.088 144.234 240.863 150.112 247.082C161.544 259.177 171.744 265.542 171.744 265.542L160.786 275.282C160.786 275.282 143.331 269.962 131.504 259.303C119.372 248.369 100.715 209.684 96.8471 200.26C96.514 199.449 101.232 212.642 110.241 193.315C112.295 188.906 116.06 180.829 123.698 179.123Z" fill="#E6E6E6"/>
<path d="M273.945 475.686C266.98 476.754 261.885 481.213 262.565 485.646C263.245 490.078 269.442 492.805 276.41 491.736C279.199 491.347 281.854 490.296 284.154 488.671L313.608 483.775L311.642 472.132L282.254 476.29C279.573 475.428 276.723 475.221 273.945 475.686Z" fill="#FFB6B6"/>
<path d="M400.87 439.395L389.449 463.63L332.035 482.958L284.392 485.499L283.199 474.056L334.832 463.26L387.815 438.223L400.87 439.395Z" fill="#E6E6E6"/>
<path d="M294.976 531.416L284.722 557.351L271.453 548.304L279.294 521.162L294.976 531.416Z" fill="#FFB6B6"/>
<path d="M252.152 521.765L225.01 547.701L235.867 559.161L263.612 537.447L252.152 521.765Z" fill="#FFB6B6"/>
<path d="M405.957 437.323L405.655 435.212L398.719 421.641L375.799 427.673L380.021 446.371L405.957 437.323Z" fill="#FFB6B6"/>
<path d="M396.306 527.797L397.011 536.856C397.011 536.856 399.925 574.843 376.402 577.859C352.879 580.874 342.625 583.89 328.753 560.367L307.039 521.765L294.356 536.856L277.484 523.574C277.484 523.574 289.548 476.528 299.198 474.719C300.404 474.493 301.611 474.379 302.798 474.355C310.788 474.188 318.319 478.096 323.099 484.5L350.466 521.162L360.418 516.638L396.306 527.797Z" fill="#2F2E41"/>
<path d="M266.024 556.145L271.453 545.891L287.135 556.748C287.135 556.748 290.754 570.018 285.325 571.827C279.897 573.637 264.818 571.224 264.818 571.224C264.818 571.224 237.073 577.256 236.47 571.827C235.867 566.399 249.136 565.192 249.136 565.192L266.024 556.145Z" fill="#2F2E41"/>
<path d="M325.134 548.907L283.215 522.494L261.802 541.669L247.327 524.781C247.327 524.781 273.866 485.576 281.707 483.766C289.548 481.957 302.214 480.75 302.214 480.75L340.816 516.337L325.134 548.907Z" fill="#2F2E41"/>
<path d="M224.406 545.288L238.279 560.367L236.45 561.932C236.45 561.932 232.851 577.607 224.406 572.304C215.962 567.002 215.359 565.795 215.359 565.795C215.359 565.795 191.233 571.224 188.82 561.573C186.408 551.923 193.042 553.732 193.042 553.732L199.067 557.351L224.406 545.288Z" fill="#2F2E41"/>
<path d="M383.037 434.307C393.697 434.307 402.338 425.666 402.338 415.006C402.338 404.347 393.697 395.705 383.037 395.705C372.377 395.705 363.736 404.347 363.736 415.006C363.736 425.666 372.377 434.307 383.037 434.307Z" fill="#FFB6B6"/>
<path d="M378.513 442.45L406.259 434.006C406.259 434.006 417.115 459.338 415.306 470.798C413.496 482.258 397.011 536.856 397.011 536.856L360.419 516.638C360.419 516.638 359.815 504.575 358.006 499.147C356.197 493.718 350.467 477.131 363.133 463.259C375.799 449.386 378.513 442.45 378.513 442.45Z" fill="#E6E6E6"/>
<path d="M317.448 569.102C312.933 574.511 312.064 581.226 315.507 584.099C318.95 586.972 325.4 584.916 329.917 579.503C331.75 577.366 333.046 574.821 333.694 572.081L352.536 548.919L343.358 541.491L324.077 564.056C321.496 565.184 319.223 566.915 317.448 569.102Z" fill="#FFB6B6"/>
<path d="M399.795 454.619L406.353 480.595L374.256 531.974L341.49 564.905L330.87 556.094L363.915 514.977L388.963 462L399.795 454.619Z" fill="#E6E6E6"/>
<path d="M365.243 411.689C370.193 411.677 370.475 411.71 371.275 411.689C377.415 411.527 379.02 409.112 382.132 409.276C387.686 409.57 380.355 437.417 377.307 450.291C374.317 462.917 384.422 474.231 385.148 475.02C395.404 486.175 413.42 488.215 416.512 483.465C419.014 479.62 410.146 473.774 412.29 465.37C414.385 457.155 424.061 458.03 426.765 450.291C429.598 442.186 420.079 438.099 414.099 418.324C410.665 406.967 411.272 404.851 408.068 397.816C399.502 379.014 357.514 387.02 362.228 404.451C363.14 407.823 360.713 411.7 365.243 411.689Z" fill="#2F2E41"/>
<path d="M426.877 182.561H224.026C218.289 182.561 213.623 177.894 213.623 172.157V64.4035C213.623 58.6673 218.289 54 224.026 54H426.877C432.613 54 437.28 58.6673 437.28 64.4035V172.157C437.28 177.894 432.613 182.561 426.877 182.561Z" fill="white"/>
<path d="M426.877 182.561H224.026C218.289 182.561 213.623 177.894 213.623 172.157V64.4035C213.623 58.6673 218.289 54 224.026 54H426.877C432.613 54 437.28 58.6673 437.28 64.4035V172.157C437.28 177.894 432.613 182.561 426.877 182.561ZM224.026 55.7373C219.248 55.7373 215.36 59.625 215.36 64.4035V172.157C215.36 176.936 219.248 180.824 224.026 180.824H426.877C431.655 180.824 435.543 176.936 435.543 172.157V64.4035C435.543 59.625 431.655 55.7373 426.877 55.7373H224.026Z" fill="black"/>
<path d="M411.221 67.0298C412.66 67.0298 413.827 65.8631 413.827 64.4238C413.827 62.9846 412.66 61.8179 411.221 61.8179C409.781 61.8179 408.615 62.9846 408.615 64.4238C408.615 65.8631 409.781 67.0298 411.221 67.0298Z" fill="black"/>
<path d="M418.17 67.0298C419.609 67.0298 420.776 65.8631 420.776 64.4238C420.776 62.9846 419.609 61.8179 418.17 61.8179C416.731 61.8179 415.564 62.9846 415.564 64.4238C415.564 65.8631 416.731 67.0298 418.17 67.0298Z" fill="black"/>
<path d="M425.119 67.0298C426.558 67.0298 427.725 65.8631 427.725 64.4238C427.725 62.9846 426.558 61.8179 425.119 61.8179C423.68 61.8179 422.513 62.9846 422.513 64.4238C422.513 65.8631 423.68 67.0298 425.119 67.0298Z" fill="black"/>
<path d="M228.39 106.554C227.671 106.554 227.087 107.138 227.087 107.857C227.087 108.207 227.222 108.531 227.468 108.77C227.715 109.024 228.04 109.16 228.39 109.16H423.382C424.1 109.16 424.685 108.575 424.685 107.857C424.685 107.506 424.549 107.182 424.304 106.943C424.056 106.689 423.732 106.554 423.382 106.554H228.39Z" fill="#E6E6E6"/>
<path d="M399.059 106.119V109.594H228.39C227.912 109.594 227.478 109.403 227.165 109.081C226.843 108.769 226.652 108.334 226.652 107.857C226.652 106.901 227.434 106.119 228.39 106.119H399.059Z" fill="#6C63FF"/>
<path d="M421.21 99.6043H403.837C401.921 99.6043 400.362 98.0459 400.362 96.1297C400.362 94.2134 401.921 92.655 403.837 92.655H421.21C423.126 92.655 424.685 94.2134 424.685 96.1297C424.685 98.0459 423.126 99.6043 421.21 99.6043Z" fill="#E6E6E6"/>
<path d="M307.416 81.3626H229.693C227.777 81.3626 226.218 79.8043 226.218 77.888C226.218 75.9717 227.777 74.4133 229.693 74.4133H307.416C309.332 74.4133 310.891 75.9717 310.891 77.888C310.891 79.8043 309.332 81.3626 307.416 81.3626Z" fill="#E6E6E6"/>
<path d="M228.39 145.643C227.671 145.643 227.087 146.228 227.087 146.946C227.087 147.296 227.222 147.62 227.468 147.86C227.715 148.113 228.04 148.249 228.39 148.249H423.382C424.1 148.249 424.685 147.665 424.685 146.946C424.685 146.596 424.549 146.272 424.304 146.032C424.056 145.779 423.732 145.643 423.382 145.643H228.39Z" fill="#E6E6E6"/>
<path d="M332.173 145.209V148.683H228.39C227.912 148.683 227.478 148.492 227.165 148.171C226.843 147.858 226.652 147.424 226.652 146.946C226.652 145.99 227.434 145.209 228.39 145.209H332.173Z" fill="#6C63FF"/>
<path d="M421.21 138.694H403.837C401.921 138.694 400.362 137.136 400.362 135.219C400.362 133.303 401.921 131.745 403.837 131.745H421.21C423.126 131.745 424.685 133.303 424.685 135.219C424.685 137.136 423.126 138.694 421.21 138.694Z" fill="#E6E6E6"/>
</g>
<rect x="108" width="237" height="36" rx="18" fill="#1E22AA"/>
<path d="M148.158 25H146.664V14.902L142.596 25H141.984L137.898 14.902V25H136.404V12.994H138.546L142.29 22.246L146.016 12.994H148.158V25ZM157.691 25H156.341V24.01C155.639 24.802 154.631 25.216 153.461 25.216C152.003 25.216 150.437 24.226 150.437 22.336C150.437 20.374 151.985 19.474 153.461 19.474C154.649 19.474 155.639 19.852 156.341 20.644V19.078C156.341 17.926 155.405 17.26 154.145 17.26C153.101 17.26 152.255 17.62 151.481 18.466L150.851 17.53C151.787 16.558 152.903 16.09 154.325 16.09C156.179 16.09 157.691 16.918 157.691 19.024V25ZM153.965 24.244C154.901 24.244 155.819 23.884 156.341 23.164V21.508C155.819 20.806 154.901 20.446 153.965 20.446C152.687 20.446 151.805 21.238 151.805 22.336C151.805 23.452 152.687 24.244 153.965 24.244ZM167.632 25H166.3V19.312C166.3 17.764 165.508 17.296 164.338 17.296C163.276 17.296 162.286 17.944 161.764 18.646V25H160.414V16.306H161.764V17.566C162.376 16.828 163.564 16.09 164.878 16.09C166.678 16.09 167.632 17.008 167.632 18.898V25ZM177.132 25H175.782V24.01C175.08 24.802 174.072 25.216 172.902 25.216C171.444 25.216 169.878 24.226 169.878 22.336C169.878 20.374 171.426 19.474 172.902 19.474C174.09 19.474 175.08 19.852 175.782 20.644V19.078C175.782 17.926 174.846 17.26 173.586 17.26C172.542 17.26 171.696 17.62 170.922 18.466L170.292 17.53C171.228 16.558 172.344 16.09 173.766 16.09C175.62 16.09 177.132 16.918 177.132 19.024V25ZM173.406 24.244C174.342 24.244 175.26 23.884 175.782 23.164V21.508C175.26 20.806 174.342 20.446 173.406 20.446C172.128 20.446 171.246 21.238 171.246 22.336C171.246 23.452 172.128 24.244 173.406 24.244ZM183.348 28.528C181.89 28.528 180.882 28.24 179.838 27.214L180.522 26.242C181.242 27.088 182.106 27.412 183.348 27.412C184.788 27.412 186.156 26.71 186.156 24.874V23.56C185.508 24.442 184.446 25.108 183.222 25.108C180.954 25.108 179.352 23.416 179.352 20.608C179.352 17.818 180.936 16.09 183.222 16.09C184.392 16.09 185.454 16.666 186.156 17.62V16.306H187.506V24.874C187.506 27.628 185.472 28.528 183.348 28.528ZM183.564 23.902C184.626 23.902 185.67 23.254 186.156 22.498V18.682C185.67 17.944 184.626 17.296 183.564 17.296C181.8 17.296 180.756 18.682 180.756 20.608C180.756 22.516 181.8 23.902 183.564 23.902ZM194.151 25.216C191.559 25.216 189.705 23.362 189.705 20.644C189.705 18.124 191.505 16.09 193.989 16.09C196.617 16.09 198.165 18.142 198.165 20.752V21.094H191.145C191.253 22.732 192.387 24.1 194.259 24.1C195.267 24.1 196.257 23.704 196.959 22.984L197.607 23.866C196.725 24.73 195.555 25.216 194.151 25.216ZM196.833 20.086C196.815 18.808 195.951 17.206 193.971 17.206C192.117 17.206 191.199 18.772 191.127 20.086H196.833ZM213.776 25H212.012L208.97 20.23H206.558V25H205.064V12.994H209.888C212.084 12.994 213.668 14.398 213.668 16.612C213.668 18.772 212.174 19.96 210.536 20.104L213.776 25ZM209.708 18.916C211.13 18.916 212.12 17.962 212.12 16.612C212.12 15.244 211.13 14.326 209.708 14.326H206.558V18.916H209.708ZM219.376 25.216C216.784 25.216 214.93 23.362 214.93 20.644C214.93 18.124 216.73 16.09 219.214 16.09C221.842 16.09 223.39 18.142 223.39 20.752V21.094H216.37C216.478 22.732 217.612 24.1 219.484 24.1C220.492 24.1 221.482 23.704 222.184 22.984L222.832 23.866C221.95 24.73 220.78 25.216 219.376 25.216ZM222.058 20.086C222.04 18.808 221.176 17.206 219.196 17.206C217.342 17.206 216.424 18.772 216.352 20.086H222.058ZM229.231 24.01C230.293 24.01 231.355 23.362 231.823 22.606V18.682C231.355 17.926 230.293 17.296 229.231 17.296C227.485 17.296 226.441 18.718 226.441 20.644C226.441 22.57 227.485 24.01 229.231 24.01ZM228.889 25.216C226.603 25.216 225.019 23.452 225.019 20.644C225.019 17.818 226.603 16.09 228.889 16.09C230.113 16.09 231.193 16.72 231.823 17.602V16.306H233.173V28.312H231.823V23.686C231.103 24.64 230.077 25.216 228.889 25.216ZM243.095 25H241.745V23.776C241.079 24.532 239.945 25.216 238.649 25.216C236.831 25.216 235.877 24.316 235.877 22.444V16.306H237.227V22.03C237.227 23.56 238.001 24.01 239.189 24.01C240.233 24.01 241.241 23.398 241.745 22.696V16.306H243.095V25ZM249.733 25.216C247.141 25.216 245.287 23.362 245.287 20.644C245.287 18.124 247.087 16.09 249.571 16.09C252.199 16.09 253.747 18.142 253.747 20.752V21.094H246.727C246.835 22.732 247.969 24.1 249.841 24.1C250.849 24.1 251.839 23.704 252.541 22.984L253.189 23.866C252.307 24.73 251.137 25.216 249.733 25.216ZM252.415 20.086C252.397 18.808 251.533 17.206 249.553 17.206C247.699 17.206 246.781 18.772 246.709 20.086H252.415ZM258.706 25.216C257.266 25.216 256.078 24.766 255.196 23.848L255.88 22.876C256.456 23.542 257.554 24.118 258.742 24.118C260.074 24.118 260.812 23.488 260.812 22.624C260.812 20.518 255.43 21.814 255.43 18.592C255.43 17.224 256.582 16.09 258.652 16.09C260.146 16.09 261.19 16.648 261.874 17.35L261.244 18.286C260.722 17.656 259.786 17.188 258.652 17.188C257.464 17.188 256.726 17.782 256.726 18.556C256.726 20.446 262.108 19.204 262.108 22.588C262.108 24.046 260.938 25.216 258.706 25.216ZM266.515 25.216C265.219 25.216 264.571 24.478 264.571 23.182V17.494H263.131V16.306H264.571V13.93H265.939V16.306H267.703V17.494H265.939V22.894C265.939 23.542 266.227 24.01 266.803 24.01C267.199 24.01 267.541 23.83 267.721 23.632L268.117 24.658C267.775 24.982 267.289 25.216 266.515 25.216ZM275.798 25H274.304V12.994H275.798V25ZM285.775 25H284.443V19.312C284.443 17.764 283.651 17.296 282.481 17.296C281.419 17.296 280.429 17.944 279.907 18.646V25H278.557V16.306H279.907V17.566C280.519 16.828 281.707 16.09 283.021 16.09C284.821 16.09 285.775 17.008 285.775 18.898V25ZM290.703 25.216C289.407 25.216 288.759 24.478 288.759 23.182V17.494H287.319V16.306H288.759V13.93H290.127V16.306H291.891V17.494H290.127V22.894C290.127 23.542 290.415 24.01 290.991 24.01C291.387 24.01 291.729 23.83 291.909 23.632L292.305 24.658C291.963 24.982 291.477 25.216 290.703 25.216ZM300.566 25H299.216V24.01C298.514 24.802 297.506 25.216 296.336 25.216C294.878 25.216 293.312 24.226 293.312 22.336C293.312 20.374 294.86 19.474 296.336 19.474C297.524 19.474 298.514 19.852 299.216 20.644V19.078C299.216 17.926 298.28 17.26 297.02 17.26C295.976 17.26 295.13 17.62 294.356 18.466L293.726 17.53C294.662 16.558 295.778 16.09 297.2 16.09C299.054 16.09 300.566 16.918 300.566 19.024V25ZM296.84 24.244C297.776 24.244 298.694 23.884 299.216 23.164V21.508C298.694 20.806 297.776 20.446 296.84 20.446C295.562 20.446 294.68 21.238 294.68 22.336C294.68 23.452 295.562 24.244 296.84 24.244ZM310.939 25H309.211L306.097 21.094L304.639 22.516V25H303.289V12.994H304.639V20.932L309.211 16.306H310.921L307.069 20.248L310.939 25ZM316.425 25.216C313.833 25.216 311.979 23.362 311.979 20.644C311.979 18.124 313.779 16.09 316.263 16.09C318.891 16.09 320.439 18.142 320.439 20.752V21.094H313.419C313.527 22.732 314.661 24.1 316.533 24.1C317.541 24.1 318.531 23.704 319.233 22.984L319.881 23.866C318.999 24.73 317.829 25.216 316.425 25.216ZM319.107 20.086C319.089 18.808 318.225 17.206 316.245 17.206C314.391 17.206 313.473 18.772 313.401 20.086H319.107Z" fill="white"/>
<defs>
<clipPath id="clip0_269_2">
<rect width="524.67" height="531.397" fill="white" transform="translate(0 54)"/>
</clipPath>
</defs>
</svg>
