<svg width="69" height="69" viewBox="0 0 69 69" fill="none" xmlns="http://www.w3.org/2000/svg">
<path d="M39.0878 60.1083H32.2207C31.8633 60.1083 31.5205 60.2503 31.2678 60.503C31.015 60.7557 30.873 61.0985 30.873 61.4559C30.873 61.8134 31.015 62.1561 31.2678 62.4089C31.5205 62.6616 31.8633 62.8036 32.2207 62.8036H39.0878C39.4452 62.8036 39.788 62.6616 40.0408 62.4089C40.2935 62.1561 40.4355 61.8134 40.4355 61.4559C40.4355 61.0985 40.2935 60.7557 40.0408 60.503C39.788 60.2503 39.4452 60.1083 39.0878 60.1083Z" fill="#1E22AA" fill-opacity="0.3"/>
<path d="M62.5311 22.3711C59.8139 22.3711 57.465 23.1316 55.7389 24.5701C55.5798 24.7028 55.4173 24.8498 55.2538 25.0103V4.3125C55.2511 3.38404 54.8811 2.49437 54.2245 1.83785C53.568 1.18132 52.6783 0.811296 51.7499 0.808594H19.4061C18.4777 0.811296 17.588 1.18132 16.9315 1.83785C16.275 2.49437 15.9049 3.38404 15.9022 4.3125V7.89727L15.7353 7.73029C14.6737 6.66875 13.234 6.07238 11.7327 6.07238C10.2315 6.07238 8.79171 6.66875 7.73017 7.73029C6.66863 8.79183 6.07227 10.2316 6.07227 11.7328C6.07227 13.2341 6.66863 14.6738 7.73017 15.7354L13.562 21.5672C12.6181 21.8425 11.7622 22.3588 11.0784 23.0653C10.3946 23.7719 9.9066 24.6443 9.66237 25.5967C9.41815 26.5491 9.42612 27.5487 9.68552 28.4971C9.94492 29.4455 10.4468 30.31 11.1418 31.0055L14.4592 34.3229C13.4059 34.4511 12.4098 34.8728 11.5847 35.5399C10.7596 36.207 10.1386 37.0927 9.79271 38.0958C9.44681 39.0989 9.38987 40.179 9.62841 41.2129C9.86695 42.2468 10.3914 43.1929 11.1418 43.943L13.3808 46.1824C12.3275 46.3106 11.3314 46.7323 10.5063 47.3994C9.68118 48.0665 9.06023 48.9522 8.71432 49.9553C8.36841 50.9584 8.31148 52.0385 8.55002 53.0724C8.78855 54.1064 9.31296 55.0524 10.0634 55.8025L15.9022 61.6418V64.6875C15.9033 65.6165 16.2728 66.5071 16.9296 67.164C17.5865 67.8209 18.4772 68.1904 19.4061 68.1914H45.2811C45.6386 68.1914 45.9813 68.0494 46.2341 67.7967C46.4868 67.544 46.6288 67.2012 46.6288 66.8438V53.9062C46.6315 52.777 46.8957 51.6636 47.4008 50.6536C47.9058 49.6435 48.6379 48.7641 49.5397 48.0844L54.7147 44.2031C54.8813 44.0768 55.0166 43.9139 55.11 43.727C55.2035 43.54 55.2527 43.334 55.2538 43.125V32.3438C55.2538 26.9764 58.5299 25.4795 61.1835 25.1473V66.8438C61.1835 67.2012 61.3255 67.544 61.5782 67.7967C61.8309 68.0494 62.1737 68.1914 62.5311 68.1914C62.8886 68.1914 63.2313 68.0494 63.4841 67.7967C63.7368 67.544 63.8788 67.2012 63.8788 66.8438V23.7188C63.8788 23.3613 63.7368 23.0185 63.4841 22.7658C63.2313 22.5131 62.8886 22.3711 62.5311 22.3711ZM19.4061 3.50391H51.7499C51.9643 3.50412 52.1698 3.58938 52.3214 3.74097C52.473 3.89257 52.5583 4.09811 52.5585 4.3125V8.34954H18.5975V4.3125C18.5978 4.09811 18.683 3.89257 18.8346 3.74097C18.9862 3.58938 19.1917 3.50412 19.4061 3.50391ZM8.76706 11.7327C8.74011 9.12201 12.0029 7.77261 13.8294 9.63588L15.9022 11.7088V20.096L9.63562 13.8294C9.3594 13.5547 9.1404 13.2279 8.99131 12.868C8.84222 12.5081 8.766 12.1223 8.76706 11.7327ZM13.0474 24.9068C14.1511 23.7566 16.1367 23.7566 17.2403 24.9068L23.3391 31.0057C26.0173 33.882 22.0114 37.8778 19.1462 35.1986L13.0474 29.0998C12.4922 28.5433 12.1805 27.7894 12.1805 27.0033C12.1805 26.2173 12.4922 25.4633 13.0474 24.9068ZM25.245 29.0998L23.7802 27.6349C24.059 24.9555 25.262 22.4568 27.1827 20.5679C29.1034 18.6791 31.6218 17.518 34.3055 17.284C36.9891 17.0501 39.6705 17.7579 41.8891 19.2859C44.1076 20.8139 45.7249 23.0668 46.463 25.6575C47.2012 28.2482 47.0142 31.0152 45.9342 33.483C44.8542 35.9509 42.9486 37.9657 40.5446 39.1814C38.1407 40.397 35.3884 40.7376 32.7607 40.1448C30.1329 39.5519 27.7935 38.0625 26.1444 35.9324C26.7659 34.8529 27.0145 33.5988 26.8519 32.3638C26.6894 31.1288 26.1246 29.9817 25.245 29.0998ZM13.0474 37.8443C14.1511 36.6941 16.1367 36.6941 17.2403 37.8443L23.3391 43.9432C26.0173 46.8195 22.0114 50.8153 19.1462 48.1361L13.0474 42.0373C12.4922 41.4808 12.1805 40.7269 12.1805 39.9408C12.1805 39.1548 12.4922 38.4008 13.0474 37.8443ZM11.9692 49.7037C13.073 48.5535 15.0586 48.5535 16.1622 49.7037L22.261 55.8025C24.9392 58.6788 20.9333 62.6746 18.068 59.9955L11.9692 53.8967C11.4141 53.3402 11.1023 52.5862 11.1023 51.8002C11.1023 51.0142 11.4141 50.2602 11.9692 49.7037ZM18.5975 64.6875V63.3398C19.107 63.4859 19.6344 63.56 20.1645 63.5599C20.9485 63.5602 21.7239 63.3975 22.4417 63.0821C23.1594 62.7667 23.8038 62.3054 24.3337 61.7277C24.8637 61.15 25.2678 60.4684 25.5203 59.7261C25.7727 58.9839 25.8681 58.1973 25.8004 57.4162H43.9335V65.4961H19.4061C19.1917 65.4959 18.9862 65.4106 18.8346 65.259C18.683 65.1074 18.5978 64.9019 18.5975 64.6875ZM47.9225 45.9281C46.6867 46.8596 45.6834 48.0647 44.9913 49.4488C44.2992 50.833 43.9371 52.3587 43.9335 53.9062V54.7202H24.8468C24.6466 54.4249 24.419 54.1491 24.1669 53.8967L21.9276 51.6574C22.9809 51.5292 23.9769 51.1075 24.8021 50.4404C25.6272 49.7733 26.2481 48.8876 26.594 47.8845C26.9399 46.8814 26.9969 45.8013 26.7583 44.7674C26.5198 43.7335 25.9954 42.7875 25.245 42.0373L21.9276 38.7199C22.7568 38.6213 23.5534 38.3384 24.259 37.8921C26.2959 40.3752 29.1103 42.0992 32.2476 42.7857C35.385 43.4722 38.6622 43.0811 41.55 41.6756C44.4377 40.2701 46.7673 37.9322 48.1626 35.0395C49.558 32.1468 49.9375 28.8683 49.2399 25.7333C48.5423 22.5984 46.8083 19.7901 44.3181 17.7621C41.8278 15.734 38.7266 14.6046 35.5153 14.5562C32.3041 14.5079 29.1703 15.5434 26.62 17.4955C24.0698 19.4476 22.2521 22.2024 21.4604 25.3149C21.4604 25.3149 18.7886 22.6676 18.5975 22.5193V11.0449H52.5585V42.4512L47.9225 45.9281Z" fill="#1E22AA" fill-opacity="0.3"/>
<path d="M34.0957 30.1875H36.3867C36.893 30.2053 37.3727 30.419 37.7246 30.7835C38.0765 31.1481 38.2731 31.6349 38.2731 32.1416C38.2731 32.6483 38.0765 33.1351 37.7246 33.4997C37.3727 33.8642 36.893 34.0779 36.3867 34.0957H32.9894C32.5186 34.1065 32.1808 33.6494 32.2498 33.1999C32.2562 32.8425 32.1203 32.4972 31.8721 32.2399C31.6239 31.9827 31.2837 31.8345 30.9263 31.8281C30.5688 31.8217 30.2235 31.9576 29.9663 32.2058C29.709 32.454 29.5609 32.7942 29.5545 33.1517L29.5519 33.2913C29.5437 33.7479 29.6265 34.2016 29.7956 34.6258C29.9646 35.0501 30.2165 35.4364 30.5365 35.7622C30.8565 36.088 31.2383 36.3468 31.6594 36.5235C32.0806 36.7001 32.5327 36.7911 32.9894 36.791H33.9609V37.5996C33.9609 37.957 34.1029 38.2998 34.3556 38.5525C34.6084 38.8053 34.9511 38.9473 35.3086 38.9473C35.666 38.9473 36.0088 38.8053 36.2615 38.5525C36.5142 38.2998 36.6562 37.957 36.6562 37.5996V36.7825C37.8515 36.6954 38.9671 36.1503 39.7703 35.2609C40.5736 34.3715 41.0026 33.2063 40.9678 32.0084C40.9331 30.8104 40.4373 29.6721 39.5838 28.8307C38.7303 27.9893 37.585 27.5098 36.3867 27.4922H34.0957C33.5953 27.4922 33.1154 27.2934 32.7616 26.9396C32.4077 26.5858 32.209 26.1059 32.209 25.6055C32.209 25.1051 32.4077 24.6252 32.7616 24.2714C33.1154 23.9175 33.5953 23.7188 34.0957 23.7188H37.4393C37.914 23.7584 38.1611 24.0164 38.1806 24.4928C38.1729 24.6697 38.2002 24.8462 38.2609 25.0125C38.3215 25.1788 38.4143 25.3315 38.5339 25.4619C38.7756 25.7253 39.1119 25.8819 39.469 25.8972C39.8261 25.9126 40.1747 25.7855 40.4381 25.5438C40.7015 25.3022 40.8581 24.9658 40.8734 24.6087C40.8934 24.1453 40.8193 23.6827 40.6557 23.2486C40.4921 22.8146 40.2424 22.4182 39.9215 22.0832C39.6007 21.7482 39.2154 21.4817 38.7888 21.2995C38.3622 21.1174 37.9032 21.0235 37.4393 21.0234H36.6562V20.2148C36.6562 19.8574 36.5142 19.5146 36.2615 19.2619C36.0088 19.0092 35.666 18.8672 35.3086 18.8672C34.9511 18.8672 34.6084 19.0092 34.3556 19.2619C34.1029 19.5146 33.9609 19.8574 33.9609 20.2148V21.0268C32.7583 21.0625 31.618 21.5699 30.7863 22.4394C29.9547 23.3088 29.4984 24.4705 29.5161 25.6735C29.5338 26.8766 30.0241 28.0243 30.8809 28.8689C31.7378 29.7135 32.8925 30.1872 34.0957 30.1875Z" fill="#1E22AA" fill-opacity="0.3"/>
</svg>
