<svg width="67" height="46" viewBox="0 0 67 46" fill="none" xmlns="http://www.w3.org/2000/svg">
<path d="M55.1432 17.7629C54.1969 17.7647 53.2544 17.8979 52.3369 18.1596C51.4198 7.95183 44.1376 8.17653e-05 35.3123 8.17653e-05C27.8434 -0.0247094 21.4894 5.59048 19.1389 13.4245C17.5483 12.7122 15.8526 12.3463 14.1414 12.3461C6.33205 12.3461 0 19.8516 0 29.111C0 38.3705 6.33205 45.8946 14.1414 45.8946H16.1789H14.1908H16.1843C16.2234 45.6241 16.2436 45.3506 16.2448 45.0765C16.404 37.4719 20.748 32.4145 27.9258 31.4414C29.0242 31.2865 30.1225 31.2989 31.2209 31.1997C32.4346 31.0881 33.6593 31.0138 34.8565 30.7906C36.504 30.487 37.6024 29.5945 37.7342 27.5058C37.7632 26.6771 37.9506 25.8653 38.2834 25.1259C38.8655 23.9607 38.3438 23.3967 37.542 22.9629C35.6363 21.934 33.6977 20.992 31.7975 19.9383C30.8336 19.4658 29.9348 18.8397 29.1285 18.079C28.6507 17.5708 27.9313 16.9882 28.2938 15.854C28.6562 14.7198 29.6612 14.9243 30.2104 15.0793C32.5789 15.6892 34.8988 16.5183 37.1466 17.5584C38.9094 18.4199 40.4416 19.895 42.0892 21.0539C42.5014 21.3803 42.9867 21.5693 43.4896 21.5993C44.3066 21.5318 45.127 21.6628 45.8953 21.9836C46.6636 22.3043 47.3621 22.8073 47.9434 23.4587C49.7127 25.4266 51.3917 27.4952 52.9739 29.6565C54.5775 31.8939 54.3579 33.7718 52.2655 35.408C50.9969 36.3996 49.4482 36.9327 48.0423 37.7136C47.6147 37.8845 47.2444 38.2005 46.9824 38.6184C46.5267 39.6373 46.2101 40.728 46.0433 41.8537C45.9 43.2297 45.8687 44.6176 45.9499 46H55.1212C61.6839 46 67 39.6969 67 31.9186C67 24.1404 61.7059 17.7629 55.1432 17.7629Z" fill="white"/>
</svg>
