<svg width="594" height="361" viewBox="0 0 594 361" fill="none" xmlns="http://www.w3.org/2000/svg">
<path d="M488.881 139.4C480.492 139.414 472.136 140.46 464.002 142.513C455.871 62.4046 391.31 0.00064168 313.067 0.00064168C246.851 -0.193915 190.518 43.8731 169.68 105.353C155.578 99.763 140.544 96.8914 125.373 96.8897C56.1379 96.8897 0 155.792 0 228.458C0 301.125 56.1379 360.173 125.373 360.173H143.436H125.811H143.485C143.831 358.05 144.01 355.904 144.021 353.753C145.433 294.073 183.945 254.383 247.581 246.747C257.319 245.531 267.057 245.628 276.794 244.85C287.554 243.974 298.412 243.391 309.026 241.64C323.633 239.256 333.37 232.252 334.539 215.861C334.796 209.358 336.457 202.986 339.408 197.184C344.569 188.039 339.943 183.613 332.835 180.208C315.94 172.134 298.753 164.741 281.907 156.473C273.361 152.765 265.392 147.851 258.244 141.881C254.008 137.892 247.63 133.32 250.843 124.419C254.057 115.518 262.967 117.124 267.836 118.34C288.834 123.126 309.401 129.633 329.329 137.795C344.958 144.556 358.542 156.132 373.149 165.228C376.804 167.789 381.106 169.272 385.564 169.508C392.808 168.978 400.081 170.006 406.893 172.523C413.704 175.041 419.896 178.988 425.051 184.1C440.736 199.544 455.622 215.778 469.65 232.739C483.867 250.297 481.919 265.035 463.369 277.876C452.122 285.658 438.391 289.841 425.927 295.97C422.136 297.311 418.854 299.791 416.53 303.071C412.49 311.067 409.683 319.626 408.205 328.46C406.934 339.259 406.657 350.151 407.377 361H488.687C546.87 361 594 311.534 594 250.492C594 189.45 547.064 139.4 488.881 139.4Z" fill="white"/>
</svg>
