<svg width="71" height="71" viewBox="0 0 71 71" fill="none" xmlns="http://www.w3.org/2000/svg">
<path d="M61.5314 42.58C60.1173 42.2013 58.6438 42.3931 57.3829 43.121L43.0108 51.4184C42.7562 49.0614 41.094 46.984 38.6719 46.3245L22.4263 41.9028C22.3785 41.8896 22.3298 41.8799 22.2806 41.8734C19.8264 41.5486 17.585 42.1467 15.6199 43.6517L11.2914 46.9665L11.1143 46.3056C10.9715 45.7725 10.6288 45.3266 10.1494 45.0498C9.67003 44.773 9.11243 44.6994 8.57979 44.8421L4.71431 45.8779C3.61228 46.1733 2.95581 47.3104 3.25118 48.4124L8.85519 69.3268C8.99802 69.8598 9.34054 70.3058 9.81993 70.5826C10.1396 70.7672 10.494 70.8615 10.8526 70.8615C11.0318 70.8615 11.2122 70.8379 11.3897 70.7903L15.2552 69.7546C15.7881 69.6119 16.2341 69.2692 16.5107 68.7899C16.7875 68.3105 16.8613 67.7529 16.7184 67.2199L16.505 66.4233C18.8045 64.7008 20.9187 64.2166 23.4806 64.8044L32.7859 66.9378C33.5931 67.1227 34.3796 67.2151 35.1436 67.2151C36.7266 67.2151 38.2127 66.8186 39.5818 66.0279L62.8521 52.5933C65.4631 51.0859 66.361 47.7346 64.8537 45.1229C64.1255 43.8622 62.9457 42.9592 61.5314 42.58ZM10.9594 68.6087L5.43277 47.9826L9.00967 47.0241L14.5364 67.6504L10.9594 68.6087ZM61.7424 50.6722L38.4722 64.1069C36.9215 65.0019 35.2236 65.2204 33.2814 64.7753L23.9761 62.642C21.0243 61.9653 18.4796 62.427 15.8931 64.141L11.9126 49.2855L16.9689 45.4134C18.4516 44.2779 20.071 43.8368 21.9178 44.064L38.0892 48.4654C40.0648 49.0033 41.2347 51.048 40.6967 53.0237C40.159 54.9991 38.1148 56.1686 36.1389 55.6313L27.4609 53.2694C26.8698 53.1086 26.2599 53.4572 26.0992 54.0485C25.9383 54.6396 26.2871 55.2492 26.8782 55.4101L35.5562 57.772C36.0759 57.9135 36.598 57.9809 37.1125 57.9809C39.5233 57.9807 41.7522 56.4967 42.6438 54.1924L58.4922 45.0426C59.24 44.6112 60.1154 44.4975 60.957 44.7231C61.7989 44.9487 62.5001 45.4847 62.9317 46.2322C63.8276 47.7845 63.2942 49.7763 61.7424 50.6722ZM67.4073 12.312L62.2731 6.81102C61.9342 6.44797 61.4551 6.23983 60.9586 6.23983C60.4622 6.23983 59.9831 6.44811 59.6445 6.81102L54.5101 12.312C54.0934 12.7587 53.9814 13.4092 54.2247 13.9691C54.4681 14.5292 55.0202 14.891 55.631 14.891H56.5987V39.8372C56.5987 40.4499 57.0954 40.9466 57.708 40.9466H64.2095C64.8222 40.9466 65.3189 40.4499 65.3189 39.8372V14.891H66.2866C66.8974 14.891 67.4495 14.5292 67.6928 13.9691C67.9362 13.409 67.824 12.7584 67.4073 12.312ZM64.2094 12.6723C63.5967 12.6723 63.1 13.169 63.1 13.7816V38.7279H58.8173V13.7816C58.8173 13.169 58.3206 12.6723 57.7079 12.6723H57.2087L60.9586 8.65452L64.7086 12.6723H64.2094ZM46.3544 15.7187C45.7418 15.7187 45.245 16.2155 45.245 16.8281V39.8372C45.245 40.4499 45.7418 40.9466 46.3544 40.9466H52.8559C53.4686 40.9466 53.9653 40.4499 53.9653 39.8372V16.8281C53.9653 16.2155 53.4686 15.7187 52.8559 15.7187H46.3544ZM51.7465 38.7279H47.4638V17.9375H51.7465V38.7279ZM21.8457 34.3741C22.0778 34.3741 22.3084 34.368 22.5381 34.3578V39.8372C22.5381 40.4499 23.0348 40.9466 23.6475 40.9466H30.149C30.7616 40.9466 31.2583 40.4499 31.2583 39.8372V31.0994C32.2416 30.3212 33.1264 29.424 33.8916 28.43V39.8372C33.8916 40.4499 34.3883 40.9466 35.0009 40.9466H41.5024C42.1151 40.9466 42.6118 40.4499 42.6118 39.8372V22.7799C42.6118 22.1673 42.1151 21.6705 41.5024 21.6705H36.8354C36.9698 20.8596 37.0408 20.0276 37.0408 19.179C37.0408 18.0376 36.9134 16.9256 36.6737 15.8555L55.8127 4.80568L54.903 7.47817C54.7055 8.05823 55.0156 8.68849 55.5957 8.88582C55.7141 8.92618 55.8347 8.94532 55.9533 8.94532C56.4152 8.94532 56.8463 8.65466 57.0034 8.19316L58.8641 2.72685C58.9672 2.42399 58.9346 2.0916 58.7747 1.81467C58.6148 1.53774 58.3432 1.34332 58.0293 1.28106L52.3649 0.159481C51.7643 0.0410549 51.1802 0.431278 51.0612 1.03228C50.9422 1.63329 51.3329 2.21696 51.934 2.33594L54.7032 2.88424L36.0095 13.6771C33.8006 8.01011 28.2846 3.98377 21.8456 3.98377C13.4669 3.98377 6.65031 10.8003 6.65031 19.179C6.65031 27.5577 13.467 34.3741 21.8457 34.3741ZM29.0396 38.7279H24.7568V34.0933C26.277 33.7971 27.7169 33.2743 29.0396 32.5604V38.7279ZM40.3929 23.8893V38.7279H36.1102V24.4167C36.1744 24.2425 36.2346 24.0664 36.2925 23.8893H40.3929ZM21.8457 6.20252C29.0009 6.20252 34.8221 12.0238 34.8221 19.179C34.8221 26.3342 29.0009 32.1554 21.8457 32.1554C14.6905 32.1554 8.8692 26.3341 8.8692 19.179C8.8692 12.0238 14.6905 6.20252 21.8457 6.20252ZM21.8457 30.5629C28.1228 30.5629 33.2297 25.4561 33.2297 19.179C33.2297 12.9019 28.1228 7.79503 21.8457 7.79503C15.5686 7.79503 10.4617 12.902 10.4617 19.179C10.4617 25.456 15.5686 30.5629 21.8457 30.5629ZM21.8457 10.0138C26.8995 10.0138 31.0109 14.1253 31.0109 19.179C31.0109 24.2328 26.8995 28.3441 21.8457 28.3441C16.7919 28.3441 12.6805 24.2328 12.6805 19.179C12.6805 14.1253 16.7919 10.0138 21.8457 10.0138ZM18.005 16.7223C18.005 15.0033 19.2273 13.5648 20.8484 13.2297V12.7076C20.8484 12.095 21.3451 11.5982 21.9577 11.5982C22.5704 11.5982 23.0671 12.095 23.0671 12.7076V13.2311C23.9288 13.4115 24.7082 13.9096 25.2351 14.6381C25.5941 15.1345 25.4828 15.828 24.9863 16.1872C24.4899 16.5462 23.7963 16.4348 23.4374 15.9384C23.1822 15.5855 22.7735 15.3748 22.3445 15.3748H21.5711C20.8283 15.3748 20.2238 15.9792 20.2238 16.7222C20.2238 17.4652 20.8281 18.0695 21.5711 18.0695H22.1203C24.0866 18.0695 25.6864 19.6692 25.6864 21.6356C25.6864 23.3544 24.464 24.793 22.843 25.128V25.6503C22.843 26.2629 22.3463 26.7597 21.7336 26.7597C21.121 26.7597 20.6243 26.2629 20.6243 25.6503V25.1268C19.7626 24.9464 18.9832 24.4483 18.4561 23.7198C18.0971 23.2234 18.2085 22.5299 18.7049 22.1707C19.2015 21.8117 19.8949 21.9231 20.2539 22.4195C20.509 22.7724 20.9177 22.9831 21.3468 22.9831H22.1201C22.863 22.9831 23.4675 22.3787 23.4675 21.6357C23.4675 20.8927 22.8631 20.2884 22.1201 20.2884H21.571C19.6048 20.2884 18.005 18.6887 18.005 16.7223Z" fill="#1E22AA"/>
</svg>
