<svg width="336" height="172" viewBox="0 0 336 172" fill="none" xmlns="http://www.w3.org/2000/svg">
<path d="M6.27813 163.461L8.44361 160.368C12.2814 162.795 17.074 164.44 22.5143 164.44C24.1333 164.44 26.0994 164.241 27.8379 163.514C29.566 162.791 32.1943 160.959 32.1943 157.42C32.1943 154.151 29.6588 152.587 28.5158 152.04C27.2523 151.437 25.7458 151.089 24.513 150.841C23.5088 150.639 22.5296 150.47 21.5485 150.3C19.7076 149.982 17.8597 149.662 15.8261 149.123C12.8439 148.334 10.4124 147.272 8.75972 145.761C7.28344 144.411 6.15426 142.464 6.15426 139.08C6.15426 136.406 7.25262 133.766 9.5312 131.745C11.8104 129.724 15.5308 128.11 21.0443 128.11C26.097 128.11 30.6094 129.177 34.3966 131.203L32.1795 134.139C28.1022 132.043 23.5842 131.01 19.5743 131.01C17.8542 131.01 15.8447 131.257 14.1747 132.416C12.1451 133.823 11.5043 135.909 11.5043 137.61C11.5043 140.852 14.0208 142.422 15.1189 142.967C16.3657 143.586 17.8565 143.962 19.0928 144.234C20.163 144.47 21.1951 144.666 22.2295 144.863C24.0115 145.201 25.8002 145.541 27.8018 146.089C30.8056 146.911 33.265 147.977 34.9333 149.454C36.4159 150.767 37.4743 152.565 37.4743 155.6C37.4743 159.526 36.0779 162.231 33.7851 164.062C31.3587 165.999 27.4328 167.34 21.8143 167.34C14.9702 167.34 10.0364 165.816 6.27813 163.461ZM24.6659 160.176C24.6659 160.176 24.6631 160.175 24.658 160.172C24.6634 160.175 24.666 160.176 24.6659 160.176ZM24.378 155.205C24.378 155.205 24.3744 155.207 24.3666 155.21C24.374 155.207 24.3779 155.205 24.378 155.205ZM19.0809 134.885C19.0813 134.885 19.0886 134.889 19.102 134.896C19.0873 134.889 19.0806 134.885 19.0809 134.885ZM18.8054 140.065C18.8054 140.065 18.8068 140.064 18.8099 140.064C18.8069 140.064 18.8054 140.065 18.8054 140.065ZM51.1139 166.5V128.81H77.5339V132.13H60.7539H56.2539V136.63V141.25V145.75H60.7539H77.0439V149.07H60.7539H56.2539V153.57V158.68V163.18H60.7539H77.5339V166.5H51.1139ZM150.388 166.5L136.487 128.81H142.778L151.856 157.114L154.866 166.5H150.388ZM161.894 166.5H157.416L160.426 157.114L169.504 128.81H175.795L161.894 166.5ZM189.268 166.5V128.81H194.408V166.5H189.268ZM97.9532 156.3V166.5H92.8132V128.81H113.233C117.649 128.81 120.627 130.254 122.503 132.182C124.411 134.143 125.533 136.97 125.533 140.34C125.533 146.265 122.224 149.178 119.651 150.44L115.539 152.457L117.629 156.533L122.739 166.5H116.945L111.685 154.494L110.505 151.8H107.563H102.453H97.9532V156.3ZM244.528 135.084L240.505 136.957C237.992 133.792 234.103 131.5 229.608 131.5C220.083 131.5 213.768 138.952 213.768 147.69C213.768 156.427 220.083 163.88 229.608 163.88C234.111 163.88 238.005 161.58 240.517 158.406L244.494 160.235C241.707 164.045 237.085 167.34 229.608 167.34C217.121 167.34 208.418 159.225 208.418 147.69C208.418 136.092 217.112 128.04 229.608 128.04C237.166 128.04 241.751 131.245 244.528 135.084ZM327.658 131.203L325.441 134.139C321.364 132.043 316.846 131.01 312.836 131.01C311.116 131.01 309.106 131.257 307.436 132.416C305.407 133.823 304.766 135.909 304.766 137.61C304.766 140.852 307.283 142.422 308.381 142.967C309.627 143.586 311.118 143.962 312.355 144.234C313.425 144.47 314.457 144.666 315.491 144.863C317.273 145.201 319.062 145.541 321.064 146.089C324.067 146.911 326.527 147.977 328.195 149.454C329.678 150.767 330.736 152.565 330.736 155.6C330.736 159.526 329.34 162.231 327.047 164.062C324.62 165.999 320.695 167.34 315.076 167.34C308.232 167.34 303.298 165.816 299.54 163.461L301.705 160.368C305.543 162.795 310.336 164.44 315.776 164.44C317.395 164.44 319.361 164.241 321.1 163.514C322.828 162.791 325.456 160.959 325.456 157.42C325.456 154.151 322.921 152.587 321.777 152.04C320.514 151.437 319.008 151.089 317.775 150.841C316.77 150.639 315.791 150.47 314.81 150.3C312.969 149.982 311.121 149.662 309.088 149.123C306.106 148.334 303.674 147.272 302.021 145.761C300.545 144.411 299.416 142.464 299.416 139.08C299.416 136.406 300.514 133.766 302.793 131.745C305.072 129.724 308.793 128.11 314.306 128.11C319.359 128.11 323.871 129.177 327.658 131.203ZM317.64 155.205C317.64 155.205 317.636 155.207 317.628 155.21C317.636 155.206 317.64 155.205 317.64 155.205ZM259.747 166.5V128.81H286.167V132.13H269.387H264.887V136.63V141.25V145.75H269.387H285.677V149.07H269.387H264.887V153.57V158.68V163.18H269.387H286.167V166.5H259.747ZM312.343 134.885C312.343 134.885 312.35 134.889 312.364 134.896C312.349 134.889 312.342 134.885 312.343 134.885ZM102.453 132.13H97.9532V136.63V143.98V148.48H102.453H111.063C112.872 148.48 115.022 148.067 116.856 146.775C118.876 145.353 120.183 143.07 120.183 140.27C120.183 137.457 118.835 135.198 116.831 133.808C115.008 132.543 112.873 132.13 111.063 132.13H102.453Z" stroke="white" stroke-width="9"/>
<path d="M6.27813 163.461L8.44361 160.368C12.2814 162.795 17.074 164.44 22.5143 164.44C24.1333 164.44 26.0994 164.241 27.8379 163.514C29.566 162.791 32.1943 160.959 32.1943 157.42C32.1943 154.151 29.6588 152.587 28.5158 152.04C27.2523 151.437 25.7458 151.089 24.513 150.841C23.5088 150.639 22.5296 150.47 21.5485 150.3C19.7076 149.982 17.8597 149.662 15.8261 149.123C12.8439 148.334 10.4124 147.272 8.75972 145.761C7.28344 144.411 6.15426 142.464 6.15426 139.08C6.15426 136.406 7.25262 133.766 9.5312 131.745C11.8104 129.724 15.5308 128.11 21.0443 128.11C26.097 128.11 30.6094 129.177 34.3966 131.203L32.1795 134.139C28.1022 132.043 23.5842 131.01 19.5743 131.01C17.8542 131.01 15.8447 131.257 14.1747 132.416C12.1451 133.823 11.5043 135.909 11.5043 137.61C11.5043 140.852 14.0208 142.422 15.1189 142.967C16.3657 143.586 17.8565 143.962 19.0928 144.234C20.163 144.47 21.1951 144.666 22.2295 144.863C24.0115 145.201 25.8002 145.541 27.8018 146.089C30.8056 146.911 33.265 147.977 34.9333 149.454C36.4159 150.767 37.4743 152.565 37.4743 155.6C37.4743 159.526 36.0779 162.231 33.7851 164.062C31.3587 165.999 27.4328 167.34 21.8143 167.34C14.9702 167.34 10.0364 165.816 6.27813 163.461ZM24.6659 160.176C24.6659 160.176 24.6631 160.175 24.658 160.172C24.6634 160.175 24.666 160.176 24.6659 160.176ZM24.378 155.205C24.378 155.205 24.3744 155.207 24.3666 155.21C24.374 155.207 24.3779 155.205 24.378 155.205ZM19.0809 134.885C19.0813 134.885 19.0886 134.889 19.102 134.896C19.0873 134.889 19.0806 134.885 19.0809 134.885ZM18.8054 140.065C18.8054 140.065 18.8068 140.064 18.8099 140.064C18.8069 140.064 18.8054 140.065 18.8054 140.065ZM51.1139 166.5V128.81H77.5339V132.13H60.7539H56.2539V136.63V141.25V145.75H60.7539H77.0439V149.07H60.7539H56.2539V153.57V158.68V163.18H60.7539H77.5339V166.5H51.1139ZM150.388 166.5L136.487 128.81H142.778L151.856 157.114L154.866 166.5H150.388ZM161.894 166.5H157.416L160.426 157.114L169.504 128.81H175.795L161.894 166.5ZM189.268 166.5V128.81H194.408V166.5H189.268ZM97.9532 156.3V166.5H92.8132V128.81H113.233C117.649 128.81 120.627 130.254 122.503 132.182C124.411 134.143 125.533 136.97 125.533 140.34C125.533 146.265 122.224 149.178 119.651 150.44L115.539 152.457L117.629 156.533L122.739 166.5H116.945L111.685 154.494L110.505 151.8H107.563H102.453H97.9532V156.3ZM244.528 135.084L240.505 136.957C237.992 133.792 234.103 131.5 229.608 131.5C220.083 131.5 213.768 138.952 213.768 147.69C213.768 156.427 220.083 163.88 229.608 163.88C234.111 163.88 238.005 161.58 240.517 158.406L244.494 160.235C241.707 164.045 237.085 167.34 229.608 167.34C217.121 167.34 208.418 159.225 208.418 147.69C208.418 136.092 217.112 128.04 229.608 128.04C237.166 128.04 241.751 131.245 244.528 135.084ZM327.658 131.203L325.441 134.139C321.364 132.043 316.846 131.01 312.836 131.01C311.116 131.01 309.106 131.257 307.436 132.416C305.407 133.823 304.766 135.909 304.766 137.61C304.766 140.852 307.283 142.422 308.381 142.967C309.627 143.586 311.118 143.962 312.355 144.234C313.425 144.47 314.457 144.666 315.491 144.863C317.273 145.201 319.062 145.541 321.064 146.089C324.067 146.911 326.527 147.977 328.195 149.454C329.678 150.767 330.736 152.565 330.736 155.6C330.736 159.526 329.34 162.231 327.047 164.062C324.62 165.999 320.695 167.34 315.076 167.34C308.232 167.34 303.298 165.816 299.54 163.461L301.705 160.368C305.543 162.795 310.336 164.44 315.776 164.44C317.395 164.44 319.361 164.241 321.1 163.514C322.828 162.791 325.456 160.959 325.456 157.42C325.456 154.151 322.921 152.587 321.777 152.04C320.514 151.437 319.008 151.089 317.775 150.841C316.77 150.639 315.791 150.47 314.81 150.3C312.969 149.982 311.121 149.662 309.088 149.123C306.106 148.334 303.674 147.272 302.021 145.761C300.545 144.411 299.416 142.464 299.416 139.08C299.416 136.406 300.514 133.766 302.793 131.745C305.072 129.724 308.793 128.11 314.306 128.11C319.359 128.11 323.871 129.177 327.658 131.203ZM317.64 155.205C317.64 155.205 317.636 155.207 317.628 155.21C317.636 155.206 317.64 155.205 317.64 155.205ZM259.747 166.5V128.81H286.167V132.13H269.387H264.887V136.63V141.25V145.75H269.387H285.677V149.07H269.387H264.887V153.57V158.68V163.18H269.387H286.167V166.5H259.747ZM312.343 134.885C312.343 134.885 312.35 134.889 312.364 134.896C312.349 134.889 312.342 134.885 312.343 134.885ZM102.453 132.13H97.9532V136.63V143.98V148.48H102.453H111.063C112.872 148.48 115.022 148.067 116.856 146.775C118.876 145.353 120.183 143.07 120.183 140.27C120.183 137.457 118.835 135.198 116.831 133.808C115.008 132.543 112.873 132.13 111.063 132.13H102.453Z" stroke="white" stroke-opacity="0.2" stroke-width="9"/>
<path d="M99 125.589C99.1722 124.535 99.2614 123.469 99.2666 122.4C99.9694 92.7586 119.139 73.0456 150.814 69.2528C155.661 68.6489 160.508 68.6972 165.355 68.3107C170.711 67.8758 176.116 67.5859 181.399 66.7162C188.67 65.5325 193.517 62.0537 194.098 53.9125C194.226 50.6824 195.053 47.518 196.522 44.6358C199.091 40.0941 196.788 37.8957 193.25 36.2047C184.84 32.1944 176.285 28.5224 167.9 24.4156C163.646 22.5739 159.68 20.1332 156.122 17.1681C154.013 15.1872 150.839 12.9163 152.438 8.49542C154.038 4.07451 158.473 4.87172 160.896 5.47567C171.348 7.85294 181.586 11.0849 191.505 15.1389C199.285 18.4968 206.046 24.2465 213.317 28.764C215.136 30.0362 217.277 30.7729 219.496 30.8899C223.102 30.6266 226.722 31.1374 230.113 32.3876C233.503 33.6378 236.585 35.5985 239.151 38.1373C246.959 45.808 254.368 53.8712 261.35 62.2953C268.427 71.0164 267.458 78.3363 258.224 84.714C252.626 88.5793 245.791 90.6568 239.587 93.7007C237.7 94.3668 236.066 95.5989 234.91 97.2278C232.899 101.199 231.502 105.451 230.766 109.838L229 125" stroke="white" stroke-width="9"/>
<path d="M99 125.589C99.1722 124.535 99.2614 123.469 99.2666 122.4C99.9694 92.7586 119.139 73.0456 150.814 69.2528C155.661 68.6489 160.508 68.6972 165.355 68.3107C170.711 67.8758 176.116 67.5859 181.399 66.7162C188.67 65.5325 193.517 62.0537 194.098 53.9125C194.226 50.6824 195.053 47.518 196.522 44.6358C199.091 40.0941 196.788 37.8957 193.25 36.2047C184.84 32.1944 176.285 28.5224 167.9 24.4156C163.646 22.5739 159.68 20.1332 156.122 17.1681C154.013 15.1872 150.839 12.9163 152.438 8.49542C154.038 4.07451 158.473 4.87172 160.896 5.47567C171.348 7.85294 181.586 11.0849 191.505 15.1389C199.285 18.4968 206.046 24.2465 213.317 28.764C215.136 30.0362 217.277 30.7729 219.496 30.8899C223.102 30.6266 226.722 31.1374 230.113 32.3876C233.503 33.6378 236.585 35.5985 239.151 38.1373C246.959 45.808 254.368 53.8712 261.35 62.2953C268.427 71.0164 267.458 78.3363 258.224 84.714C252.626 88.5793 245.791 90.6568 239.587 93.7007C237.7 94.3668 236.066 95.5989 234.91 97.2278C232.899 101.199 231.502 105.451 230.766 109.838L229 125" stroke="white" stroke-opacity="0.2" stroke-width="9"/>
</svg>
