<svg width="860" height="177" viewBox="0 0 860 177" fill="none" xmlns="http://www.w3.org/2000/svg">
<path d="M354 125.589C354.172 124.535 354.261 123.469 354.267 122.4C354.969 92.7586 374.139 73.0456 405.814 69.2528C410.661 68.6489 415.508 68.6972 420.355 68.3107C425.711 67.8758 431.116 67.5859 436.399 66.7162C443.67 65.5325 448.517 62.0537 449.098 53.9125C449.226 50.6824 450.053 47.518 451.522 44.6358C454.091 40.0941 451.788 37.8957 448.25 36.2047C439.84 32.1944 431.285 28.5224 422.9 24.4156C418.646 22.5739 414.68 20.1332 411.122 17.1681C409.013 15.1872 405.839 12.9163 407.438 8.49542C409.038 4.07451 413.473 4.87172 415.896 5.47567C426.348 7.85294 436.586 11.0849 446.505 15.1389C454.285 18.4968 461.046 24.2465 468.317 28.764C470.136 30.0362 472.277 30.7729 474.496 30.8899C478.102 30.6266 481.722 31.1374 485.113 32.3876C488.503 33.6378 491.585 35.5985 494.151 38.1373C501.959 45.808 509.368 53.8712 516.35 62.2953C523.427 71.0164 522.458 78.3363 513.224 84.714C507.626 88.5793 500.791 90.6568 494.587 93.7007C492.7 94.3668 491.066 95.5989 489.91 97.2278C487.899 101.199 486.502 105.451 485.766 109.838L484 125" stroke="white" stroke-width="9"/>
<path d="M354 125.589C354.172 124.535 354.261 123.469 354.267 122.4C354.969 92.7586 374.139 73.0456 405.814 69.2528C410.661 68.6489 415.508 68.6972 420.355 68.3107C425.711 67.8758 431.116 67.5859 436.399 66.7162C443.67 65.5325 448.517 62.0537 449.098 53.9125C449.226 50.6824 450.053 47.518 451.522 44.6358C454.091 40.0941 451.788 37.8957 448.25 36.2047C439.84 32.1944 431.285 28.5224 422.9 24.4156C418.646 22.5739 414.68 20.1332 411.122 17.1681C409.013 15.1872 405.839 12.9163 407.438 8.49542C409.038 4.07451 413.473 4.87172 415.896 5.47567C426.348 7.85294 436.586 11.0849 446.505 15.1389C454.285 18.4968 461.046 24.2465 468.317 28.764C470.136 30.0362 472.277 30.7729 474.496 30.8899C478.102 30.6266 481.722 31.1374 485.113 32.3876C488.503 33.6378 491.585 35.5985 494.151 38.1373C501.959 45.808 509.368 53.8712 516.35 62.2953C523.427 71.0164 522.458 78.3363 513.224 84.714C507.626 88.5793 500.791 90.6568 494.587 93.7007C492.7 94.3668 491.066 95.5989 489.91 97.2278C487.899 101.199 486.502 105.451 485.766 109.838L484 125" stroke="white" stroke-opacity="0.2" stroke-width="9"/>
<path d="M47.0902 170H32.9502V135.63H20.4202V123.31H59.5502V135.63H47.0902V170ZM99.991 170H64.571V123.31H99.991V135.63H78.711V140.25H99.501V152.57H78.711V157.68H99.991V170ZM148.06 170H131.96L125.52 155.3H120.41V170H106.27V123.31H131.19C142.11 123.31 147.99 130.59 147.99 139.34C147.99 147.39 143.3 151.66 139.59 153.48L148.06 170ZM129.02 142.98C131.4 142.98 133.64 141.86 133.64 139.27C133.64 136.75 131.4 135.63 129.02 135.63H120.41V142.98H129.02ZM195.502 170H179.402L172.962 155.3H167.852V170H153.712V123.31H178.632C189.552 123.31 195.432 130.59 195.432 139.34C195.432 147.39 190.742 151.66 187.032 153.48L195.502 170ZM176.462 142.98C178.842 142.98 181.082 141.86 181.082 139.27C181.082 136.75 178.842 135.63 176.462 135.63H167.852V142.98H176.462ZM248.333 170H232.303L230.623 164.54H213.823L212.143 170H196.113L213.333 123.31H231.113L248.333 170ZM226.843 152.22L222.223 137.17L217.603 152.22H226.843ZM280.18 170H250.85V123.31H279.2C288.86 123.31 293.06 129.75 293.06 135.21C293.06 141.02 289.63 144.94 285.08 145.92C290.12 146.69 293.97 151.31 293.97 157.33C293.97 163.84 289.56 170 280.18 170ZM275.91 140.53C277.38 140.53 278.71 139.41 278.71 137.73C278.71 136.12 277.38 135.07 275.91 135.07H264.99V140.53H275.91ZM276.33 158.24C278.36 158.24 279.62 157.05 279.62 155.3C279.62 153.62 278.36 152.29 276.33 152.29H264.99V158.24H276.33ZM328.989 170H299.659V123.31H328.009C337.669 123.31 341.869 129.75 341.869 135.21C341.869 141.02 338.439 144.94 333.889 145.92C338.929 146.69 342.779 151.31 342.779 157.33C342.779 163.84 338.369 170 328.989 170ZM324.719 140.53C326.189 140.53 327.519 139.41 327.519 137.73C327.519 136.12 326.189 135.07 324.719 135.07H313.799V140.53H324.719ZM325.139 158.24C327.169 158.24 328.429 157.05 328.429 155.3C328.429 153.62 327.169 152.29 325.139 152.29H313.799V158.24H325.139ZM362.608 170H348.468V123.31H362.608V170ZM394.287 170H380.147V135.63H367.617V123.31H406.747V135.63H394.287V170ZM438.85 170.84C434.3 170.84 429.47 169.86 425.83 167.06L431.57 156.28C433.11 157.33 435.21 158.38 437.59 158.38C440.67 158.38 442.77 156.42 442.77 153.13V123.31H456.91V153.34C456.91 165.31 449.7 170.84 438.85 170.84ZM487.573 170.84C471.823 170.84 464.473 162.37 464.473 150.82V123.31H478.823V150.33C478.823 154.81 481.763 158.38 487.573 158.38C493.313 158.38 496.253 154.81 496.253 150.33V123.31H510.603V150.75C510.603 162.37 503.323 170.84 487.573 170.84ZM573.575 170H559.435V141.93L549.005 170H542.705L532.275 141.93V170H518.135V123.31H537.665L545.855 145.71L554.045 123.31H573.575V170ZM595.303 170H581.163V123.31H606.083C617.003 123.31 622.883 130.59 622.883 139.34C622.883 148.02 617.003 155.3 606.083 155.3H595.303V170ZM604.263 142.98C606.643 142.98 608.533 141.79 608.533 139.34C608.533 136.82 606.643 135.63 604.263 135.63H595.303V142.98H604.263ZM645.64 170.84C635.7 170.84 628.91 167.9 623.94 163.42L631.29 152.92C634.79 156.28 640.04 158.94 646.34 158.94C649 158.94 651.52 158.24 651.52 156.42C651.52 151.94 625.48 156.49 625.48 138.08C625.48 130.17 632.06 122.61 644.87 122.61C652.5 122.61 659.36 124.78 664.68 129.12L657.12 139.13C653.06 136.05 647.81 134.51 643.4 134.51C640.6 134.51 639.83 135.42 639.83 136.61C639.83 141.02 665.8 137.24 665.8 154.6C665.8 164.89 658.17 170.84 645.64 170.84ZM693.223 170H679.083V135.63H666.553V123.31H705.683V135.63H693.223V170ZM753.714 170H737.684L736.004 164.54H719.204L717.524 170H701.494L718.714 123.31H736.494L753.714 170ZM732.224 152.22L727.604 137.17L722.984 152.22H732.224ZM798.021 170H781.921L775.481 155.3H770.371V170H756.231V123.31H781.151C792.071 123.31 797.951 130.59 797.951 139.34C797.951 147.39 793.261 151.66 789.551 153.48L798.021 170ZM778.981 142.98C781.361 142.98 783.601 141.86 783.601 139.27C783.601 136.75 781.361 135.63 778.981 135.63H770.371V142.98H778.981ZM827.139 170H812.999V135.63H800.469V123.31H839.599V135.63H827.139V170Z" fill="white"/>
</svg>
