<svg width="275" height="67" viewBox="0 0 275 67" fill="none" xmlns="http://www.w3.org/2000/svg">
<path d="M69.5702 28.6939C68.5818 28.6956 67.5973 28.8189 66.639 29.0612C65.681 19.6095 58.0746 12.2467 48.8563 12.2467C41.0549 12.2237 34.418 17.423 31.9628 24.6768C30.3014 24.0173 28.5302 23.6785 26.7427 23.6783C18.5857 23.6783 11.9717 30.6279 11.9717 39.2016C11.9717 47.7753 18.5857 54.7422 26.7427 54.7422H28.8709H26.7944H28.8767C28.9174 54.4917 28.9385 54.2384 28.9398 53.9846C29.1061 46.9432 33.6436 42.2604 41.141 41.3594C42.2882 41.2159 43.4355 41.2274 44.5828 41.1356C45.8505 41.0323 47.1297 40.9634 48.3802 40.7568C50.1011 40.4756 51.2484 39.6492 51.386 37.7153C51.4164 36.9479 51.6121 36.1962 51.9597 35.5116C52.5677 34.4327 52.0228 33.9105 51.1853 33.5088C49.1948 32.5561 47.1698 31.6838 45.1851 30.7082C44.1782 30.2707 43.2394 29.691 42.3972 28.9866C41.8981 28.516 41.1467 27.9766 41.5253 26.9264C41.9039 25.8762 42.9536 26.0656 43.5273 26.2091C46.0012 26.7738 48.4244 27.5415 50.7723 28.5046C52.6136 29.3022 54.2141 30.6681 55.935 31.7412C56.3656 32.0434 56.8725 32.2184 57.3977 32.2462C58.2511 32.1837 59.108 32.305 59.9106 32.602C60.7131 32.899 61.4426 33.3648 62.0499 33.9679C63.8979 35.79 65.6517 37.7055 67.3044 39.7066C68.9794 41.7783 68.7499 43.5172 66.5644 45.0322C65.2393 45.9504 63.6217 46.4439 62.1532 47.167C61.7065 47.3252 61.3197 47.6179 61.046 48.0049C60.57 48.9482 60.2393 49.9582 60.0651 51.0005C59.9155 52.2746 59.8828 53.5597 59.9676 54.8397H69.5473C76.4022 54.8397 81.955 49.0034 81.955 41.8013C81.955 34.5991 76.4252 28.6939 69.5702 28.6939Z" fill="url(#paint0_linear_47_2012)"/>
<path d="M104.705 29.9565H99.1526V27.1216H113.493V29.9565H107.941V45.4512H104.723L104.705 29.9565Z" fill="#141B4D"/>
<path d="M118.954 27.1216H131.517V29.9565H122.184V34.714H131.362V37.5489H122.184V42.6334H131.534V45.4684H118.972L118.954 27.1216Z" fill="#141B4D"/>
<path d="M143.982 38.6217H140.793V45.468H137.58V27.104H145.611C149.237 27.104 151.606 29.4741 151.606 32.8428C151.606 36.1139 149.46 37.8757 147.258 38.2315L151.743 45.4393H148.032L143.982 38.6217ZM145.192 29.9562H140.793V35.7867H145.192C147.005 35.7867 148.324 34.639 148.324 32.8715C148.324 31.1039 146.999 29.9562 145.187 29.9562H145.192Z" fill="#141B4D"/>
<path d="M164.002 38.6217H160.813V45.468H157.594V27.104H165.625C169.256 27.104 171.62 29.4741 171.62 32.8428C171.62 36.1139 169.474 37.8757 167.277 38.2315L171.758 45.4393H168.075L164.002 38.6217ZM165.207 29.9562H160.807V35.7867H165.207C167.019 35.7867 168.339 34.639 168.339 32.8715C168.339 31.1039 167.025 29.9562 165.207 29.9562Z" fill="#141B4D"/>
<path d="M189.242 41.9502H180.557L179.209 45.468H175.693L182.892 27.104H186.907L194.112 45.468H190.59L189.242 41.9502ZM181.463 39.1152H188.347L184.905 29.8471L181.463 39.1152Z" fill="#141B4D"/>
<path d="M198.873 27.1216H207.891C211.246 27.1216 213.116 29.2162 213.116 31.7987C213.162 32.7593 212.871 33.7057 212.292 34.474C211.714 35.2422 210.885 35.7839 209.95 36.0052C211.9 36.3093 213.495 38.2605 213.495 40.5158C213.495 43.3508 211.596 45.4684 208.16 45.4684H198.873V27.1216ZM207.231 34.714C208.883 34.714 209.818 33.7269 209.818 32.3496C209.818 30.9723 208.883 29.9565 207.231 29.9565H202.068V34.714H207.231ZM207.369 42.6334C209.13 42.6334 210.174 41.6751 210.174 40.0797C210.174 38.7024 209.21 37.5489 207.369 37.5489H202.091V42.6334H207.369Z" fill="#141B4D"/>
<path d="M219.444 27.1216H228.461C231.817 27.1216 233.687 29.2162 233.687 31.7987C233.732 32.7625 233.437 33.7114 232.854 34.4801C232.271 35.2488 231.437 35.7885 230.498 36.0052C232.448 36.3093 234.043 38.2605 234.043 40.5158C234.043 43.3508 232.15 45.4684 228.708 45.4684H219.444V27.1216ZM227.801 34.714C229.454 34.714 230.389 33.7269 230.389 32.3496C230.389 30.9723 229.454 29.9565 227.801 29.9565H222.639V34.714H227.801ZM227.939 42.6334C229.7 42.6334 230.744 41.6751 230.744 40.0797C230.744 38.7024 229.78 37.5489 227.939 37.5489H222.662V42.6334H227.939Z" fill="#141B4D"/>
<path d="M240.014 27.1216H243.221V45.4856H240.003L240.014 27.1216Z" fill="#141B4D"/>
<path d="M254.263 29.9565H248.705V27.1216H263.045V29.9565H257.493V45.4512H254.28L254.263 29.9565Z" fill="#141B4D"/>
<defs>
<linearGradient id="paint0_linear_47_2012" x1="11.9717" y1="33.4973" x2="81.9779" y2="33.4973" gradientUnits="userSpaceOnUse">
<stop stop-color="#6656FF"/>
<stop offset="0.19" stop-color="#6152F9"/>
<stop offset="0.44" stop-color="#5248E8"/>
<stop offset="0.72" stop-color="#3B37CC"/>
<stop offset="1" stop-color="#1E22AA"/>
</linearGradient>
</defs>
</svg>
