<svg width="67" height="54" viewBox="0 0 67 54" fill="none" xmlns="http://www.w3.org/2000/svg">
<path d="M29.2539 5.45312C25.9023 9.19141 23.0664 12.9727 20.7461 16.7969C18.4688 20.6211 16.9219 24.4453 16.1055 28.2695C16.707 28.9141 17.416 29.5586 18.2324 30.2031C19.0488 30.8047 19.9297 31.3633 20.875 31.8789C21.8203 32.3945 22.7871 32.8672 23.7754 33.2969C24.8066 33.6836 25.7949 33.9844 26.7402 34.1992C27.084 35.0586 27.3418 36.0039 27.5137 37.0352C27.6855 38.0664 27.7715 39.0762 27.7715 40.0645C27.7715 41.998 27.4062 43.7812 26.6758 45.4141C25.9453 47.0469 24.957 48.4648 23.7109 49.668C22.4648 50.8711 21.0039 51.8164 19.3281 52.5039C17.6953 53.1914 15.9551 53.5352 14.1074 53.5352C12.4316 53.5352 10.7773 53.2344 9.14453 52.6328C7.55469 51.9883 6.11523 51.0215 4.82617 49.7324C3.53711 48.4434 2.48438 46.8105 1.66797 44.834C0.894531 42.8574 0.507812 40.4941 0.507812 37.7441C0.507812 35.3809 0.851562 32.7812 1.53906 29.9453C2.22656 27.1094 3.38672 24.123 5.01953 20.9863C6.65234 17.8496 8.84375 14.584 11.5938 11.1895C14.3438 7.79492 17.7598 4.33594 21.8418 0.8125L29.2539 5.45312ZM66.3145 5.45312C62.9629 9.19141 60.127 12.9727 57.8066 16.7969C55.5293 20.6211 53.9824 24.4453 53.166 28.2695C53.7676 28.9141 54.4766 29.5586 55.293 30.2031C56.1094 30.8047 56.9902 31.3633 57.9355 31.8789C58.8809 32.3945 59.8477 32.8672 60.8359 33.2969C61.8672 33.6836 62.8555 33.9844 63.8008 34.1992C64.1445 35.0586 64.4023 36.0039 64.5742 37.0352C64.7891 38.0664 64.8965 39.0762 64.8965 40.0645C64.8965 41.998 64.5312 43.7812 63.8008 45.4141C63.0703 47.0469 62.0605 48.4648 60.7715 49.668C59.5254 50.8711 58.0645 51.8164 56.3887 52.5039C54.7559 53.1914 53.0371 53.5352 51.2324 53.5352C49.5566 53.5352 47.9023 53.2344 46.2695 52.6328C44.6367 51.9883 43.1758 51.0215 41.8867 49.7324C40.6406 48.4434 39.6094 46.8105 38.793 44.834C38.0195 42.8574 37.6328 40.4941 37.6328 37.7441C37.6328 35.3809 37.9766 32.7812 38.6641 29.9453C39.3516 27.1094 40.5117 24.123 42.1445 20.9863C43.7773 17.8496 45.9473 14.584 48.6543 11.1895C51.4043 7.79492 54.8418 4.33594 58.9668 0.8125L66.3145 5.45312Z" fill="#6656FF"/>
</svg>
